<svg width="340" height="83" viewBox="0 0 340 83" fill="none" xmlns="http://www.w3.org/2000/svg">
<path d="M223.612 59.2734C223.409 57.5938 222.138 56.6278 220.455 56.6278C218.533 56.6278 217.067 57.9844 217.067 60.3636C217.067 62.7358 218.509 64.0994 220.455 64.0994C222.319 64.0994 223.445 62.8601 223.612 61.5213L222.056 61.5142C221.911 62.2919 221.3 62.7393 220.479 62.7393C219.375 62.7393 218.626 61.919 218.626 60.3636C218.626 58.8509 219.364 57.9879 220.49 57.9879C221.332 57.9879 221.939 58.4744 222.056 59.2734H223.612ZM227.172 64.1065C228.521 64.1065 229.43 63.4496 229.643 62.4375L228.244 62.3452C228.091 62.7607 227.701 62.9773 227.196 62.9773C226.44 62.9773 225.961 62.4766 225.961 61.6634V61.6598H229.675V61.2443C229.675 59.3906 228.553 58.4744 227.111 58.4744C225.506 58.4744 224.466 59.6143 224.466 61.2976C224.466 63.027 225.492 64.1065 227.172 64.1065ZM225.961 60.7223C225.993 60.1009 226.465 59.6037 227.136 59.6037C227.793 59.6037 228.248 60.0724 228.251 60.7223H225.961ZM230.662 64H232.175V60.9141C232.175 60.2429 232.665 59.7812 233.333 59.7812C233.542 59.7812 233.83 59.8168 233.972 59.8629V58.5206C233.837 58.4886 233.649 58.4673 233.496 58.4673C232.885 58.4673 232.385 58.8224 232.186 59.4972H232.129V58.5455H230.662V64ZM237.929 58.5455H236.903V57.2386H235.39V58.5455H234.644V59.6818H235.39V62.5227C235.383 63.5916 236.111 64.1207 237.208 64.0746C237.599 64.0604 237.876 63.9822 238.028 63.9325L237.79 62.8068C237.716 62.821 237.556 62.8565 237.414 62.8565C237.112 62.8565 236.903 62.7429 236.903 62.3239V59.6818H237.929V58.5455ZM238.914 64H240.427V58.5455H238.914V64ZM239.674 57.8423C240.125 57.8423 240.494 57.4979 240.494 57.0753C240.494 56.6562 240.125 56.3118 239.674 56.3118C239.227 56.3118 238.857 56.6562 238.857 57.0753C238.857 57.4979 239.227 57.8423 239.674 57.8423ZM244.572 58.5455H243.489V58.1797C243.489 57.8104 243.638 57.5938 244.082 57.5938C244.263 57.5938 244.448 57.6328 244.569 57.6719L244.835 56.5355C244.647 56.4787 244.231 56.3864 243.766 56.3864C242.74 56.3864 241.976 56.9652 241.976 58.1513V58.5455H241.206V59.6818H241.976V64H243.489V59.6818H244.572V58.5455ZM245.496 64H247.009V58.5455H245.496V64ZM246.256 57.8423C246.707 57.8423 247.077 57.4979 247.077 57.0753C247.077 56.6562 246.707 56.3118 246.256 56.3118C245.809 56.3118 245.439 56.6562 245.439 57.0753C245.439 57.4979 245.809 57.8423 246.256 57.8423ZM250.685 64.1065C252.138 64.1065 253.05 63.2543 253.121 62.0007H251.694C251.605 62.5831 251.222 62.9098 250.703 62.9098C249.996 62.9098 249.538 62.3168 249.538 61.2727C249.538 60.2429 250 59.6534 250.703 59.6534C251.257 59.6534 251.612 60.0192 251.694 60.5625H253.121C253.058 59.3018 252.102 58.4744 250.678 58.4744C249.023 58.4744 248.001 59.6214 248.001 61.294C248.001 62.9524 249.006 64.1065 250.685 64.1065ZM255.645 64.103C256.452 64.103 256.974 63.7514 257.24 63.2436H257.282V64H258.717V60.321C258.717 59.0213 257.616 58.4744 256.402 58.4744C255.095 58.4744 254.236 59.0994 254.026 60.0938L255.425 60.2074C255.528 59.8452 255.851 59.5788 256.395 59.5788C256.91 59.5788 257.204 59.8381 257.204 60.2855V60.3068C257.204 60.6584 256.831 60.7045 255.883 60.7969C254.804 60.8963 253.834 61.2585 253.834 62.4766C253.834 63.5561 254.605 64.103 255.645 64.103ZM256.079 63.0589C255.613 63.0589 255.28 62.8423 255.28 62.4268C255.28 62.0007 255.631 61.7912 256.164 61.7166C256.494 61.6705 257.034 61.5923 257.215 61.4716V62.0504C257.215 62.6222 256.743 63.0589 256.079 63.0589ZM262.792 58.5455H261.766V57.2386H260.253V58.5455H259.507V59.6818H260.253V62.5227C260.246 63.5916 260.974 64.1207 262.071 64.0746C262.462 64.0604 262.739 63.9822 262.892 63.9325L262.654 62.8068C262.579 62.821 262.419 62.8565 262.277 62.8565C261.975 62.8565 261.766 62.7429 261.766 62.3239V59.6818H262.792V58.5455ZM266.205 64.1065C267.554 64.1065 268.463 63.4496 268.676 62.4375L267.277 62.3452C267.124 62.7607 266.734 62.9773 266.23 62.9773C265.473 62.9773 264.994 62.4766 264.994 61.6634V61.6598H268.708V61.2443C268.708 59.3906 267.586 58.4744 266.144 58.4744C264.539 58.4744 263.499 59.6143 263.499 61.2976C263.499 63.027 264.525 64.1065 266.205 64.1065ZM264.994 60.7223C265.026 60.1009 265.498 59.6037 266.169 59.6037C266.826 59.6037 267.281 60.0724 267.284 60.7223H264.994ZM274.234 60.1009C274.099 59.0959 273.289 58.4744 271.911 58.4744C270.516 58.4744 269.596 59.1207 269.6 60.1719C269.596 60.9886 270.111 61.5178 271.176 61.7308L272.121 61.919C272.597 62.0149 272.813 62.1889 272.82 62.4624C272.813 62.7855 272.462 63.0163 271.933 63.0163C271.393 63.0163 271.034 62.7855 270.942 62.3416L269.454 62.4197C269.596 63.4638 270.484 64.1065 271.929 64.1065C273.343 64.1065 274.355 63.3857 274.358 62.3097C274.355 61.5213 273.84 61.049 272.781 60.8324L271.794 60.6335C271.286 60.5234 271.098 60.3494 271.102 60.0866C271.098 59.7599 271.468 59.5469 271.936 59.5469C272.462 59.5469 272.774 59.8345 272.849 60.1861L274.234 60.1009ZM279.181 64.103C279.987 64.103 280.509 63.7514 280.775 63.2436H280.818V64H282.252V60.321C282.252 59.0213 281.151 58.4744 279.937 58.4744C278.63 58.4744 277.771 59.0994 277.561 60.0938L278.96 60.2074C279.063 59.8452 279.387 59.5788 279.93 59.5788C280.445 59.5788 280.74 59.8381 280.74 60.2855V60.3068C280.74 60.6584 280.367 60.7045 279.419 60.7969C278.339 60.8963 277.369 61.2585 277.369 62.4766C277.369 63.5561 278.14 64.103 279.181 64.103ZM279.614 63.0589C279.149 63.0589 278.815 62.8423 278.815 62.4268C278.815 62.0007 279.166 61.7912 279.699 61.7166C280.029 61.6705 280.569 61.5923 280.75 61.4716V62.0504C280.75 62.6222 280.278 63.0589 279.614 63.0589ZM287.964 60.1009C287.829 59.0959 287.02 58.4744 285.642 58.4744C284.246 58.4744 283.327 59.1207 283.33 60.1719C283.327 60.9886 283.841 61.5178 284.907 61.7308L285.851 61.919C286.327 62.0149 286.544 62.1889 286.551 62.4624C286.544 62.7855 286.192 63.0163 285.663 63.0163C285.123 63.0163 284.765 62.7855 284.672 62.3416L283.184 62.4197C283.327 63.4638 284.214 64.1065 285.66 64.1065C287.073 64.1065 288.085 63.3857 288.089 62.3097C288.085 61.5213 287.57 61.049 286.512 60.8324L285.525 60.6335C285.017 60.5234 284.829 60.3494 284.832 60.0866C284.829 59.7599 285.198 59.5469 285.667 59.5469C286.192 59.5469 286.505 59.8345 286.579 60.1861L287.964 60.1009ZM220.093 71.1009C219.958 70.0959 219.149 69.4744 217.771 69.4744C216.375 69.4744 215.455 70.1207 215.459 71.1719C215.455 71.9886 215.97 72.5178 217.036 72.7308L217.98 72.919C218.456 73.0149 218.673 73.1889 218.68 73.4624C218.673 73.7855 218.321 74.0163 217.792 74.0163C217.252 74.0163 216.894 73.7855 216.801 73.3416L215.313 73.4197C215.455 74.4638 216.343 75.1065 217.789 75.1065C219.202 75.1065 220.214 74.3857 220.218 73.3097C220.214 72.5213 219.699 72.049 218.641 71.8324L217.654 71.6335C217.146 71.5234 216.958 71.3494 216.961 71.0866C216.958 70.7599 217.327 70.5469 217.796 70.5469C218.321 70.5469 218.634 70.8345 218.708 71.1861L220.093 71.1009ZM223.635 75.1065C225.289 75.1065 226.319 73.9737 226.319 72.294C226.319 70.6037 225.289 69.4744 223.635 69.4744C221.98 69.4744 220.95 70.6037 220.95 72.294C220.95 73.9737 221.98 75.1065 223.635 75.1065ZM223.642 73.9347C222.878 73.9347 222.488 73.2351 222.488 72.2834C222.488 71.3317 222.878 70.6286 223.642 70.6286C224.391 70.6286 224.782 71.3317 224.782 72.2834C224.782 73.2351 224.391 73.9347 223.642 73.9347ZM228.816 67.7273H227.303V75H228.816V67.7273ZM232.513 75.1065C233.863 75.1065 234.772 74.4496 234.985 73.4375L233.586 73.3452C233.433 73.7607 233.042 73.9773 232.538 73.9773C231.782 73.9773 231.302 73.4766 231.302 72.6634V72.6598H235.017V72.2443C235.017 70.3906 233.895 69.4744 232.453 69.4744C230.848 69.4744 229.807 70.6143 229.807 72.2976C229.807 74.027 230.834 75.1065 232.513 75.1065ZM231.302 71.7223C231.334 71.1009 231.807 70.6037 232.478 70.6037C233.135 70.6037 233.589 71.0724 233.593 71.7223H231.302ZM238.319 75H239.831V71.7259C239.831 71.1222 240.215 70.7209 240.719 70.7209C241.216 70.7209 241.55 71.0618 241.55 71.598V75H243.017V71.669C243.017 71.1044 243.34 70.7209 243.89 70.7209C244.373 70.7209 244.735 71.0227 244.735 71.63V75H246.245V71.3317C246.245 70.1491 245.542 69.4744 244.526 69.4744C243.727 69.4744 243.105 69.8828 242.882 70.5078H242.825C242.651 69.8757 242.093 69.4744 241.344 69.4744C240.609 69.4744 240.051 69.8651 239.824 70.5078H239.76V69.5455H238.319V75ZM249.904 75.1065C251.559 75.1065 252.589 73.9737 252.589 72.294C252.589 70.6037 251.559 69.4744 249.904 69.4744C248.249 69.4744 247.219 70.6037 247.219 72.294C247.219 73.9737 248.249 75.1065 249.904 75.1065ZM249.911 73.9347C249.148 73.9347 248.757 73.2351 248.757 72.2834C248.757 71.3317 249.148 70.6286 249.911 70.6286C250.661 70.6286 251.051 71.3317 251.051 72.2834C251.051 73.2351 250.661 73.9347 249.911 73.9347ZM256.474 69.5455H255.447V68.2386H253.935V69.5455H253.189V70.6818H253.935V73.5227C253.928 74.5916 254.656 75.1207 255.753 75.0746C256.143 75.0604 256.42 74.9822 256.573 74.9325L256.335 73.8068C256.261 73.821 256.101 73.8565 255.959 73.8565C255.657 73.8565 255.447 73.7429 255.447 73.3239V70.6818H256.474V69.5455ZM257.459 75H258.972V69.5455H257.459V75ZM258.219 68.8423C258.67 68.8423 259.039 68.4979 259.039 68.0753C259.039 67.6562 258.67 67.3118 258.219 67.3118C257.772 67.3118 257.402 67.6562 257.402 68.0753C257.402 68.4979 257.772 68.8423 258.219 68.8423ZM265.269 69.5455H263.667L262.538 73.4482H262.481L261.349 69.5455H259.751L261.657 75H263.362L265.269 69.5455ZM267.442 75.103C268.248 75.103 268.77 74.7514 269.037 74.2436H269.079V75H270.514V71.321C270.514 70.0213 269.413 69.4744 268.199 69.4744C266.892 69.4744 266.032 70.0994 265.823 71.0938L267.222 71.2074C267.325 70.8452 267.648 70.5788 268.192 70.5788C268.706 70.5788 269.001 70.8381 269.001 71.2855V71.3068C269.001 71.6584 268.628 71.7045 267.68 71.7969C266.601 71.8963 265.631 72.2585 265.631 73.4766C265.631 74.5561 266.402 75.103 267.442 75.103ZM267.876 74.0589C267.41 74.0589 267.077 73.8423 267.077 73.4268C267.077 73.0007 267.428 72.7912 267.961 72.7166C268.291 72.6705 268.831 72.5923 269.012 72.4716V73.0504C269.012 73.6222 268.54 74.0589 267.876 74.0589ZM274.589 69.5455H273.563V68.2386H272.05V69.5455H271.304V70.6818H272.05V73.5227C272.043 74.5916 272.771 75.1207 273.868 75.0746C274.259 75.0604 274.536 74.9822 274.688 74.9325L274.45 73.8068C274.376 73.821 274.216 73.8565 274.074 73.8565C273.772 73.8565 273.563 73.7429 273.563 73.3239V70.6818H274.589V69.5455ZM275.574 75H277.087V69.5455H275.574V75ZM276.334 68.8423C276.785 68.8423 277.155 68.4979 277.155 68.0753C277.155 67.6562 276.785 67.3118 276.334 67.3118C275.887 67.3118 275.518 67.6562 275.518 68.0753C275.518 68.4979 275.887 68.8423 276.334 68.8423ZM280.763 75.1065C282.418 75.1065 283.448 73.9737 283.448 72.294C283.448 70.6037 282.418 69.4744 280.763 69.4744C279.109 69.4744 278.079 70.6037 278.079 72.294C278.079 73.9737 279.109 75.1065 280.763 75.1065ZM280.771 73.9347C280.007 73.9347 279.616 73.2351 279.616 72.2834C279.616 71.3317 280.007 70.6286 280.771 70.6286C281.52 70.6286 281.911 71.3317 281.911 72.2834C281.911 73.2351 281.52 73.9347 280.771 73.9347ZM285.945 71.8466C285.948 71.1435 286.367 70.7315 286.978 70.7315C287.585 70.7315 287.951 71.1293 287.947 71.7969V75H289.46V71.527C289.46 70.2557 288.714 69.4744 287.578 69.4744C286.768 69.4744 286.183 69.8722 285.938 70.5078H285.874V69.5455H284.432V75H285.945V71.8466Z" fill="#323847"/>
<path d="M144.242 56.7273H142.711V61.3011H142.647L139.508 56.7273H138.158V64H139.696V59.4226H139.749L142.913 64H144.242V56.7273ZM147.948 64.1065C149.603 64.1065 150.633 62.9737 150.633 61.294C150.633 59.6037 149.603 58.4744 147.948 58.4744C146.293 58.4744 145.263 59.6037 145.263 61.294C145.263 62.9737 146.293 64.1065 147.948 64.1065ZM147.955 62.9347C147.192 62.9347 146.801 62.2351 146.801 61.2834C146.801 60.3317 147.192 59.6286 147.955 59.6286C148.704 59.6286 149.095 60.3317 149.095 61.2834C149.095 62.2351 148.704 62.9347 147.955 62.9347ZM154.518 58.5455H153.491V57.2386H151.979V58.5455H151.233V59.6818H151.979V62.5227C151.972 63.5916 152.699 64.1207 153.797 64.0746C154.187 64.0604 154.464 63.9822 154.617 63.9325L154.379 62.8068C154.305 62.821 154.145 62.8565 154.003 62.8565C153.701 62.8565 153.491 62.7429 153.491 62.3239V59.6818H154.518V58.5455ZM157.818 64H159.33V60.9141C159.33 60.2429 159.82 59.7812 160.488 59.7812C160.698 59.7812 160.985 59.8168 161.127 59.8629V58.5206C160.992 58.4886 160.804 58.4673 160.651 58.4673C160.041 58.4673 159.54 58.8224 159.341 59.4972H159.284V58.5455H157.818V64ZM164.141 64.1065C165.491 64.1065 166.4 63.4496 166.613 62.4375L165.214 62.3452C165.061 62.7607 164.67 62.9773 164.166 62.9773C163.41 62.9773 162.93 62.4766 162.93 61.6634V61.6598H166.645V61.2443C166.645 59.3906 165.523 58.4744 164.081 58.4744C162.476 58.4744 161.435 59.6143 161.435 61.2976C161.435 63.027 162.462 64.1065 164.141 64.1065ZM162.93 60.7223C162.962 60.1009 163.435 59.6037 164.106 59.6037C164.763 59.6037 165.217 60.0724 165.221 60.7223H162.93ZM172.749 66.0455V58.5455H171.258V59.4616H171.19C170.988 59.0178 170.551 58.4744 169.638 58.4744C168.442 58.4744 167.43 59.4048 167.43 61.2798C167.43 63.1051 168.399 64.0888 169.642 64.0888C170.523 64.0888 170.981 63.581 171.19 63.1264H171.236V66.0455H172.749ZM171.268 61.2727C171.268 62.2457 170.849 62.8849 170.121 62.8849C169.379 62.8849 168.974 62.2244 168.974 61.2727C168.974 60.3281 169.372 59.6783 170.121 59.6783C170.856 59.6783 171.268 60.2997 171.268 61.2727ZM177.458 61.6776C177.462 62.4091 176.961 62.7926 176.418 62.7926C175.846 62.7926 175.476 62.3913 175.473 61.7486V58.5455H173.96V62.0185C173.964 63.2933 174.709 64.071 175.807 64.071C176.627 64.071 177.217 63.6484 177.462 63.0092H177.518V64H178.971V58.5455H177.458V61.6776ZM180.181 64H181.694V58.5455H180.181V64ZM180.941 57.8423C181.392 57.8423 181.761 57.4979 181.761 57.0753C181.761 56.6562 181.392 56.3118 180.941 56.3118C180.493 56.3118 180.124 56.6562 180.124 57.0753C180.124 57.4979 180.493 57.8423 180.941 57.8423ZM182.905 64H184.418V60.9141C184.418 60.2429 184.908 59.7812 185.576 59.7812C185.785 59.7812 186.073 59.8168 186.215 59.8629V58.5206C186.08 58.4886 185.892 58.4673 185.739 58.4673C185.128 58.4673 184.628 58.8224 184.429 59.4972H184.372V58.5455H182.905V64ZM189.229 64.1065C190.579 64.1065 191.488 63.4496 191.701 62.4375L190.302 62.3452C190.149 62.7607 189.758 62.9773 189.254 62.9773C188.498 62.9773 188.018 62.4766 188.018 61.6634V61.6598H191.733V61.2443C191.733 59.3906 190.611 58.4744 189.169 58.4744C187.564 58.4744 186.523 59.6143 186.523 61.2976C186.523 63.027 187.549 64.1065 189.229 64.1065ZM188.018 60.7223C188.05 60.1009 188.522 59.6037 189.194 59.6037C189.851 59.6037 190.305 60.0724 190.309 60.7223H188.018ZM194.73 64.0888C195.611 64.0888 196.069 63.581 196.278 63.1264H196.342V64H197.834V56.7273H196.324V59.4616H196.278C196.076 59.0178 195.639 58.4744 194.726 58.4744C193.53 58.4744 192.517 59.4048 192.517 61.2798C192.517 63.1051 193.487 64.0888 194.73 64.0888ZM195.209 62.8849C194.467 62.8849 194.062 62.2244 194.062 61.2727C194.062 60.3281 194.46 59.6783 195.209 59.6783C195.944 59.6783 196.356 60.2997 196.356 61.2727C196.356 62.2457 195.937 62.8849 195.209 62.8849ZM152.944 75H154.435V74.1264H154.503C154.712 74.581 155.17 75.0888 156.051 75.0888C157.294 75.0888 158.263 74.1051 158.263 72.2798C158.263 70.4048 157.251 69.4744 156.054 69.4744C155.142 69.4744 154.705 70.0178 154.503 70.4616H154.456V67.7273H152.944V75ZM154.424 72.2727C154.424 71.2997 154.836 70.6783 155.571 70.6783C156.321 70.6783 156.718 71.3281 156.718 72.2727C156.718 73.2244 156.314 73.8849 155.571 73.8849C154.843 73.8849 154.424 73.2457 154.424 72.2727ZM160.021 77.0455C161.147 77.0455 161.743 76.4702 162.052 75.5895L164.172 69.5526L162.571 69.5455L161.431 73.5511H161.374L160.245 69.5455H158.654L160.611 75.1562L160.522 75.3871C160.323 75.8984 159.943 75.9233 159.41 75.7599L159.069 76.8892C159.286 76.9815 159.638 77.0455 160.021 77.0455ZM168.774 67.7273H167.261V75H168.774V67.7273ZM171.541 75.103C172.347 75.103 172.869 74.7514 173.135 74.2436H173.178V75H174.613V71.321C174.613 70.0213 173.512 69.4744 172.297 69.4744C170.991 69.4744 170.131 70.0994 169.922 71.0938L171.321 71.2074C171.424 70.8452 171.747 70.5788 172.29 70.5788C172.805 70.5788 173.1 70.8381 173.1 71.2855V71.3068C173.1 71.6584 172.727 71.7045 171.779 71.7969C170.699 71.8963 169.73 72.2585 169.73 73.4766C169.73 74.5561 170.5 75.103 171.541 75.103ZM171.974 74.0589C171.509 74.0589 171.175 73.8423 171.175 73.4268C171.175 73.0007 171.527 72.7912 172.059 72.7166C172.39 72.6705 172.929 72.5923 173.111 72.4716V73.0504C173.111 73.6222 172.638 74.0589 171.974 74.0589ZM176.862 75H178.46L179.398 71.5696H179.465L180.403 75H182.004L183.485 69.5455H181.958L181.127 73.1889H181.081L180.186 69.5455H178.684L177.803 73.2102H177.754L176.908 69.5455H175.378L176.862 75Z" fill="#323847"/>
<path d="M54.6937 56.7273H53.1632V61.3011H53.0993L49.96 56.7273H48.6106V64H50.1483V59.4226H50.2015L53.3656 64H54.6937V56.7273ZM58.4002 64.1065C60.055 64.1065 61.0849 62.9737 61.0849 61.294C61.0849 59.6037 60.055 58.4744 58.4002 58.4744C56.7454 58.4744 55.7156 59.6037 55.7156 61.294C55.7156 62.9737 56.7454 64.1065 58.4002 64.1065ZM58.4073 62.9347C57.6438 62.9347 57.2532 62.2351 57.2532 61.2834C57.2532 60.3317 57.6438 59.6286 58.4073 59.6286C59.1566 59.6286 59.5472 60.3317 59.5472 61.2834C59.5472 62.2351 59.1566 62.9347 58.4073 62.9347ZM64.9698 58.5455H63.9435V57.2386H62.4308V58.5455H61.685V59.6818H62.4308V62.5227C62.4237 63.5916 63.1516 64.1207 64.2489 64.0746C64.6396 64.0604 64.9165 63.9822 65.0692 63.9325L64.8313 62.8068C64.7567 62.821 64.5969 62.8565 64.4549 62.8565C64.1531 62.8565 63.9435 62.7429 63.9435 62.3239V59.6818H64.9698V58.5455ZM70.7342 64.1065C72.389 64.1065 73.4189 62.9737 73.4189 61.294C73.4189 59.6037 72.389 58.4744 70.7342 58.4744C69.0794 58.4744 68.0495 59.6037 68.0495 61.294C68.0495 62.9737 69.0794 64.1065 70.7342 64.1065ZM70.7413 62.9347C69.9778 62.9347 69.5872 62.2351 69.5872 61.2834C69.5872 60.3317 69.9778 59.6286 70.7413 59.6286C71.4906 59.6286 71.8812 60.3317 71.8812 61.2834C71.8812 62.2351 71.4906 62.9347 70.7413 62.9347ZM77.3038 58.5455H76.2775V57.2386H74.7647V58.5455H74.019V59.6818H74.7647V62.5227C74.7576 63.5916 75.4856 64.1207 76.5829 64.0746C76.9735 64.0604 77.2505 63.9822 77.4032 63.9325L77.1653 62.8068C77.0907 62.821 76.9309 62.8565 76.7889 62.8565C76.487 62.8565 76.2775 62.7429 76.2775 62.3239V59.6818H77.3038V58.5455ZM79.9192 60.8466C79.9228 60.1435 80.3525 59.7315 80.9703 59.7315C81.5847 59.7315 81.9469 60.1257 81.9434 60.7969V64H83.4561V60.527C83.4597 59.2486 82.7069 58.4744 81.5705 58.4744C80.7431 58.4744 80.1891 58.8651 79.9405 59.5078H79.8766V56.7273H78.4064V64H79.9192V60.8466ZM87.1325 64.1065C88.4819 64.1065 89.391 63.4496 89.604 62.4375L88.2049 62.3452C88.0522 62.7607 87.6616 62.9773 87.1573 62.9773C86.4009 62.9773 85.9215 62.4766 85.9215 61.6634V61.6598H89.636V61.2443C89.636 59.3906 88.5138 58.4744 87.0721 58.4744C85.467 58.4744 84.4265 59.6143 84.4265 61.2976C84.4265 63.027 85.4528 64.1065 87.1325 64.1065ZM85.9215 60.7223C85.9535 60.1009 86.4258 59.6037 87.0969 59.6037C87.7539 59.6037 88.2085 60.0724 88.212 60.7223H85.9215ZM90.6232 64H92.136V60.9141C92.136 60.2429 92.6261 59.7812 93.2937 59.7812C93.5032 59.7812 93.7908 59.8168 93.9329 59.8629V58.5206C93.7979 58.4886 93.6097 58.4673 93.457 58.4673C92.8462 58.4673 92.3455 58.8224 92.1467 59.4972H92.0898V58.5455H90.6232V64ZM95.8789 64H97.4769L98.4144 60.5696H98.4819L99.4194 64H101.021L102.502 58.5455H100.975L100.144 62.1889H100.098L99.2028 58.5455H97.7006L96.82 62.2102H96.7702L95.9251 58.5455H94.3945L95.8789 64ZM103.309 64H104.822V58.5455H103.309V64ZM104.069 57.8423C104.52 57.8423 104.889 57.4979 104.889 57.0753C104.889 56.6562 104.52 56.3118 104.069 56.3118C103.621 56.3118 103.252 56.6562 103.252 57.0753C103.252 57.4979 103.621 57.8423 104.069 57.8423ZM110.572 60.1009C110.437 59.0959 109.627 58.4744 108.249 58.4744C106.854 58.4744 105.934 59.1207 105.938 60.1719C105.934 60.9886 106.449 61.5178 107.514 61.7308L108.459 61.919C108.935 62.0149 109.151 62.1889 109.158 62.4624C109.151 62.7855 108.8 63.0163 108.271 63.0163C107.731 63.0163 107.372 62.7855 107.28 62.3416L105.792 62.4197C105.934 63.4638 106.822 64.1065 108.267 64.1065C109.68 64.1065 110.692 63.3857 110.696 62.3097C110.692 61.5213 110.178 61.049 109.119 60.8324L108.132 60.6335C107.624 60.5234 107.436 60.3494 107.44 60.0866C107.436 59.7599 107.805 59.5469 108.274 59.5469C108.8 59.5469 109.112 59.8345 109.187 60.1861L110.572 60.1009ZM114.134 64.1065C115.484 64.1065 116.393 63.4496 116.606 62.4375L115.207 62.3452C115.054 62.7607 114.664 62.9773 114.159 62.9773C113.403 62.9773 112.923 62.4766 112.923 61.6634V61.6598H116.638V61.2443C116.638 59.3906 115.516 58.4744 114.074 58.4744C112.469 58.4744 111.428 59.6143 111.428 61.2976C111.428 63.027 112.455 64.1065 114.134 64.1065ZM112.923 60.7223C112.955 60.1009 113.428 59.6037 114.099 59.6037C114.756 59.6037 115.21 60.0724 115.214 60.7223H112.923ZM59.2902 77.0455H60.803V74.1264H60.8492C61.0587 74.581 61.5168 75.0888 62.3975 75.0888C63.6404 75.0888 64.6098 74.1051 64.6098 72.2798C64.6098 70.4048 63.5977 69.4744 62.401 69.4744C61.4884 69.4744 61.0516 70.0178 60.8492 70.4616H60.7817V69.5455H59.2902V77.0455ZM60.771 72.2727C60.771 71.2997 61.183 70.6783 61.9181 70.6783C62.6673 70.6783 63.0651 71.3281 63.0651 72.2727C63.0651 73.2244 62.6602 73.8849 61.9181 73.8849C61.1901 73.8849 60.771 73.2457 60.771 72.2727ZM65.6183 75H67.1311V71.9141C67.1311 71.2429 67.6212 70.7812 68.2888 70.7812C68.4983 70.7812 68.786 70.8168 68.928 70.8629V69.5206C68.7931 69.4886 68.6048 69.4673 68.4521 69.4673C67.8414 69.4673 67.3406 69.8224 67.1418 70.4972H67.085V69.5455H65.6183V75ZM71.9207 75.1065C73.5756 75.1065 74.6054 73.9737 74.6054 72.294C74.6054 70.6037 73.5756 69.4744 71.9207 69.4744C70.2659 69.4744 69.2361 70.6037 69.2361 72.294C69.2361 73.9737 70.2659 75.1065 71.9207 75.1065ZM71.9278 73.9347C71.1643 73.9347 70.7737 73.2351 70.7737 72.2834C70.7737 71.3317 71.1643 70.6286 71.9278 70.6286C72.6771 70.6286 73.0677 71.3317 73.0677 72.2834C73.0677 73.2351 72.6771 73.9347 71.9278 73.9347ZM78.5223 69.5455H77.4392V69.1797C77.4392 68.8104 77.5883 68.5938 78.0322 68.5938C78.2133 68.5938 78.398 68.6328 78.5187 68.6719L78.7851 67.5355C78.5969 67.4787 78.1814 67.3864 77.7162 67.3864C76.6899 67.3864 75.9264 67.9652 75.9264 69.1513V69.5455H75.1558V70.6818H75.9264V75H77.4392V70.6818H78.5223V69.5455ZM79.4465 75H80.9593V69.5455H79.4465V75ZM80.2064 68.8423C80.6574 68.8423 81.0267 68.4979 81.0267 68.0753C81.0267 67.6562 80.6574 67.3118 80.2064 67.3118C79.759 67.3118 79.3896 67.6562 79.3896 68.0753C79.3896 68.4979 79.759 68.8423 80.2064 68.8423ZM85.0724 69.5455H84.0461V68.2386H82.5333V69.5455H81.7876V70.6818H82.5333V73.5227C82.5262 74.5916 83.2542 75.1207 84.3515 75.0746C84.7421 75.0604 85.0191 74.9822 85.1718 74.9325L84.9339 73.8068C84.8593 73.821 84.6995 73.8565 84.5574 73.8565C84.2556 73.8565 84.0461 73.7429 84.0461 73.3239V70.6818H85.0724V69.5455ZM87.6132 75.103C88.4193 75.103 88.9413 74.7514 89.2077 74.2436H89.2503V75H90.6849V71.321C90.6849 70.0213 89.5841 69.4744 88.3696 69.4744C87.0628 69.4744 86.2034 70.0994 85.9939 71.0938L87.393 71.2074C87.496 70.8452 87.8192 70.5788 88.3625 70.5788C88.8774 70.5788 89.1721 70.8381 89.1721 71.2855V71.3068C89.1721 71.6584 88.7993 71.7045 87.8511 71.7969C86.7716 71.8963 85.8021 72.2585 85.8021 73.4766C85.8021 74.5561 86.5727 75.103 87.6132 75.103ZM88.0464 74.0589C87.5812 74.0589 87.2474 73.8423 87.2474 73.4268C87.2474 73.0007 87.599 72.7912 88.1317 72.7166C88.4619 72.6705 89.0017 72.5923 89.1828 72.4716V73.0504C89.1828 73.6222 88.7105 74.0589 88.0464 74.0589ZM91.887 75H93.3785V74.1264H93.4459C93.6555 74.581 94.1135 75.0888 94.9942 75.0888C96.2371 75.0888 97.2066 74.1051 97.2066 72.2798C97.2066 70.4048 96.1945 69.4744 94.9978 69.4744C94.0851 69.4744 93.6483 70.0178 93.4459 70.4616H93.3998V67.7273H91.887V75ZM93.3678 72.2727C93.3678 71.2997 93.7797 70.6783 94.5148 70.6783C95.2641 70.6783 95.6618 71.3281 95.6618 72.2727C95.6618 73.2244 95.257 73.8849 94.5148 73.8849C93.7868 73.8849 93.3678 73.2457 93.3678 72.2727ZM99.7288 67.7273H98.216V75H99.7288V67.7273ZM103.426 75.1065C104.776 75.1065 105.685 74.4496 105.898 73.4375L104.499 73.3452C104.346 73.7607 103.956 73.9773 103.451 73.9773C102.695 73.9773 102.215 73.4766 102.215 72.6634V72.6598H105.93V72.2443C105.93 70.3906 104.808 69.4744 103.366 69.4744C101.761 69.4744 100.72 70.6143 100.72 72.2976C100.72 74.027 101.747 75.1065 103.426 75.1065ZM102.215 71.7223C102.247 71.1009 102.72 70.6037 103.391 70.6037C104.048 70.6037 104.502 71.0724 104.506 71.7223H102.215Z" fill="#323847"/>
<path fill-rule="evenodd" clip-rule="evenodd" d="M237 15.5H268V24.0835C266.949 23.5504 265.759 23.25 264.5 23.25C260.22 23.25 256.75 26.7198 256.75 31C256.75 32.678 257.283 34.2314 258.19 35.5H237V15.5ZM260.25 37.4818V43.2865L264.165 41.3292L264.5 41.1615L264.835 41.3292L268.75 43.2865V37.4818C267.53 38.2836 266.069 38.75 264.5 38.75C262.931 38.75 261.47 38.2836 260.25 37.4818ZM270.25 36.1962V36.5V44.5V45.7135L269.165 45.1708L264.5 42.8385L259.835 45.1708L258.75 45.7135V44.5V37H237H235.5V35.5V15.5V14H237H268H269.5V15.5V25.0784C271.182 26.5 272.25 28.6253 272.25 31C272.25 32.9992 271.493 34.8216 270.25 36.1962ZM264.5 20.25H240.5V18.75H264.5V20.25ZM259.5 23.25H244.5V21.75H259.5V23.25ZM258.25 31C258.25 27.5482 261.048 24.75 264.5 24.75C267.952 24.75 270.75 27.5482 270.75 31C270.75 34.4518 267.952 37.25 264.5 37.25C261.048 37.25 258.25 34.4518 258.25 31ZM264.5 27.75C262.705 27.75 261.25 29.2051 261.25 31C261.25 32.7949 262.705 34.25 264.5 34.25C266.295 34.25 267.75 32.7949 267.75 31C267.75 29.2051 266.295 27.75 264.5 27.75ZM259.75 31C259.75 28.3766 261.877 26.25 264.5 26.25C267.123 26.25 269.25 28.3766 269.25 31C269.25 33.6234 267.123 35.75 264.5 35.75C261.877 35.75 259.75 33.6234 259.75 31ZM239.5 33.25H250.5V31.75H239.5V33.25ZM276.5 48.75H228.5V47.25H276.5V48.75Z" fill="#323847"/>
<path fill-rule="evenodd" clip-rule="evenodd" d="M164.5 5.25H163.75V6V10.5H163.794C162.473 11.2962 161.531 12.6579 161.303 14.25H147V15.75H153.536L153.329 16.1646L147.329 28.1646L147.25 28.3229V28.5C147.25 32.2833 150.554 35.25 154.5 35.25C158.446 35.25 161.75 32.2833 161.75 28.5V28.3229L161.671 28.1646L155.671 16.1646L155.464 15.75H161.303C161.528 17.3243 162.452 18.6733 163.75 19.473V43.7503H154.5H153.75V44.5003V47.25H143V48.75H176.198C175.94 48.2721 175.719 47.7708 175.54 47.25H155.25V45.2503H164.5H168.5H175.077C175.026 44.8407 175 44.4234 175 44C175 43.9165 175.001 43.8333 175.003 43.7503H169.25V19.473C170.548 18.6733 171.472 17.3243 171.697 15.75H177.536L177.329 16.1646L171.329 28.1646L171.25 28.3229V28.5C171.25 32.2833 174.554 35.25 178.5 35.25C179.359 35.25 180.187 35.1095 180.958 34.8506C181.199 34.7439 181.445 34.6465 181.696 34.5588C184.08 33.4674 185.75 31.1902 185.75 28.5V28.3229L185.671 28.1646L179.671 16.1646L179.464 15.75H186V14.25H171.697C171.469 12.6579 170.527 11.2962 169.206 10.5H169.25V6V5.25H168.5H164.5ZM167.75 9.89972V6.75H165.25V9.89972C165.651 9.80188 166.069 9.75 166.5 9.75C166.931 9.75 167.349 9.80188 167.75 9.89972ZM166.5 11.25C164.429 11.25 162.75 12.9289 162.75 15C162.75 17.0711 164.429 18.75 166.5 18.75C168.571 18.75 170.25 17.0711 170.25 15C170.25 12.9289 168.571 11.25 166.5 11.25ZM166.5 20.25C166.931 20.25 167.349 20.1981 167.75 20.1003V43.7503H165.25V20.1003C165.651 20.1981 166.069 20.25 166.5 20.25ZM165.75 15C165.75 14.5858 166.086 14.25 166.5 14.25C166.914 14.25 167.25 14.5858 167.25 15C167.25 15.4142 166.914 15.75 166.5 15.75C166.086 15.75 165.75 15.4142 165.75 15ZM166.5 12.75C165.257 12.75 164.25 13.7574 164.25 15C164.25 16.2426 165.257 17.25 166.5 17.25C167.743 17.25 168.75 16.2426 168.75 15C168.75 13.7574 167.743 12.75 166.5 12.75ZM149.214 27.75L154.464 17.25H154.536L159.786 27.75H149.214ZM148.809 29.25C149.205 31.7546 151.555 33.75 154.5 33.75C157.445 33.75 159.795 31.7546 160.191 29.25H148.809ZM173.214 27.75H183.786L178.536 17.25H178.464L173.214 27.75ZM172.809 29.25C173.205 31.7546 175.555 33.75 178.5 33.75C181.445 33.75 183.795 31.7546 184.191 29.25H172.809Z" fill="#323847"/>
<path fill-rule="evenodd" clip-rule="evenodd" d="M190.007 40.6925C190.635 41.6408 191 42.7777 191 44C191 47.3137 188.314 50 185 50C183.778 50 182.641 49.6345 181.693 49.0068L190.007 40.6925ZM188.641 39.2303C187.631 38.4585 186.369 38 185 38C181.686 38 179 40.6863 179 44C179 45.369 179.459 46.631 180.23 47.6406L188.641 39.2303ZM193 44C193 39.5817 189.418 36 185 36C180.582 36 177 39.5817 177 44C177 48.4183 180.582 52 185 52C189.418 52 193 48.4183 193 44Z" fill="#D6234E"/>
<path fill-rule="evenodd" clip-rule="evenodd" d="M95 8.25H101.5H102.25V9V15.5H100.75V10.8107L85.5303 26.0303L85 26.5607L84.4697 26.0303L79.5 21.0607L70.5303 30.0303L70 30.5607L69.4697 30.0303L66 26.5607L61.5303 31.0303L60.4697 29.9697L65.4697 24.9697L66 24.4393L66.5303 24.9697L70 28.4393L78.9697 19.4697L79.5 18.9393L80.0303 19.4697L85 24.4393L99.6893 9.75H95V8.25ZM91.25 24.25H92H100H100.75V25V34.0277C100.502 34.0093 100.252 34 100 34C99.7477 34 99.4976 34.0093 99.25 34.0277V25.75H92.75V37.1125C92.1681 37.7248 91.663 38.4108 91.25 39.155V25V24.25ZM90.54 47.25H86.75V32V31.25H86H78H77.25V32V47.25H72.75V39V38.25H72H64H63.25V39V47.25H58V48.75H63.25H64H72H72.75H77.25H78H86H86.75H91.198C90.9395 48.2721 90.7188 47.7708 90.54 47.25ZM85.25 47.25V32.75H78.75V47.25H85.25ZM71.25 47.25V39.75H64.75V47.25H71.25Z" fill="#323847"/>
<path fill-rule="evenodd" clip-rule="evenodd" d="M105.007 40.6925C105.635 41.6408 106 42.7777 106 44C106 47.3137 103.314 50 100 50C98.7777 50 97.6408 49.6345 96.6925 49.0068L105.007 40.6925ZM103.641 39.2303C102.631 38.4585 101.369 38 100 38C96.6863 38 94 40.6863 94 44C94 45.369 94.4585 46.631 95.2303 47.6406L103.641 39.2303ZM108 44C108 39.5817 104.418 36 100 36C95.5817 36 92 39.5817 92 44C92 48.4183 95.5817 52 100 52C104.418 52 108 48.4183 108 44Z" fill="#D6234E"/>
</svg>
