<svg width="340" height="74" viewBox="0 0 340 74" fill="none" xmlns="http://www.w3.org/2000/svg">
<path d="M57.1937 51.7273H55.6632V56.3011H55.5993L52.46 51.7273H51.1106V59H52.6483V54.4226H52.7015L55.8656 59H57.1937V51.7273ZM60.9002 59.1065C62.555 59.1065 63.5849 57.9737 63.5849 56.294C63.5849 54.6037 62.555 53.4744 60.9002 53.4744C59.2454 53.4744 58.2156 54.6037 58.2156 56.294C58.2156 57.9737 59.2454 59.1065 60.9002 59.1065ZM60.9073 57.9347C60.1438 57.9347 59.7532 57.2351 59.7532 56.2834C59.7532 55.3317 60.1438 54.6286 60.9073 54.6286C61.6566 54.6286 62.0472 55.3317 62.0472 56.2834C62.0472 57.2351 61.6566 57.9347 60.9073 57.9347ZM67.4698 53.5455H66.4435V52.2386H64.9308V53.5455H64.185V54.6818H64.9308V57.5227C64.9237 58.5916 65.6516 59.1207 66.7489 59.0746C67.1396 59.0604 67.4165 58.9822 67.5692 58.9325L67.3313 57.8068C67.2567 57.821 67.0969 57.8565 66.9549 57.8565C66.6531 57.8565 66.4435 57.7429 66.4435 57.3239V54.6818H67.4698V53.5455ZM73.2342 59.1065C74.889 59.1065 75.9189 57.9737 75.9189 56.294C75.9189 54.6037 74.889 53.4744 73.2342 53.4744C71.5794 53.4744 70.5495 54.6037 70.5495 56.294C70.5495 57.9737 71.5794 59.1065 73.2342 59.1065ZM73.2413 57.9347C72.4778 57.9347 72.0872 57.2351 72.0872 56.2834C72.0872 55.3317 72.4778 54.6286 73.2413 54.6286C73.9906 54.6286 74.3812 55.3317 74.3812 56.2834C74.3812 57.2351 73.9906 57.9347 73.2413 57.9347ZM79.8038 53.5455H78.7775V52.2386H77.2647V53.5455H76.519V54.6818H77.2647V57.5227C77.2576 58.5916 77.9856 59.1207 79.0829 59.0746C79.4735 59.0604 79.7505 58.9822 79.9032 58.9325L79.6653 57.8068C79.5907 57.821 79.4309 57.8565 79.2889 57.8565C78.987 57.8565 78.7775 57.7429 78.7775 57.3239V54.6818H79.8038V53.5455ZM82.4192 55.8466C82.4228 55.1435 82.8525 54.7315 83.4703 54.7315C84.0847 54.7315 84.4469 55.1257 84.4434 55.7969V59H85.9561V55.527C85.9597 54.2486 85.2069 53.4744 84.0705 53.4744C83.2431 53.4744 82.6891 53.8651 82.4405 54.5078H82.3766V51.7273H80.9064V59H82.4192V55.8466ZM89.6325 59.1065C90.9819 59.1065 91.891 58.4496 92.104 57.4375L90.7049 57.3452C90.5522 57.7607 90.1616 57.9773 89.6573 57.9773C88.9009 57.9773 88.4215 57.4766 88.4215 56.6634V56.6598H92.136V56.2443C92.136 54.3906 91.0138 53.4744 89.5721 53.4744C87.967 53.4744 86.9265 54.6143 86.9265 56.2976C86.9265 58.027 87.9528 59.1065 89.6325 59.1065ZM88.4215 55.7223C88.4535 55.1009 88.9258 54.6037 89.5969 54.6037C90.2539 54.6037 90.7085 55.0724 90.712 55.7223H88.4215ZM93.1232 59H94.636V55.9141C94.636 55.2429 95.1261 54.7812 95.7937 54.7812C96.0032 54.7812 96.2908 54.8168 96.4329 54.8629V53.5206C96.2979 53.4886 96.1097 53.4673 95.957 53.4673C95.3462 53.4673 94.8455 53.8224 94.6467 54.4972H94.5898V53.5455H93.1232V59ZM98.3789 59H99.9769L100.914 55.5696H100.982L101.919 59H103.521L105.002 53.5455H103.475L102.644 57.1889H102.598L101.703 53.5455H100.201L99.32 57.2102H99.2702L98.4251 53.5455H96.8945L98.3789 59ZM105.809 59H107.322V53.5455H105.809V59ZM106.569 52.8423C107.02 52.8423 107.389 52.4979 107.389 52.0753C107.389 51.6562 107.02 51.3118 106.569 51.3118C106.121 51.3118 105.752 51.6562 105.752 52.0753C105.752 52.4979 106.121 52.8423 106.569 52.8423ZM113.072 55.1009C112.937 54.0959 112.127 53.4744 110.749 53.4744C109.354 53.4744 108.434 54.1207 108.438 55.1719C108.434 55.9886 108.949 56.5178 110.014 56.7308L110.959 56.919C111.435 57.0149 111.651 57.1889 111.658 57.4624C111.651 57.7855 111.3 58.0163 110.771 58.0163C110.231 58.0163 109.872 57.7855 109.78 57.3416L108.292 57.4197C108.434 58.4638 109.322 59.1065 110.767 59.1065C112.18 59.1065 113.192 58.3857 113.196 57.3097C113.192 56.5213 112.678 56.049 111.619 55.8324L110.632 55.6335C110.124 55.5234 109.936 55.3494 109.94 55.0866C109.936 54.7599 110.305 54.5469 110.774 54.5469C111.3 54.5469 111.612 54.8345 111.687 55.1861L113.072 55.1009ZM116.634 59.1065C117.984 59.1065 118.893 58.4496 119.106 57.4375L117.707 57.3452C117.554 57.7607 117.164 57.9773 116.659 57.9773C115.903 57.9773 115.423 57.4766 115.423 56.6634V56.6598H119.138V56.2443C119.138 54.3906 118.016 53.4744 116.574 53.4744C114.969 53.4744 113.928 54.6143 113.928 56.2976C113.928 58.027 114.955 59.1065 116.634 59.1065ZM115.423 55.7223C115.455 55.1009 115.928 54.6037 116.599 54.6037C117.256 54.6037 117.71 55.0724 117.714 55.7223H115.423ZM61.7902 72.0455H63.303V69.1264H63.3492C63.5587 69.581 64.0168 70.0888 64.8975 70.0888C66.1404 70.0888 67.1098 69.1051 67.1098 67.2798C67.1098 65.4048 66.0977 64.4744 64.901 64.4744C63.9884 64.4744 63.5516 65.0178 63.3492 65.4616H63.2817V64.5455H61.7902V72.0455ZM63.271 67.2727C63.271 66.2997 63.683 65.6783 64.4181 65.6783C65.1673 65.6783 65.5651 66.3281 65.5651 67.2727C65.5651 68.2244 65.1602 68.8849 64.4181 68.8849C63.6901 68.8849 63.271 68.2457 63.271 67.2727ZM68.1183 70H69.6311V66.9141C69.6311 66.2429 70.1212 65.7812 70.7888 65.7812C70.9983 65.7812 71.286 65.8168 71.428 65.8629V64.5206C71.2931 64.4886 71.1048 64.4673 70.9521 64.4673C70.3414 64.4673 69.8406 64.8224 69.6418 65.4972H69.585V64.5455H68.1183V70ZM74.4207 70.1065C76.0756 70.1065 77.1054 68.9737 77.1054 67.294C77.1054 65.6037 76.0756 64.4744 74.4207 64.4744C72.7659 64.4744 71.7361 65.6037 71.7361 67.294C71.7361 68.9737 72.7659 70.1065 74.4207 70.1065ZM74.4278 68.9347C73.6643 68.9347 73.2737 68.2351 73.2737 67.2834C73.2737 66.3317 73.6643 65.6286 74.4278 65.6286C75.1771 65.6286 75.5677 66.3317 75.5677 67.2834C75.5677 68.2351 75.1771 68.9347 74.4278 68.9347ZM81.0223 64.5455H79.9392V64.1797C79.9392 63.8104 80.0883 63.5938 80.5322 63.5938C80.7133 63.5938 80.898 63.6328 81.0187 63.6719L81.2851 62.5355C81.0969 62.4787 80.6814 62.3864 80.2162 62.3864C79.1899 62.3864 78.4264 62.9652 78.4264 64.1513V64.5455H77.6558V65.6818H78.4264V70H79.9392V65.6818H81.0223V64.5455ZM81.9465 70H83.4593V64.5455H81.9465V70ZM82.7064 63.8423C83.1574 63.8423 83.5267 63.4979 83.5267 63.0753C83.5267 62.6562 83.1574 62.3118 82.7064 62.3118C82.259 62.3118 81.8896 62.6562 81.8896 63.0753C81.8896 63.4979 82.259 63.8423 82.7064 63.8423ZM87.5724 64.5455H86.5461V63.2386H85.0333V64.5455H84.2876V65.6818H85.0333V68.5227C85.0262 69.5916 85.7542 70.1207 86.8515 70.0746C87.2421 70.0604 87.5191 69.9822 87.6718 69.9325L87.4339 68.8068C87.3593 68.821 87.1995 68.8565 87.0574 68.8565C86.7556 68.8565 86.5461 68.7429 86.5461 68.3239V65.6818H87.5724V64.5455ZM90.1132 70.103C90.9193 70.103 91.4413 69.7514 91.7077 69.2436H91.7503V70H93.1849V66.321C93.1849 65.0213 92.0841 64.4744 90.8696 64.4744C89.5628 64.4744 88.7034 65.0994 88.4939 66.0938L89.893 66.2074C89.996 65.8452 90.3192 65.5788 90.8625 65.5788C91.3774 65.5788 91.6721 65.8381 91.6721 66.2855V66.3068C91.6721 66.6584 91.2993 66.7045 90.3511 66.7969C89.2716 66.8963 88.3021 67.2585 88.3021 68.4766C88.3021 69.5561 89.0727 70.103 90.1132 70.103ZM90.5464 69.0589C90.0812 69.0589 89.7474 68.8423 89.7474 68.4268C89.7474 68.0007 90.099 67.7912 90.6317 67.7166C90.9619 67.6705 91.5017 67.5923 91.6828 67.4716V68.0504C91.6828 68.6222 91.2105 69.0589 90.5464 69.0589ZM94.387 70H95.8785V69.1264H95.9459C96.1555 69.581 96.6135 70.0888 97.4942 70.0888C98.7371 70.0888 99.7066 69.1051 99.7066 67.2798C99.7066 65.4048 98.6945 64.4744 97.4978 64.4744C96.5851 64.4744 96.1483 65.0178 95.9459 65.4616H95.8998V62.7273H94.387V70ZM95.8678 67.2727C95.8678 66.2997 96.2797 65.6783 97.0148 65.6783C97.7641 65.6783 98.1618 66.3281 98.1618 67.2727C98.1618 68.2244 97.757 68.8849 97.0148 68.8849C96.2868 68.8849 95.8678 68.2457 95.8678 67.2727ZM102.229 62.7273H100.716V70H102.229V62.7273ZM105.926 70.1065C107.276 70.1065 108.185 69.4496 108.398 68.4375L106.999 68.3452C106.846 68.7607 106.456 68.9773 105.951 68.9773C105.195 68.9773 104.715 68.4766 104.715 67.6634V67.6598H108.43V67.2443C108.43 65.3906 107.308 64.4744 105.866 64.4744C104.261 64.4744 103.22 65.6143 103.22 67.2976C103.22 69.027 104.247 70.1065 105.926 70.1065ZM104.715 66.7223C104.747 66.1009 105.22 65.6037 105.891 65.6037C106.548 65.6037 107.002 66.0724 107.006 66.7223H104.715Z" fill="#323847"/>
<path d="M226.112 54.2734C225.909 52.5938 224.638 51.6278 222.955 51.6278C221.033 51.6278 219.567 52.9844 219.567 55.3636C219.567 57.7358 221.009 59.0994 222.955 59.0994C224.819 59.0994 225.945 57.8601 226.112 56.5213L224.556 56.5142C224.411 57.2919 223.8 57.7393 222.979 57.7393C221.875 57.7393 221.126 56.919 221.126 55.3636C221.126 53.8509 221.864 52.9879 222.99 52.9879C223.832 52.9879 224.439 53.4744 224.556 54.2734H226.112ZM229.672 59.1065C231.021 59.1065 231.93 58.4496 232.143 57.4375L230.744 57.3452C230.591 57.7607 230.201 57.9773 229.696 57.9773C228.94 57.9773 228.461 57.4766 228.461 56.6634V56.6598H232.175V56.2443C232.175 54.3906 231.053 53.4744 229.611 53.4744C228.006 53.4744 226.966 54.6143 226.966 56.2976C226.966 58.027 227.992 59.1065 229.672 59.1065ZM228.461 55.7223C228.493 55.1009 228.965 54.6037 229.636 54.6037C230.293 54.6037 230.748 55.0724 230.751 55.7223H228.461ZM233.162 59H234.675V55.9141C234.675 55.2429 235.165 54.7812 235.833 54.7812C236.042 54.7812 236.33 54.8168 236.472 54.8629V53.5206C236.337 53.4886 236.149 53.4673 235.996 53.4673C235.385 53.4673 234.885 53.8224 234.686 54.4972H234.629V53.5455H233.162V59ZM240.429 53.5455H239.403V52.2386H237.89V53.5455H237.144V54.6818H237.89V57.5227C237.883 58.5916 238.611 59.1207 239.708 59.0746C240.099 59.0604 240.376 58.9822 240.528 58.9325L240.29 57.8068C240.216 57.821 240.056 57.8565 239.914 57.8565C239.612 57.8565 239.403 57.7429 239.403 57.3239V54.6818H240.429V53.5455ZM241.414 59H242.927V53.5455H241.414V59ZM242.174 52.8423C242.625 52.8423 242.994 52.4979 242.994 52.0753C242.994 51.6562 242.625 51.3118 242.174 51.3118C241.727 51.3118 241.357 51.6562 241.357 52.0753C241.357 52.4979 241.727 52.8423 242.174 52.8423ZM247.072 53.5455H245.989V53.1797C245.989 52.8104 246.138 52.5938 246.582 52.5938C246.763 52.5938 246.948 52.6328 247.069 52.6719L247.335 51.5355C247.147 51.4787 246.731 51.3864 246.266 51.3864C245.24 51.3864 244.476 51.9652 244.476 53.1513V53.5455H243.706V54.6818H244.476V59H245.989V54.6818H247.072V53.5455ZM247.996 59H249.509V53.5455H247.996V59ZM248.756 52.8423C249.207 52.8423 249.577 52.4979 249.577 52.0753C249.577 51.6562 249.207 51.3118 248.756 51.3118C248.309 51.3118 247.939 51.6562 247.939 52.0753C247.939 52.4979 248.309 52.8423 248.756 52.8423ZM253.185 59.1065C254.638 59.1065 255.55 58.2543 255.621 57.0007H254.194C254.105 57.5831 253.722 57.9098 253.203 57.9098C252.496 57.9098 252.038 57.3168 252.038 56.2727C252.038 55.2429 252.5 54.6534 253.203 54.6534C253.757 54.6534 254.112 55.0192 254.194 55.5625H255.621C255.558 54.3018 254.602 53.4744 253.178 53.4744C251.523 53.4744 250.501 54.6214 250.501 56.294C250.501 57.9524 251.506 59.1065 253.185 59.1065ZM258.145 59.103C258.952 59.103 259.474 58.7514 259.74 58.2436H259.782V59H261.217V55.321C261.217 54.0213 260.116 53.4744 258.902 53.4744C257.595 53.4744 256.736 54.0994 256.526 55.0938L257.925 55.2074C258.028 54.8452 258.351 54.5788 258.895 54.5788C259.41 54.5788 259.704 54.8381 259.704 55.2855V55.3068C259.704 55.6584 259.331 55.7045 258.383 55.7969C257.304 55.8963 256.334 56.2585 256.334 57.4766C256.334 58.5561 257.105 59.103 258.145 59.103ZM258.579 58.0589C258.113 58.0589 257.78 57.8423 257.78 57.4268C257.78 57.0007 258.131 56.7912 258.664 56.7166C258.994 56.6705 259.534 56.5923 259.715 56.4716V57.0504C259.715 57.6222 259.243 58.0589 258.579 58.0589ZM265.292 53.5455H264.266V52.2386H262.753V53.5455H262.007V54.6818H262.753V57.5227C262.746 58.5916 263.474 59.1207 264.571 59.0746C264.962 59.0604 265.239 58.9822 265.392 58.9325L265.154 57.8068C265.079 57.821 264.919 57.8565 264.777 57.8565C264.475 57.8565 264.266 57.7429 264.266 57.3239V54.6818H265.292V53.5455ZM268.705 59.1065C270.054 59.1065 270.963 58.4496 271.176 57.4375L269.777 57.3452C269.624 57.7607 269.234 57.9773 268.73 57.9773C267.973 57.9773 267.494 57.4766 267.494 56.6634V56.6598H271.208V56.2443C271.208 54.3906 270.086 53.4744 268.644 53.4744C267.039 53.4744 265.999 54.6143 265.999 56.2976C265.999 58.027 267.025 59.1065 268.705 59.1065ZM267.494 55.7223C267.526 55.1009 267.998 54.6037 268.669 54.6037C269.326 54.6037 269.781 55.0724 269.784 55.7223H267.494ZM276.734 55.1009C276.599 54.0959 275.789 53.4744 274.411 53.4744C273.016 53.4744 272.096 54.1207 272.1 55.1719C272.096 55.9886 272.611 56.5178 273.676 56.7308L274.621 56.919C275.097 57.0149 275.313 57.1889 275.32 57.4624C275.313 57.7855 274.962 58.0163 274.433 58.0163C273.893 58.0163 273.534 57.7855 273.442 57.3416L271.954 57.4197C272.096 58.4638 272.984 59.1065 274.429 59.1065C275.843 59.1065 276.855 58.3857 276.858 57.3097C276.855 56.5213 276.34 56.049 275.281 55.8324L274.294 55.6335C273.786 55.5234 273.598 55.3494 273.602 55.0866C273.598 54.7599 273.968 54.5469 274.436 54.5469C274.962 54.5469 275.274 54.8345 275.349 55.1861L276.734 55.1009ZM281.681 59.103C282.487 59.103 283.009 58.7514 283.275 58.2436H283.318V59H284.752V55.321C284.752 54.0213 283.651 53.4744 282.437 53.4744C281.13 53.4744 280.271 54.0994 280.061 55.0938L281.46 55.2074C281.563 54.8452 281.887 54.5788 282.43 54.5788C282.945 54.5788 283.24 54.8381 283.24 55.2855V55.3068C283.24 55.6584 282.867 55.7045 281.919 55.7969C280.839 55.8963 279.869 56.2585 279.869 57.4766C279.869 58.5561 280.64 59.103 281.681 59.103ZM282.114 58.0589C281.649 58.0589 281.315 57.8423 281.315 57.4268C281.315 57.0007 281.666 56.7912 282.199 56.7166C282.529 56.6705 283.069 56.5923 283.25 56.4716V57.0504C283.25 57.6222 282.778 58.0589 282.114 58.0589ZM290.464 55.1009C290.329 54.0959 289.52 53.4744 288.142 53.4744C286.746 53.4744 285.827 54.1207 285.83 55.1719C285.827 55.9886 286.341 56.5178 287.407 56.7308L288.351 56.919C288.827 57.0149 289.044 57.1889 289.051 57.4624C289.044 57.7855 288.692 58.0163 288.163 58.0163C287.623 58.0163 287.265 57.7855 287.172 57.3416L285.684 57.4197C285.827 58.4638 286.714 59.1065 288.16 59.1065C289.573 59.1065 290.585 58.3857 290.589 57.3097C290.585 56.5213 290.07 56.049 289.012 55.8324L288.025 55.6335C287.517 55.5234 287.329 55.3494 287.332 55.0866C287.329 54.7599 287.698 54.5469 288.167 54.5469C288.692 54.5469 289.005 54.8345 289.079 55.1861L290.464 55.1009ZM222.593 66.1009C222.458 65.0959 221.649 64.4744 220.271 64.4744C218.875 64.4744 217.955 65.1207 217.959 66.1719C217.955 66.9886 218.47 67.5178 219.536 67.7308L220.48 67.919C220.956 68.0149 221.173 68.1889 221.18 68.4624C221.173 68.7855 220.821 69.0163 220.292 69.0163C219.752 69.0163 219.394 68.7855 219.301 68.3416L217.813 68.4197C217.955 69.4638 218.843 70.1065 220.289 70.1065C221.702 70.1065 222.714 69.3857 222.718 68.3097C222.714 67.5213 222.199 67.049 221.141 66.8324L220.154 66.6335C219.646 66.5234 219.458 66.3494 219.461 66.0866C219.458 65.7599 219.827 65.5469 220.296 65.5469C220.821 65.5469 221.134 65.8345 221.208 66.1861L222.593 66.1009ZM226.135 70.1065C227.789 70.1065 228.819 68.9737 228.819 67.294C228.819 65.6037 227.789 64.4744 226.135 64.4744C224.48 64.4744 223.45 65.6037 223.45 67.294C223.45 68.9737 224.48 70.1065 226.135 70.1065ZM226.142 68.9347C225.378 68.9347 224.988 68.2351 224.988 67.2834C224.988 66.3317 225.378 65.6286 226.142 65.6286C226.891 65.6286 227.282 66.3317 227.282 67.2834C227.282 68.2351 226.891 68.9347 226.142 68.9347ZM231.316 62.7273H229.803V70H231.316V62.7273ZM235.013 70.1065C236.363 70.1065 237.272 69.4496 237.485 68.4375L236.086 68.3452C235.933 68.7607 235.542 68.9773 235.038 68.9773C234.282 68.9773 233.802 68.4766 233.802 67.6634V67.6598H237.517V67.2443C237.517 65.3906 236.395 64.4744 234.953 64.4744C233.348 64.4744 232.307 65.6143 232.307 67.2976C232.307 69.027 233.334 70.1065 235.013 70.1065ZM233.802 66.7223C233.834 66.1009 234.307 65.6037 234.978 65.6037C235.635 65.6037 236.089 66.0724 236.093 66.7223H233.802ZM240.819 70H242.331V66.7259C242.331 66.1222 242.715 65.7209 243.219 65.7209C243.716 65.7209 244.05 66.0618 244.05 66.598V70H245.517V66.669C245.517 66.1044 245.84 65.7209 246.39 65.7209C246.873 65.7209 247.235 66.0227 247.235 66.63V70H248.745V66.3317C248.745 65.1491 248.042 64.4744 247.026 64.4744C246.227 64.4744 245.605 64.8828 245.382 65.5078H245.325C245.151 64.8757 244.593 64.4744 243.844 64.4744C243.109 64.4744 242.551 64.8651 242.324 65.5078H242.26V64.5455H240.819V70ZM252.404 70.1065C254.059 70.1065 255.089 68.9737 255.089 67.294C255.089 65.6037 254.059 64.4744 252.404 64.4744C250.749 64.4744 249.719 65.6037 249.719 67.294C249.719 68.9737 250.749 70.1065 252.404 70.1065ZM252.411 68.9347C251.648 68.9347 251.257 68.2351 251.257 67.2834C251.257 66.3317 251.648 65.6286 252.411 65.6286C253.161 65.6286 253.551 66.3317 253.551 67.2834C253.551 68.2351 253.161 68.9347 252.411 68.9347ZM258.974 64.5455H257.947V63.2386H256.435V64.5455H255.689V65.6818H256.435V68.5227C256.428 69.5916 257.156 70.1207 258.253 70.0746C258.643 70.0604 258.92 69.9822 259.073 69.9325L258.835 68.8068C258.761 68.821 258.601 68.8565 258.459 68.8565C258.157 68.8565 257.947 68.7429 257.947 68.3239V65.6818H258.974V64.5455ZM259.959 70H261.472V64.5455H259.959V70ZM260.719 63.8423C261.17 63.8423 261.539 63.4979 261.539 63.0753C261.539 62.6562 261.17 62.3118 260.719 62.3118C260.272 62.3118 259.902 62.6562 259.902 63.0753C259.902 63.4979 260.272 63.8423 260.719 63.8423ZM267.769 64.5455H266.167L265.038 68.4482H264.981L263.849 64.5455H262.251L264.157 70H265.862L267.769 64.5455ZM269.942 70.103C270.748 70.103 271.27 69.7514 271.537 69.2436H271.579V70H273.014V66.321C273.014 65.0213 271.913 64.4744 270.699 64.4744C269.392 64.4744 268.532 65.0994 268.323 66.0938L269.722 66.2074C269.825 65.8452 270.148 65.5788 270.692 65.5788C271.206 65.5788 271.501 65.8381 271.501 66.2855V66.3068C271.501 66.6584 271.128 66.7045 270.18 66.7969C269.101 66.8963 268.131 67.2585 268.131 68.4766C268.131 69.5561 268.902 70.103 269.942 70.103ZM270.376 69.0589C269.91 69.0589 269.577 68.8423 269.577 68.4268C269.577 68.0007 269.928 67.7912 270.461 67.7166C270.791 67.6705 271.331 67.5923 271.512 67.4716V68.0504C271.512 68.6222 271.04 69.0589 270.376 69.0589ZM277.089 64.5455H276.063V63.2386H274.55V64.5455H273.804V65.6818H274.55V68.5227C274.543 69.5916 275.271 70.1207 276.368 70.0746C276.759 70.0604 277.036 69.9822 277.188 69.9325L276.95 68.8068C276.876 68.821 276.716 68.8565 276.574 68.8565C276.272 68.8565 276.063 68.7429 276.063 68.3239V65.6818H277.089V64.5455ZM278.074 70H279.587V64.5455H278.074V70ZM278.834 63.8423C279.285 63.8423 279.655 63.4979 279.655 63.0753C279.655 62.6562 279.285 62.3118 278.834 62.3118C278.387 62.3118 278.018 62.6562 278.018 63.0753C278.018 63.4979 278.387 63.8423 278.834 63.8423ZM283.263 70.1065C284.918 70.1065 285.948 68.9737 285.948 67.294C285.948 65.6037 284.918 64.4744 283.263 64.4744C281.609 64.4744 280.579 65.6037 280.579 67.294C280.579 68.9737 281.609 70.1065 283.263 70.1065ZM283.271 68.9347C282.507 68.9347 282.116 68.2351 282.116 67.2834C282.116 66.3317 282.507 65.6286 283.271 65.6286C284.02 65.6286 284.411 66.3317 284.411 67.2834C284.411 68.2351 284.02 68.9347 283.271 68.9347ZM288.445 66.8466C288.448 66.1435 288.867 65.7315 289.478 65.7315C290.085 65.7315 290.451 66.1293 290.447 66.7969V70H291.96V66.527C291.96 65.2557 291.214 64.4744 290.078 64.4744C289.268 64.4744 288.683 64.8722 288.438 65.5078H288.374V64.5455H286.932V70H288.445V66.8466Z" fill="#323847"/>
<path d="M146.742 51.7273H145.211V56.3011H145.147L142.008 51.7273H140.658V59H142.196V54.4226H142.249L145.413 59H146.742V51.7273ZM150.448 59.1065C152.103 59.1065 153.133 57.9737 153.133 56.294C153.133 54.6037 152.103 53.4744 150.448 53.4744C148.793 53.4744 147.763 54.6037 147.763 56.294C147.763 57.9737 148.793 59.1065 150.448 59.1065ZM150.455 57.9347C149.692 57.9347 149.301 57.2351 149.301 56.2834C149.301 55.3317 149.692 54.6286 150.455 54.6286C151.204 54.6286 151.595 55.3317 151.595 56.2834C151.595 57.2351 151.204 57.9347 150.455 57.9347ZM157.018 53.5455H155.991V52.2386H154.479V53.5455H153.733V54.6818H154.479V57.5227C154.472 58.5916 155.199 59.1207 156.297 59.0746C156.687 59.0604 156.964 58.9822 157.117 58.9325L156.879 57.8068C156.805 57.821 156.645 57.8565 156.503 57.8565C156.201 57.8565 155.991 57.7429 155.991 57.3239V54.6818H157.018V53.5455ZM160.318 59H161.83V55.9141C161.83 55.2429 162.32 54.7812 162.988 54.7812C163.198 54.7812 163.485 54.8168 163.627 54.8629V53.5206C163.492 53.4886 163.304 53.4673 163.151 53.4673C162.541 53.4673 162.04 53.8224 161.841 54.4972H161.784V53.5455H160.318V59ZM166.641 59.1065C167.991 59.1065 168.9 58.4496 169.113 57.4375L167.714 57.3452C167.561 57.7607 167.17 57.9773 166.666 57.9773C165.91 57.9773 165.43 57.4766 165.43 56.6634V56.6598H169.145V56.2443C169.145 54.3906 168.023 53.4744 166.581 53.4744C164.976 53.4744 163.935 54.6143 163.935 56.2976C163.935 58.027 164.962 59.1065 166.641 59.1065ZM165.43 55.7223C165.462 55.1009 165.935 54.6037 166.606 54.6037C167.263 54.6037 167.717 55.0724 167.721 55.7223H165.43ZM175.249 61.0455V53.5455H173.758V54.4616H173.69C173.488 54.0178 173.051 53.4744 172.138 53.4744C170.942 53.4744 169.93 54.4048 169.93 56.2798C169.93 58.1051 170.899 59.0888 172.142 59.0888C173.023 59.0888 173.481 58.581 173.69 58.1264H173.736V61.0455H175.249ZM173.768 56.2727C173.768 57.2457 173.349 57.8849 172.621 57.8849C171.879 57.8849 171.474 57.2244 171.474 56.2727C171.474 55.3281 171.872 54.6783 172.621 54.6783C173.356 54.6783 173.768 55.2997 173.768 56.2727ZM179.958 56.6776C179.962 57.4091 179.461 57.7926 178.918 57.7926C178.346 57.7926 177.976 57.3913 177.973 56.7486V53.5455H176.46V57.0185C176.464 58.2933 177.209 59.071 178.307 59.071C179.127 59.071 179.717 58.6484 179.962 58.0092H180.018V59H181.471V53.5455H179.958V56.6776ZM182.681 59H184.194V53.5455H182.681V59ZM183.441 52.8423C183.892 52.8423 184.261 52.4979 184.261 52.0753C184.261 51.6562 183.892 51.3118 183.441 51.3118C182.993 51.3118 182.624 51.6562 182.624 52.0753C182.624 52.4979 182.993 52.8423 183.441 52.8423ZM185.405 59H186.918V55.9141C186.918 55.2429 187.408 54.7812 188.076 54.7812C188.285 54.7812 188.573 54.8168 188.715 54.8629V53.5206C188.58 53.4886 188.392 53.4673 188.239 53.4673C187.628 53.4673 187.128 53.8224 186.929 54.4972H186.872V53.5455H185.405V59ZM191.729 59.1065C193.079 59.1065 193.988 58.4496 194.201 57.4375L192.802 57.3452C192.649 57.7607 192.258 57.9773 191.754 57.9773C190.998 57.9773 190.518 57.4766 190.518 56.6634V56.6598H194.233V56.2443C194.233 54.3906 193.111 53.4744 191.669 53.4744C190.064 53.4744 189.023 54.6143 189.023 56.2976C189.023 58.027 190.049 59.1065 191.729 59.1065ZM190.518 55.7223C190.55 55.1009 191.022 54.6037 191.694 54.6037C192.351 54.6037 192.805 55.0724 192.809 55.7223H190.518ZM197.23 59.0888C198.111 59.0888 198.569 58.581 198.778 58.1264H198.842V59H200.334V51.7273H198.824V54.4616H198.778C198.576 54.0178 198.139 53.4744 197.226 53.4744C196.03 53.4744 195.017 54.4048 195.017 56.2798C195.017 58.1051 195.987 59.0888 197.23 59.0888ZM197.709 57.8849C196.967 57.8849 196.562 57.2244 196.562 56.2727C196.562 55.3281 196.96 54.6783 197.709 54.6783C198.444 54.6783 198.856 55.2997 198.856 56.2727C198.856 57.2457 198.437 57.8849 197.709 57.8849ZM155.444 70H156.935V69.1264H157.003C157.212 69.581 157.67 70.0888 158.551 70.0888C159.794 70.0888 160.763 69.1051 160.763 67.2798C160.763 65.4048 159.751 64.4744 158.554 64.4744C157.642 64.4744 157.205 65.0178 157.003 65.4616H156.956V62.7273H155.444V70ZM156.924 67.2727C156.924 66.2997 157.336 65.6783 158.071 65.6783C158.821 65.6783 159.218 66.3281 159.218 67.2727C159.218 68.2244 158.814 68.8849 158.071 68.8849C157.343 68.8849 156.924 68.2457 156.924 67.2727ZM162.521 72.0455C163.647 72.0455 164.243 71.4702 164.552 70.5895L166.672 64.5526L165.071 64.5455L163.931 68.5511H163.874L162.745 64.5455H161.154L163.111 70.1562L163.022 70.3871C162.823 70.8984 162.443 70.9233 161.91 70.7599L161.569 71.8892C161.786 71.9815 162.138 72.0455 162.521 72.0455ZM171.274 62.7273H169.761V70H171.274V62.7273ZM174.041 70.103C174.847 70.103 175.369 69.7514 175.635 69.2436H175.678V70H177.113V66.321C177.113 65.0213 176.012 64.4744 174.797 64.4744C173.491 64.4744 172.631 65.0994 172.422 66.0938L173.821 66.2074C173.924 65.8452 174.247 65.5788 174.79 65.5788C175.305 65.5788 175.6 65.8381 175.6 66.2855V66.3068C175.6 66.6584 175.227 66.7045 174.279 66.7969C173.199 66.8963 172.23 67.2585 172.23 68.4766C172.23 69.5561 173 70.103 174.041 70.103ZM174.474 69.0589C174.009 69.0589 173.675 68.8423 173.675 68.4268C173.675 68.0007 174.027 67.7912 174.559 67.7166C174.89 67.6705 175.429 67.5923 175.611 67.4716V68.0504C175.611 68.6222 175.138 69.0589 174.474 69.0589ZM179.362 70H180.96L181.898 66.5696H181.965L182.903 70H184.504L185.985 64.5455H184.458L183.627 68.1889H183.581L182.686 64.5455H181.184L180.303 68.2102H180.254L179.408 64.5455H177.878L179.362 70Z" fill="#323847"/>
<path d="M74.7998 34.998H66.3984V43.398H74.7998V34.998Z" fill="white"/>
<path d="M76.075 34.3984V34.3234H76H66.3984H66.3234V34.3984V43.9984V44.0734H66.3984H76H76.075V43.9984V34.3984ZM74.7248 35.6734V42.7234H67.6736V35.6734H74.7248Z" fill="#323847" stroke="#323847" stroke-width="0.15"/>
<path d="M89.2047 25.3984H80.8047V43.3984H89.2047V25.3984Z" fill="white"/>
<path d="M89.8781 27.1992V27.1242H89.8031H80.2031H80.1281V27.1992V43.9992V44.0742H80.2031H89.8031H89.8781V43.9992V27.1992ZM88.5281 28.4742V42.7242H81.4781V28.4742H88.5281Z" fill="#323847" stroke="#323847" stroke-width="0.15"/>
<path d="M103.599 18.2012H95.1992V43.4012H103.599V18.2012Z" fill="white"/>
<path d="M103.675 20.002V19.927H103.6H94H93.925V20.002V44.002V44.077H94H103.6H103.675V44.002V20.002ZM102.325 21.277V42.727H95.275V21.277H102.325Z" fill="#323847" stroke="#323847" stroke-width="0.15"/>
<path d="M109 43.3965H61" stroke="#323847" stroke-width="1.5" stroke-miterlimit="10"/>
<path d="M64 26.6008L68.8 21.8008L73 26.0008L82.6 16.4008L88 21.8008L104.5 5.30078" stroke="#323847" stroke-width="1.5" stroke-miterlimit="10"/>
<path d="M98.1992 5H104.799V11.6" stroke="#323847" stroke-width="1.5" stroke-miterlimit="10"/>
<path d="M171.702 1.59961H168.102V43.5996H171.702V1.59961Z" fill="white"/>
<path d="M168.75 2.25H171.05V42.95H168.75V2.25ZM172.35 1V0.95H172.3H167.5H167.45V1V44.2V44.25H167.5H172.3H172.35V44.2V1Z" fill="#323847" stroke="#323847" stroke-width="0.1"/>
<path d="M181.308 40.002H158.508V43.602H181.308V40.002Z" fill="white"/>
<path d="M181.956 39.4023V39.3523H181.906H157.906H157.856V39.4023V44.2023V44.2523H157.906H181.906H181.956V44.2023V39.4023ZM180.656 40.6523V42.9523H159.156V40.6523H180.656Z" fill="#323847" stroke="#323847" stroke-width="0.1"/>
<path d="M182.41 29.2489C179.074 29.2489 176.338 26.5609 176.266 23.2489L182.41 11.2969L188.554 23.2489C188.482 26.5609 185.746 29.2489 182.41 29.2489Z" fill="white"/>
<path d="M182.455 10.0241L182.411 9.93731L182.366 10.0241L175.67 23.0801L175.665 23.0908V23.1029C175.665 26.8265 178.687 29.8489 182.411 29.8489C186.134 29.8489 189.157 26.8265 189.157 23.1029V23.0908L189.151 23.0801L182.455 10.0241ZM176.917 23.3779L182.411 12.6046L187.952 23.3778C187.803 26.2974 185.379 28.6449 182.435 28.6449C179.49 28.6449 177.043 26.3207 176.917 23.3779Z" fill="#323847" stroke="#323847" stroke-width="0.1"/>
<path d="M176.336 23.6797H188.504" stroke="#323847" stroke-width="1.5" stroke-miterlimit="10"/>
<path d="M158.41 29.2489C155.074 29.2489 152.338 26.5609 152.266 23.2489L158.41 11.2969L164.554 23.2489C164.482 26.5609 161.746 29.2489 158.41 29.2489Z" fill="white"/>
<path d="M158.455 10.0241L158.411 9.93731L158.366 10.0241L151.67 23.0801L151.665 23.0908V23.1029C151.665 26.8265 154.687 29.8489 158.411 29.8489C162.134 29.8489 165.157 26.8265 165.157 23.1029V23.0908L165.151 23.0801L158.455 10.0241ZM152.917 23.3779L158.411 12.6046L163.952 23.3778C163.803 26.2974 161.379 28.6449 158.435 28.6449C155.49 28.6449 153.043 26.3207 152.917 23.3779Z" fill="#323847" stroke="#323847" stroke-width="0.1"/>
<path d="M152.34 23.6797H164.508" stroke="#323847" stroke-width="1.5" stroke-miterlimit="10"/>
<path d="M150.707 10.5996H189.107" stroke="#323847" stroke-width="1.5" stroke-miterlimit="10"/>
<path d="M169.903 14.8004C172.223 14.8004 174.103 12.92 174.103 10.6004C174.103 8.28079 172.223 6.40039 169.903 6.40039C167.584 6.40039 165.703 8.28079 165.703 10.6004C165.703 12.92 167.584 14.8004 169.903 14.8004Z" fill="white"/>
<path d="M169.902 7.05078C171.866 7.05078 173.452 8.63639 173.452 10.6008C173.452 12.5652 171.866 14.1508 169.902 14.1508C167.937 14.1508 166.352 12.5652 166.352 10.6008C166.352 8.63661 167.961 7.05078 169.902 7.05078ZM169.902 5.75078C167.234 5.75078 165.052 7.93317 165.052 10.6008C165.052 13.2684 167.234 15.4508 169.902 15.4508C172.569 15.4508 174.752 13.2684 174.752 10.6008C174.752 7.93333 172.593 5.75078 169.902 5.75078Z" fill="#323847" stroke="#323847" stroke-width="0.1"/>
<path d="M169.902 12.4008C170.896 12.4008 171.702 11.5949 171.702 10.6008C171.702 9.60667 170.896 8.80078 169.902 8.80078C168.907 8.80078 168.102 9.60667 168.102 10.6008C168.102 11.5949 168.907 12.4008 169.902 12.4008Z" fill="white"/>
<path d="M169.898 9.54803C170.489 9.54803 170.952 10.0112 170.952 10.6015C170.952 11.1919 170.489 11.655 169.898 11.655C169.308 11.655 168.845 11.1919 168.845 10.6015C168.845 10.0118 169.329 9.54803 169.898 9.54803ZM169.898 8.34453C168.657 8.34453 167.641 9.36007 167.641 10.6015C167.641 11.843 168.657 12.8585 169.898 12.8585C171.14 12.8585 172.155 11.843 172.155 10.6015C172.155 9.36007 171.14 8.34453 169.898 8.34453Z" fill="#323847" stroke="#323847" stroke-width="0.1"/>
<path d="M146 43.5996H194" stroke="#323847" stroke-width="1.5" stroke-miterlimit="10"/>
<path d="M231 43.6797H279" stroke="#323847" stroke-width="1.5" stroke-miterlimit="10"/>
<path d="M271.056 9.59961H238.68V31.5836H271.056V9.59961Z" fill="white"/>
<path d="M271.728 9V8.95H271.678H238.078H238.028V9V32.208V32.258H238.078H271.678H271.728V32.208V9ZM270.404 10.274V30.958H239.352V10.274H270.404Z" fill="#323847" stroke="#323847" stroke-width="0.1"/>
<path d="M243 14.4004H267" stroke="#323847" stroke-width="1.5" stroke-miterlimit="10"/>
<path d="M247.199 17.4004H262.199" stroke="#323847" stroke-width="1.5" stroke-miterlimit="10"/>
<path d="M242.398 27.5996H253.198" stroke="#323847" stroke-width="1.5" stroke-miterlimit="10"/>
<path d="M267.022 36.6505L262.102 39.1465V27.1465H271.966V39.1465L267.022 36.6505Z" fill="white"/>
<path d="M266.493 36.2222L262.773 38.082V27.7969H271.313V38.082L267.594 36.2222L267.066 35.9582L267.043 35.947L267.021 35.9582L266.493 36.2222ZM272.613 26.5469V26.4969H272.563H261.523H261.473V26.5469V40.1069V40.1881L261.546 40.1515L267.043 37.3789L272.541 40.1515L272.613 40.1881V40.1069V26.5469Z" fill="#323847" stroke="#323847" stroke-width="0.1"/>
<path d="M267.022 32.1132C270.588 32.1132 273.478 29.2227 273.478 25.6572C273.478 22.0916 270.588 19.2012 267.022 19.2012C263.457 19.2012 260.566 22.0916 260.566 25.6572C260.566 29.2227 263.457 32.1132 267.022 32.1132Z" fill="white"/>
<path d="M267.021 19.8516C270.209 19.8516 272.827 22.4453 272.827 25.6576C272.827 28.8461 270.233 31.4636 267.021 31.4636C263.809 31.4636 261.215 28.87 261.215 25.6577C261.239 22.4449 263.833 19.8516 267.021 19.8516ZM267.021 18.5516C263.105 18.5516 259.915 21.7178 259.915 25.6576C259.915 29.5731 263.081 32.7636 267.021 32.7636C270.96 32.7636 274.127 29.5972 274.127 25.6576C274.127 21.7179 270.96 18.5516 267.021 18.5516Z" fill="#323847" stroke="#323847" stroke-width="0.1"/>
<path d="M267.069 29.3035C269.057 29.3035 270.669 27.6917 270.669 25.7035C270.669 23.7153 269.057 22.1035 267.069 22.1035C265.081 22.1035 263.469 23.7153 263.469 25.7035C263.469 27.6917 265.081 29.3035 267.069 29.3035Z" fill="white" stroke="#323847" stroke-width="1.5" stroke-miterlimit="10"/>
</svg>
