<svg width="340" height="123" viewBox="0 0 340 123" fill="none" xmlns="http://www.w3.org/2000/svg">
<path d="M45.6399 104H47.1776V101.642H48.4702C50.1428 101.642 51.1158 100.644 51.1158 99.1918C51.1158 97.7464 50.1605 96.7273 48.5092 96.7273H45.6399V104ZM47.1776 100.41V97.9844H48.2145C49.1023 97.9844 49.532 98.4673 49.532 99.1918C49.532 99.9126 49.1023 100.41 48.2216 100.41H47.1776ZM52.0861 104H53.5989V100.914C53.5989 100.243 54.089 99.7812 54.7566 99.7812C54.9661 99.7812 55.2537 99.8168 55.3958 99.8629V98.5206C55.2608 98.4886 55.0726 98.4673 54.9199 98.4673C54.3091 98.4673 53.8084 98.8224 53.6096 99.4972H53.5527V98.5455H52.0861V104ZM58.3885 104.107C60.0433 104.107 61.0732 102.974 61.0732 101.294C61.0732 99.6037 60.0433 98.4744 58.3885 98.4744C56.7337 98.4744 55.7038 99.6037 55.7038 101.294C55.7038 102.974 56.7337 104.107 58.3885 104.107ZM58.3956 102.935C57.6321 102.935 57.2415 102.235 57.2415 101.283C57.2415 100.332 57.6321 99.6286 58.3956 99.6286C59.1449 99.6286 59.5355 100.332 59.5355 101.283C59.5355 102.235 59.1449 102.935 58.3956 102.935ZM62.0568 98.5455V104.245C62.0568 104.657 61.8828 104.863 61.3963 104.863C61.3324 104.863 61.2756 104.863 61.1974 104.856V106.038C61.3075 106.042 61.3963 106.045 61.5028 106.045C62.7884 106.045 63.5696 105.534 63.5696 104.27V98.5455H62.0568ZM62.8097 97.8423C63.2607 97.8423 63.63 97.4979 63.63 97.0753C63.63 96.6562 63.2607 96.3118 62.8097 96.3118C62.3622 96.3118 61.9929 96.6562 61.9929 97.0753C61.9929 97.4979 62.3622 97.8423 62.8097 97.8423ZM67.2672 104.107C68.6167 104.107 69.5257 103.45 69.7388 102.438L68.3397 102.345C68.187 102.761 67.7963 102.977 67.2921 102.977C66.5357 102.977 66.0563 102.477 66.0563 101.663V101.66H69.7708V101.244C69.7708 99.3906 68.6486 98.4744 67.2069 98.4744C65.6017 98.4744 64.5613 99.6143 64.5613 101.298C64.5613 103.027 65.5875 104.107 67.2672 104.107ZM66.0563 100.722C66.0882 100.101 66.5605 99.6037 67.2317 99.6037C67.8887 99.6037 68.3432 100.072 68.3468 100.722H66.0563ZM73.2225 104.107C74.6749 104.107 75.5875 103.254 75.6586 102.001H74.231C74.1422 102.583 73.7587 102.91 73.2402 102.91C72.5336 102.91 72.0755 102.317 72.0755 101.273C72.0755 100.243 72.5371 99.6534 73.2402 99.6534C73.7942 99.6534 74.1493 100.019 74.231 100.562H75.6586C75.5946 99.3018 74.6394 98.4744 73.2154 98.4744C71.5605 98.4744 70.5378 99.6214 70.5378 101.294C70.5378 102.952 71.5428 104.107 73.2225 104.107ZM79.5284 98.5455H78.5021V97.2386H76.9893V98.5455H76.2436V99.6818H76.9893V102.523C76.9822 103.592 77.7102 104.121 78.8075 104.075C79.1982 104.06 79.4751 103.982 79.6278 103.933L79.3899 102.807C79.3153 102.821 79.1555 102.857 79.0135 102.857C78.7116 102.857 78.5021 102.743 78.5021 102.324V99.6818H79.5284V98.5455ZM82.8283 104H84.3411V98.5455H82.8283V104ZM83.5882 97.8423C84.0392 97.8423 84.4086 97.4979 84.4086 97.0753C84.4086 96.6562 84.0392 96.3118 83.5882 96.3118C83.1408 96.3118 82.7715 96.6562 82.7715 97.0753C82.7715 97.4979 83.1408 97.8423 83.5882 97.8423ZM90.0913 100.101C89.9563 99.0959 89.1467 98.4744 87.7688 98.4744C86.3732 98.4744 85.4535 99.1207 85.457 100.172C85.4535 100.989 85.9684 101.518 87.0337 101.731L87.9783 101.919C88.4542 102.015 88.6708 102.189 88.6779 102.462C88.6708 102.786 88.3192 103.016 87.7901 103.016C87.2504 103.016 86.8917 102.786 86.7994 102.342L85.3114 102.42C85.4535 103.464 86.3413 104.107 87.7866 104.107C89.1999 104.107 90.212 103.386 90.2156 102.31C90.212 101.521 89.6971 101.049 88.6388 100.832L87.6516 100.634C87.1438 100.523 86.9556 100.349 86.9592 100.087C86.9556 99.7599 87.3249 99.5469 87.7937 99.5469C88.3192 99.5469 88.6317 99.8345 88.7063 100.186L90.0913 100.101ZM95.7065 100.101C95.5716 99.0959 94.7619 98.4744 93.3841 98.4744C91.9885 98.4744 91.0687 99.1207 91.0723 100.172C91.0687 100.989 91.5836 101.518 92.649 101.731L93.5936 101.919C94.0694 102.015 94.286 102.189 94.2931 102.462C94.286 102.786 93.9345 103.016 93.4054 103.016C92.8656 103.016 92.5069 102.786 92.4146 102.342L90.9267 102.42C91.0687 103.464 91.9565 104.107 93.4018 104.107C94.8152 104.107 95.8272 103.386 95.8308 102.31C95.8272 101.521 95.3123 101.049 94.2541 100.832L93.2669 100.634C92.7591 100.523 92.5708 100.349 92.5744 100.087C92.5708 99.7599 92.9402 99.5469 93.4089 99.5469C93.9345 99.5469 94.247 99.8345 94.3216 100.186L95.7065 100.101ZM100.281 101.678C100.285 102.409 99.7841 102.793 99.2408 102.793C98.669 102.793 98.2997 102.391 98.2962 101.749V98.5455H96.7834V102.018C96.7869 103.293 97.5327 104.071 98.63 104.071C99.4503 104.071 100.04 103.648 100.285 103.009H100.342V104H101.794V98.5455H100.281V101.678ZM105.49 104.107C106.839 104.107 107.748 103.45 107.961 102.438L106.562 102.345C106.41 102.761 106.019 102.977 105.515 102.977C104.758 102.977 104.279 102.477 104.279 101.663V101.66H107.993V101.244C107.993 99.3906 106.871 98.4744 105.43 98.4744C103.824 98.4744 102.784 99.6143 102.784 101.298C102.784 103.027 103.81 104.107 105.49 104.107ZM104.279 100.722C104.311 100.101 104.783 99.6037 105.454 99.6037C106.111 99.6037 106.566 100.072 106.569 100.722H104.279ZM113.519 100.101C113.384 99.0959 112.574 98.4744 111.197 98.4744C109.801 98.4744 108.881 99.1207 108.885 100.172C108.881 100.989 109.396 101.518 110.461 101.731L111.406 101.919C111.882 102.015 112.099 102.189 112.106 102.462C112.099 102.786 111.747 103.016 111.218 103.016C110.678 103.016 110.319 102.786 110.227 102.342L108.739 102.42C108.881 103.464 109.769 104.107 111.214 104.107C112.628 104.107 113.64 103.386 113.643 102.31C113.64 101.521 113.125 101.049 112.067 100.832L111.079 100.634C110.572 100.523 110.383 100.349 110.387 100.087C110.383 99.7599 110.753 99.5469 111.221 99.5469C111.747 99.5469 112.059 99.8345 112.134 100.186L113.519 100.101ZM29.7943 115.089C30.675 115.089 31.1331 114.581 31.3426 114.126H31.4065V115H32.898V107.727H31.3888V110.462H31.3426C31.1402 110.018 30.7034 109.474 29.7907 109.474C28.594 109.474 27.5819 110.405 27.5819 112.28C27.5819 114.105 28.5514 115.089 29.7943 115.089ZM30.2737 113.885C29.5315 113.885 29.1267 113.224 29.1267 112.273C29.1267 111.328 29.5244 110.678 30.2737 110.678C31.0088 110.678 31.4207 111.3 31.4207 112.273C31.4207 113.246 31.0017 113.885 30.2737 113.885ZM37.6396 112.678C37.6432 113.409 37.1425 113.793 36.5992 113.793C36.0274 113.793 35.6581 113.391 35.6546 112.749V109.545H34.1418V113.018C34.1453 114.293 34.8911 115.071 35.9884 115.071C36.8087 115.071 37.3982 114.648 37.6432 114.009H37.7V115H39.1524V109.545H37.6396V112.678ZM40.3625 117.045H41.8753V114.126H41.9214C42.1309 114.581 42.589 115.089 43.4697 115.089C44.7126 115.089 45.6821 114.105 45.6821 112.28C45.6821 110.405 44.67 109.474 43.4733 109.474C42.5606 109.474 42.1238 110.018 41.9214 110.462H41.854V109.545H40.3625V117.045ZM41.8433 112.273C41.8433 111.3 42.2552 110.678 42.9903 110.678C43.7396 110.678 44.1373 111.328 44.1373 112.273C44.1373 113.224 43.7325 113.885 42.9903 113.885C42.2623 113.885 41.8433 113.246 41.8433 112.273ZM48.2034 107.727H46.6906V115H48.2034V107.727ZM49.4152 115H50.928V109.545H49.4152V115ZM50.1752 108.842C50.6262 108.842 50.9955 108.498 50.9955 108.075C50.9955 107.656 50.6262 107.312 50.1752 107.312C49.7277 107.312 49.3584 107.656 49.3584 108.075C49.3584 108.498 49.7277 108.842 50.1752 108.842ZM54.6043 115.107C56.0567 115.107 56.9694 114.254 57.0404 113.001H55.6128C55.5241 113.583 55.1405 113.91 54.6221 113.91C53.9154 113.91 53.4573 113.317 53.4573 112.273C53.4573 111.243 53.9189 110.653 54.6221 110.653C55.176 110.653 55.5312 111.019 55.6128 111.562H57.0404C56.9765 110.302 56.0212 109.474 54.5972 109.474C52.9424 109.474 51.9197 110.621 51.9197 112.294C51.9197 113.952 52.9246 115.107 54.6043 115.107ZM59.5644 115.103C60.3705 115.103 60.8925 114.751 61.1588 114.244H61.2014V115H62.6361V111.321C62.6361 110.021 61.5352 109.474 60.3208 109.474C59.0139 109.474 58.1546 110.099 57.945 111.094L59.3442 111.207C59.4472 110.845 59.7703 110.579 60.3137 110.579C60.8286 110.579 61.1233 110.838 61.1233 111.286V111.307C61.1233 111.658 60.7504 111.705 59.8023 111.797C58.7227 111.896 57.7533 112.259 57.7533 113.477C57.7533 114.556 58.5239 115.103 59.5644 115.103ZM59.9976 114.059C59.5324 114.059 59.1986 113.842 59.1986 113.427C59.1986 113.001 59.5502 112.791 60.0828 112.717C60.4131 112.67 60.9529 112.592 61.134 112.472V113.05C61.134 113.622 60.6617 114.059 59.9976 114.059ZM66.711 109.545H65.6847V108.239H64.172V109.545H63.4262V110.682H64.172V113.523C64.1649 114.592 64.8928 115.121 65.9901 115.075C66.3808 115.06 66.6578 114.982 66.8105 114.933L66.5725 113.807C66.498 113.821 66.3382 113.857 66.1961 113.857C65.8943 113.857 65.6847 113.743 65.6847 113.324V110.682H66.711V109.545ZM70.1237 115.107C71.4731 115.107 72.3822 114.45 72.5953 113.438L71.1961 113.345C71.0434 113.761 70.6528 113.977 70.1485 113.977C69.3921 113.977 68.9127 113.477 68.9127 112.663V112.66H72.6272V112.244C72.6272 110.391 71.5051 109.474 70.0633 109.474C68.4582 109.474 67.4177 110.614 67.4177 112.298C67.4177 114.027 68.444 115.107 70.1237 115.107ZM68.9127 111.722C68.9447 111.101 69.417 110.604 70.0882 110.604C70.7451 110.604 71.1997 111.072 71.2032 111.722H68.9127ZM78.3934 115.107C79.8458 115.107 80.7584 114.254 80.8295 113.001H79.4019C79.3131 113.583 78.9296 113.91 78.4111 113.91C77.7045 113.91 77.2464 113.317 77.2464 112.273C77.2464 111.243 77.708 110.653 78.4111 110.653C78.9651 110.653 79.3202 111.019 79.4019 111.562H80.8295C80.7655 110.302 79.8103 109.474 78.3863 109.474C76.7314 109.474 75.7087 110.621 75.7087 112.294C75.7087 113.952 76.7137 115.107 78.3934 115.107ZM84.2838 115.107C85.6333 115.107 86.5423 114.45 86.7554 113.438L85.3563 113.345C85.2036 113.761 84.8129 113.977 84.3087 113.977C83.5523 113.977 83.0729 113.477 83.0729 112.663V112.66H86.7874V112.244C86.7874 110.391 85.6652 109.474 84.2235 109.474C82.6183 109.474 81.5779 110.614 81.5779 112.298C81.5779 114.027 82.6041 115.107 84.2838 115.107ZM83.0729 111.722C83.1048 111.101 83.5771 110.604 84.2483 110.604C84.9053 110.604 85.3598 111.072 85.3634 111.722H83.0729ZM87.7746 115H89.2874V111.914C89.2874 111.243 89.7774 110.781 90.445 110.781C90.6546 110.781 90.9422 110.817 91.0843 110.863V109.521C90.9493 109.489 90.7611 109.467 90.6084 109.467C89.9976 109.467 89.4969 109.822 89.298 110.497H89.2412V109.545H87.7746V115ZM95.0411 109.545H94.0148V108.239H92.502V109.545H91.7563V110.682H92.502V113.523C92.4949 114.592 93.2229 115.121 94.3202 115.075C94.7108 115.06 94.9878 114.982 95.1405 114.933L94.9026 113.807C94.828 113.821 94.6682 113.857 94.5262 113.857C94.2243 113.857 94.0148 113.743 94.0148 113.324V110.682H95.0411V109.545ZM96.0265 115H97.5393V109.545H96.0265V115ZM96.7865 108.842C97.2375 108.842 97.6068 108.498 97.6068 108.075C97.6068 107.656 97.2375 107.312 96.7865 107.312C96.339 107.312 95.9697 107.656 95.9697 108.075C95.9697 108.498 96.339 108.842 96.7865 108.842ZM101.684 109.545H100.601V109.18C100.601 108.81 100.75 108.594 101.194 108.594C101.375 108.594 101.56 108.633 101.681 108.672L101.947 107.536C101.759 107.479 101.343 107.386 100.878 107.386C99.852 107.386 99.0885 107.965 99.0885 109.151V109.545H98.3179V110.682H99.0885V115H100.601V110.682H101.684V109.545ZM102.609 115H104.121V109.545H102.609V115ZM103.369 108.842C103.82 108.842 104.189 108.498 104.189 108.075C104.189 107.656 103.82 107.312 103.369 107.312C102.921 107.312 102.552 107.656 102.552 108.075C102.552 108.498 102.921 108.842 103.369 108.842ZM107.798 115.107C109.25 115.107 110.163 114.254 110.234 113.001H108.806C108.717 113.583 108.334 113.91 107.815 113.91C107.109 113.91 106.651 113.317 106.651 112.273C106.651 111.243 107.112 110.653 107.815 110.653C108.369 110.653 108.725 111.019 108.806 111.562H110.234C110.17 110.302 109.215 109.474 107.791 109.474C106.136 109.474 105.113 110.621 105.113 112.294C105.113 113.952 106.118 115.107 107.798 115.107ZM112.758 115.103C113.564 115.103 114.086 114.751 114.352 114.244H114.395V115H115.829V111.321C115.829 110.021 114.729 109.474 113.514 109.474C112.207 109.474 111.348 110.099 111.138 111.094L112.538 111.207C112.641 110.845 112.964 110.579 113.507 110.579C114.022 110.579 114.317 110.838 114.317 111.286V111.307C114.317 111.658 113.944 111.705 112.996 111.797C111.916 111.896 110.947 112.259 110.947 113.477C110.947 114.556 111.717 115.103 112.758 115.103ZM113.191 114.059C112.726 114.059 112.392 113.842 112.392 113.427C112.392 113.001 112.744 112.791 113.276 112.717C113.606 112.67 114.146 112.592 114.327 112.472V113.05C114.327 113.622 113.855 114.059 113.191 114.059ZM119.904 109.545H118.878V108.239H117.365V109.545H116.62V110.682H117.365V113.523C117.358 114.592 118.086 115.121 119.184 115.075C119.574 115.06 119.851 114.982 120.004 114.933L119.766 113.807C119.691 113.821 119.532 113.857 119.389 113.857C119.088 113.857 118.878 113.743 118.878 113.324V110.682H119.904V109.545ZM123.317 115.107C124.666 115.107 125.576 114.45 125.789 113.438L124.389 113.345C124.237 113.761 123.846 113.977 123.342 113.977C122.585 113.977 122.106 113.477 122.106 112.663V112.66H125.821V112.244C125.821 110.391 124.698 109.474 123.257 109.474C121.652 109.474 120.611 110.614 120.611 112.298C120.611 114.027 121.637 115.107 123.317 115.107ZM122.106 111.722C122.138 111.101 122.61 110.604 123.282 110.604C123.938 110.604 124.393 111.072 124.397 111.722H122.106ZM131.346 111.101C131.211 110.096 130.402 109.474 129.024 109.474C127.628 109.474 126.708 110.121 126.712 111.172C126.708 111.989 127.223 112.518 128.289 112.731L129.233 112.919C129.709 113.015 129.926 113.189 129.933 113.462C129.926 113.786 129.574 114.016 129.045 114.016C128.505 114.016 128.147 113.786 128.054 113.342L126.566 113.42C126.708 114.464 127.596 115.107 129.041 115.107C130.455 115.107 131.467 114.386 131.47 113.31C131.467 112.521 130.952 112.049 129.894 111.832L128.907 111.634C128.399 111.523 128.21 111.349 128.214 111.087C128.21 110.76 128.58 110.547 129.049 110.547C129.574 110.547 129.887 110.835 129.961 111.186L131.346 111.101Z" fill="#323847"/>
<path d="M217.89 99.8189H219.364C219.342 98.5227 218.277 97.6278 216.658 97.6278C215.063 97.6278 213.895 98.5085 213.902 99.8295C213.898 100.902 214.655 101.516 215.884 101.811L216.675 102.01C217.467 102.202 217.908 102.429 217.911 102.919C217.908 103.452 217.403 103.814 216.622 103.814C215.823 103.814 215.248 103.445 215.198 102.717H213.71C213.749 104.29 214.875 105.103 216.64 105.103C218.415 105.103 219.46 104.254 219.463 102.923C219.46 101.712 218.547 101.069 217.283 100.785L216.629 100.629C215.997 100.483 215.468 100.249 215.479 99.7266C215.479 99.2578 215.894 98.9134 216.647 98.9134C217.382 98.9134 217.833 99.2472 217.89 99.8189ZM220.469 105H221.982V99.5455H220.469V105ZM221.229 98.8423C221.68 98.8423 222.049 98.4979 222.049 98.0753C222.049 97.6562 221.68 97.3118 221.229 97.3118C220.781 97.3118 220.412 97.6562 220.412 98.0753C220.412 98.4979 220.781 98.8423 221.229 98.8423ZM224.706 101.847C224.71 101.143 225.129 100.732 225.74 100.732C226.347 100.732 226.713 101.129 226.709 101.797V105H228.222V101.527C228.222 100.256 227.476 99.4744 226.34 99.4744C225.53 99.4744 224.944 99.8722 224.699 100.508H224.635V99.5455H223.194V105H224.706V101.847ZM231.872 107.159C233.431 107.159 234.539 106.449 234.539 105.053V99.5455H233.036V100.462H232.98C232.777 100.018 232.333 99.4744 231.421 99.4744C230.224 99.4744 229.212 100.405 229.212 102.262C229.212 104.077 230.195 104.922 231.424 104.922C232.294 104.922 232.781 104.485 232.98 104.034H233.044V105.032C233.044 105.781 232.564 106.072 231.907 106.072C231.24 106.072 230.902 105.781 230.778 105.451L229.379 105.639C229.56 106.499 230.401 107.159 231.872 107.159ZM231.904 103.786C231.161 103.786 230.757 103.196 230.757 102.255C230.757 101.328 231.154 100.678 231.904 100.678C232.639 100.678 233.051 101.3 233.051 102.255C233.051 103.217 232.632 103.786 231.904 103.786ZM237.255 97.7273H235.742V105H237.255V97.7273ZM240.953 105.107C242.302 105.107 243.211 104.45 243.424 103.438L242.025 103.345C241.873 103.761 241.482 103.977 240.978 103.977C240.221 103.977 239.742 103.477 239.742 102.663V102.66H243.456V102.244C243.456 100.391 242.334 99.4744 240.892 99.4744C239.287 99.4744 238.247 100.614 238.247 102.298C238.247 104.027 239.273 105.107 240.953 105.107ZM239.742 101.722C239.774 101.101 240.246 100.604 240.917 100.604C241.574 100.604 242.029 101.072 242.032 101.722H239.742ZM249.222 105.107C250.675 105.107 251.588 104.254 251.659 103.001H250.231C250.142 103.583 249.759 103.91 249.24 103.91C248.534 103.91 248.075 103.317 248.075 102.273C248.075 101.243 248.537 100.653 249.24 100.653C249.794 100.653 250.149 101.019 250.231 101.562H251.659C251.595 100.302 250.639 99.4744 249.215 99.4744C247.561 99.4744 246.538 100.621 246.538 102.294C246.538 103.952 247.543 105.107 249.222 105.107ZM255.113 105.107C256.462 105.107 257.371 104.45 257.585 103.438L256.185 103.345C256.033 103.761 255.642 103.977 255.138 103.977C254.381 103.977 253.902 103.477 253.902 102.663V102.66H257.616V102.244C257.616 100.391 256.494 99.4744 255.053 99.4744C253.447 99.4744 252.407 100.614 252.407 102.298C252.407 104.027 253.433 105.107 255.113 105.107ZM253.902 101.722C253.934 101.101 254.406 100.604 255.077 100.604C255.734 100.604 256.189 101.072 256.192 101.722H253.902ZM258.604 105H260.116V101.914C260.116 101.243 260.607 100.781 261.274 100.781C261.484 100.781 261.771 100.817 261.913 100.863V99.5206C261.778 99.4886 261.59 99.4673 261.438 99.4673C260.827 99.4673 260.326 99.8224 260.127 100.497H260.07V99.5455H258.604V105ZM265.87 99.5455H264.844V98.2386H263.331V99.5455H262.585V100.682H263.331V103.523C263.324 104.592 264.052 105.121 265.149 105.075C265.54 105.06 265.817 104.982 265.97 104.933L265.732 103.807C265.657 103.821 265.497 103.857 265.355 103.857C265.053 103.857 264.844 103.743 264.844 103.324V100.682H265.87V99.5455ZM266.856 105H268.368V99.5455H266.856V105ZM267.616 98.8423C268.067 98.8423 268.436 98.4979 268.436 98.0753C268.436 97.6562 268.067 97.3118 267.616 97.3118C267.168 97.3118 266.799 97.6562 266.799 98.0753C266.799 98.4979 267.168 98.8423 267.616 98.8423ZM272.513 99.5455H271.43V99.1797C271.43 98.8104 271.58 98.5938 272.023 98.5938C272.205 98.5938 272.389 98.6328 272.51 98.6719L272.776 97.5355C272.588 97.4787 272.173 97.3864 271.707 97.3864C270.681 97.3864 269.918 97.9652 269.918 99.1513V99.5455H269.147V100.682H269.918V105H271.43V100.682H272.513V99.5455ZM273.438 105H274.95V99.5455H273.438V105ZM274.198 98.8423C274.649 98.8423 275.018 98.4979 275.018 98.0753C275.018 97.6562 274.649 97.3118 274.198 97.3118C273.75 97.3118 273.381 97.6562 273.381 98.0753C273.381 98.4979 273.75 98.8423 274.198 98.8423ZM278.627 105.107C280.079 105.107 280.992 104.254 281.063 103.001H279.635C279.547 103.583 279.163 103.91 278.645 103.91C277.938 103.91 277.48 103.317 277.48 102.273C277.48 101.243 277.941 100.653 278.645 100.653C279.199 100.653 279.554 101.019 279.635 101.562H281.063C280.999 100.302 280.044 99.4744 278.62 99.4744C276.965 99.4744 275.942 100.621 275.942 102.294C275.942 103.952 276.947 105.107 278.627 105.107ZM283.587 105.103C284.393 105.103 284.915 104.751 285.181 104.244H285.224V105H286.659V101.321C286.659 100.021 285.558 99.4744 284.343 99.4744C283.036 99.4744 282.177 100.099 281.968 101.094L283.367 101.207C283.47 100.845 283.793 100.579 284.336 100.579C284.851 100.579 285.146 100.838 285.146 101.286V101.307C285.146 101.658 284.773 101.705 283.825 101.797C282.745 101.896 281.776 102.259 281.776 103.477C281.776 104.556 282.546 105.103 283.587 105.103ZM284.02 104.059C283.555 104.059 283.221 103.842 283.221 103.427C283.221 103.001 283.573 102.791 284.105 102.717C284.436 102.67 284.975 102.592 285.156 102.472V103.05C285.156 103.622 284.684 104.059 284.02 104.059ZM290.733 99.5455H289.707V98.2386H288.194V99.5455H287.449V100.682H288.194V103.523C288.187 104.592 288.915 105.121 290.013 105.075C290.403 105.06 290.68 104.982 290.833 104.933L290.595 103.807C290.52 103.821 290.361 103.857 290.219 103.857C289.917 103.857 289.707 103.743 289.707 103.324V100.682H290.733V99.5455ZM294.146 105.107C295.496 105.107 296.405 104.45 296.618 103.438L295.219 103.345C295.066 103.761 294.675 103.977 294.171 103.977C293.415 103.977 292.935 103.477 292.935 102.663V102.66H296.65V102.244C296.65 100.391 295.528 99.4744 294.086 99.4744C292.481 99.4744 291.44 100.614 291.44 102.298C291.44 104.027 292.466 105.107 294.146 105.107ZM292.935 101.722C292.967 101.101 293.439 100.604 294.111 100.604C294.768 100.604 295.222 101.072 295.226 101.722H292.935ZM299.951 105H301.464V99.5455H299.951V105ZM300.711 98.8423C301.162 98.8423 301.532 98.4979 301.532 98.0753C301.532 97.6562 301.162 97.3118 300.711 97.3118C300.264 97.3118 299.895 97.6562 299.895 98.0753C299.895 98.4979 300.264 98.8423 300.711 98.8423ZM307.214 101.101C307.079 100.096 306.27 99.4744 304.892 99.4744C303.496 99.4744 302.577 100.121 302.58 101.172C302.577 101.989 303.091 102.518 304.157 102.731L305.101 102.919C305.577 103.015 305.794 103.189 305.801 103.462C305.794 103.786 305.442 104.016 304.913 104.016C304.373 104.016 304.015 103.786 303.922 103.342L302.434 103.42C302.577 104.464 303.464 105.107 304.91 105.107C306.323 105.107 307.335 104.386 307.339 103.31C307.335 102.521 306.82 102.049 305.762 101.832L304.775 101.634C304.267 101.523 304.079 101.349 304.082 101.087C304.079 100.76 304.448 100.547 304.917 100.547C305.442 100.547 305.755 100.835 305.829 101.186L307.214 101.101ZM205.827 113.678C205.831 114.409 205.33 114.793 204.787 114.793C204.215 114.793 203.846 114.391 203.842 113.749V110.545H202.329V114.018C202.333 115.293 203.079 116.071 204.176 116.071C204.996 116.071 205.586 115.648 205.831 115.009H205.888V116H207.34V110.545H205.827V113.678ZM213.088 112.101C212.953 111.096 212.144 110.474 210.766 110.474C209.37 110.474 208.451 111.121 208.454 112.172C208.451 112.989 208.965 113.518 210.031 113.731L210.975 113.919C211.451 114.015 211.668 114.189 211.675 114.462C211.668 114.786 211.316 115.016 210.787 115.016C210.247 115.016 209.889 114.786 209.796 114.342L208.309 114.42C208.451 115.464 209.338 116.107 210.784 116.107C212.197 116.107 213.209 115.386 213.213 114.31C213.209 113.521 212.694 113.049 211.636 112.832L210.649 112.634C210.141 112.523 209.953 112.349 209.956 112.087C209.953 111.76 210.322 111.547 210.791 111.547C211.316 111.547 211.629 111.835 211.703 112.186L213.088 112.101ZM216.651 116.107C218 116.107 218.91 115.45 219.123 114.438L217.723 114.345C217.571 114.761 217.18 114.977 216.676 114.977C215.919 114.977 215.44 114.477 215.44 113.663V113.66H219.155V113.244C219.155 111.391 218.032 110.474 216.591 110.474C214.986 110.474 213.945 111.614 213.945 113.298C213.945 115.027 214.971 116.107 216.651 116.107ZM215.44 112.722C215.472 112.101 215.944 111.604 216.616 111.604C217.272 111.604 217.727 112.072 217.731 112.722H215.44ZM222.152 116.089C223.032 116.089 223.491 115.581 223.7 115.126H223.764V116H225.255V108.727H223.746V111.462H223.7C223.498 111.018 223.061 110.474 222.148 110.474C220.951 110.474 219.939 111.405 219.939 113.28C219.939 115.105 220.909 116.089 222.152 116.089ZM222.631 114.885C221.889 114.885 221.484 114.224 221.484 113.273C221.484 112.328 221.882 111.678 222.631 111.678C223.366 111.678 223.778 112.3 223.778 113.273C223.778 114.246 223.359 114.885 222.631 114.885ZM228.842 116H230.334V115.126H230.401C230.611 115.581 231.069 116.089 231.949 116.089C233.192 116.089 234.162 115.105 234.162 113.28C234.162 111.405 233.15 110.474 231.953 110.474C231.04 110.474 230.603 111.018 230.401 111.462H230.355V108.727H228.842V116ZM230.323 113.273C230.323 112.3 230.735 111.678 231.47 111.678C232.219 111.678 232.617 112.328 232.617 113.273C232.617 114.224 232.212 114.885 231.47 114.885C230.742 114.885 230.323 114.246 230.323 113.273ZM235.919 118.045C237.045 118.045 237.642 117.47 237.951 116.589L240.071 110.553L238.469 110.545L237.329 114.551H237.272L236.143 110.545H234.552L236.509 116.156L236.42 116.387C236.221 116.898 235.841 116.923 235.309 116.76L234.968 117.889C235.184 117.982 235.536 118.045 235.919 118.045ZM243.159 116H244.672V112.726C244.672 112.122 245.056 111.721 245.56 111.721C246.057 111.721 246.391 112.062 246.391 112.598V116H247.858V112.669C247.858 112.104 248.181 111.721 248.731 111.721C249.214 111.721 249.576 112.023 249.576 112.63V116H251.085V112.332C251.085 111.149 250.382 110.474 249.367 110.474C248.568 110.474 247.946 110.883 247.723 111.508H247.666C247.492 110.876 246.934 110.474 246.185 110.474C245.45 110.474 244.892 110.865 244.665 111.508H244.601V110.545H243.159V116ZM255.778 113.678C255.782 114.409 255.281 114.793 254.738 114.793C254.166 114.793 253.797 114.391 253.793 113.749V110.545H252.28V114.018C252.284 115.293 253.03 116.071 254.127 116.071C254.947 116.071 255.537 115.648 255.782 115.009H255.839V116H257.291V110.545H255.778V113.678ZM260.014 108.727H258.501V116H260.014V108.727ZM264.127 110.545H263.101V109.239H261.588V110.545H260.842V111.682H261.588V114.523C261.581 115.592 262.309 116.121 263.406 116.075C263.797 116.06 264.074 115.982 264.226 115.933L263.989 114.807C263.914 114.821 263.754 114.857 263.612 114.857C263.31 114.857 263.101 114.743 263.101 114.324V111.682H264.127V110.545ZM265.112 116H266.625V110.545H265.112V116ZM265.872 109.842C266.323 109.842 266.693 109.498 266.693 109.075C266.693 108.656 266.323 108.312 265.872 108.312C265.425 108.312 265.056 108.656 265.056 109.075C265.056 109.498 265.425 109.842 265.872 109.842ZM267.837 118.045H269.35V115.126H269.396C269.606 115.581 270.064 116.089 270.944 116.089C272.187 116.089 273.157 115.105 273.157 113.28C273.157 111.405 272.145 110.474 270.948 110.474C270.035 110.474 269.598 111.018 269.396 111.462H269.329V110.545H267.837V118.045ZM269.318 113.273C269.318 112.3 269.73 111.678 270.465 111.678C271.214 111.678 271.612 112.328 271.612 113.273C271.612 114.224 271.207 114.885 270.465 114.885C269.737 114.885 269.318 114.246 269.318 113.273ZM275.678 108.727H274.165V116H275.678V108.727ZM279.376 116.107C280.725 116.107 281.634 115.45 281.847 114.438L280.448 114.345C280.295 114.761 279.905 114.977 279.4 114.977C278.644 114.977 278.165 114.477 278.165 113.663V113.66H281.879V113.244C281.879 111.391 280.757 110.474 279.315 110.474C277.71 110.474 276.67 111.614 276.67 113.298C276.67 115.027 277.696 116.107 279.376 116.107ZM278.165 112.722C278.197 112.101 278.669 111.604 279.34 111.604C279.997 111.604 280.452 112.072 280.455 112.722H278.165ZM285.181 118.045H286.694V115.126H286.74C286.949 115.581 287.407 116.089 288.288 116.089C289.531 116.089 290.5 115.105 290.5 113.28C290.5 111.405 289.488 110.474 288.292 110.474C287.379 110.474 286.942 111.018 286.74 111.462H286.672V110.545H285.181V118.045ZM286.662 113.273C286.662 112.3 287.074 111.678 287.809 111.678C288.558 111.678 288.956 112.328 288.956 113.273C288.956 114.224 288.551 114.885 287.809 114.885C287.081 114.885 286.662 114.246 286.662 113.273ZM293.064 116.103C293.87 116.103 294.392 115.751 294.659 115.244H294.701V116H296.136V112.321C296.136 111.021 295.035 110.474 293.821 110.474C292.514 110.474 291.655 111.099 291.445 112.094L292.844 112.207C292.947 111.845 293.27 111.579 293.814 111.579C294.329 111.579 294.623 111.838 294.623 112.286V112.307C294.623 112.658 294.25 112.705 293.302 112.797C292.223 112.896 291.253 113.259 291.253 114.477C291.253 115.556 292.024 116.103 293.064 116.103ZM293.498 115.059C293.032 115.059 292.699 114.842 292.699 114.427C292.699 114.001 293.05 113.791 293.583 113.717C293.913 113.67 294.453 113.592 294.634 113.472V114.05C294.634 114.622 294.162 115.059 293.498 115.059ZM297.31 116H298.823V112.914C298.823 112.243 299.313 111.781 299.98 111.781C300.19 111.781 300.477 111.817 300.619 111.863V110.521C300.484 110.489 300.296 110.467 300.144 110.467C299.533 110.467 299.032 110.822 298.833 111.497H298.776V110.545H297.31V116ZM304.576 110.545H303.55V109.239H302.037V110.545H301.291V111.682H302.037V114.523C302.03 115.592 302.758 116.121 303.855 116.075C304.246 116.06 304.523 115.982 304.676 115.933L304.438 114.807C304.363 114.821 304.203 114.857 304.061 114.857C303.759 114.857 303.55 114.743 303.55 114.324V111.682H304.576V110.545ZM305.562 116H307.074V110.545H305.562V116ZM306.322 109.842C306.773 109.842 307.142 109.498 307.142 109.075C307.142 108.656 306.773 108.312 306.322 108.312C305.874 108.312 305.505 108.656 305.505 109.075C305.505 109.498 305.874 109.842 306.322 109.842ZM310.772 116.107C312.122 116.107 313.031 115.45 313.244 114.438L311.845 114.345C311.692 114.761 311.301 114.977 310.797 114.977C310.041 114.977 309.561 114.477 309.561 113.663V113.66H313.276V113.244C313.276 111.391 312.153 110.474 310.712 110.474C309.107 110.474 308.066 111.614 308.066 113.298C308.066 115.027 309.092 116.107 310.772 116.107ZM309.561 112.722C309.593 112.101 310.065 111.604 310.737 111.604C311.394 111.604 311.848 112.072 311.852 112.722H309.561ZM318.801 112.101C318.666 111.096 317.857 110.474 316.479 110.474C315.083 110.474 314.163 111.121 314.167 112.172C314.163 112.989 314.678 113.518 315.744 113.731L316.688 113.919C317.164 114.015 317.381 114.189 317.388 114.462C317.381 114.786 317.029 115.016 316.5 115.016C315.96 115.016 315.602 114.786 315.509 114.342L314.021 114.42C314.163 115.464 315.051 116.107 316.497 116.107C317.91 116.107 318.922 115.386 318.926 114.31C318.922 113.521 318.407 113.049 317.349 112.832L316.362 112.634C315.854 112.523 315.666 112.349 315.669 112.087C315.666 111.76 316.035 111.547 316.504 111.547C317.029 111.547 317.342 111.835 317.416 112.186L318.801 112.101Z" fill="#323847"/>
<path d="M64 39L94 23" stroke="#323847" stroke-width="1.5"/>
<path d="M87.1172 21L93.7895 23.1168L91.6727 29.7891" stroke="#323847" stroke-width="1.5"/>
<path d="M64 54L94 70" stroke="#323847" stroke-width="1.5"/>
<path d="M87.1172 72L93.7895 69.8832L91.6727 63.2109" stroke="#323847" stroke-width="1.5"/>
<path d="M245 39L275 23" stroke="#323847" stroke-width="1.5"/>
<path d="M268.117 21L274.789 23.1168L272.673 29.7891" stroke="#323847" stroke-width="1.5"/>
<path d="M245 54L275 70" stroke="#323847" stroke-width="1.5"/>
<path d="M268.117 72L274.789 69.8832L272.673 63.2109" stroke="#323847" stroke-width="1.5"/>
<path fill-rule="evenodd" clip-rule="evenodd" d="M289.413 7.76804L288.25 7V8.39392V37.6439H283V39.1439H288.25H289H301H313H325H325.75H331V37.6439H325.75V16.317V15.9135L325.413 15.6911L313.413 7.76804L312.25 7V8.39392V14.9231L301.413 7.76804L300.25 7V8.39392V14.9231L289.413 7.76804ZM324.25 37.6439V16.7205L313.75 9.78784V16.317V17.7109L312.587 16.9429L301.75 9.78784V16.317V17.7109L300.587 16.9429L289.75 9.78784V37.6439H301H313H324.25ZM293 21.6439H292.25V22.3939V26.3939V27.1439H293H297H297.75V26.3939V22.3939V21.6439H297H293ZM293.75 25.6439V23.1439H296.25V25.6439H293.75ZM308.25 21.6439H309H313H313.75V22.3939V26.3939V27.1439H313H309H308.25V26.3939V22.3939V21.6439ZM309.75 23.1439V25.6439H312.25V23.1439H309.75ZM301 21.6439H300.25V22.3939V26.3939V27.1439H301H305H305.75V26.3939V22.3939V21.6439H305H301ZM301.75 25.6439V23.1439H304.25V25.6439H301.75ZM316.25 21.6439H317H321H321.75V22.3939V26.3939V27.1439H321H317H316.25V26.3939V22.3939V21.6439ZM317.75 23.1439V25.6439H320.25V23.1439H317.75ZM301 29.6439H300.25V30.3939V34.3939V35.1439H301H305H305.75V34.3939V30.3939V29.6439H305H301ZM301.75 33.6439V31.1439H304.25V33.6439H301.75ZM316.25 29.6439H317H321H321.75V30.3939V34.3939V35.1439H321H317H316.25V34.3939V30.3939V29.6439ZM317.75 31.1439V33.6439H320.25V31.1439H317.75ZM293 29.6439H292.25V30.3939V34.3939V35.1439H293H297H297.75V34.3939V30.3939V29.6439H297H293ZM293.75 33.6439V31.1439H296.25V33.6439H293.75ZM308.25 29.6439H309H313H313.75V30.3939V34.3939V35.1439H313H309H308.25V34.3939V30.3939V29.6439ZM309.75 31.1439V33.6439H312.25V31.1439H309.75Z" fill="#323847"/>
<path fill-rule="evenodd" clip-rule="evenodd" d="M289.413 57.3735L288.25 56.6055V57.9994V87.2494H283V88.7494H288.25H289H301H313H325H325.75H331V87.2494H325.75V65.9225V65.5189L325.413 65.2966L313.413 57.3735L312.25 56.6055V57.9994V64.5285L301.413 57.3735L300.25 56.6055V57.9994V64.5285L289.413 57.3735ZM324.25 87.2494V66.326L313.75 59.3933V65.9225V67.3164L312.587 66.5484L301.75 59.3933V65.9225V67.3164L300.587 66.5484L289.75 59.3933V87.2494H301H313H324.25ZM293 71.2494H292.25V71.9994V75.9994V76.7494H293H297H297.75V75.9994V71.9994V71.2494H297H293ZM293.75 75.2494V72.7494H296.25V75.2494H293.75ZM308.25 71.2494H309H313H313.75V71.9994V75.9994V76.7494H313H309H308.25V75.9994V71.9994V71.2494ZM309.75 72.7494V75.2494H312.25V72.7494H309.75ZM301 71.2494H300.25V71.9994V75.9994V76.7494H301H305H305.75V75.9994V71.9994V71.2494H305H301ZM301.75 75.2494V72.7494H304.25V75.2494H301.75ZM316.25 71.2494H317H321H321.75V71.9994V75.9994V76.7494H321H317H316.25V75.9994V71.9994V71.2494ZM317.75 72.7494V75.2494H320.25V72.7494H317.75ZM301 79.2494H300.25V79.9994V83.9994V84.7494H301H305H305.75V83.9994V79.9994V79.2494H305H301ZM301.75 83.2494V80.7494H304.25V83.2494H301.75ZM316.25 79.2494H317H321H321.75V79.9994V83.9994V84.7494H321H317H316.25V83.9994V79.9994V79.2494ZM317.75 80.7494V83.2494H320.25V80.7494H317.75ZM293 79.2494H292.25V79.9994V83.9994V84.7494H293H297H297.75V83.9994V79.9994V79.2494H297H293ZM293.75 83.2494V80.7494H296.25V83.2494H293.75ZM308.25 79.2494H309H313H313.75V79.9994V83.9994V84.7494H313H309H308.25V83.9994V79.9994V79.2494ZM309.75 80.7494V83.2494H312.25V80.7494H309.75Z" fill="#323847"/>
<path fill-rule="evenodd" clip-rule="evenodd" d="M198.5 33.5H229.5V42.0835C228.449 41.5504 227.259 41.25 226 41.25C221.72 41.25 218.25 44.7198 218.25 49C218.25 50.678 218.783 52.2314 219.69 53.5H198.5V33.5ZM221.75 55.4818V61.2865L225.665 59.3292L226 59.1615L226.335 59.3292L230.25 61.2865V55.4818C229.03 56.2836 227.569 56.75 226 56.75C224.431 56.75 222.97 56.2836 221.75 55.4818ZM231.75 54.1962V54.5V62.5V63.7135L230.665 63.1708L226 60.8385L221.335 63.1708L220.25 63.7135V62.5V55H198.5H197V53.5V33.5V32H198.5H229.5H231V33.5V43.0784C232.682 44.5 233.75 46.6253 233.75 49C233.75 50.9992 232.993 52.8216 231.75 54.1962ZM226 38.25H202V36.75H226V38.25ZM221 41.25H206V39.75H221V41.25ZM219.75 49C219.75 45.5482 222.548 42.75 226 42.75C229.452 42.75 232.25 45.5482 232.25 49C232.25 52.4518 229.452 55.25 226 55.25C222.548 55.25 219.75 52.4518 219.75 49ZM226 45.75C224.205 45.75 222.75 47.2051 222.75 49C222.75 50.7949 224.205 52.25 226 52.25C227.795 52.25 229.25 50.7949 229.25 49C229.25 47.2051 227.795 45.75 226 45.75ZM221.25 49C221.25 46.3766 223.377 44.25 226 44.25C228.623 44.25 230.75 46.3766 230.75 49C230.75 51.6234 228.623 53.75 226 53.75C223.377 53.75 221.25 51.6234 221.25 49ZM201 51.25H212V49.75H201V51.25ZM238 66.75H190V65.25H238V66.75Z" fill="#323847"/>
<path fill-rule="evenodd" clip-rule="evenodd" d="M110.5 55.5H141.5V64.0835C140.449 63.5504 139.259 63.25 138 63.25C133.72 63.25 130.25 66.7198 130.25 71C130.25 72.678 130.783 74.2314 131.69 75.5H110.5V55.5ZM133.75 77.4818V83.2865L137.665 81.3292L138 81.1615L138.335 81.3292L142.25 83.2865V77.4818C141.03 78.2836 139.569 78.75 138 78.75C136.431 78.75 134.97 78.2836 133.75 77.4818ZM143.75 76.1962V76.5V84.5V85.7135L142.665 85.1708L138 82.8385L133.335 85.1708L132.25 85.7135V84.5V77H110.5H109V75.5V55.5V54H110.5H141.5H143V55.5V65.0784C144.682 66.5 145.75 68.6253 145.75 71C145.75 72.9992 144.993 74.8216 143.75 76.1962ZM138 60.25H114V58.75H138V60.25ZM133 63.25H118V61.75H133V63.25ZM131.75 71C131.75 67.5482 134.548 64.75 138 64.75C141.452 64.75 144.25 67.5482 144.25 71C144.25 74.4518 141.452 77.25 138 77.25C134.548 77.25 131.75 74.4518 131.75 71ZM138 67.75C136.205 67.75 134.75 69.2051 134.75 71C134.75 72.7949 136.205 74.25 138 74.25C139.795 74.25 141.25 72.7949 141.25 71C141.25 69.2051 139.795 67.75 138 67.75ZM133.25 71C133.25 68.3766 135.377 66.25 138 66.25C140.623 66.25 142.75 68.3766 142.75 71C142.75 73.6234 140.623 75.75 138 75.75C135.377 75.75 133.25 73.6234 133.25 71ZM113 73.25H124V71.75H113V73.25ZM150 88.75H102V87.25H150V88.75Z" fill="#323847"/>
<path fill-rule="evenodd" clip-rule="evenodd" d="M110.5 5.5H141.5V14.0835C140.449 13.5504 139.259 13.25 138 13.25C133.72 13.25 130.25 16.7198 130.25 21C130.25 22.678 130.783 24.2314 131.69 25.5H110.5V5.5ZM133.75 27.4818V33.2865L137.665 31.3292L138 31.1615L138.335 31.3292L142.25 33.2865V27.4818C141.03 28.2836 139.569 28.75 138 28.75C136.431 28.75 134.97 28.2836 133.75 27.4818ZM143.75 26.1962V26.5V34.5V35.7135L142.665 35.1708L138 32.8385L133.335 35.1708L132.25 35.7135V34.5V27H110.5H109V25.5V5.5V4H110.5H141.5H143V5.5V15.0784C144.682 16.5 145.75 18.6253 145.75 21C145.75 22.9992 144.993 24.8216 143.75 26.1962ZM138 10.25H114V8.75H138V10.25ZM133 13.25H118V11.75H133V13.25ZM131.75 21C131.75 17.5482 134.548 14.75 138 14.75C141.452 14.75 144.25 17.5482 144.25 21C144.25 24.4518 141.452 27.25 138 27.25C134.548 27.25 131.75 24.4518 131.75 21ZM138 17.75C136.205 17.75 134.75 19.2051 134.75 21C134.75 22.7949 136.205 24.25 138 24.25C139.795 24.25 141.25 22.7949 141.25 21C141.25 19.2051 139.795 17.75 138 17.75ZM133.25 21C133.25 18.3766 135.377 16.25 138 16.25C140.623 16.25 142.75 18.3766 142.75 21C142.75 23.6234 140.623 25.75 138 25.75C135.377 25.75 133.25 23.6234 133.25 21ZM113 23.25H124V21.75H113V23.25ZM150 38.75H102V37.25H150V38.75Z" fill="#323847"/>
<path fill-rule="evenodd" clip-rule="evenodd" d="M45 22.25C40.7198 22.25 37.25 25.7198 37.25 30V32.1642C36.1817 30.9889 34.6694 30.25 32.9767 30.25C30.9439 30.25 29.1711 31.3158 28.1153 32.9234C26.9247 30.1737 24.187 28.25 21 28.25C16.7198 28.25 13.25 31.7198 13.25 36V49C13.25 53.0272 16.3217 56.337 20.25 56.7142V65.25H9V66.75H57V65.25H45.75V53.7142C49.6783 53.337 52.75 50.0272 52.75 46V30C52.75 25.7198 49.2802 22.25 45 22.25ZM44.25 65.25V53.7142C43.1479 53.6083 42.1133 53.2717 41.195 52.7532C40.027 55.9641 37.1415 58.3988 33.75 58.7151V65.25H44.25ZM32.25 65.25V58.7154C29.6804 58.4778 27.4121 57.034 25.9532 54.9608C24.7906 55.928 23.3405 56.5614 21.75 56.7142V65.25H32.25ZM45.75 47.3107V52.2055C48.8482 51.8349 51.25 49.198 51.25 46V30C51.25 26.5482 48.4518 23.75 45 23.75C41.5482 23.75 38.75 26.5482 38.75 30V35.1696C38.8263 35.5633 38.8663 35.9699 38.8663 36.3854V36.6778C38.8663 37.885 38.8668 38.4665 38.9021 38.947C38.9362 39.4124 39.0033 39.7859 39.1553 40.5823L39.1558 40.585C39.3687 41.7228 39.7935 42.6423 40.2613 43.6474L40.2623 43.6495L40.2677 43.6611C40.9735 45.1895 41.75 46.8711 41.75 49.6173C41.75 50.1711 41.6995 50.716 41.603 51.2471C42.3828 51.753 43.2824 52.0898 44.25 52.2055V38.3107L40.4697 34.5303L41.5303 33.4697L44.25 36.1893V32H45.75V45.1893L48.4697 42.4697L49.5303 43.5303L45.75 47.3107ZM33.75 57.2066C37.3032 56.7941 40.25 53.4988 40.25 49.6173C40.25 47.205 39.5889 45.7691 38.901 44.2794L38.9005 44.2783L38.8893 44.2543C38.4304 43.2686 37.9317 42.1975 37.6816 40.8622C37.5315 40.0755 37.4475 39.6207 37.4061 39.0568C37.3663 38.5145 37.3663 37.8746 37.3663 36.7211V36.6778V36.3854C37.3663 33.7933 35.3671 31.75 32.9767 31.75C30.5864 31.75 28.5872 33.7933 28.5872 36.3854V36.6778C28.5872 39.0845 28.5867 39.2275 28.3215 40.8443L28.319 40.8593L28.316 40.8741C28.0442 42.1947 27.5523 43.2797 27.1167 44.2404L27.1017 44.2736L27.0995 44.2783C26.4119 45.7673 25.75 47.2282 25.75 49.6173C25.75 53.5015 28.6797 56.7966 32.25 57.207V54.0002V53V48.8107L28.4697 45.0303L29.5303 43.9697L32.25 46.6893V40H33.75V51.1893L35.9697 48.9697L37.0303 50.0303L33.75 53.3107V54.0002V57.2066ZM21.75 55.2055C23.0609 55.0487 24.2472 54.4861 25.1796 53.6469C24.5855 52.4206 24.25 51.0483 24.25 49.6173C24.25 46.8905 25.0292 45.1839 25.7366 43.6518C26.1788 42.6763 26.6067 41.7286 26.8438 40.5863C27.0872 39.1018 27.0872 39.0395 27.0872 36.6923V36.6778V36.3854C27.0872 35.9788 27.1255 35.5807 27.1986 35.1949C26.8036 32.1234 24.179 29.75 21 29.75C17.5482 29.75 14.75 32.5482 14.75 36V49C14.75 52.198 17.1518 54.8349 20.25 55.2055V49.3107L16.9697 46.0303L18.0303 44.9697L20.25 47.1893V36H21.75V43.1893L24.4697 40.4697L25.5303 41.5303L21.75 45.3107V55.2055Z" fill="#323847"/>
</svg>
