<svg width="340" height="102" viewBox="0 0 340 102" fill="none" xmlns="http://www.w3.org/2000/svg">
<path d="M300 91L181 91" stroke="#323847" stroke-width="2"/>
<path opacity="0.15" d="M300 71H279" stroke="#323847" stroke-width="2"/>
<path opacity="0.15" d="M273 71L40 71" stroke="#323847" stroke-width="2"/>
<path opacity="0.15" d="M300 51H279" stroke="#323847" stroke-width="2"/>
<path opacity="0.15" d="M168 51L71 51" stroke="#323847" stroke-width="2"/>
<path opacity="0.15" d="M300 31H279" stroke="#323847" stroke-width="2"/>
<path opacity="0.15" d="M273 31L40 31" stroke="#323847" stroke-width="2"/>
<path d="M300 11L132 11" stroke="#323847" stroke-width="2"/>
<path fill-rule="evenodd" clip-rule="evenodd" d="M277 78V80H275L275 78H277ZM277 74V76H275L275 74H277ZM277 70L277 72H275L275 70L277 70ZM277 66V68H275L275 66H277ZM277 62V64H275L275 62H277ZM277 58V60H275L275 58H277ZM277 54L277 56H275L275 54H277ZM277 50V52H275L275 50H277ZM277 46V48H275L275 46H277ZM277 42L277 44H275L275 42H277ZM277 38L277 40H275L275 38H277ZM277 34V36H275L275 34H277ZM277 30V32H275L275 30H277ZM277 26L277 28H275L275 26H277ZM277 22L277 24L275 24L275 22L277 22Z" fill="#1EAD1E"/>
<path fill-rule="evenodd" clip-rule="evenodd" d="M276.001 15.5859L282.365 21.9499L280.95 23.3641L276.001 18.4144L271.051 23.3641L269.637 21.9499L276.001 15.5859Z" fill="#1EAD1E"/>
<path fill-rule="evenodd" clip-rule="evenodd" d="M276.001 86.7274L282.365 80.3634L280.95 78.9492L276.001 83.899L271.051 78.9492L269.637 80.3634L276.001 86.7274Z" fill="#1EAD1E"/>
<path d="M44.5774 88.8189H46.0511C46.0298 87.5227 44.9645 86.6278 43.3452 86.6278C41.7507 86.6278 40.5824 87.5085 40.5895 88.8295C40.5859 89.902 41.3423 90.5163 42.571 90.8111L43.3629 91.0099C44.1548 91.2017 44.5952 91.429 44.5987 91.919C44.5952 92.4517 44.0909 92.8139 43.3097 92.8139C42.5107 92.8139 41.9354 92.4446 41.8857 91.7166H40.3977C40.4368 93.2898 41.5625 94.103 43.3274 94.103C45.103 94.103 46.147 93.2543 46.1506 91.9226C46.147 90.7116 45.2344 90.0689 43.9702 89.7848L43.3168 89.6286C42.6847 89.483 42.1555 89.2486 42.1662 88.7266C42.1662 88.2578 42.5817 87.9134 43.3345 87.9134C44.0696 87.9134 44.5206 88.2472 44.5774 88.8189ZM49.6209 94.1065C51.0733 94.1065 51.986 93.2543 52.057 92.0007H50.6294C50.5407 92.5831 50.1571 92.9098 49.6387 92.9098C48.932 92.9098 48.4739 92.3168 48.4739 91.2727C48.4739 90.2429 48.9355 89.6534 49.6387 89.6534C50.1926 89.6534 50.5478 90.0192 50.6294 90.5625H52.057C51.9931 89.3018 51.0378 88.4744 49.6138 88.4744C47.959 88.4744 46.9363 89.6214 46.9363 91.294C46.9363 92.9524 47.9412 94.1065 49.6209 94.1065ZM55.5114 94.1065C56.8608 94.1065 57.7699 93.4496 57.983 92.4375L56.5838 92.3452C56.4311 92.7607 56.0405 92.9773 55.5362 92.9773C54.7798 92.9773 54.3004 92.4766 54.3004 91.6634V91.6598H58.0149V91.2443C58.0149 89.3906 56.8928 88.4744 55.451 88.4744C53.8459 88.4744 52.8054 89.6143 52.8054 91.2976C52.8054 93.027 53.8317 94.1065 55.5114 94.1065ZM54.3004 90.7223C54.3324 90.1009 54.8047 89.6037 55.4759 89.6037C56.1328 89.6037 56.5874 90.0724 56.5909 90.7223H54.3004ZM60.5149 90.8466C60.5185 90.1435 60.9375 89.7315 61.5483 89.7315C62.1555 89.7315 62.5213 90.1293 62.5178 90.7969V94H64.0305V90.527C64.0305 89.2557 63.2848 88.4744 62.1484 88.4744C61.3388 88.4744 60.7528 88.8722 60.5078 89.5078H60.4439V88.5455H59.0021V94H60.5149V90.8466ZM66.7782 94.103C67.5843 94.103 68.1064 93.7514 68.3727 93.2436H68.4153V94H69.85V90.321C69.85 89.0213 68.7491 88.4744 67.5346 88.4744C66.2278 88.4744 65.3684 89.0994 65.1589 90.0938L66.5581 90.2074C66.661 89.8452 66.9842 89.5788 67.5275 89.5788C68.0424 89.5788 68.3372 89.8381 68.3372 90.2855V90.3068C68.3372 90.6584 67.9643 90.7045 67.0162 90.7969C65.9366 90.8963 64.9672 91.2585 64.9672 92.4766C64.9672 93.5561 65.7377 94.103 66.7782 94.103ZM67.2115 93.0589C66.7463 93.0589 66.4125 92.8423 66.4125 92.4268C66.4125 92.0007 66.764 91.7912 67.2967 91.7166C67.627 91.6705 68.1667 91.5923 68.3478 91.4716V92.0504C68.3478 92.6222 67.8755 93.0589 67.2115 93.0589ZM71.0236 94H72.5364V90.9141C72.5364 90.2429 73.0265 89.7812 73.6941 89.7812C73.9036 89.7812 74.1912 89.8168 74.3333 89.8629V88.5206C74.1983 88.4886 74.0101 88.4673 73.8574 88.4673C73.2466 88.4673 72.7459 88.8224 72.5471 89.4972H72.4902V88.5455H71.0236V94ZM75.1154 94H76.6282V88.5455H75.1154V94ZM75.8754 87.8423C76.3263 87.8423 76.6957 87.4979 76.6957 87.0753C76.6957 86.6562 76.3263 86.3118 75.8754 86.3118C75.4279 86.3118 75.0586 86.6562 75.0586 87.0753C75.0586 87.4979 75.4279 87.8423 75.8754 87.8423ZM80.3045 94.1065C81.9593 94.1065 82.9892 92.9737 82.9892 91.294C82.9892 89.6037 81.9593 88.4744 80.3045 88.4744C78.6497 88.4744 77.6199 89.6037 77.6199 91.294C77.6199 92.9737 78.6497 94.1065 80.3045 94.1065ZM80.3116 92.9347C79.5481 92.9347 79.1575 92.2351 79.1575 91.2834C79.1575 90.3317 79.5481 89.6286 80.3116 89.6286C81.0609 89.6286 81.4515 90.3317 81.4515 91.2834C81.4515 92.2351 81.0609 92.9347 80.3116 92.9347ZM87.3633 94H88.9613L89.8988 90.5696H89.9663L90.9038 94H92.5053L93.9862 88.5455H92.4592L91.6282 92.1889H91.582L90.6871 88.5455H89.185L88.3043 92.2102H88.2546L87.4094 88.5455H85.8789L87.3633 94ZM94.7931 94H96.3059V88.5455H94.7931V94ZM95.5531 87.8423C96.0041 87.8423 96.3734 87.4979 96.3734 87.0753C96.3734 86.6562 96.0041 86.3118 95.5531 86.3118C95.1056 86.3118 94.7363 86.6562 94.7363 87.0753C94.7363 87.4979 95.1056 87.8423 95.5531 87.8423ZM100.419 88.5455H99.3928V87.2386H97.88V88.5455H97.1342V89.6818H97.88V92.5227C97.8729 93.5916 98.6009 94.1207 99.6982 94.0746C100.089 94.0604 100.366 93.9822 100.518 93.9325L100.281 92.8068C100.206 92.821 100.046 92.8565 99.9041 92.8565C99.6023 92.8565 99.3928 92.7429 99.3928 92.3239V89.6818H100.419V88.5455ZM103.034 90.8466C103.038 90.1435 103.468 89.7315 104.086 89.7315C104.7 89.7315 105.062 90.1257 105.059 90.7969V94H106.571V90.527C106.575 89.2486 105.822 88.4744 104.686 88.4744C103.858 88.4744 103.304 88.8651 103.056 89.5078H102.992V86.7273H101.522V94H103.034V90.8466ZM112.541 94.1065C114.196 94.1065 115.225 92.9737 115.225 91.294C115.225 89.6037 114.196 88.4744 112.541 88.4744C110.886 88.4744 109.856 89.6037 109.856 91.294C109.856 92.9737 110.886 94.1065 112.541 94.1065ZM112.548 92.9347C111.784 92.9347 111.394 92.2351 111.394 91.2834C111.394 90.3317 111.784 89.6286 112.548 89.6286C113.297 89.6286 113.688 90.3317 113.688 91.2834C113.688 92.2351 113.297 92.9347 112.548 92.9347ZM119.142 88.5455H118.059V88.1797C118.059 87.8104 118.208 87.5938 118.652 87.5938C118.833 87.5938 119.018 87.6328 119.139 87.6719L119.405 86.5355C119.217 86.4787 118.801 86.3864 118.336 86.3864C117.31 86.3864 116.547 86.9652 116.547 88.1513V88.5455H115.776V89.6818H116.547V94H118.059V89.6818H119.142V88.5455ZM123 88.5455H121.917V88.1797C121.917 87.8104 122.066 87.5938 122.51 87.5938C122.691 87.5938 122.876 87.6328 122.996 87.6719L123.263 86.5355C123.074 86.4787 122.659 86.3864 122.194 86.3864C121.167 86.3864 120.404 86.9652 120.404 88.1513V88.5455H119.633V89.6818H120.404V94H121.917V89.6818H123V88.5455ZM128.287 90.1009C128.152 89.0959 127.342 88.4744 125.964 88.4744C124.569 88.4744 123.649 89.1207 123.652 90.1719C123.649 90.9886 124.164 91.5178 125.229 91.7308L126.174 91.919C126.65 92.0149 126.866 92.1889 126.873 92.4624C126.866 92.7855 126.515 93.0163 125.985 93.0163C125.446 93.0163 125.087 92.7855 124.995 92.3416L123.507 92.4197C123.649 93.4638 124.537 94.1065 125.982 94.1065C127.395 94.1065 128.407 93.3857 128.411 92.3097C128.407 91.5213 127.892 91.049 126.834 90.8324L125.847 90.6335C125.339 90.5234 125.151 90.3494 125.154 90.0866C125.151 89.7599 125.52 89.5469 125.989 89.5469C126.515 89.5469 126.827 89.8345 126.902 90.1861L128.287 90.1009ZM131.849 94.1065C133.199 94.1065 134.108 93.4496 134.321 92.4375L132.922 92.3452C132.769 92.7607 132.378 92.9773 131.874 92.9773C131.118 92.9773 130.638 92.4766 130.638 91.6634V91.6598H134.353V91.2443C134.353 89.3906 133.231 88.4744 131.789 88.4744C130.184 88.4744 129.143 89.6143 129.143 91.2976C129.143 93.027 130.17 94.1065 131.849 94.1065ZM130.638 90.7223C130.67 90.1009 131.143 89.6037 131.814 89.6037C132.471 89.6037 132.925 90.0724 132.929 90.7223H130.638ZM138.241 88.5455H137.215V87.2386H135.702V88.5455H134.956V89.6818H135.702V92.5227C135.695 93.5916 136.423 94.1207 137.52 94.0746C137.911 94.0604 138.188 93.9822 138.341 93.9325L138.103 92.8068C138.028 92.821 137.868 92.8565 137.726 92.8565C137.425 92.8565 137.215 92.7429 137.215 92.3239V89.6818H138.241V88.5455ZM141.541 96.0455H143.054V93.1264H143.1C143.31 93.581 143.768 94.0888 144.648 94.0888C145.891 94.0888 146.861 93.1051 146.861 91.2798C146.861 89.4048 145.849 88.4744 144.652 88.4744C143.739 88.4744 143.303 89.0178 143.1 89.4616H143.033V88.5455H141.541V96.0455ZM143.022 91.2727C143.022 90.2997 143.434 89.6783 144.169 89.6783C144.918 89.6783 145.316 90.3281 145.316 91.2727C145.316 92.2244 144.911 92.8849 144.169 92.8849C143.441 92.8849 143.022 92.2457 143.022 91.2727ZM147.869 94H149.382V90.9141C149.382 90.2429 149.872 89.7812 150.54 89.7812C150.749 89.7812 151.037 89.8168 151.179 89.8629V88.5206C151.044 88.4886 150.856 88.4673 150.703 88.4673C150.092 88.4673 149.592 88.8224 149.393 89.4972H149.336V88.5455H147.869V94ZM154.172 94.1065C155.827 94.1065 156.856 92.9737 156.856 91.294C156.856 89.6037 155.827 88.4744 154.172 88.4744C152.517 88.4744 151.487 89.6037 151.487 91.294C151.487 92.9737 152.517 94.1065 154.172 94.1065ZM154.179 92.9347C153.415 92.9347 153.025 92.2351 153.025 91.2834C153.025 90.3317 153.415 89.6286 154.179 89.6286C154.928 89.6286 155.319 90.3317 155.319 91.2834C155.319 92.2351 154.928 92.9347 154.179 92.9347ZM157.84 88.5455V94.245C157.84 94.657 157.666 94.8629 157.18 94.8629C157.116 94.8629 157.059 94.8629 156.981 94.8558V96.0384C157.091 96.0419 157.18 96.0455 157.286 96.0455C158.572 96.0455 159.353 95.5341 159.353 94.2699V88.5455H157.84ZM158.593 87.8423C159.044 87.8423 159.413 87.4979 159.413 87.0753C159.413 86.6562 159.044 86.3118 158.593 86.3118C158.145 86.3118 157.776 86.6562 157.776 87.0753C157.776 87.4979 158.145 87.8423 158.593 87.8423ZM163.05 94.1065C164.4 94.1065 165.309 93.4496 165.522 92.4375L164.123 92.3452C163.97 92.7607 163.58 92.9773 163.075 92.9773C162.319 92.9773 161.839 92.4766 161.839 91.6634V91.6598H165.554V91.2443C165.554 89.3906 164.432 88.4744 162.99 88.4744C161.385 88.4744 160.344 89.6143 160.344 91.2976C160.344 93.027 161.371 94.1065 163.05 94.1065ZM161.839 90.7223C161.871 90.1009 162.344 89.6037 163.015 89.6037C163.672 89.6037 164.126 90.0724 164.13 90.7223H161.839ZM169.006 94.1065C170.458 94.1065 171.371 93.2543 171.442 92.0007H170.014C169.925 92.5831 169.542 92.9098 169.023 92.9098C168.317 92.9098 167.859 92.3168 167.859 91.2727C167.859 90.2429 168.32 89.6534 169.023 89.6534C169.577 89.6534 169.933 90.0192 170.014 90.5625H171.442C171.378 89.3018 170.423 88.4744 168.999 88.4744C167.344 88.4744 166.321 89.6214 166.321 91.294C166.321 92.9524 167.326 94.1065 169.006 94.1065ZM175.312 88.5455H174.285V87.2386H172.773V88.5455H172.027V89.6818H172.773V92.5227C172.765 93.5916 173.493 94.1207 174.591 94.0746C174.981 94.0604 175.258 93.9822 175.411 93.9325L175.173 92.8068C175.099 92.821 174.939 92.8565 174.797 92.8565C174.495 92.8565 174.285 92.7429 174.285 92.3239V89.6818H175.312V88.5455Z" fill="#323847"/>
<path opacity="0.22" d="M47.049 49.2734C46.8466 47.5938 45.5753 46.6278 43.892 46.6278C41.9709 46.6278 40.5043 47.9844 40.5043 50.3636C40.5043 52.7358 41.946 54.0994 43.892 54.0994C45.7564 54.0994 46.8821 52.8601 47.049 51.5213L45.4936 51.5142C45.348 52.2919 44.7372 52.7393 43.9169 52.7393C42.8125 52.7393 42.0632 51.919 42.0632 50.3636C42.0632 48.8509 42.8018 47.9879 43.9276 47.9879C44.7692 47.9879 45.3764 48.4744 45.4936 49.2734H47.049ZM54.8349 50.3636C54.8349 47.9844 53.3576 46.6278 51.4293 46.6278C49.4904 46.6278 48.0238 47.9844 48.0238 50.3636C48.0238 52.7322 49.4904 54.0994 51.4293 54.0994C53.3576 54.0994 54.8349 52.7429 54.8349 50.3636ZM53.2759 50.3636C53.2759 51.9048 52.5444 52.7393 51.4293 52.7393C50.3107 52.7393 49.5827 51.9048 49.5827 50.3636C49.5827 48.8224 50.3107 47.9879 51.4293 47.9879C52.5444 47.9879 53.2759 48.8224 53.2759 50.3636ZM55.7786 55.25H59.248V54.3622H57.3482V54.3232L57.9803 53.8544C58.8219 53.2933 59.1983 52.8352 59.1983 52.2102C59.1983 51.4361 58.5165 50.8324 57.4583 50.8324C56.4284 50.8324 55.6898 51.3793 55.6898 52.2919H56.7374C56.7374 51.9048 57.0179 51.6918 57.4441 51.6918C57.8418 51.6918 58.1614 51.8835 58.1614 52.2244C58.1614 52.5511 57.9057 52.7607 57.508 53.0838L55.7786 54.4652V55.25ZM62.6696 54.1065C64.019 54.1065 64.9281 53.4496 65.1412 52.4375L63.742 52.3452C63.5893 52.7607 63.1987 52.9773 62.6944 52.9773C61.938 52.9773 61.4586 52.4766 61.4586 51.6634V51.6598H65.1731V51.2443C65.1731 49.3906 64.051 48.4744 62.6092 48.4744C61.0041 48.4744 59.9636 49.6143 59.9636 51.2976C59.9636 53.027 60.9899 54.1065 62.6696 54.1065ZM61.4586 50.7223C61.4906 50.1009 61.9629 49.6037 62.6341 49.6037C63.291 49.6037 63.7456 50.0724 63.7491 50.7223H61.4586Z" fill="#323847"/>
<path d="M40.6321 14H43.7393C45.3729 14 46.2429 13.1477 46.2429 11.9901C46.2429 10.9141 45.4723 10.2642 44.6449 10.2251V10.1541C45.4013 9.98366 45.9588 9.44744 45.9588 8.59162C45.9588 7.50142 45.1491 6.72727 43.544 6.72727H40.6321V14ZM42.1697 12.7429V10.8111H43.4588C44.1974 10.8111 44.6555 11.2372 44.6555 11.8374C44.6555 12.3842 44.2827 12.7429 43.4233 12.7429H42.1697ZM42.1697 9.7706V7.97017H43.3381C44.0199 7.97017 44.407 8.32173 44.407 8.8473C44.407 9.42259 43.9382 9.7706 43.3097 9.7706H42.1697ZM48.7704 14.103C49.5765 14.103 50.0985 13.7514 50.3649 13.2436H50.4075V14H51.8422V10.321C51.8422 9.02131 50.7413 8.47443 49.5268 8.47443C48.22 8.47443 47.3606 9.09943 47.1511 10.0938L48.5502 10.2074C48.6532 9.84517 48.9764 9.57884 49.5197 9.57884C50.0346 9.57884 50.3294 9.83807 50.3294 10.2855V10.3068C50.3294 10.6584 49.9565 10.7045 49.0083 10.7969C47.9288 10.8963 46.9593 11.2585 46.9593 12.4766C46.9593 13.5561 47.7299 14.103 48.7704 14.103ZM49.2037 13.0589C48.7385 13.0589 48.4047 12.8423 48.4047 12.4268C48.4047 12.0007 48.7562 11.7912 49.2889 11.7166C49.6191 11.6705 50.1589 11.5923 50.34 11.4716V12.0504C50.34 12.6222 49.8677 13.0589 49.2037 13.0589ZM57.5542 10.1009C57.4192 9.09588 56.6096 8.47443 55.2317 8.47443C53.8361 8.47443 52.9164 9.12074 52.9199 10.1719C52.9164 10.9886 53.4313 11.5178 54.4966 11.7308L55.4412 11.919C55.9171 12.0149 56.1337 12.1889 56.1408 12.4624C56.1337 12.7855 55.7821 13.0163 55.253 13.0163C54.7132 13.0163 54.3546 12.7855 54.2623 12.3416L52.7743 12.4197C52.9164 13.4638 53.8042 14.1065 55.2495 14.1065C56.6628 14.1065 57.6749 13.3857 57.6784 12.3097C57.6749 11.5213 57.16 11.049 56.1017 10.8324L55.1145 10.6335C54.6067 10.5234 54.4185 10.3494 54.4221 10.0866C54.4185 9.75994 54.7878 9.54688 55.2566 9.54688C55.7821 9.54688 56.0946 9.83452 56.1692 10.1861L57.5542 10.1009ZM61.1168 14.1065C62.4663 14.1065 63.3754 13.4496 63.5884 12.4375L62.1893 12.3452C62.0366 12.7607 61.646 12.9773 61.1417 12.9773C60.3853 12.9773 59.9059 12.4766 59.9059 11.6634V11.6598H63.6204V11.2443C63.6204 9.39062 62.4982 8.47443 61.0565 8.47443C59.4513 8.47443 58.4109 9.61435 58.4109 11.2976C58.4109 13.027 59.4371 14.1065 61.1168 14.1065ZM59.9059 10.7223C59.9379 10.1009 60.4102 9.60369 61.0813 9.60369C61.7383 9.60369 62.1928 10.0724 62.1964 10.7223H59.9059ZM66.1204 6.72727H64.6076V14H66.1204V6.72727ZM67.3322 14H68.845V8.54545H67.3322V14ZM68.0922 7.84233C68.5431 7.84233 68.9125 7.49787 68.9125 7.07528C68.9125 6.65625 68.5431 6.31179 68.0922 6.31179C67.6447 6.31179 67.2754 6.65625 67.2754 7.07528C67.2754 7.49787 67.6447 7.84233 68.0922 7.84233ZM71.5696 10.8466C71.5732 10.1435 71.9922 9.73153 72.603 9.73153C73.2102 9.73153 73.576 10.1293 73.5724 10.7969V14H75.0852V10.527C75.0852 9.25568 74.3395 8.47443 73.2031 8.47443C72.3935 8.47443 71.8075 8.87216 71.5625 9.50781H71.4986V8.54545H70.0568V14H71.5696V10.8466ZM78.7633 14.1065C80.1127 14.1065 81.0218 13.4496 81.2349 12.4375L79.8358 12.3452C79.6831 12.7607 79.2924 12.9773 78.7882 12.9773C78.0318 12.9773 77.5524 12.4766 77.5524 11.6634V11.6598H81.2669V11.2443C81.2669 9.39062 80.1447 8.47443 78.7029 8.47443C77.0978 8.47443 76.0574 9.61435 76.0574 11.2976C76.0574 13.027 77.0836 14.1065 78.7633 14.1065ZM77.5524 10.7223C77.5843 10.1009 78.0566 9.60369 78.7278 9.60369C79.3848 9.60369 79.8393 10.0724 79.8429 10.7223H77.5524ZM89.1069 10.1009C88.9719 9.09588 88.1623 8.47443 86.7844 8.47443C85.3888 8.47443 84.4691 9.12074 84.4727 10.1719C84.4691 10.9886 84.984 11.5178 86.0494 11.7308L86.994 11.919C87.4698 12.0149 87.6864 12.1889 87.6935 12.4624C87.6864 12.7855 87.3349 13.0163 86.8058 13.0163C86.266 13.0163 85.9073 12.7855 85.815 12.3416L84.3271 12.4197C84.4691 13.4638 85.3569 14.1065 86.8022 14.1065C88.2156 14.1065 89.2276 13.3857 89.2312 12.3097C89.2276 11.5213 88.7127 11.049 87.6545 10.8324L86.6673 10.6335C86.1594 10.5234 85.9712 10.3494 85.9748 10.0866C85.9712 9.75994 86.3406 9.54688 86.8093 9.54688C87.3349 9.54688 87.6474 9.83452 87.7219 10.1861L89.1069 10.1009ZM92.6483 14.1065C94.1007 14.1065 95.0133 13.2543 95.0843 12.0007H93.6568C93.568 12.5831 93.1845 12.9098 92.666 12.9098C91.9593 12.9098 91.5012 12.3168 91.5012 11.2727C91.5012 10.2429 91.9629 9.65341 92.666 9.65341C93.22 9.65341 93.5751 10.0192 93.6568 10.5625H95.0843C95.0204 9.30185 94.0652 8.47443 92.6412 8.47443C90.9863 8.47443 89.9636 9.62145 89.9636 11.294C89.9636 12.9524 90.9686 14.1065 92.6483 14.1065ZM98.5387 14.1065C99.8881 14.1065 100.797 13.4496 101.01 12.4375L99.6112 12.3452C99.4585 12.7607 99.0678 12.9773 98.5636 12.9773C97.8072 12.9773 97.3278 12.4766 97.3278 11.6634V11.6598H101.042V11.2443C101.042 9.39062 99.9201 8.47443 98.4783 8.47443C96.8732 8.47443 95.8327 9.61435 95.8327 11.2976C95.8327 13.027 96.859 14.1065 98.5387 14.1065ZM97.3278 10.7223C97.3597 10.1009 97.832 9.60369 98.5032 9.60369C99.1602 9.60369 99.6147 10.0724 99.6183 10.7223H97.3278ZM103.542 10.8466C103.546 10.1435 103.965 9.73153 104.576 9.73153C105.183 9.73153 105.549 10.1293 105.545 10.7969V14H107.058V10.527C107.058 9.25568 106.312 8.47443 105.176 8.47443C104.366 8.47443 103.78 8.87216 103.535 9.50781H103.471V8.54545H102.029V14H103.542V10.8466ZM109.806 14.103C110.612 14.103 111.134 13.7514 111.4 13.2436H111.443V14H112.877V10.321C112.877 9.02131 111.776 8.47443 110.562 8.47443C109.255 8.47443 108.396 9.09943 108.186 10.0938L109.585 10.2074C109.688 9.84517 110.012 9.57884 110.555 9.57884C111.07 9.57884 111.365 9.83807 111.365 10.2855V10.3068C111.365 10.6584 110.992 10.7045 110.044 10.7969C108.964 10.8963 107.994 11.2585 107.994 12.4766C107.994 13.5561 108.765 14.103 109.806 14.103ZM110.239 13.0589C109.774 13.0589 109.44 12.8423 109.44 12.4268C109.44 12.0007 109.791 11.7912 110.324 11.7166C110.654 11.6705 111.194 11.5923 111.375 11.4716V12.0504C111.375 12.6222 110.903 13.0589 110.239 13.0589ZM114.051 14H115.564V10.9141C115.564 10.2429 116.054 9.78125 116.721 9.78125C116.931 9.78125 117.219 9.81676 117.361 9.86293V8.5206C117.226 8.48864 117.037 8.46733 116.885 8.46733C116.274 8.46733 115.773 8.82244 115.574 9.49716H115.518V8.54545H114.051V14ZM118.143 14H119.656V8.54545H118.143V14ZM118.903 7.84233C119.354 7.84233 119.723 7.49787 119.723 7.07528C119.723 6.65625 119.354 6.31179 118.903 6.31179C118.455 6.31179 118.086 6.65625 118.086 7.07528C118.086 7.49787 118.455 7.84233 118.903 7.84233ZM123.332 14.1065C124.987 14.1065 126.017 12.9737 126.017 11.294C126.017 9.60369 124.987 8.47443 123.332 8.47443C121.677 8.47443 120.647 9.60369 120.647 11.294C120.647 12.9737 121.677 14.1065 123.332 14.1065ZM123.339 12.9347C122.575 12.9347 122.185 12.2351 122.185 11.2834C122.185 10.3317 122.575 9.62855 123.339 9.62855C124.088 9.62855 124.479 10.3317 124.479 11.2834C124.479 12.2351 124.088 12.9347 123.339 12.9347Z" fill="#323847"/>
<path d="M181.08 44.2734C180.878 42.5938 179.607 41.6278 177.923 41.6278C176.002 41.6278 174.536 42.9844 174.536 45.3636C174.536 47.7358 175.977 49.0994 177.923 49.0994C179.788 49.0994 180.913 47.8601 181.08 46.5213L179.525 46.5142C179.379 47.2919 178.768 47.7393 177.948 47.7393C176.844 47.7393 176.094 46.919 176.094 45.3636C176.094 43.8509 176.833 42.9879 177.959 42.9879C178.8 42.9879 179.408 43.4744 179.525 44.2734H181.08ZM184.64 49.1065C185.99 49.1065 186.899 48.4496 187.112 47.4375L185.713 47.3452C185.56 47.7607 185.169 47.9773 184.665 47.9773C183.909 47.9773 183.429 47.4766 183.429 46.6634V46.6598H187.144V46.2443C187.144 44.3906 186.022 43.4744 184.58 43.4744C182.975 43.4744 181.934 44.6143 181.934 46.2976C181.934 48.027 182.961 49.1065 184.64 49.1065ZM183.429 45.7223C183.461 45.1009 183.934 44.6037 184.605 44.6037C185.262 44.6037 185.716 45.0724 185.72 45.7223H183.429ZM188.131 49H189.644V45.9141C189.644 45.2429 190.134 44.7812 190.801 44.7812C191.011 44.7812 191.299 44.8168 191.441 44.8629V43.5206C191.306 43.4886 191.118 43.4673 190.965 43.4673C190.354 43.4673 189.853 43.8224 189.654 44.4972H189.598V43.5455H188.131V49ZM195.398 43.5455H194.371V42.2386H192.858V43.5455H192.113V44.6818H192.858V47.5227C192.851 48.5916 193.579 49.1207 194.677 49.0746C195.067 49.0604 195.344 48.9822 195.497 48.9325L195.259 47.8068C195.184 47.821 195.025 47.8565 194.883 47.8565C194.581 47.8565 194.371 47.7429 194.371 47.3239V44.6818H195.398V43.5455ZM196.383 49H197.896V43.5455H196.383V49ZM197.143 42.8423C197.594 42.8423 197.963 42.4979 197.963 42.0753C197.963 41.6562 197.594 41.3118 197.143 41.3118C196.695 41.3118 196.326 41.6562 196.326 42.0753C196.326 42.4979 196.695 42.8423 197.143 42.8423ZM202.041 43.5455H200.958V43.1797C200.958 42.8104 201.107 42.5938 201.551 42.5938C201.732 42.5938 201.917 42.6328 202.037 42.6719L202.304 41.5355C202.115 41.4787 201.7 41.3864 201.235 41.3864C200.208 41.3864 199.445 41.9652 199.445 43.1513V43.5455H198.674V44.6818H199.445V49H200.958V44.6818H202.041V43.5455ZM202.965 49H204.478V43.5455H202.965V49ZM203.725 42.8423C204.176 42.8423 204.545 42.4979 204.545 42.0753C204.545 41.6562 204.176 41.3118 203.725 41.3118C203.278 41.3118 202.908 41.6562 202.908 42.0753C202.908 42.4979 203.278 42.8423 203.725 42.8423ZM208.154 49.1065C209.607 49.1065 210.519 48.2543 210.59 47.0007H209.163C209.074 47.5831 208.69 47.9098 208.172 47.9098C207.465 47.9098 207.007 47.3168 207.007 46.2727C207.007 45.2429 207.469 44.6534 208.172 44.6534C208.726 44.6534 209.081 45.0192 209.163 45.5625H210.59C210.526 44.3018 209.571 43.4744 208.147 43.4744C206.492 43.4744 205.469 44.6214 205.469 46.294C205.469 47.9524 206.474 49.1065 208.154 49.1065ZM213.114 49.103C213.92 49.103 214.442 48.7514 214.709 48.2436H214.751V49H216.186V45.321C216.186 44.0213 215.085 43.4744 213.871 43.4744C212.564 43.4744 211.704 44.0994 211.495 45.0938L212.894 45.2074C212.997 44.8452 213.32 44.5788 213.863 44.5788C214.378 44.5788 214.673 44.8381 214.673 45.2855V45.3068C214.673 45.6584 214.3 45.7045 213.352 45.7969C212.273 45.8963 211.303 46.2585 211.303 47.4766C211.303 48.5561 212.074 49.103 213.114 49.103ZM213.547 48.0589C213.082 48.0589 212.748 47.8423 212.748 47.4268C212.748 47.0007 213.1 46.7912 213.633 46.7166C213.963 46.6705 214.503 46.5923 214.684 46.4716V47.0504C214.684 47.6222 214.211 48.0589 213.547 48.0589ZM220.261 43.5455H219.235V42.2386H217.722V43.5455H216.976V44.6818H217.722V47.5227C217.715 48.5916 218.443 49.1207 219.54 49.0746C219.931 49.0604 220.208 48.9822 220.36 48.9325L220.122 47.8068C220.048 47.821 219.888 47.8565 219.746 47.8565C219.444 47.8565 219.235 47.7429 219.235 47.3239V44.6818H220.261V43.5455ZM223.673 49.1065C225.023 49.1065 225.932 48.4496 226.145 47.4375L224.746 47.3452C224.593 47.7607 224.203 47.9773 223.698 47.9773C222.942 47.9773 222.463 47.4766 222.463 46.6634V46.6598H226.177V46.2443C226.177 44.3906 225.055 43.4744 223.613 43.4744C222.008 43.4744 220.968 44.6143 220.968 46.2976C220.968 48.027 221.994 49.1065 223.673 49.1065ZM222.463 45.7223C222.494 45.1009 222.967 44.6037 223.638 44.6037C224.295 44.6037 224.749 45.0724 224.753 45.7223H222.463ZM231.703 45.1009C231.568 44.0959 230.758 43.4744 229.38 43.4744C227.985 43.4744 227.065 44.1207 227.068 45.1719C227.065 45.9886 227.58 46.5178 228.645 46.7308L229.59 46.919C230.066 47.0149 230.282 47.1889 230.289 47.4624C230.282 47.7855 229.931 48.0163 229.401 48.0163C228.862 48.0163 228.503 47.7855 228.411 47.3416L226.923 47.4197C227.065 48.4638 227.953 49.1065 229.398 49.1065C230.811 49.1065 231.823 48.3857 231.827 47.3097C231.823 46.5213 231.308 46.049 230.25 45.8324L229.263 45.6335C228.755 45.5234 228.567 45.3494 228.57 45.0866C228.567 44.7599 228.936 44.5469 229.405 44.5469C229.931 44.5469 230.243 44.8345 230.318 45.1861L231.703 45.1009ZM235.094 49H236.607V43.5455H235.094V49ZM235.854 42.8423C236.305 42.8423 236.674 42.4979 236.674 42.0753C236.674 41.6562 236.305 41.3118 235.854 41.3118C235.406 41.3118 235.037 41.6562 235.037 42.0753C235.037 42.4979 235.406 42.8423 235.854 42.8423ZM242.357 45.1009C242.222 44.0959 241.412 43.4744 240.034 43.4744C238.639 43.4744 237.719 44.1207 237.723 45.1719C237.719 45.9886 238.234 46.5178 239.299 46.7308L240.244 46.919C240.72 47.0149 240.936 47.1889 240.944 47.4624C240.936 47.7855 240.585 48.0163 240.056 48.0163C239.516 48.0163 239.157 47.7855 239.065 47.3416L237.577 47.4197C237.719 48.4638 238.607 49.1065 240.052 49.1065C241.466 49.1065 242.478 48.3857 242.481 47.3097C242.478 46.5213 241.963 46.049 240.904 45.8324L239.917 45.6335C239.409 45.5234 239.221 45.3494 239.225 45.0866C239.221 44.7599 239.591 44.5469 240.059 44.5469C240.585 44.5469 240.897 44.8345 240.972 45.1861L242.357 45.1009ZM247.972 45.1009C247.837 44.0959 247.028 43.4744 245.65 43.4744C244.254 43.4744 243.334 44.1207 243.338 45.1719C243.334 45.9886 243.849 46.5178 244.915 46.7308L245.859 46.919C246.335 47.0149 246.552 47.1889 246.559 47.4624C246.552 47.7855 246.2 48.0163 245.671 48.0163C245.131 48.0163 244.773 47.7855 244.68 47.3416L243.192 47.4197C243.334 48.4638 244.222 49.1065 245.667 49.1065C247.081 49.1065 248.093 48.3857 248.096 47.3097C248.093 46.5213 247.578 46.049 246.52 45.8324L245.532 45.6335C245.025 45.5234 244.836 45.3494 244.84 45.0866C244.836 44.7599 245.206 44.5469 245.675 44.5469C246.2 44.5469 246.513 44.8345 246.587 45.1861L247.972 45.1009ZM252.547 46.6776C252.55 47.4091 252.05 47.7926 251.506 47.7926C250.935 47.7926 250.565 47.3913 250.562 46.7486V43.5455H249.049V47.0185C249.053 48.2933 249.798 49.071 250.896 49.071C251.716 49.071 252.305 48.6484 252.55 48.0092H252.607V49H254.06V43.5455H252.547V46.6776ZM257.756 49.1065C259.105 49.1065 260.014 48.4496 260.227 47.4375L258.828 47.3452C258.675 47.7607 258.285 47.9773 257.78 47.9773C257.024 47.9773 256.545 47.4766 256.545 46.6634V46.6598H260.259V46.2443C260.259 44.3906 259.137 43.4744 257.695 43.4744C256.09 43.4744 255.05 44.6143 255.05 46.2976C255.05 48.027 256.076 49.1065 257.756 49.1065ZM256.545 45.7223C256.577 45.1009 257.049 44.6037 257.72 44.6037C258.377 44.6037 258.831 45.0724 258.835 45.7223H256.545ZM263.256 49.0888C264.137 49.0888 264.595 48.581 264.805 48.1264H264.868V49H266.36V41.7273H264.851V44.4616H264.805C264.602 44.0178 264.165 43.4744 263.253 43.4744C262.056 43.4744 261.044 44.4048 261.044 46.2798C261.044 48.1051 262.013 49.0888 263.256 49.0888ZM263.736 47.8849C262.993 47.8849 262.589 47.2244 262.589 46.2727C262.589 45.3281 262.986 44.6783 263.736 44.6783C264.471 44.6783 264.883 45.2997 264.883 46.2727C264.883 47.2457 264.464 47.8849 263.736 47.8849ZM176.22 60.103C177.026 60.103 177.548 59.7514 177.814 59.2436H177.857V60H179.291V56.321C179.291 55.0213 178.191 54.4744 176.976 54.4744C175.669 54.4744 174.81 55.0994 174.6 56.0938L175.999 56.2074C176.102 55.8452 176.426 55.5788 176.969 55.5788C177.484 55.5788 177.779 55.8381 177.779 56.2855V56.3068C177.779 56.6584 177.406 56.7045 176.458 56.7969C175.378 56.8963 174.409 57.2585 174.409 58.4766C174.409 59.5561 175.179 60.103 176.22 60.103ZM176.653 59.0589C176.188 59.0589 175.854 58.8423 175.854 58.4268C175.854 58.0007 176.205 57.7912 176.738 57.7166C177.068 57.6705 177.608 57.5923 177.789 57.4716V58.0504C177.789 58.6222 177.317 59.0589 176.653 59.0589ZM181.978 56.8466C181.981 56.1435 182.4 55.7315 183.011 55.7315C183.618 55.7315 183.984 56.1293 183.981 56.7969V60H185.493V56.527C185.493 55.2557 184.748 54.4744 183.611 54.4744C182.802 54.4744 182.216 54.8722 181.971 55.5078H181.907V54.5455H180.465V60H181.978V56.8466ZM188.696 60.0888C189.576 60.0888 190.034 59.581 190.244 59.1264H190.308V60H191.799V52.7273H190.29V55.4616H190.244C190.042 55.0178 189.605 54.4744 188.692 54.4744C187.495 54.4744 186.483 55.4048 186.483 57.2798C186.483 59.1051 187.453 60.0888 188.696 60.0888ZM189.175 58.8849C188.433 58.8849 188.028 58.2244 188.028 57.2727C188.028 56.3281 188.426 55.6783 189.175 55.6783C189.91 55.6783 190.322 56.2997 190.322 57.2727C190.322 58.2457 189.903 58.8849 189.175 58.8849ZM199.896 56.1009C199.761 55.0959 198.951 54.4744 197.574 54.4744C196.178 54.4744 195.258 55.1207 195.262 56.1719C195.258 56.9886 195.773 57.5178 196.838 57.7308L197.783 57.919C198.259 58.0149 198.475 58.1889 198.483 58.4624C198.475 58.7855 198.124 59.0163 197.595 59.0163C197.055 59.0163 196.696 58.7855 196.604 58.3416L195.116 58.4197C195.258 59.4638 196.146 60.1065 197.591 60.1065C199.005 60.1065 200.017 59.3857 200.02 58.3097C200.017 57.5213 199.502 57.049 198.444 56.8324L197.456 56.6335C196.949 56.5234 196.76 56.3494 196.764 56.0866C196.76 55.7599 197.13 55.5469 197.598 55.5469C198.124 55.5469 198.436 55.8345 198.511 56.1861L199.896 56.1009ZM203.437 60.1065C205.092 60.1065 206.122 58.9737 206.122 57.294C206.122 55.6037 205.092 54.4744 203.437 54.4744C201.782 54.4744 200.753 55.6037 200.753 57.294C200.753 58.9737 201.782 60.1065 203.437 60.1065ZM203.444 58.9347C202.681 58.9347 202.29 58.2351 202.29 57.2834C202.29 56.3317 202.681 55.6286 203.444 55.6286C204.194 55.6286 204.584 56.3317 204.584 57.2834C204.584 58.2351 204.194 58.9347 203.444 58.9347ZM208.618 52.7273H207.106V60H208.618V52.7273ZM211.84 60.0888C212.721 60.0888 213.179 59.581 213.388 59.1264H213.452V60H214.944V52.7273H213.435V55.4616H213.388C213.186 55.0178 212.749 54.4744 211.837 54.4744C210.64 54.4744 209.628 55.4048 209.628 57.2798C209.628 59.1051 210.597 60.0888 211.84 60.0888ZM212.32 58.8849C211.577 58.8849 211.173 58.2244 211.173 57.2727C211.173 56.3281 211.57 55.6783 212.32 55.6783C213.055 55.6783 213.467 56.2997 213.467 57.2727C213.467 58.2457 213.048 58.8849 212.32 58.8849ZM218.531 60H220.022V59.1264H220.089C220.299 59.581 220.757 60.0888 221.638 60.0888C222.881 60.0888 223.85 59.1051 223.85 57.2798C223.85 55.4048 222.838 54.4744 221.641 54.4744C220.729 54.4744 220.292 55.0178 220.089 55.4616H220.043V52.7273H218.531V60ZM220.011 57.2727C220.011 56.2997 220.423 55.6783 221.158 55.6783C221.908 55.6783 222.305 56.3281 222.305 57.2727C222.305 58.2244 221.901 58.8849 221.158 58.8849C220.43 58.8849 220.011 58.2457 220.011 57.2727ZM225.608 62.0455C226.734 62.0455 227.33 61.4702 227.639 60.5895L229.759 54.5526L228.158 54.5455L227.018 58.5511H226.961L225.832 54.5455H224.241L226.197 60.1562L226.109 60.3871C225.91 60.8984 225.53 60.9233 224.997 60.7599L224.656 61.8892C224.873 61.9815 225.224 62.0455 225.608 62.0455ZM232.848 62.0455H234.361V59.1264H234.407C234.616 59.581 235.074 60.0888 235.955 60.0888C237.198 60.0888 238.167 59.1051 238.167 57.2798C238.167 55.4048 237.155 54.4744 235.959 54.4744C235.046 54.4744 234.609 55.0178 234.407 55.4616H234.339V54.5455H232.848V62.0455ZM234.329 57.2727C234.329 56.2997 234.741 55.6783 235.476 55.6783C236.225 55.6783 236.623 56.3281 236.623 57.2727C236.623 58.2244 236.218 58.8849 235.476 58.8849C234.748 58.8849 234.329 58.2457 234.329 57.2727ZM239.176 60H240.689V56.9141C240.689 56.2429 241.179 55.7812 241.846 55.7812C242.056 55.7812 242.344 55.8168 242.486 55.8629V54.5206C242.351 54.4886 242.162 54.4673 242.01 54.4673C241.399 54.4673 240.898 54.8224 240.699 55.4972H240.643V54.5455H239.176V60ZM245.478 60.1065C247.133 60.1065 248.163 58.9737 248.163 57.294C248.163 55.6037 247.133 54.4744 245.478 54.4744C243.824 54.4744 242.794 55.6037 242.794 57.294C242.794 58.9737 243.824 60.1065 245.478 60.1065ZM245.485 58.9347C244.722 58.9347 244.331 58.2351 244.331 57.2834C244.331 56.3317 244.722 55.6286 245.485 55.6286C246.235 55.6286 246.625 56.3317 246.625 57.2834C246.625 58.2351 246.235 58.9347 245.485 58.9347ZM249.147 54.5455V60.245C249.147 60.657 248.973 60.8629 248.486 60.8629C248.422 60.8629 248.365 60.8629 248.287 60.8558V62.0384C248.397 62.0419 248.486 62.0455 248.593 62.0455C249.878 62.0455 250.659 61.5341 250.659 60.2699V54.5455H249.147ZM249.9 53.8423C250.35 53.8423 250.72 53.4979 250.72 53.0753C250.72 52.6562 250.35 52.3118 249.9 52.3118C249.452 52.3118 249.083 52.6562 249.083 53.0753C249.083 53.4979 249.452 53.8423 249.9 53.8423ZM254.357 60.1065C255.706 60.1065 256.616 59.4496 256.829 58.4375L255.43 58.3452C255.277 58.7607 254.886 58.9773 254.382 58.9773C253.626 58.9773 253.146 58.4766 253.146 57.6634V57.6598H256.861V57.2443C256.861 55.3906 255.738 54.4744 254.297 54.4744C252.692 54.4744 251.651 55.6143 251.651 57.2976C251.651 59.027 252.677 60.1065 254.357 60.1065ZM253.146 56.7223C253.178 56.1009 253.65 55.6037 254.322 55.6037C254.979 55.6037 255.433 56.0724 255.437 56.7223H253.146ZM260.312 60.1065C261.765 60.1065 262.677 59.2543 262.748 58.0007H261.321C261.232 58.5831 260.849 58.9098 260.33 58.9098C259.623 58.9098 259.165 58.3168 259.165 57.2727C259.165 56.2429 259.627 55.6534 260.33 55.6534C260.884 55.6534 261.239 56.0192 261.321 56.5625H262.748C262.684 55.3018 261.729 54.4744 260.305 54.4744C258.65 54.4744 257.628 55.6214 257.628 57.294C257.628 58.9524 258.633 60.1065 260.312 60.1065ZM266.618 54.5455H265.592V53.2386H264.079V54.5455H263.333V55.6818H264.079V58.5227C264.072 59.5916 264.8 60.1207 265.897 60.0746C266.288 60.0604 266.565 59.9822 266.718 59.9325L266.48 58.8068C266.405 58.821 266.245 58.8565 266.103 58.8565C265.801 58.8565 265.592 58.7429 265.592 58.3239V55.6818H266.618V54.5455Z" fill="#1EAD1E"/>
</svg>
