<svg width="340" height="97" viewBox="0 0 340 97" fill="none" xmlns="http://www.w3.org/2000/svg">
<path d="M65.8798 89L66.4196 87.3416H69.0439L69.5836 89H71.2314L68.7243 81.7273H66.7427L64.2321 89H65.8798ZM66.8102 86.1413L67.7051 83.3892H67.7619L68.6568 86.1413H66.8102ZM74.9041 83.5455H73.821V83.1797C73.821 82.8104 73.9702 82.5938 74.4141 82.5938C74.5952 82.5938 74.7798 82.6328 74.9006 82.6719L75.1669 81.5355C74.9787 81.4787 74.5632 81.3864 74.098 81.3864C73.0717 81.3864 72.3082 81.9652 72.3082 83.1513V83.5455H71.5376V84.6818H72.3082V89H73.821V84.6818H74.9041V83.5455ZM78.7615 83.5455H77.6784V83.1797C77.6784 82.8104 77.8276 82.5938 78.2715 82.5938C78.4526 82.5938 78.6373 82.6328 78.758 82.6719L79.0243 81.5355C78.8361 81.4787 78.4206 81.3864 77.9554 81.3864C76.9292 81.3864 76.1657 81.9652 76.1657 83.1513V83.5455H75.3951V84.6818H76.1657V89H77.6784V84.6818H78.7615V83.5455ZM81.9549 89.1065C83.6097 89.1065 84.6396 87.9737 84.6396 86.294C84.6396 84.6037 83.6097 83.4744 81.9549 83.4744C80.3001 83.4744 79.2702 84.6037 79.2702 86.294C79.2702 87.9737 80.3001 89.1065 81.9549 89.1065ZM81.962 87.9347C81.1985 87.9347 80.8079 87.2351 80.8079 86.2834C80.8079 85.3317 81.1985 84.6286 81.962 84.6286C82.7113 84.6286 83.1019 85.3317 83.1019 86.2834C83.1019 87.2351 82.7113 87.9347 81.962 87.9347ZM85.6232 89H87.136V85.9141C87.136 85.2429 87.6261 84.7812 88.2937 84.7812C88.5032 84.7812 88.7908 84.8168 88.9329 84.8629V83.5206C88.7979 83.4886 88.6097 83.4673 88.457 83.4673C87.8462 83.4673 87.3455 83.8224 87.1467 84.4972H87.0898V83.5455H85.6232V89ZM91.9469 89.1065C93.2963 89.1065 94.2054 88.4496 94.4185 87.4375L93.0194 87.3452C92.8667 87.7607 92.476 87.9773 91.9718 87.9773C91.2154 87.9773 90.736 87.4766 90.736 86.6634V86.6598H94.4505V86.2443C94.4505 84.3906 93.3283 83.4744 91.8865 83.4744C90.2814 83.4744 89.2409 84.6143 89.2409 86.2976C89.2409 88.027 90.2672 89.1065 91.9469 89.1065ZM90.736 85.7223C90.7679 85.1009 91.2402 84.6037 91.9114 84.6037C92.5684 84.6037 93.0229 85.0724 93.0265 85.7223H90.736ZM99.976 85.1009C99.8411 84.0959 99.0314 83.4744 97.6536 83.4744C96.258 83.4744 95.3382 84.1207 95.3418 85.1719C95.3382 85.9886 95.8532 86.5178 96.9185 86.7308L97.8631 86.919C98.339 87.0149 98.5556 87.1889 98.5627 87.4624C98.5556 87.7855 98.204 88.0163 97.6749 88.0163C97.1351 88.0163 96.7765 87.7855 96.6841 87.3416L95.1962 87.4197C95.3382 88.4638 96.226 89.1065 97.6713 89.1065C99.0847 89.1065 100.097 88.3857 100.1 87.3097C100.097 86.5213 99.5819 86.049 98.5236 85.8324L97.5364 85.6335C97.0286 85.5234 96.8404 85.3494 96.8439 85.0866C96.8404 84.7599 97.2097 84.5469 97.6784 84.5469C98.204 84.5469 98.5165 84.8345 98.5911 85.1861L99.976 85.1009ZM103.954 83.5455H102.928V82.2386H101.415V83.5455H100.669V84.6818H101.415V87.5227C101.408 88.5916 102.136 89.1207 103.233 89.0746C103.624 89.0604 103.901 88.9822 104.054 88.9325L103.816 87.8068C103.741 87.821 103.581 87.8565 103.439 87.8565C103.137 87.8565 102.928 87.7429 102.928 87.3239V84.6818H103.954V83.5455ZM106.495 89.103C107.301 89.103 107.823 88.7514 108.089 88.2436H108.132V89H109.567V85.321C109.567 84.0213 108.466 83.4744 107.251 83.4744C105.945 83.4744 105.085 84.0994 104.876 85.0938L106.275 85.2074C106.378 84.8452 106.701 84.5788 107.244 84.5788C107.759 84.5788 108.054 84.8381 108.054 85.2855V85.3068C108.054 85.6584 107.681 85.7045 106.733 85.7969C105.653 85.8963 104.684 86.2585 104.684 87.4766C104.684 88.5561 105.455 89.103 106.495 89.103ZM106.928 88.0589C106.463 88.0589 106.129 87.8423 106.129 87.4268C106.129 87.0007 106.481 86.7912 107.013 86.7166C107.344 86.6705 107.884 86.5923 108.065 86.4716V87.0504C108.065 87.6222 107.592 88.0589 106.928 88.0589ZM113.642 83.5455H112.615V82.2386H111.103V83.5455H110.357V84.6818H111.103V87.5227C111.096 88.5916 111.824 89.1207 112.921 89.0746C113.311 89.0604 113.588 88.9822 113.741 88.9325L113.503 87.8068C113.429 87.821 113.269 87.8565 113.127 87.8565C112.825 87.8565 112.615 87.7429 112.615 87.3239V84.6818H113.642V83.5455ZM114.627 89H116.14V83.5455H114.627V89ZM115.387 82.8423C115.838 82.8423 116.207 82.4979 116.207 82.0753C116.207 81.6562 115.838 81.3118 115.387 81.3118C114.94 81.3118 114.57 81.6562 114.57 82.0753C114.57 82.4979 114.94 82.8423 115.387 82.8423ZM119.816 89.1065C121.471 89.1065 122.501 87.9737 122.501 86.294C122.501 84.6037 121.471 83.4744 119.816 83.4744C118.161 83.4744 117.132 84.6037 117.132 86.294C117.132 87.9737 118.161 89.1065 119.816 89.1065ZM119.823 87.9347C119.06 87.9347 118.669 87.2351 118.669 86.2834C118.669 85.3317 119.06 84.6286 119.823 84.6286C120.573 84.6286 120.963 85.3317 120.963 86.2834C120.963 87.2351 120.573 87.9347 119.823 87.9347ZM124.997 85.8466C125.001 85.1435 125.42 84.7315 126.031 84.7315C126.638 84.7315 127.004 85.1293 127 85.7969V89H128.513V85.527C128.513 84.2557 127.767 83.4744 126.631 83.4744C125.821 83.4744 125.235 83.8722 124.99 84.5078H124.926V83.5455H123.485V89H124.997V85.8466ZM132.02 89H133.532V85.7259C133.532 85.1222 133.916 84.7209 134.42 84.7209C134.917 84.7209 135.251 85.0618 135.251 85.598V89H136.718V85.669C136.718 85.1044 137.041 84.7209 137.591 84.7209C138.074 84.7209 138.437 85.0227 138.437 85.63V89H139.946V85.3317C139.946 84.1491 139.243 83.4744 138.227 83.4744C137.428 83.4744 136.807 83.8828 136.583 84.5078H136.526C136.352 83.8757 135.795 83.4744 135.045 83.4744C134.31 83.4744 133.753 83.8651 133.525 84.5078H133.461V83.5455H132.02V89ZM142.696 89.103C143.502 89.103 144.024 88.7514 144.291 88.2436H144.333V89H145.768V85.321C145.768 84.0213 144.667 83.4744 143.453 83.4744C142.146 83.4744 141.286 84.0994 141.077 85.0938L142.476 85.2074C142.579 84.8452 142.902 84.5788 143.445 84.5788C143.96 84.5788 144.255 84.8381 144.255 85.2855V85.3068C144.255 85.6584 143.882 85.7045 142.934 85.7969C141.855 85.8963 140.885 86.2585 140.885 87.4766C140.885 88.5561 141.656 89.103 142.696 89.103ZM143.129 88.0589C142.664 88.0589 142.33 87.8423 142.33 87.4268C142.33 87.0007 142.682 86.7912 143.215 86.7166C143.545 86.6705 144.085 86.5923 144.266 86.4716V87.0504C144.266 87.6222 143.794 88.0589 143.129 88.0589ZM147.68 91.0455C148.806 91.0455 149.403 90.4702 149.711 89.5895L151.831 83.5526L150.23 83.5455L149.09 87.5511H149.033L147.904 83.5455H146.313L148.27 89.1562L148.181 89.3871C147.982 89.8984 147.602 89.9233 147.069 89.7599L146.729 90.8892C146.945 90.9815 147.297 91.0455 147.68 91.0455ZM157.385 89.1065C158.837 89.1065 159.75 88.2543 159.821 87.0007H158.393C158.304 87.5831 157.921 87.9098 157.402 87.9098C156.696 87.9098 156.238 87.3168 156.238 86.2727C156.238 85.2429 156.699 84.6534 157.402 84.6534C157.956 84.6534 158.311 85.0192 158.393 85.5625H159.821C159.757 84.3018 158.801 83.4744 157.377 83.4744C155.723 83.4744 154.7 84.6214 154.7 86.294C154.7 87.9524 155.705 89.1065 157.385 89.1065ZM162.345 89.103C163.151 89.103 163.673 88.7514 163.939 88.2436H163.982V89H165.416V85.321C165.416 84.0213 164.316 83.4744 163.101 83.4744C161.794 83.4744 160.935 84.0994 160.725 85.0938L162.124 85.2074C162.227 84.8452 162.551 84.5788 163.094 84.5788C163.609 84.5788 163.904 84.8381 163.904 85.2855V85.3068C163.904 85.6584 163.531 85.7045 162.583 85.7969C161.503 85.8963 160.534 86.2585 160.534 87.4766C160.534 88.5561 161.304 89.103 162.345 89.103ZM162.778 88.0589C162.313 88.0589 161.979 87.8423 161.979 87.4268C161.979 87.0007 162.33 86.7912 162.863 86.7166C163.193 86.6705 163.733 86.5923 163.914 86.4716V87.0504C163.914 87.6222 163.442 88.0589 162.778 88.0589ZM170.088 86.6776C170.091 87.4091 169.591 87.7926 169.047 87.7926C168.476 87.7926 168.106 87.3913 168.103 86.7486V83.5455H166.59V87.0185C166.594 88.2933 167.339 89.071 168.437 89.071C169.257 89.071 169.846 88.6484 170.091 88.0092H170.148V89H171.601V83.5455H170.088V86.6776ZM177.349 85.1009C177.214 84.0959 176.404 83.4744 175.027 83.4744C173.631 83.4744 172.711 84.1207 172.715 85.1719C172.711 85.9886 173.226 86.5178 174.292 86.7308L175.236 86.919C175.712 87.0149 175.929 87.1889 175.936 87.4624C175.929 87.7855 175.577 88.0163 175.048 88.0163C174.508 88.0163 174.15 87.7855 174.057 87.3416L172.569 87.4197C172.711 88.4638 173.599 89.1065 175.044 89.1065C176.458 89.1065 177.47 88.3857 177.473 87.3097C177.47 86.5213 176.955 86.049 175.897 85.8324L174.909 85.6335C174.402 85.5234 174.213 85.3494 174.217 85.0866C174.213 84.7599 174.583 84.5469 175.051 84.5469C175.577 84.5469 175.89 84.8345 175.964 85.1861L177.349 85.1009ZM180.912 89.1065C182.261 89.1065 183.17 88.4496 183.383 87.4375L181.984 87.3452C181.831 87.7607 181.441 87.9773 180.937 87.9773C180.18 87.9773 179.701 87.4766 179.701 86.6634V86.6598H183.415V86.2443C183.415 84.3906 182.293 83.4744 180.851 83.4744C179.246 83.4744 178.206 84.6143 178.206 86.2976C178.206 88.027 179.232 89.1065 180.912 89.1065ZM179.701 85.7223C179.733 85.1009 180.205 84.6037 180.876 84.6037C181.533 84.6037 181.988 85.0724 181.991 85.7223H179.701ZM188.23 81.7273H186.717V89H188.23V81.7273ZM191.906 89.1065C193.561 89.1065 194.591 87.9737 194.591 86.294C194.591 84.6037 193.561 83.4744 191.906 83.4744C190.251 83.4744 189.221 84.6037 189.221 86.294C189.221 87.9737 190.251 89.1065 191.906 89.1065ZM191.913 87.9347C191.15 87.9347 190.759 87.2351 190.759 86.2834C190.759 85.3317 191.15 84.6286 191.913 84.6286C192.662 84.6286 193.053 85.3317 193.053 86.2834C193.053 87.2351 192.662 87.9347 191.913 87.9347ZM198.032 91.1591C199.591 91.1591 200.699 90.4489 200.699 89.0533V83.5455H199.197V84.4616H199.14C198.937 84.0178 198.493 83.4744 197.581 83.4744C196.384 83.4744 195.372 84.4048 195.372 86.2621C195.372 88.0767 196.356 88.9219 197.584 88.9219C198.454 88.9219 198.941 88.4851 199.14 88.0341H199.204V89.032C199.204 89.7812 198.724 90.0724 198.067 90.0724C197.4 90.0724 197.062 89.7812 196.938 89.451L195.539 89.6392C195.72 90.4986 196.562 91.1591 198.032 91.1591ZM198.064 87.7855C197.322 87.7855 196.917 87.196 196.917 86.255C196.917 85.3281 197.314 84.6783 198.064 84.6783C198.799 84.6783 199.211 85.2997 199.211 86.255C199.211 87.2173 198.792 87.7855 198.064 87.7855ZM204.36 91.1591C205.919 91.1591 207.027 90.4489 207.027 89.0533V83.5455H205.525V84.4616H205.468C205.265 84.0178 204.822 83.4744 203.909 83.4744C202.712 83.4744 201.7 84.4048 201.7 86.2621C201.7 88.0767 202.684 88.9219 203.912 88.9219C204.782 88.9219 205.269 88.4851 205.468 88.0341H205.532V89.032C205.532 89.7812 205.052 90.0724 204.395 90.0724C203.728 90.0724 203.39 89.7812 203.266 89.451L201.867 89.6392C202.048 90.4986 202.89 91.1591 204.36 91.1591ZM204.392 87.7855C203.65 87.7855 203.245 87.196 203.245 86.255C203.245 85.3281 203.643 84.6783 204.392 84.6783C205.127 84.6783 205.539 85.2997 205.539 86.255C205.539 87.2173 205.12 87.7855 204.392 87.7855ZM208.231 89H209.743V83.5455H208.231V89ZM208.991 82.8423C209.442 82.8423 209.811 82.4979 209.811 82.0753C209.811 81.6562 209.442 81.3118 208.991 81.3118C208.543 81.3118 208.174 81.6562 208.174 82.0753C208.174 82.4979 208.543 82.8423 208.991 82.8423ZM212.468 85.8466C212.472 85.1435 212.891 84.7315 213.501 84.7315C214.109 84.7315 214.474 85.1293 214.471 85.7969V89H215.984V85.527C215.984 84.2557 215.238 83.4744 214.102 83.4744C213.292 83.4744 212.706 83.8722 212.461 84.5078H212.397V83.5455H210.955V89H212.468V85.8466ZM219.633 91.1591C221.192 91.1591 222.3 90.4489 222.3 89.0533V83.5455H220.798V84.4616H220.741C220.539 84.0178 220.095 83.4744 219.182 83.4744C217.986 83.4744 216.974 84.4048 216.974 86.2621C216.974 88.0767 217.957 88.9219 219.186 88.9219C220.056 88.9219 220.542 88.4851 220.741 88.0341H220.805V89.032C220.805 89.7812 220.326 90.0724 219.669 90.0724C219.001 90.0724 218.664 89.7812 218.54 89.451L217.14 89.6392C217.322 90.4986 218.163 91.1591 219.633 91.1591ZM219.665 87.7855C218.923 87.7855 218.518 87.196 218.518 86.255C218.518 85.3281 218.916 84.6783 219.665 84.6783C220.4 84.6783 220.812 85.2997 220.812 86.255C220.812 87.2173 220.393 87.7855 219.665 87.7855ZM228.304 89.1065C229.654 89.1065 230.563 88.4496 230.776 87.4375L229.377 87.3452C229.224 87.7607 228.833 87.9773 228.329 87.9773C227.573 87.9773 227.093 87.4766 227.093 86.6634V86.6598H230.808V86.2443C230.808 84.3906 229.686 83.4744 228.244 83.4744C226.639 83.4744 225.598 84.6143 225.598 86.2976C225.598 88.027 226.625 89.1065 228.304 89.1065ZM227.093 85.7223C227.125 85.1009 227.598 84.6037 228.269 84.6037C228.926 84.6037 229.38 85.0724 229.384 85.7223H227.093ZM233.308 81.7273H231.795V89H233.308V81.7273ZM239.058 85.1009C238.923 84.0959 238.113 83.4744 236.736 83.4744C235.34 83.4744 234.42 84.1207 234.424 85.1719C234.42 85.9886 234.935 86.5178 236.001 86.7308L236.945 86.919C237.421 87.0149 237.638 87.1889 237.645 87.4624C237.638 87.7855 237.286 88.0163 236.757 88.0163C236.217 88.0163 235.858 87.7855 235.766 87.3416L234.278 87.4197C234.42 88.4638 235.308 89.1065 236.753 89.1065C238.167 89.1065 239.179 88.3857 239.182 87.3097C239.179 86.5213 238.664 86.049 237.606 85.8324L236.618 85.6335C236.111 85.5234 235.922 85.3494 235.926 85.0866C235.922 84.7599 236.292 84.5469 236.76 84.5469C237.286 84.5469 237.599 84.8345 237.673 85.1861L239.058 85.1009ZM242.621 89.1065C243.97 89.1065 244.879 88.4496 245.092 87.4375L243.693 87.3452C243.54 87.7607 243.15 87.9773 242.646 87.9773C241.889 87.9773 241.41 87.4766 241.41 86.6634V86.6598H245.124V86.2443C245.124 84.3906 244.002 83.4744 242.56 83.4744C240.955 83.4744 239.915 84.6143 239.915 86.2976C239.915 88.027 240.941 89.1065 242.621 89.1065ZM241.41 85.7223C241.442 85.1009 241.914 84.6037 242.585 84.6037C243.242 84.6037 243.697 85.0724 243.7 85.7223H241.41ZM247.148 89H248.746L249.684 85.5696H249.751L250.689 89H252.29L253.771 83.5455H252.244L251.413 87.1889H251.367L250.472 83.5455H248.97L248.089 87.2102H248.04L247.195 83.5455H245.664L247.148 89ZM256.091 85.8466C256.095 85.1435 256.524 84.7315 257.142 84.7315C257.757 84.7315 258.119 85.1257 258.115 85.7969V89H259.628V85.527C259.632 84.2486 258.879 83.4744 257.742 83.4744C256.915 83.4744 256.361 83.8651 256.112 84.5078H256.048V81.7273H254.578V89H256.091V85.8466ZM263.304 89.1065C264.654 89.1065 265.563 88.4496 265.776 87.4375L264.377 87.3452C264.224 87.7607 263.833 87.9773 263.329 87.9773C262.573 87.9773 262.093 87.4766 262.093 86.6634V86.6598H265.808V86.2443C265.808 84.3906 264.686 83.4744 263.244 83.4744C261.639 83.4744 260.598 84.6143 260.598 86.2976C260.598 88.027 261.625 89.1065 263.304 89.1065ZM262.093 85.7223C262.125 85.1009 262.598 84.6037 263.269 84.6037C263.926 84.6037 264.38 85.0724 264.384 85.7223H262.093ZM266.795 89H268.308V85.9141C268.308 85.2429 268.798 84.7812 269.466 84.7812C269.675 84.7812 269.963 84.8168 270.105 84.8629V83.5206C269.97 83.4886 269.782 83.4673 269.629 83.4673C269.018 83.4673 268.517 83.8224 268.319 84.4972H268.262V83.5455H266.795V89ZM273.119 89.1065C274.468 89.1065 275.377 88.4496 275.59 87.4375L274.191 87.3452C274.039 87.7607 273.648 87.9773 273.144 87.9773C272.387 87.9773 271.908 87.4766 271.908 86.6634V86.6598H275.622V86.2443C275.622 84.3906 274.5 83.4744 273.058 83.4744C271.453 83.4744 270.413 84.6143 270.413 86.2976C270.413 88.027 271.439 89.1065 273.119 89.1065ZM271.908 85.7223C271.94 85.1009 272.412 84.6037 273.083 84.6037C273.74 84.6037 274.195 85.0724 274.198 85.7223H271.908Z" fill="#323847"/>
<path d="M124 15C130.105 12.3333 147.852 7 170 7C192.148 7 209.895 12.3333 216 15" stroke="#323847" stroke-width="1.5"/>
<path d="M213.348 8.53125L216.003 15.008L209.526 17.6634" stroke="#323847" stroke-width="1.5"/>
<path d="M215 63.2773C208.895 65.944 191.148 71.2773 169 71.2773C146.852 71.2773 129.105 65.944 123 63.2773" stroke="#323847" stroke-width="1.5"/>
<path d="M125.656 69.75L123.003 63.2774L129.475 60.6237" stroke="#323847" stroke-width="1.5"/>
<path fill-rule="evenodd" clip-rule="evenodd" d="M207.5 25.75C204.705 25.75 202.25 28.4356 202.25 32C202.25 35.5644 204.705 38.25 207.5 38.25C210.295 38.25 212.75 35.5644 212.75 32C212.75 28.4356 210.295 25.75 207.5 25.75ZM214.25 32C214.25 29.4832 213.186 27.1799 211.499 25.75H244.5C247.295 25.75 249.75 28.4356 249.75 32C249.75 35.5644 247.295 38.25 244.5 38.25H212.5H211.499C213.186 36.8201 214.25 34.5168 214.25 32ZM244.5 24.25H207.5C203.668 24.25 200.75 27.8324 200.75 32C200.75 34.5168 201.814 36.8201 203.501 38.25H200.5C196.668 38.25 193.75 41.8324 193.75 46C193.75 48.5168 194.814 50.8201 196.501 52.25H190.5V53.75H200.5H212.5H249.5H259.5V52.25H253.499C255.186 50.8201 256.25 48.5168 256.25 46C256.25 41.8324 253.332 38.25 249.5 38.25H248.499C250.186 36.8201 251.25 34.5168 251.25 32C251.25 27.8324 248.332 24.25 244.5 24.25ZM206.5 42.4515C206.977 41.389 207.662 40.4614 208.501 39.75H207.5H204.499C205.338 40.4614 206.023 41.389 206.5 42.4515ZM207.25 46C207.25 42.4356 209.705 39.75 212.5 39.75C215.295 39.75 217.75 42.4356 217.75 46C217.75 49.5644 215.295 52.25 212.5 52.25C209.705 52.25 207.25 49.5644 207.25 46ZM244.5 39.75H216.499C218.186 41.1799 219.25 43.4832 219.25 46C219.25 48.5168 218.186 50.8201 216.499 52.25H249.5C252.295 52.25 254.75 49.5644 254.75 46C254.75 42.4356 252.295 39.75 249.5 39.75H244.5ZM195.25 46C195.25 42.4356 197.705 39.75 200.5 39.75C203.295 39.75 205.75 42.4356 205.75 46C205.75 49.5644 203.295 52.25 200.5 52.25C197.705 52.25 195.25 49.5644 195.25 46ZM206.5 49.5485C206.023 50.611 205.338 51.5386 204.499 52.25H208.501C207.662 51.5386 206.977 50.611 206.5 49.5485ZM210.25 46C210.25 45.042 210.542 44.2036 210.979 43.6216C211.415 43.0398 211.961 42.75 212.5 42.75C213.039 42.75 213.585 43.0398 214.021 43.6216C214.458 44.2036 214.75 45.042 214.75 46C214.75 46.958 214.458 47.7964 214.021 48.3784C213.585 48.9602 213.039 49.25 212.5 49.25C211.961 49.25 211.415 48.9602 210.979 48.3784C210.542 47.7964 210.25 46.958 210.25 46ZM212.5 41.25C211.383 41.25 210.428 41.8556 209.779 42.7216C209.129 43.5873 208.75 44.7488 208.75 46C208.75 47.2512 209.129 48.4127 209.779 49.2784C210.428 50.1444 211.383 50.75 212.5 50.75C213.617 50.75 214.572 50.1444 215.221 49.2784C215.871 48.4127 216.25 47.2512 216.25 46C216.25 44.7488 215.871 43.5873 215.221 42.7216C214.572 41.8556 213.617 41.25 212.5 41.25ZM205.979 29.6216C205.542 30.2036 205.25 31.042 205.25 32C205.25 32.958 205.542 33.7964 205.979 34.3784C206.415 34.9602 206.961 35.25 207.5 35.25C208.039 35.25 208.585 34.9602 209.021 34.3784C209.458 33.7964 209.75 32.958 209.75 32C209.75 31.042 209.458 30.2036 209.021 29.6216C208.585 29.0398 208.039 28.75 207.5 28.75C206.961 28.75 206.415 29.0398 205.979 29.6216ZM204.779 28.7216C205.428 27.8556 206.383 27.25 207.5 27.25C208.617 27.25 209.572 27.8556 210.221 28.7216C210.871 29.5873 211.25 30.7488 211.25 32C211.25 33.2512 210.871 34.4127 210.221 35.2784C209.572 36.1444 208.617 36.75 207.5 36.75C206.383 36.75 205.428 36.1444 204.779 35.2784C204.129 34.4127 203.75 33.2512 203.75 32C203.75 30.7488 204.129 29.5873 204.779 28.7216ZM198.25 46C198.25 45.042 198.542 44.2036 198.979 43.6216C199.415 43.0398 199.961 42.75 200.5 42.75C201.039 42.75 201.585 43.0398 202.021 43.6216C202.458 44.2036 202.75 45.042 202.75 46C202.75 46.958 202.458 47.7964 202.021 48.3784C201.585 48.9602 201.039 49.25 200.5 49.25C199.961 49.25 199.415 48.9602 198.979 48.3784C198.542 47.7964 198.25 46.958 198.25 46ZM200.5 41.25C199.383 41.25 198.428 41.8556 197.779 42.7216C197.129 43.5873 196.75 44.7488 196.75 46C196.75 47.2512 197.129 48.4127 197.779 49.2784C198.428 50.1444 199.383 50.75 200.5 50.75C201.617 50.75 202.572 50.1444 203.221 49.2784C203.871 48.4127 204.25 47.2512 204.25 46C204.25 44.7488 203.871 43.5873 203.221 42.7216C202.572 41.8556 201.617 41.25 200.5 41.25ZM223.5 35.25H216.5V36.75H223.5V35.25ZM222.5 28.75H218.5C217.81 28.75 217.25 29.3096 217.25 30C217.25 30.6904 217.81 31.25 218.5 31.25V32.75C216.981 32.75 215.75 31.5188 215.75 30C215.75 28.4812 216.981 27.25 218.5 27.25H222.5H227.5V28.75H222.5ZM229.5 28.75H243.5V27.25H229.5V28.75ZM229.5 32.75H220.5V31.25H229.5C231.019 31.25 232.25 32.4812 232.25 34C232.25 35.5188 231.019 36.75 229.5 36.75H225.5V35.25H229.5C230.19 35.25 230.75 34.6904 230.75 34C230.75 33.3096 230.19 32.75 229.5 32.75ZM233.5 32.75H247.5V31.25H233.5V32.75ZM244.5 36.75H233.5V35.25H244.5V36.75ZM220.5 41.25V42.75H226.5C227.19 42.75 227.75 43.3096 227.75 44C227.75 44.6904 227.19 45.25 226.5 45.25H221.5V46.75H226.5C228.019 46.75 229.25 45.5188 229.25 44C229.25 42.4812 228.019 41.25 226.5 41.25H220.5ZM220.5 50.75V49.25H232.5V50.75H220.5ZM244.25 48C244.25 47.3096 244.81 46.75 245.5 46.75H251.5V45.25H245.5C243.981 45.25 242.75 46.4812 242.75 48C242.75 49.5188 243.981 50.75 245.5 50.75H249.5V49.25H245.5C244.81 49.25 244.25 48.6904 244.25 48ZM234.5 50.75H241.5V49.25H234.5V50.75ZM240.5 46.75H230.5V45.25H240.5V46.75ZM235.5 42.75H230.5V41.25H235.5V42.75ZM237.5 42.75H251.5V41.25H237.5V42.75Z" fill="#323847"/>
<path fill-rule="evenodd" clip-rule="evenodd" d="M94.75 29.25H95.5C102.016 29.25 107.546 33.472 109.505 39.3294C111.459 33.4726 116.987 29.25 123.5 29.25H124.25V30C124.25 37.8896 118.054 44.3332 110.264 44.7306V44.7636H110.257V52.25H133.5V53.75H85.5V52.25H108.75V44.75V44.7442C100.952 44.3468 94.75 37.8971 94.75 30V29.25ZM108.621 42.0601L103.03 36.4697L101.97 37.5303L107.56 43.1207C101.41 42.2128 96.6344 37.0833 96.2721 30.7721C102.583 31.1344 107.713 35.9103 108.621 42.0601ZM122.728 30.7721C122.366 37.073 117.6 42.1946 111.462 43.1058L117.037 37.5303L115.976 36.4697L110.392 42.0543C111.296 35.9083 116.421 31.1346 122.728 30.7721Z" fill="#323847"/>
</svg>
