<svg width="340" height="85" viewBox="0 0 340 85" fill="none" xmlns="http://www.w3.org/2000/svg">
<path d="M15.8056 66L16.3453 64.3416H18.9696L19.5094 66H21.1571L18.65 58.7273H16.6685L14.1578 66H15.8056ZM16.736 63.1413L17.6309 60.3892H17.6877L18.5826 63.1413H16.736ZM24.8299 60.5455H23.7468V60.1797C23.7468 59.8104 23.896 59.5938 24.3398 59.5938C24.521 59.5938 24.7056 59.6328 24.8263 59.6719L25.0927 58.5355C24.9045 58.4787 24.489 58.3864 24.0238 58.3864C22.9975 58.3864 22.234 58.9652 22.234 60.1513V60.5455H21.4634V61.6818H22.234V66H23.7468V61.6818H24.8299V60.5455ZM28.6873 60.5455H27.6042V60.1797C27.6042 59.8104 27.7534 59.5938 28.1973 59.5938C28.3784 59.5938 28.563 59.6328 28.6838 59.6719L28.9501 58.5355C28.7619 58.4787 28.3464 58.3864 27.8812 58.3864C26.8549 58.3864 26.0914 58.9652 26.0914 60.1513V60.5455H25.3208V61.6818H26.0914V66H27.6042V61.6818H28.6873V60.5455ZM31.8807 66.1065C33.5355 66.1065 34.5653 64.9737 34.5653 63.294C34.5653 61.6037 33.5355 60.4744 31.8807 60.4744C30.2259 60.4744 29.196 61.6037 29.196 63.294C29.196 64.9737 30.2259 66.1065 31.8807 66.1065ZM31.8878 64.9347C31.1243 64.9347 30.7337 64.2351 30.7337 63.2834C30.7337 62.3317 31.1243 61.6286 31.8878 61.6286C32.6371 61.6286 33.0277 62.3317 33.0277 63.2834C33.0277 64.2351 32.6371 64.9347 31.8878 64.9347ZM35.549 66H37.0618V62.9141C37.0618 62.2429 37.5518 61.7812 38.2195 61.7812C38.429 61.7812 38.7166 61.8168 38.8587 61.8629V60.5206C38.7237 60.4886 38.5355 60.4673 38.3828 60.4673C37.772 60.4673 37.2713 60.8224 37.0724 61.4972H37.0156V60.5455H35.549V66ZM41.8727 66.1065C43.2221 66.1065 44.1312 65.4496 44.3443 64.4375L42.9451 64.3452C42.7924 64.7607 42.4018 64.9773 41.8975 64.9773C41.1412 64.9773 40.6618 64.4766 40.6618 63.6634V63.6598H44.3762V63.2443C44.3762 61.3906 43.2541 60.4744 41.8123 60.4744C40.2072 60.4744 39.1667 61.6143 39.1667 63.2976C39.1667 65.027 40.193 66.1065 41.8727 66.1065ZM40.6618 62.7223C40.6937 62.1009 41.166 61.6037 41.8372 61.6037C42.4941 61.6037 42.9487 62.0724 42.9522 62.7223H40.6618ZM49.9018 62.1009C49.7669 61.0959 48.9572 60.4744 47.5794 60.4744C46.1838 60.4744 45.264 61.1207 45.2676 62.1719C45.264 62.9886 45.7789 63.5178 46.8443 63.7308L47.7889 63.919C48.2647 64.0149 48.4814 64.1889 48.4885 64.4624C48.4814 64.7855 48.1298 65.0163 47.6007 65.0163C47.0609 65.0163 46.7022 64.7855 46.6099 64.3416L45.122 64.4197C45.264 65.4638 46.1518 66.1065 47.5971 66.1065C49.0105 66.1065 50.0225 65.3857 50.0261 64.3097C50.0225 63.5213 49.5076 63.049 48.4494 62.8324L47.4622 62.6335C46.9544 62.5234 46.7662 62.3494 46.7697 62.0866C46.7662 61.7599 47.1355 61.5469 47.6042 61.5469C48.1298 61.5469 48.4423 61.8345 48.5169 62.1861L49.9018 62.1009ZM53.88 60.5455H52.8537V59.2386H51.3409V60.5455H50.5952V61.6818H51.3409V64.5227C51.3338 65.5916 52.0618 66.1207 53.1591 66.0746C53.5497 66.0604 53.8267 65.9822 53.9794 65.9325L53.7415 64.8068C53.6669 64.821 53.5071 64.8565 53.3651 64.8565C53.0632 64.8565 52.8537 64.7429 52.8537 64.3239V61.6818H53.88V60.5455ZM56.4208 66.103C57.2269 66.103 57.7489 65.7514 58.0153 65.2436H58.0579V66H59.4925V62.321C59.4925 61.0213 58.3917 60.4744 57.1772 60.4744C55.8704 60.4744 55.011 61.0994 54.8015 62.0938L56.2006 62.2074C56.3036 61.8452 56.6268 61.5788 57.1701 61.5788C57.685 61.5788 57.9798 61.8381 57.9798 62.2855V62.3068C57.9798 62.6584 57.6069 62.7045 56.6587 62.7969C55.5792 62.8963 54.6097 63.2585 54.6097 64.4766C54.6097 65.5561 55.3803 66.103 56.4208 66.103ZM56.854 65.0589C56.3888 65.0589 56.055 64.8423 56.055 64.4268C56.055 64.0007 56.4066 63.7912 56.9393 63.7166C57.2695 63.6705 57.8093 63.5923 57.9904 63.4716V64.0504C57.9904 64.6222 57.5181 65.0589 56.854 65.0589ZM63.5675 60.5455H62.5412V59.2386H61.0284V60.5455H60.2827V61.6818H61.0284V64.5227C61.0213 65.5916 61.7493 66.1207 62.8466 66.0746C63.2372 66.0604 63.5142 65.9822 63.6669 65.9325L63.429 64.8068C63.3544 64.821 63.1946 64.8565 63.0526 64.8565C62.7507 64.8565 62.5412 64.7429 62.5412 64.3239V61.6818H63.5675V60.5455ZM64.5529 66H66.0657V60.5455H64.5529V66ZM65.3129 59.8423C65.7638 59.8423 66.1332 59.4979 66.1332 59.0753C66.1332 58.6562 65.7638 58.3118 65.3129 58.3118C64.8654 58.3118 64.4961 58.6562 64.4961 59.0753C64.4961 59.4979 64.8654 59.8423 65.3129 59.8423ZM69.742 66.1065C71.3968 66.1065 72.4267 64.9737 72.4267 63.294C72.4267 61.6037 71.3968 60.4744 69.742 60.4744C68.0872 60.4744 67.0574 61.6037 67.0574 63.294C67.0574 64.9737 68.0872 66.1065 69.742 66.1065ZM69.7491 64.9347C68.9856 64.9347 68.595 64.2351 68.595 63.2834C68.595 62.3317 68.9856 61.6286 69.7491 61.6286C70.4984 61.6286 70.889 62.3317 70.889 63.2834C70.889 64.2351 70.4984 64.9347 69.7491 64.9347ZM74.9231 62.8466C74.9267 62.1435 75.3457 61.7315 75.9565 61.7315C76.5637 61.7315 76.9295 62.1293 76.926 62.7969V66H78.4387V62.527C78.4387 61.2557 77.693 60.4744 76.5566 60.4744C75.747 60.4744 75.161 60.8722 74.916 61.5078H74.8521V60.5455H73.4103V66H74.9231V62.8466ZM84.1756 66.1065C84.8113 66.1065 85.5002 65.929 86.0364 65.5099L86.4767 66H88.0534L86.9597 64.7464C87.3645 64.2102 87.6202 63.4396 87.6202 62.4524H86.3667C86.3667 62.9283 86.2495 63.3509 86.0577 63.7095L84.8574 62.3317L85.2836 62.0263C85.8944 61.5859 86.2495 61.032 86.2495 60.3466C86.2495 59.4162 85.5286 58.6314 84.3603 58.6314C83.1671 58.6314 82.3752 59.4446 82.3752 60.4993C82.3752 61.1456 82.6877 61.6854 83.0676 62.1683C82.2757 62.7116 81.7431 63.2266 81.7431 64.0682C81.7431 65.2152 82.6628 66.1065 84.1756 66.1065ZM85.2196 64.6009C84.9142 64.7891 84.5804 64.892 84.2502 64.892C83.6181 64.892 83.2097 64.5014 83.2097 63.983C83.2097 63.706 83.3979 63.3864 83.7992 63.0952L83.8418 63.0668L85.2196 64.6009ZM84.1294 61.4688C83.8596 61.1278 83.6713 60.826 83.6713 60.5241C83.6713 60.1584 83.9483 59.853 84.3709 59.8494C84.7971 59.8459 85.0385 60.1442 85.0385 60.4318C85.0385 60.7372 84.8716 60.9893 84.5094 61.2202L84.1294 61.4688ZM9.48366 77H11.0213V73.9957H13.9794V72.728H11.0213V70.995H14.299V69.7273H9.48366V77ZM17.369 77.1065C19.0238 77.1065 20.0536 75.9737 20.0536 74.294C20.0536 72.6037 19.0238 71.4744 17.369 71.4744C15.7141 71.4744 14.6843 72.6037 14.6843 74.294C14.6843 75.9737 15.7141 77.1065 17.369 77.1065ZM17.3761 75.9347C16.6126 75.9347 16.2219 75.2351 16.2219 74.2834C16.2219 73.3317 16.6126 72.6286 17.3761 72.6286C18.1254 72.6286 18.516 73.3317 18.516 74.2834C18.516 75.2351 18.1254 75.9347 17.3761 75.9347ZM21.0373 77H22.5501V73.9141C22.5501 73.2429 23.0401 72.7812 23.7077 72.7812C23.9173 72.7812 24.2049 72.8168 24.3469 72.8629V71.5206C24.212 71.4886 24.0238 71.4673 23.8711 71.4673C23.2603 71.4673 22.7596 71.8224 22.5607 72.4972H22.5039V71.5455H21.0373V77ZM27.361 77.1065C28.7104 77.1065 29.6195 76.4496 29.8326 75.4375L28.4334 75.3452C28.2807 75.7607 27.8901 75.9773 27.3858 75.9773C26.6294 75.9773 26.15 75.4766 26.15 74.6634V74.6598H29.8645V74.2443C29.8645 72.3906 28.7424 71.4744 27.3006 71.4744C25.6955 71.4744 24.655 72.6143 24.655 74.2976C24.655 76.027 25.6813 77.1065 27.361 77.1065ZM26.15 73.7223C26.182 73.1009 26.6543 72.6037 27.3255 72.6037C27.9824 72.6037 28.437 73.0724 28.4405 73.7223H26.15ZM35.3901 73.1009C35.2551 72.0959 34.4455 71.4744 33.0676 71.4744C31.6721 71.4744 30.7523 72.1207 30.7559 73.1719C30.7523 73.9886 31.2672 74.5178 32.3326 74.7308L33.2772 74.919C33.753 75.0149 33.9696 75.1889 33.9767 75.4624C33.9696 75.7855 33.6181 76.0163 33.089 76.0163C32.5492 76.0163 32.1905 75.7855 32.0982 75.3416L30.6103 75.4197C30.7523 76.4638 31.6401 77.1065 33.0854 77.1065C34.4988 77.1065 35.5108 76.3857 35.5144 75.3097C35.5108 74.5213 34.9959 74.049 33.9377 73.8324L32.9505 73.6335C32.4426 73.5234 32.2544 73.3494 32.258 73.0866C32.2544 72.7599 32.6238 72.5469 33.0925 72.5469C33.6181 72.5469 33.9306 72.8345 34.0051 73.1861L35.3901 73.1009ZM39.3683 71.5455H38.342V70.2386H36.8292V71.5455H36.0835V72.6818H36.8292V75.5227C36.8221 76.5916 37.5501 77.1207 38.6474 77.0746C39.038 77.0604 39.315 76.9822 39.4677 76.9325L39.2298 75.8068C39.1552 75.821 38.9954 75.8565 38.8533 75.8565C38.5515 75.8565 38.342 75.7429 38.342 75.3239V72.6818H39.3683V71.5455ZM42.6966 77H44.2342V74.642H45.5268C47.1994 74.642 48.1724 73.6442 48.1724 72.1918C48.1724 70.7464 47.2172 69.7273 45.5659 69.7273H42.6966V77ZM44.2342 73.4098V70.9844H45.2711C46.1589 70.9844 46.5886 71.4673 46.5886 72.1918C46.5886 72.9126 46.1589 73.4098 45.2782 73.4098H44.2342ZM49.1428 77H50.6555V73.9141C50.6555 73.2429 51.1456 72.7812 51.8132 72.7812C52.0227 72.7812 52.3104 72.8168 52.4524 72.8629V71.5206C52.3175 71.4886 52.1293 71.4673 51.9766 71.4673C51.3658 71.4673 50.8651 71.8224 50.6662 72.4972H50.6094V71.5455H49.1428V77ZM55.4451 77.1065C57.1 77.1065 58.1298 75.9737 58.1298 74.294C58.1298 72.6037 57.1 71.4744 55.4451 71.4744C53.7903 71.4744 52.7605 72.6037 52.7605 74.294C52.7605 75.9737 53.7903 77.1065 55.4451 77.1065ZM55.4522 75.9347C54.6887 75.9347 54.2981 75.2351 54.2981 74.2834C54.2981 73.3317 54.6887 72.6286 55.4522 72.6286C56.2015 72.6286 56.5922 73.3317 56.5922 74.2834C56.5922 75.2351 56.2015 75.9347 55.4522 75.9347ZM62.0147 71.5455H60.9885V70.2386H59.4757V71.5455H58.7299V72.6818H59.4757V75.5227C59.4686 76.5916 60.1966 77.1207 61.2939 77.0746C61.6845 77.0604 61.9615 76.9822 62.1142 76.9325L61.8762 75.8068C61.8017 75.821 61.6419 75.8565 61.4998 75.8565C61.198 75.8565 60.9885 75.7429 60.9885 75.3239V72.6818H62.0147V71.5455ZM65.4274 77.1065C66.7768 77.1065 67.6859 76.4496 67.899 75.4375L66.4998 75.3452C66.3471 75.7607 65.9565 75.9773 65.4522 75.9773C64.6958 75.9773 64.2164 75.4766 64.2164 74.6634V74.6598H67.9309V74.2443C67.9309 72.3906 66.8088 71.4744 65.367 71.4744C63.7619 71.4744 62.7214 72.6143 62.7214 74.2976C62.7214 76.027 63.7477 77.1065 65.4274 77.1065ZM64.2164 73.7223C64.2484 73.1009 64.7207 72.6037 65.3919 72.6037C66.0488 72.6037 66.5034 73.0724 66.5069 73.7223H64.2164ZM71.3826 77.1065C72.835 77.1065 73.7477 76.2543 73.8187 75.0007H72.3912C72.3024 75.5831 71.9189 75.9098 71.4004 75.9098C70.6937 75.9098 70.2356 75.3168 70.2356 74.2727C70.2356 73.2429 70.6973 72.6534 71.4004 72.6534C71.9544 72.6534 72.3095 73.0192 72.3912 73.5625H73.8187C73.7548 72.3018 72.7995 71.4744 71.3755 71.4744C69.7207 71.4744 68.698 72.6214 68.698 74.294C68.698 75.9524 69.7029 77.1065 71.3826 77.1065ZM77.6886 71.5455H76.6623V70.2386H75.1495V71.5455H74.4038V72.6818H75.1495V75.5227C75.1424 76.5916 75.8704 77.1207 76.9677 77.0746C77.3583 77.0604 77.6353 76.9822 77.788 76.9325L77.5501 75.8068C77.4755 75.821 77.3157 75.8565 77.1737 75.8565C76.8718 75.8565 76.6623 75.7429 76.6623 75.3239V72.6818H77.6886V71.5455ZM78.674 77H80.1868V71.5455H78.674V77ZM79.4339 70.8423C79.8849 70.8423 80.2543 70.4979 80.2543 70.0753C80.2543 69.6562 79.8849 69.3118 79.4339 69.3118C78.9865 69.3118 78.6172 69.6562 78.6172 70.0753C78.6172 70.4979 78.9865 70.8423 79.4339 70.8423ZM83.8631 77.1065C85.5179 77.1065 86.5478 75.9737 86.5478 74.294C86.5478 72.6037 85.5179 71.4744 83.8631 71.4744C82.2083 71.4744 81.1784 72.6037 81.1784 74.294C81.1784 75.9737 82.2083 77.1065 83.8631 77.1065ZM83.8702 75.9347C83.1067 75.9347 82.7161 75.2351 82.7161 74.2834C82.7161 73.3317 83.1067 72.6286 83.8702 72.6286C84.6195 72.6286 85.0101 73.3317 85.0101 74.2834C85.0101 75.2351 84.6195 75.9347 83.8702 75.9347ZM89.0442 73.8466C89.0478 73.1435 89.4668 72.7315 90.0776 72.7315C90.6848 72.7315 91.0506 73.1293 91.0471 73.7969V77H92.5598V73.527C92.5598 72.2557 91.8141 71.4744 90.6777 71.4744C89.8681 71.4744 89.2821 71.8722 89.0371 72.5078H88.9732V71.5455H87.5314V77H89.0442V73.8466Z" fill="#323847"/>
<path d="M286.112 61.2734C285.909 59.5938 284.638 58.6278 282.955 58.6278C281.033 58.6278 279.567 59.9844 279.567 62.3636C279.567 64.7358 281.009 66.0994 282.955 66.0994C284.819 66.0994 285.945 64.8601 286.112 63.5213L284.556 63.5142C284.411 64.2919 283.8 64.7393 282.979 64.7393C281.875 64.7393 281.126 63.919 281.126 62.3636C281.126 60.8509 281.864 59.9879 282.99 59.9879C283.832 59.9879 284.439 60.4744 284.556 61.2734H286.112ZM288.741 66.103C289.547 66.103 290.069 65.7514 290.336 65.2436H290.378V66H291.813V62.321C291.813 61.0213 290.712 60.4744 289.498 60.4744C288.191 60.4744 287.331 61.0994 287.122 62.0938L288.521 62.2074C288.624 61.8452 288.947 61.5788 289.49 61.5788C290.005 61.5788 290.3 61.8381 290.3 62.2855V62.3068C290.3 62.6584 289.927 62.7045 288.979 62.7969C287.9 62.8963 286.93 63.2585 286.93 64.4766C286.93 65.5561 287.701 66.103 288.741 66.103ZM289.174 65.0589C288.709 65.0589 288.375 64.8423 288.375 64.4268C288.375 64.0007 288.727 63.7912 289.26 63.7166C289.59 63.6705 290.13 63.5923 290.311 63.4716V64.0504C290.311 64.6222 289.838 65.0589 289.174 65.0589ZM292.987 68.0455H294.499V65.1264H294.545C294.755 65.581 295.213 66.0888 296.094 66.0888C297.337 66.0888 298.306 65.1051 298.306 63.2798C298.306 61.4048 297.294 60.4744 296.097 60.4744C295.185 60.4744 294.748 61.0178 294.545 61.4616H294.478V60.5455H292.987V68.0455ZM294.467 63.2727C294.467 62.2997 294.879 61.6783 295.614 61.6783C296.364 61.6783 296.761 62.3281 296.761 63.2727C296.761 64.2244 296.357 64.8849 295.614 64.8849C294.886 64.8849 294.467 64.2457 294.467 63.2727ZM302.216 60.5455H301.19V59.2386H299.677V60.5455H298.931V61.6818H299.677V64.5227C299.67 65.5916 300.398 66.1207 301.495 66.0746C301.886 66.0604 302.163 65.9822 302.315 65.9325L302.077 64.8068C302.003 64.821 301.843 64.8565 301.701 64.8565C301.399 64.8565 301.19 64.7429 301.19 64.3239V61.6818H302.216V60.5455ZM306.699 63.6776C306.703 64.4091 306.202 64.7926 305.659 64.7926C305.087 64.7926 304.718 64.3913 304.714 63.7486V60.5455H303.201V64.0185C303.205 65.2933 303.951 66.071 305.048 66.071C305.868 66.071 306.458 65.6484 306.703 65.0092H306.76V66H308.212V60.5455H306.699V63.6776ZM309.422 66H310.935V62.9141C310.935 62.2429 311.425 61.7812 312.093 61.7812C312.302 61.7812 312.59 61.8168 312.732 61.8629V60.5206C312.597 60.4886 312.409 60.4673 312.256 60.4673C311.645 60.4673 311.144 60.8224 310.945 61.4972H310.889V60.5455H309.422V66ZM315.746 66.1065C317.095 66.1065 318.004 65.4496 318.217 64.4375L316.818 64.3452C316.665 64.7607 316.275 64.9773 315.771 64.9773C315.014 64.9773 314.535 64.4766 314.535 63.6634V63.6598H318.249V63.2443C318.249 61.3906 317.127 60.4744 315.685 60.4744C314.08 60.4744 313.04 61.6143 313.04 63.2976C313.04 65.027 314.066 66.1065 315.746 66.1065ZM314.535 62.7223C314.567 62.1009 315.039 61.6037 315.71 61.6037C316.367 61.6037 316.822 62.0724 316.825 62.7223H314.535ZM324.015 66.1065C325.67 66.1065 326.7 64.9737 326.7 63.294C326.7 61.6037 325.67 60.4744 324.015 60.4744C322.361 60.4744 321.331 61.6037 321.331 63.294C321.331 64.9737 322.361 66.1065 324.015 66.1065ZM324.023 64.9347C323.259 64.9347 322.868 64.2351 322.868 63.2834C322.868 62.3317 323.259 61.6286 324.023 61.6286C324.772 61.6286 325.162 62.3317 325.162 63.2834C325.162 64.2351 324.772 64.9347 324.023 64.9347ZM330.617 60.5455H329.534V60.1797C329.534 59.8104 329.683 59.5938 330.127 59.5938C330.308 59.5938 330.493 59.6328 330.613 59.6719L330.88 58.5355C330.692 58.4787 330.276 58.3864 329.811 58.3864C328.785 58.3864 328.021 58.9652 328.021 60.1513V60.5455H327.251V61.6818H328.021V66H329.534V61.6818H330.617V60.5455ZM285.543 69.7273H284.013V74.3011H283.949L280.81 69.7273H279.46V77H280.998V72.4226H281.051L284.215 77H285.543V69.7273ZM293.497 73.3636C293.497 70.9844 292.02 69.6278 290.091 69.6278C288.153 69.6278 286.686 70.9844 286.686 73.3636C286.686 75.7322 288.153 77.0994 290.091 77.0994C292.02 77.0994 293.497 75.7429 293.497 73.3636ZM291.938 73.3636C291.938 74.9048 291.206 75.7393 290.091 75.7393C288.973 75.7393 288.245 74.9048 288.245 73.3636C288.245 71.8224 288.973 70.9879 290.091 70.9879C291.206 70.9879 291.938 71.8224 291.938 73.3636ZM294.441 78.25H297.91V77.3622H296.01V77.3232L296.642 76.8544C297.484 76.2933 297.86 75.8352 297.86 75.2102C297.86 74.4361 297.179 73.8324 296.12 73.8324C295.091 73.8324 294.352 74.3793 294.352 75.2919H295.4C295.4 74.9048 295.68 74.6918 296.106 74.6918C296.504 74.6918 296.824 74.8835 296.824 75.2244C296.824 75.5511 296.568 75.7607 296.17 76.0838L294.441 77.4652V78.25ZM306.011 72.0781H307.574C307.375 70.6399 306.107 69.6278 304.463 69.6278C302.542 69.6278 301.061 71.0128 301.061 73.3707C301.061 75.6719 302.446 77.0994 304.495 77.0994C306.331 77.0994 307.641 75.9382 307.641 74.0241V73.108H304.598V74.2656H306.16C306.139 75.1676 305.525 75.7393 304.502 75.7393C303.348 75.7393 302.62 74.8764 302.62 73.3565C302.62 71.8438 303.376 70.9879 304.488 70.9879C305.28 70.9879 305.816 71.3963 306.011 72.0781ZM310.323 77.103C311.129 77.103 311.651 76.7514 311.918 76.2436H311.96V77H313.395V73.321C313.395 72.0213 312.294 71.4744 311.08 71.4744C309.773 71.4744 308.913 72.0994 308.704 73.0938L310.103 73.2074C310.206 72.8452 310.529 72.5788 311.072 72.5788C311.587 72.5788 311.882 72.8381 311.882 73.2855V73.3068C311.882 73.6584 311.509 73.7045 310.561 73.7969C309.482 73.8963 308.512 74.2585 308.512 75.4766C308.512 76.5561 309.283 77.103 310.323 77.103ZM310.756 76.0589C310.291 76.0589 309.957 75.8423 309.957 75.4268C309.957 75.0007 310.309 74.7912 310.842 74.7166C311.172 74.6705 311.712 74.5923 311.893 74.4716V75.0504C311.893 75.6222 311.42 76.0589 310.756 76.0589ZM319.107 73.1009C318.972 72.0959 318.162 71.4744 316.784 71.4744C315.389 71.4744 314.469 72.1207 314.473 73.1719C314.469 73.9886 314.984 74.5178 316.049 74.7308L316.994 74.919C317.47 75.0149 317.686 75.1889 317.694 75.4624C317.686 75.7855 317.335 76.0163 316.806 76.0163C316.266 76.0163 315.907 75.7855 315.815 75.3416L314.327 75.4197C314.469 76.4638 315.357 77.1065 316.802 77.1065C318.216 77.1065 319.228 76.3857 319.231 75.3097C319.228 74.5213 318.713 74.049 317.654 73.8324L316.667 73.6335C316.159 73.5234 315.971 73.3494 315.975 73.0866C315.971 72.7599 316.341 72.5469 316.809 72.5469C317.335 72.5469 317.647 72.8345 317.722 73.1861L319.107 73.1009ZM322.67 77.1065C324.019 77.1065 324.928 76.4496 325.141 75.4375L323.742 75.3452C323.589 75.7607 323.199 75.9773 322.694 75.9773C321.938 75.9773 321.459 75.4766 321.459 74.6634V74.6598H325.173V74.2443C325.173 72.3906 324.051 71.4744 322.609 71.4744C321.004 71.4744 319.964 72.6143 319.964 74.2976C319.964 76.027 320.99 77.1065 322.67 77.1065ZM321.459 73.7223C321.491 73.1009 321.963 72.6037 322.634 72.6037C323.291 72.6037 323.746 73.0724 323.749 73.7223H321.459ZM330.699 73.1009C330.564 72.0959 329.754 71.4744 328.376 71.4744C326.981 71.4744 326.061 72.1207 326.064 73.1719C326.061 73.9886 326.576 74.5178 327.641 74.7308L328.586 74.919C329.062 75.0149 329.278 75.1889 329.285 75.4624C329.278 75.7855 328.927 76.0163 328.398 76.0163C327.858 76.0163 327.499 75.7855 327.407 75.3416L325.919 75.4197C326.061 76.4638 326.949 77.1065 328.394 77.1065C329.807 77.1065 330.819 76.3857 330.823 75.3097C330.819 74.5213 330.305 74.049 329.246 73.8324L328.259 73.6335C327.751 73.5234 327.563 73.3494 327.567 73.0866C327.563 72.7599 327.932 72.5469 328.401 72.5469C328.927 72.5469 329.239 72.8345 329.314 73.1861L330.699 73.1009Z" fill="#323847"/>
<path d="M190.12 62.3636C190.12 59.9844 188.643 58.6278 186.714 58.6278C184.776 58.6278 183.309 59.9844 183.309 62.3636C183.309 64.7322 184.776 66.0994 186.714 66.0994C188.643 66.0994 190.12 64.7429 190.12 62.3636ZM188.561 62.3636C188.561 63.9048 187.83 64.7393 186.714 64.7393C185.596 64.7393 184.868 63.9048 184.868 62.3636C184.868 60.8224 185.596 59.9879 186.714 59.9879C187.83 59.9879 188.561 60.8224 188.561 62.3636ZM191.231 68.0455H192.743V65.1264H192.79C192.999 65.581 193.457 66.0888 194.338 66.0888C195.581 66.0888 196.55 65.1051 196.55 63.2798C196.55 61.4048 195.538 60.4744 194.341 60.4744C193.429 60.4744 192.992 61.0178 192.79 61.4616H192.722V60.5455H191.231V68.0455ZM192.711 63.2727C192.711 62.2997 193.123 61.6783 193.858 61.6783C194.608 61.6783 195.006 62.3281 195.006 63.2727C195.006 64.2244 194.601 64.8849 193.858 64.8849C193.131 64.8849 192.711 64.2457 192.711 63.2727ZM200.46 60.5455H199.434V59.2386H197.921V60.5455H197.175V61.6818H197.921V64.5227C197.914 65.5916 198.642 66.1207 199.739 66.0746C200.13 66.0604 200.407 65.9822 200.559 65.9325L200.322 64.8068C200.247 64.821 200.087 64.8565 199.945 64.8565C199.643 64.8565 199.434 64.7429 199.434 64.3239V61.6818H200.46V60.5455ZM201.445 66H202.958V60.5455H201.445V66ZM202.205 59.8423C202.656 59.8423 203.026 59.4979 203.026 59.0753C203.026 58.6562 202.656 58.3118 202.205 58.3118C201.758 58.3118 201.389 58.6562 201.389 59.0753C201.389 59.4979 201.758 59.8423 202.205 59.8423ZM204.17 66H205.683V62.7259C205.683 62.1222 206.066 61.7209 206.571 61.7209C207.068 61.7209 207.402 62.0618 207.402 62.598V66H208.868V62.669C208.868 62.1044 209.191 61.7209 209.742 61.7209C210.225 61.7209 210.587 62.0227 210.587 62.63V66H212.096V62.3317C212.096 61.1491 211.393 60.4744 210.377 60.4744C209.578 60.4744 208.957 60.8828 208.733 61.5078H208.676C208.502 60.8757 207.945 60.4744 207.196 60.4744C206.461 60.4744 205.903 60.8651 205.676 61.5078H205.612V60.5455H204.17V66ZM213.291 66H214.804V60.5455H213.291V66ZM214.051 59.8423C214.502 59.8423 214.871 59.4979 214.871 59.0753C214.871 58.6562 214.502 58.3118 214.051 58.3118C213.604 58.3118 213.234 58.6562 213.234 59.0753C213.234 59.4979 213.604 59.8423 214.051 59.8423ZM215.987 66H220.572V64.7926H217.972V64.7536L220.48 61.5291V60.5455H216.08V61.7528H218.658V61.7919L215.987 65.098V66ZM223.284 66.103C224.09 66.103 224.612 65.7514 224.879 65.2436H224.921V66H226.356V62.321C226.356 61.0213 225.255 60.4744 224.04 60.4744C222.734 60.4744 221.874 61.0994 221.665 62.0938L223.064 62.2074C223.167 61.8452 223.49 61.5788 224.033 61.5788C224.548 61.5788 224.843 61.8381 224.843 62.2855V62.3068C224.843 62.6584 224.47 62.7045 223.522 62.7969C222.442 62.8963 221.473 63.2585 221.473 64.4766C221.473 65.5561 222.244 66.103 223.284 66.103ZM223.717 65.0589C223.252 65.0589 222.918 64.8423 222.918 64.4268C222.918 64.0007 223.27 63.7912 223.803 63.7166C224.133 63.6705 224.673 63.5923 224.854 63.4716V64.0504C224.854 64.6222 224.381 65.0589 223.717 65.0589ZM230.431 60.5455H229.404V59.2386H227.892V60.5455H227.146V61.6818H227.892V64.5227C227.885 65.5916 228.613 66.1207 229.71 66.0746C230.1 66.0604 230.377 65.9822 230.53 65.9325L230.292 64.8068C230.218 64.821 230.058 64.8565 229.916 64.8565C229.614 64.8565 229.404 64.7429 229.404 64.3239V61.6818H230.431V60.5455ZM231.416 66H232.929V60.5455H231.416V66ZM232.176 59.8423C232.627 59.8423 232.996 59.4979 232.996 59.0753C232.996 58.6562 232.627 58.3118 232.176 58.3118C231.729 58.3118 231.359 58.6562 231.359 59.0753C231.359 59.4979 231.729 59.8423 232.176 59.8423ZM236.605 66.1065C238.26 66.1065 239.29 64.9737 239.29 63.294C239.29 61.6037 238.26 60.4744 236.605 60.4744C234.95 60.4744 233.921 61.6037 233.921 63.294C233.921 64.9737 234.95 66.1065 236.605 66.1065ZM236.612 64.9347C235.849 64.9347 235.458 64.2351 235.458 63.2834C235.458 62.3317 235.849 61.6286 236.612 61.6286C237.362 61.6286 237.752 62.3317 237.752 63.2834C237.752 64.2351 237.362 64.9347 236.612 64.9347ZM241.786 62.8466C241.79 62.1435 242.209 61.7315 242.82 61.7315C243.427 61.7315 243.793 62.1293 243.789 62.7969V66H245.302V62.527C245.302 61.2557 244.556 60.4744 243.42 60.4744C242.61 60.4744 242.024 60.8722 241.779 61.5078H241.715V60.5455H240.274V66H241.786V62.8466ZM251.273 66.1065C252.928 66.1065 253.958 64.9737 253.958 63.294C253.958 61.6037 252.928 60.4744 251.273 60.4744C249.618 60.4744 248.589 61.6037 248.589 63.294C248.589 64.9737 249.618 66.1065 251.273 66.1065ZM251.28 64.9347C250.517 64.9347 250.126 64.2351 250.126 63.2834C250.126 62.3317 250.517 61.6286 251.28 61.6286C252.03 61.6286 252.42 62.3317 252.42 63.2834C252.42 64.2351 252.03 64.9347 251.28 64.9347ZM257.875 60.5455H256.792V60.1797C256.792 59.8104 256.941 59.5938 257.385 59.5938C257.566 59.5938 257.751 59.6328 257.871 59.6719L258.138 58.5355C257.949 58.4787 257.534 58.3864 257.069 58.3864C256.042 58.3864 255.279 58.9652 255.279 60.1513V60.5455H254.508V61.6818H255.279V66H256.792V61.6818H257.875V60.5455ZM192.822 77H194.359V73.9957H197.317V72.728H194.359V70.995H197.637V69.7273H192.822V77ZM200.707 77.1065C202.362 77.1065 203.392 75.9737 203.392 74.294C203.392 72.6037 202.362 71.4744 200.707 71.4744C199.052 71.4744 198.022 72.6037 198.022 74.294C198.022 75.9737 199.052 77.1065 200.707 77.1065ZM200.714 75.9347C199.95 75.9347 199.56 75.2351 199.56 74.2834C199.56 73.3317 199.95 72.6286 200.714 72.6286C201.463 72.6286 201.854 73.3317 201.854 74.2834C201.854 75.2351 201.463 75.9347 200.714 75.9347ZM208.914 73.1009C208.779 72.0959 207.969 71.4744 206.591 71.4744C205.195 71.4744 204.276 72.1207 204.279 73.1719C204.276 73.9886 204.791 74.5178 205.856 74.7308L206.801 74.919C207.276 75.0149 207.493 75.1889 207.5 75.4624C207.493 75.7855 207.142 76.0163 206.612 76.0163C206.073 76.0163 205.714 75.7855 205.622 75.3416L204.134 75.4197C204.276 76.4638 205.164 77.1065 206.609 77.1065C208.022 77.1065 209.034 76.3857 209.038 75.3097C209.034 74.5213 208.519 74.049 207.461 73.8324L206.474 73.6335C205.966 73.5234 205.778 73.3494 205.781 73.0866C205.778 72.7599 206.147 72.5469 206.616 72.5469C207.142 72.5469 207.454 72.8345 207.529 73.1861L208.914 73.1009ZM214.529 73.1009C214.394 72.0959 213.584 71.4744 212.206 71.4744C210.811 71.4744 209.891 72.1207 209.895 73.1719C209.891 73.9886 210.406 74.5178 211.471 74.7308L212.416 74.919C212.892 75.0149 213.108 75.1889 213.115 75.4624C213.108 75.7855 212.757 76.0163 212.228 76.0163C211.688 76.0163 211.329 75.7855 211.237 75.3416L209.749 75.4197C209.891 76.4638 210.779 77.1065 212.224 77.1065C213.637 77.1065 214.65 76.3857 214.653 75.3097C214.65 74.5213 214.135 74.049 213.076 73.8324L212.089 73.6335C211.581 73.5234 211.393 73.3494 211.397 73.0866C211.393 72.7599 211.762 72.5469 212.231 72.5469C212.757 72.5469 213.069 72.8345 213.144 73.1861L214.529 73.1009ZM215.606 77H217.118V71.5455H215.606V77ZM216.366 70.8423C216.817 70.8423 217.186 70.4979 217.186 70.0753C217.186 69.6562 216.817 69.3118 216.366 69.3118C215.918 69.3118 215.549 69.6562 215.549 70.0753C215.549 70.4979 215.918 70.8423 216.366 70.8423ZM219.843 69.7273H218.33V77H219.843V69.7273ZM223.398 77H224.935V73.9957H227.893V72.728H224.935V70.995H228.213V69.7273H223.398V77ZM232.375 74.6776C232.379 75.4091 231.878 75.7926 231.335 75.7926C230.763 75.7926 230.393 75.3913 230.39 74.7486V71.5455H228.877V75.0185C228.881 76.2933 229.626 77.071 230.724 77.071C231.544 77.071 232.134 76.6484 232.379 76.0092H232.435V77H233.888V71.5455H232.375V74.6776ZM237.584 77.1065C238.933 77.1065 239.842 76.4496 240.055 75.4375L238.656 75.3452C238.503 75.7607 238.113 75.9773 237.608 75.9773C236.852 75.9773 236.373 75.4766 236.373 74.6634V74.6598H240.087V74.2443C240.087 72.3906 238.965 71.4744 237.523 71.4744C235.918 71.4744 234.878 72.6143 234.878 74.2976C234.878 76.027 235.904 77.1065 237.584 77.1065ZM236.373 73.7223C236.405 73.1009 236.877 72.6037 237.548 72.6037C238.205 72.6037 238.66 73.0724 238.663 73.7223H236.373ZM242.587 69.7273H241.074V77H242.587V69.7273ZM248.337 73.1009C248.202 72.0959 247.393 71.4744 246.015 71.4744C244.619 71.4744 243.7 72.1207 243.703 73.1719C243.7 73.9886 244.214 74.5178 245.28 74.7308L246.224 74.919C246.7 75.0149 246.917 75.1889 246.924 75.4624C246.917 75.7855 246.565 76.0163 246.036 76.0163C245.496 76.0163 245.138 75.7855 245.045 75.3416L243.558 75.4197C243.7 76.4638 244.587 77.1065 246.033 77.1065C247.446 77.1065 248.458 76.3857 248.462 75.3097C248.458 74.5213 247.943 74.049 246.885 73.8324L245.898 73.6335C245.39 73.5234 245.202 73.3494 245.205 73.0866C245.202 72.7599 245.571 72.5469 246.04 72.5469C246.565 72.5469 246.878 72.8345 246.952 73.1861L248.337 73.1009Z" fill="#323847"/>
<path d="M109.145 66H110.682V63.4219H111.805L113.182 66H114.88L113.335 63.1733C114.163 62.8182 114.621 62.0973 114.621 61.103C114.621 59.6577 113.665 58.7273 112.014 58.7273H109.145V66ZM110.682 62.1861V59.9844H111.719C112.607 59.9844 113.037 60.3786 113.037 61.103C113.037 61.8239 112.607 62.1861 111.726 62.1861H110.682ZM118.077 66.1065C119.426 66.1065 120.335 65.4496 120.548 64.4375L119.149 64.3452C118.997 64.7607 118.606 64.9773 118.102 64.9773C117.345 64.9773 116.866 64.4766 116.866 63.6634V63.6598H120.58V63.2443C120.58 61.3906 119.458 60.4744 118.016 60.4744C116.411 60.4744 115.371 61.6143 115.371 63.2976C115.371 65.027 116.397 66.1065 118.077 66.1065ZM116.866 62.7223C116.898 62.1009 117.37 61.6037 118.041 61.6037C118.698 61.6037 119.153 62.0724 119.156 62.7223H116.866ZM123.08 62.8466C123.084 62.1435 123.503 61.7315 124.114 61.7315C124.721 61.7315 125.087 62.1293 125.083 62.7969V66H126.596V62.527C126.596 61.2557 125.85 60.4744 124.714 60.4744C123.904 60.4744 123.318 60.8722 123.073 61.5078H123.009V60.5455H121.568V66H123.08V62.8466ZM130.274 66.1065C131.623 66.1065 132.533 65.4496 132.746 64.4375L131.347 64.3452C131.194 64.7607 130.803 64.9773 130.299 64.9773C129.543 64.9773 129.063 64.4766 129.063 63.6634V63.6598H132.778V63.2443C132.778 61.3906 131.655 60.4744 130.214 60.4744C128.609 60.4744 127.568 61.6143 127.568 63.2976C127.568 65.027 128.594 66.1065 130.274 66.1065ZM129.063 62.7223C129.095 62.1009 129.567 61.6037 130.239 61.6037C130.896 61.6037 131.35 62.0724 131.354 62.7223H129.063ZM134.802 66H136.4L137.337 62.5696H137.405L138.342 66H139.944L141.425 60.5455H139.898L139.067 64.1889H139.021L138.126 60.5455H136.623L135.743 64.2102H135.693L134.848 60.5455H133.317L134.802 66ZM143.787 66.103C144.593 66.103 145.115 65.7514 145.381 65.2436H145.424V66H146.859V62.321C146.859 61.0213 145.758 60.4744 144.543 60.4744C143.237 60.4744 142.377 61.0994 142.168 62.0938L143.567 62.2074C143.67 61.8452 143.993 61.5788 144.536 61.5788C145.051 61.5788 145.346 61.8381 145.346 62.2855V62.3068C145.346 62.6584 144.973 62.7045 144.025 62.7969C142.945 62.8963 141.976 63.2585 141.976 64.4766C141.976 65.5561 142.747 66.103 143.787 66.103ZM144.22 65.0589C143.755 65.0589 143.421 64.8423 143.421 64.4268C143.421 64.0007 143.773 63.7912 144.305 63.7166C144.636 63.6705 145.176 63.5923 145.357 63.4716V64.0504C145.357 64.6222 144.884 65.0589 144.22 65.0589ZM148.061 66H149.552V65.1264H149.62C149.829 65.581 150.287 66.0888 151.168 66.0888C152.411 66.0888 153.38 65.1051 153.38 63.2798C153.38 61.4048 152.368 60.4744 151.172 60.4744C150.259 60.4744 149.822 61.0178 149.62 61.4616H149.574V58.7273H148.061V66ZM149.542 63.2727C149.542 62.2997 149.954 61.6783 150.689 61.6783C151.438 61.6783 151.836 62.3281 151.836 63.2727C151.836 64.2244 151.431 64.8849 150.689 64.8849C149.961 64.8849 149.542 64.2457 149.542 63.2727ZM155.903 58.7273H154.39V66H155.903V58.7273ZM159.6 66.1065C160.95 66.1065 161.859 65.4496 162.072 64.4375L160.673 64.3452C160.52 64.7607 160.129 64.9773 159.625 64.9773C158.869 64.9773 158.389 64.4766 158.389 63.6634V63.6598H162.104V63.2443C162.104 61.3906 160.982 60.4744 159.54 60.4744C157.935 60.4744 156.894 61.6143 156.894 63.2976C156.894 65.027 157.921 66.1065 159.6 66.1065ZM158.389 62.7223C158.421 62.1009 158.894 61.6037 159.565 61.6037C160.222 61.6037 160.676 62.0724 160.68 62.7223H158.389ZM114.731 77H119.646V75.7322H116.268V73.9957H119.379V72.728H116.268V70.995H119.631V69.7273H114.731V77ZM122.338 73.8466C122.342 73.1435 122.761 72.7315 123.372 72.7315C123.979 72.7315 124.345 73.1293 124.341 73.7969V77H125.854V73.527C125.854 72.2557 125.108 71.4744 123.972 71.4744C123.162 71.4744 122.576 71.8722 122.331 72.5078H122.267V71.5455H120.825V77H122.338V73.8466ZM129.532 77.1065C130.881 77.1065 131.79 76.4496 132.003 75.4375L130.604 75.3452C130.452 75.7607 130.061 75.9773 129.557 75.9773C128.8 75.9773 128.321 75.4766 128.321 74.6634V74.6598H132.035V74.2443C132.035 72.3906 130.913 71.4744 129.472 71.4744C127.866 71.4744 126.826 72.6143 126.826 74.2976C126.826 76.027 127.852 77.1065 129.532 77.1065ZM128.321 73.7223C128.353 73.1009 128.825 72.6037 129.496 72.6037C130.153 72.6037 130.608 73.0724 130.611 73.7223H128.321ZM133.023 77H134.535V73.9141C134.535 73.2429 135.025 72.7812 135.693 72.7812C135.903 72.7812 136.19 72.8168 136.332 72.8629V71.5206C136.197 71.4886 136.009 71.4673 135.856 71.4673C135.246 71.4673 134.745 71.8224 134.546 72.4972H134.489V71.5455H133.023V77ZM139.318 79.1591C140.877 79.1591 141.985 78.4489 141.985 77.0533V71.5455H140.483V72.4616H140.426C140.223 72.0178 139.78 71.4744 138.867 71.4744C137.67 71.4744 136.658 72.4048 136.658 74.2621C136.658 76.0767 137.642 76.9219 138.87 76.9219C139.741 76.9219 140.227 76.4851 140.426 76.0341H140.49V77.032C140.49 77.7812 140.01 78.0724 139.353 78.0724C138.686 78.0724 138.348 77.7812 138.224 77.451L136.825 77.6392C137.006 78.4986 137.848 79.1591 139.318 79.1591ZM139.35 75.7855C138.608 75.7855 138.203 75.196 138.203 74.255C138.203 73.3281 138.601 72.6783 139.35 72.6783C140.085 72.6783 140.497 73.2997 140.497 74.255C140.497 75.2173 140.078 75.7855 139.35 75.7855ZM143.189 77H144.701V71.5455H143.189V77ZM143.949 70.8423C144.4 70.8423 144.769 70.4979 144.769 70.0753C144.769 69.6562 144.4 69.3118 143.949 69.3118C143.501 69.3118 143.132 69.6562 143.132 70.0753C143.132 70.4979 143.501 70.8423 143.949 70.8423ZM148.399 77.1065C149.748 77.1065 150.658 76.4496 150.871 75.4375L149.472 75.3452C149.319 75.7607 148.928 75.9773 148.424 75.9773C147.668 75.9773 147.188 75.4766 147.188 74.6634V74.6598H150.903V74.2443C150.903 72.3906 149.78 71.4744 148.339 71.4744C146.734 71.4744 145.693 72.6143 145.693 74.2976C145.693 76.027 146.719 77.1065 148.399 77.1065ZM147.188 73.7223C147.22 73.1009 147.692 72.6037 148.364 72.6037C149.021 72.6037 149.475 73.0724 149.479 73.7223H147.188ZM156.428 73.1009C156.293 72.0959 155.484 71.4744 154.106 71.4744C152.71 71.4744 151.79 72.1207 151.794 73.1719C151.79 73.9886 152.305 74.5178 153.371 74.7308L154.315 74.919C154.791 75.0149 155.008 75.1889 155.015 75.4624C155.008 75.7855 154.656 76.0163 154.127 76.0163C153.587 76.0163 153.229 75.7855 153.136 75.3416L151.648 75.4197C151.79 76.4638 152.678 77.1065 154.123 77.1065C155.537 77.1065 156.549 76.3857 156.552 75.3097C156.549 74.5213 156.034 74.049 154.976 73.8324L153.989 73.6335C153.481 73.5234 153.293 73.3494 153.296 73.0866C153.293 72.7599 153.662 72.5469 154.131 72.5469C154.656 72.5469 154.969 72.8345 155.043 73.1861L156.428 73.1009Z" fill="#323847"/>
<path fill-rule="evenodd" clip-rule="evenodd" d="M297.75 17.75V18.5H299.25V14.75H309C309.414 14.75 309.75 15.0858 309.75 15.5C309.75 15.9142 309.414 16.25 309 16.25H305C303.757 16.25 302.75 17.2574 302.75 18.5C302.75 19.7426 303.757 20.75 305 20.75H314C314.414 20.75 314.75 21.0858 314.75 21.5C314.75 21.9142 314.414 22.25 314 22.25H310.5V23.75H314C315.243 23.75 316.25 22.7426 316.25 21.5C316.25 20.2574 315.243 19.25 314 19.25H305C304.586 19.25 304.25 18.9142 304.25 18.5C304.25 18.0858 304.586 17.75 305 17.75H309C310.243 17.75 311.25 16.7426 311.25 15.5C311.25 14.2574 310.243 13.25 309 13.25H299.25V9.5H297.75V10.25H293.5C289.22 10.25 285.75 13.7198 285.75 18V49.25H281V50.75H285.75H286.5H292.5H293.25H302.896H321.267H329V49.25H323.716C324.093 48.515 324.145 47.6098 323.727 46.7721L316.25 31.7884V26.75H317V25.25H315.5H309.5H308V26.75H308.75V31.7712L300.491 46.6665C300.013 47.5277 300.053 48.4811 300.446 49.25H293.25V17.75H297.75ZM302.896 49.25H321.267C322.196 49.25 322.8 48.2729 322.385 47.4418L317.944 38.5418C317.015 38.0041 316.049 37.6917 315.042 37.7488C314.294 37.7912 313.317 38.1413 312.225 38.6216L312.225 38.6216L312.173 38.6444L312.173 38.6444L312.131 38.6632C311.216 39.0657 310.061 39.5742 308.855 39.711C307.918 39.8172 307.016 39.687 306.191 39.4798L301.803 47.3938C301.341 48.227 301.943 49.25 302.896 49.25ZM306.948 38.1143C307.532 38.2339 308.111 38.2858 308.686 38.2206C309.646 38.1118 310.608 37.6944 311.569 37.2715L311.569 37.2715L311.621 37.2487L311.621 37.2486C312.707 36.7709 313.909 36.3107 314.958 36.2512C315.641 36.2124 316.294 36.2992 316.912 36.4735L314.829 32.3001L314.75 32.1419V31.9652V26.75H310.25V31.9652V32.1592L310.156 32.3289L306.948 38.1143ZM297.75 16.25H292.5H291.75V17V49.25H287.25V18C287.25 14.5482 290.048 11.75 293.5 11.75H297.75V16.25Z" fill="#323847"/>
<path fill-rule="evenodd" clip-rule="evenodd" d="M217.75 12.75H218.5H222.5H223.25V13.5V19.498C223.402 19.5262 223.553 19.5566 223.702 19.5893L224.784 16.0951L225.006 15.3786L225.722 15.6005L229.183 16.6722L229.899 16.8941L229.677 17.6105L228.382 21.7945C229.516 22.7896 230.25 24.0564 230.25 25.5V49.25H244.5V50.75H230.25H229.5H211.5H210.75H196.5V49.25H210.75V25.5C210.75 24.0562 211.484 22.7892 212.619 21.7941L211.323 17.6086L211.101 16.8921L211.817 16.6703L215.278 15.5986L215.994 15.3767L216.216 16.0931L217.299 19.5892C217.448 19.5565 217.598 19.5261 217.75 19.498V13.5V12.75ZM219.25 19.3001C219.66 19.267 220.077 19.25 220.5 19.25C220.923 19.25 221.34 19.267 221.75 19.3001V14.25H219.25V19.3001ZM217.744 21.0278L218.35 22.9846L218.572 23.701L217.856 23.9229L214.395 24.9946L213.679 25.2165L213.457 24.5L213.119 23.4078C212.542 24.0689 212.25 24.7867 212.25 25.5V44.75H228.75V25.5C228.75 24.7869 228.458 24.0693 227.882 23.4084L227.543 24.502L227.321 25.2184L226.605 24.9966L223.144 23.9248L222.428 23.703L222.65 22.9865L223.256 21.0279C222.397 20.8487 221.471 20.75 220.5 20.75C219.53 20.75 218.603 20.8486 217.744 21.0278ZM228.75 46.25H212.25V49.25H228.75V46.25ZM221.03 29.4697L220.5 28.9393L219.97 29.4697L214.97 34.4697L214.439 35L214.97 35.5303L219.97 40.5303L220.5 41.0607L221.03 40.5303L226.03 35.5303L226.561 35L226.03 34.4697L221.03 29.4697ZM220.5 38.9393L216.561 35L220.5 31.0607L224.439 35L220.5 38.9393ZM214.668 23.3399L212.977 17.8813L215.005 17.2533L216.696 22.7119L214.668 23.3399ZM228.023 17.8832L226.332 23.3418L224.304 22.7138L225.995 17.2552L228.023 17.8832Z" fill="#323847"/>
<path fill-rule="evenodd" clip-rule="evenodd" d="M134.288 3.7832H134.944H136.056H136.712L136.799 4.43384L138.743 18.9776L138.775 19.2168L138.662 19.4297L137.664 21.3026C137.856 21.5477 138.008 21.8264 138.109 22.1285L140.123 22.1974L140.364 22.2056L140.555 22.3529L152.177 31.3075L152.697 31.7081L152.369 32.2766L151.813 33.2396L151.485 33.8081L150.878 33.5581L137.31 27.9697L137.087 27.8779L136.96 27.6731L136.25 26.5349L136.25 49.25H146.75V45.0049H141.094H139.5L140.04 43.5049L142.381 37H152.621L154.961 43.5049L155.5 45.0049H153.906H148.25V49.25H159.5V50.75H111.5V49.25H122.75V46.0043H118.094H116.5L117.04 44.5043L119.021 39H127.981L129.961 44.5043L130.5 46.0043H128.906H124.25V49.25H134.75L134.75 26.5661L134.064 27.6656L133.937 27.8704L133.714 27.9623L120.146 33.5506L119.539 33.8006L119.211 33.2322L118.655 32.2691L118.327 31.7007L118.847 31.3L130.469 22.3454L130.66 22.1982L130.901 22.1899L132.893 22.1218C132.994 21.8222 133.145 21.5458 133.336 21.3024L132.338 19.4279L132.225 19.2151L132.257 18.976L134.201 4.43383L134.288 3.7832ZM135.377 20.2527C135.092 20.2652 134.819 20.3211 134.563 20.4139L133.775 18.9357L135.5 6.03442L137.225 18.9372L136.438 20.414C136.188 20.3236 135.922 20.2682 135.645 20.2538C135.597 20.2513 135.549 20.25 135.5 20.25C135.459 20.25 135.418 20.2509 135.377 20.2527ZM133.076 24.2994C132.963 24.0895 132.877 23.8633 132.821 23.6251L131.193 23.6808L120.883 31.625L132.919 26.6672L133.839 25.192C133.572 24.9893 133.343 24.739 133.165 24.4536C133.134 24.4033 133.104 24.3518 133.076 24.2994ZM137.174 25.1819L138.105 26.6747L150.141 31.6325L139.831 23.6883L138.177 23.6317C138.122 23.8667 138.036 24.0901 137.925 24.2975C137.901 24.3434 137.875 24.3885 137.848 24.4329C137.671 24.7221 137.442 24.9761 137.174 25.1819ZM136.733 23.2037C136.636 23.7972 136.121 24.25 135.5 24.25C134.81 24.25 134.25 23.6904 134.25 23C134.25 22.3327 134.773 21.7875 135.431 21.7518C135.454 21.7506 135.477 21.75 135.5 21.75C135.518 21.75 135.537 21.7504 135.555 21.7512C136.22 21.7799 136.75 22.328 136.75 23C136.75 23.0693 136.744 23.1374 136.733 23.2037ZM126.927 40.5L128.367 44.5043H118.634L120.075 40.5H126.927ZM151.567 38.5L153.367 43.5049H141.634L143.435 38.5H151.567Z" fill="#323847"/>
<path fill-rule="evenodd" clip-rule="evenodd" d="M62.5 6.25C58.2198 6.25 54.75 9.71979 54.75 14V16.1642C53.6817 14.9889 52.1694 14.25 50.4767 14.25C48.4439 14.25 46.6711 15.3158 45.6153 16.9234C44.4247 14.1737 41.687 12.25 38.5 12.25C34.2198 12.25 30.75 15.7198 30.75 20V33C30.75 37.0272 33.8217 40.337 37.75 40.7142V49.25H26.5V50.75H74.5V49.25H63.25V37.7142C67.1783 37.337 70.25 34.0272 70.25 30V14C70.25 9.71979 66.7802 6.25 62.5 6.25ZM61.75 49.25V37.7142C60.6479 37.6083 59.6133 37.2717 58.695 36.7532C57.527 39.9641 54.6415 42.3988 51.25 42.7151V49.25H61.75ZM49.75 49.25V42.7154C47.1804 42.4778 44.9121 41.034 43.4532 38.9608C42.2906 39.928 40.8405 40.5614 39.25 40.7142V49.25H49.75ZM63.25 31.3107V36.2055C66.3482 35.8349 68.75 33.198 68.75 30V14C68.75 10.5482 65.9518 7.75 62.5 7.75C59.0482 7.75 56.25 10.5482 56.25 14V19.1696C56.3263 19.5633 56.3663 19.9699 56.3663 20.3854V20.6778C56.3663 21.885 56.3668 22.4665 56.4021 22.947C56.4362 23.4124 56.5033 23.7859 56.6553 24.5823L56.6558 24.585C56.8687 25.7228 57.2935 26.6423 57.7613 27.6474L57.7623 27.6495L57.7677 27.6611C58.4735 29.1895 59.25 30.8711 59.25 33.6173C59.25 34.1711 59.1995 34.716 59.103 35.2471C59.8828 35.753 60.7824 36.0898 61.75 36.2055V22.3107L57.9697 18.5303L59.0303 17.4697L61.75 20.1893V16H63.25V29.1893L65.9697 26.4697L67.0303 27.5303L63.25 31.3107ZM51.25 41.2066C54.8032 40.7941 57.75 37.4988 57.75 33.6173C57.75 31.205 57.0889 29.7691 56.401 28.2794L56.4005 28.2783L56.3893 28.2543C55.9304 27.2686 55.4317 26.1975 55.1816 24.8622C55.0315 24.0755 54.9475 23.6207 54.9061 23.0568C54.8663 22.5145 54.8663 21.8746 54.8663 20.7211V20.6778V20.3854C54.8663 17.7933 52.8671 15.75 50.4767 15.75C48.0864 15.75 46.0872 17.7933 46.0872 20.3854V20.6778C46.0872 23.0845 46.0867 23.2275 45.8215 24.8443L45.819 24.8593L45.816 24.8741C45.5442 26.1947 45.0523 27.2797 44.6167 28.2404L44.6017 28.2736L44.5995 28.2783C43.9119 29.7673 43.25 31.2282 43.25 33.6173C43.25 37.5015 46.1797 40.7966 49.75 41.207V38.0002V37V32.8107L45.9697 29.0303L47.0303 27.9697L49.75 30.6893V24H51.25V35.1893L53.4697 32.9697L54.5303 34.0303L51.25 37.3107V38.0002V41.2066ZM39.25 39.2055C40.5609 39.0487 41.7472 38.4861 42.6796 37.6469C42.0855 36.4206 41.75 35.0483 41.75 33.6173C41.75 30.8905 42.5292 29.1839 43.2366 27.6518C43.6788 26.6763 44.1067 25.7286 44.3438 24.5863C44.5872 23.1018 44.5872 23.0395 44.5872 20.6923V20.6778V20.3854C44.5872 19.9788 44.6255 19.5807 44.6986 19.1949C44.3036 16.1234 41.679 13.75 38.5 13.75C35.0482 13.75 32.25 16.5482 32.25 20V33C32.25 36.198 34.6518 38.8349 37.75 39.2055V33.3107L34.4697 30.0303L35.5303 28.9697L37.75 31.1893V20H39.25V27.1893L41.9697 24.4697L43.0303 25.5303L39.25 29.3107V39.2055Z" fill="#323847"/>
</svg>
