<svg width="488" height="175" viewBox="0 0 488 175" fill="none" xmlns="http://www.w3.org/2000/svg">
<path opacity="0.25" d="M412.5 87.5C412.5 80.6 418.1 75 425 75H450C456.9 75 462.5 69.4 462.5 62.5C462.5 55.6 456.9 50 450 50H325C318.1 50 312.5 55.6 312.5 62.5C312.5 69.4 318.1 75 325 75H375C381.9 75 387.5 80.6 387.5 87.5C387.5 94.4 381.9 100 375 100H350C343.1 100 337.5 105.6 337.5 112.5C337.5 119.4 343.1 125 350 125H475C481.9 125 487.5 119.4 487.5 112.5C487.5 105.6 481.9 100 475 100H425C418.1 100 412.5 94.4 412.5 87.5Z" fill="#A57F73"/>
<path opacity="0.25" d="M237.5 137.5C237.5 130.6 231.9 125 225 125H187.5C180.6 125 175 119.4 175 112.5C175 105.6 180.6 100 187.5 100H300C306.9 100 312.5 105.6 312.5 112.5C312.5 119.4 306.9 125 300 125H275C268.1 125 262.5 130.6 262.5 137.5C262.5 144.4 268.1 150 275 150H375C381.9 150 387.5 155.6 387.5 162.5C387.5 169.4 381.9 175 375 175H125C118.1 175 112.5 169.4 112.5 162.5C112.5 155.6 118.1 150 125 150H225C231.9 150 237.5 144.4 237.5 137.5Z" fill="#A57F73"/>
<path opacity="0.25" d="M225 37.5C225 44.4 219.4 50 212.5 50H200C193.1 50 187.5 55.6 187.5 62.5C187.5 69.4 193.1 75 200 75H275C281.9 75 287.5 69.4 287.5 62.5C287.5 55.6 281.9 50 275 50H262.5C255.6 50 250 44.4 250 37.5C250 30.6 255.6 25 262.5 25H325C331.9 25 337.5 19.4 337.5 12.5C337.5 5.6 331.9 0 325 0H112.5C105.6 0 100 5.6 100 12.5C100 19.4 105.6 25 112.5 25H212.5C219.4 25 225 30.6 225 37.5Z" fill="#A57F73"/>
<path opacity="0.25" d="M75 87.5C75 80.6 69.4 75 62.5 75H37.5C30.6 75 25 69.4 25 62.5C25 55.6 30.6 50 37.5 50H150C156.9 50 162.5 55.6 162.5 62.5C162.5 69.4 156.9 75 150 75H112.5C105.6 75 100 80.6 100 87.5C100 94.4 105.6 100 112.5 100H137.5C144.4 100 150 105.6 150 112.5C150 119.4 144.4 125 137.5 125H12.5C5.6 125 0 119.4 0 112.5C0 105.6 5.6 100 12.5 100H62.5C69.4 100 75 94.4 75 87.5Z" fill="#A57F73"/>
</svg>
