<svg width="382" height="397" viewBox="0 0 382 397" fill="none" xmlns="http://www.w3.org/2000/svg">
<path d="M252.424 396.995V147.918" stroke="#969693" stroke-width="11.5139" stroke-miterlimit="10"/>
<path d="M256.021 0.726562H248.82L236.23 116.778L245.232 137.605H259.609L268.611 116.791L256.021 0.726562Z" fill="#B2B2B2"/>
<path d="M378.094 224.617L381.682 218.387L287.48 149.455L264.944 146.826L257.742 159.286L271.277 177.484L378.094 224.617Z" fill="#B2B2B2"/>
<path d="M123.158 218.387L126.759 224.617L233.563 177.497L247.098 159.286L239.909 146.826L217.385 149.443L123.158 218.387Z" fill="#B2B2B2"/>
<path d="M252.419 162.629C260.545 162.629 267.132 156.041 267.132 147.915C267.132 139.789 260.545 133.201 252.419 133.201C244.293 133.201 237.705 139.789 237.705 147.915C237.705 156.041 244.293 162.629 252.419 162.629Z" fill="#494949"/>
<mask id="mask0" mask-type="alpha" maskUnits="userSpaceOnUse" x="123" y="0" width="259" height="225">
<path d="M256.021 0.726562H248.82L236.23 116.778L245.232 137.605H259.609L268.611 116.791L256.021 0.726562Z" fill="#969696"/>
<path d="M378.094 224.617L381.682 218.387L287.48 149.455L264.944 146.826L257.742 159.286L271.277 177.484L378.094 224.617Z" fill="#969696"/>
<path d="M123.158 218.387L126.759 224.617L233.563 177.497L247.098 159.286L239.909 146.826L217.385 149.443L123.158 218.387Z" fill="#969696"/>
</mask>
<g mask="url(#mask0)">
<path d="M252.421 13.6788C326.702 13.6788 387.124 74.1008 387.124 148.382C387.124 222.663 326.702 283.085 252.421 283.085C178.14 283.085 117.718 222.663 117.718 148.382C117.718 74.1008 178.153 13.6788 252.421 13.6788ZM252.421 0.726562C170.874 0.726562 104.766 66.8346 104.766 148.382C104.766 229.929 170.874 296.037 252.421 296.037C333.968 296.037 400.076 229.929 400.076 148.382C400.076 66.8346 333.968 0.726562 252.421 0.726562Z" fill="#CC1D1D"/>
<path d="M252.421 39.5831C312.415 39.5831 361.219 88.387 361.219 148.382C361.219 208.376 312.415 257.18 252.421 257.18C192.426 257.18 143.622 208.376 143.622 148.382C143.622 88.387 192.426 39.5831 252.421 39.5831ZM252.421 26.6309C185.186 26.6309 130.67 81.1467 130.67 148.382C130.67 215.616 185.186 270.132 252.421 270.132C319.656 270.132 374.171 215.616 374.171 148.382C374.171 81.1467 319.668 26.6309 252.421 26.6309Z" fill="#CC1D1D"/>
<path d="M252.421 63.919C298.842 63.919 336.61 101.688 336.61 148.108C336.61 194.529 298.842 232.298 252.421 232.298C206 232.298 168.232 194.529 168.232 148.108C168.232 101.688 206 63.919 252.421 63.919ZM252.421 50.9668C198.773 50.9668 155.279 94.4603 155.279 148.108C155.279 201.756 198.773 245.25 252.421 245.25C306.069 245.25 349.562 201.756 349.562 148.108C349.562 94.4603 306.069 50.9668 252.421 50.9668Z" fill="#CC1D1D"/>
</g>
<path d="M187.203 343.612C172.29 343.612 160.203 331.525 160.203 316.612V262.611C160.203 247.698 172.29 235.611 187.203 235.611C202.116 235.611 214.203 247.698 214.203 262.611V316.612C214.203 331.525 202.116 343.612 187.203 343.612Z" fill="#009343"/>
<path d="M187.203 396.996V267.111" stroke="#035B2C" stroke-width="4.50002" stroke-miterlimit="10"/>
<path d="M173.703 276.113L187.203 289.613" stroke="#035B2C" stroke-width="4.50002" stroke-miterlimit="10"/>
<path d="M200.703 307.613L187.203 321.113" stroke="#035B2C" stroke-width="4.50002" stroke-miterlimit="10"/>
<path d="M106.201 361.61C91.2882 361.61 79.2012 349.523 79.2012 334.61V289.609C79.2012 274.696 91.2882 262.609 106.201 262.609C121.114 262.609 133.201 274.696 133.201 289.609V334.61C133.201 349.523 121.114 361.61 106.201 361.61Z" fill="#009343"/>
<path d="M106.201 396.995V289.607" stroke="#035B2C" stroke-width="4.50002" stroke-miterlimit="10"/>
<path d="M92.7012 325.607L106.201 339.107" stroke="#035B2C" stroke-width="4.50002" stroke-miterlimit="10"/>
<path d="M119.701 307.607L106.201 321.107" stroke="#035B2C" stroke-width="4.50002" stroke-miterlimit="10"/>
<path d="M168.755 307.909C167.666 302.446 167.702 302.509 167.702 293.212C167.702 281.665 158.297 272.215 146.705 272.215C135.113 272.215 125.708 281.665 125.708 293.212C125.708 302.518 125.753 302.446 124.655 307.909C122.558 318.412 115.205 323.956 115.205 339.409C115.205 356.212 129.308 370.909 146.705 370.909C164.102 370.909 178.205 356.212 178.205 339.409C178.205 323.956 170.852 318.412 168.755 307.909Z" fill="#21C037"/>
<path d="M146.703 396.998V304.014" stroke="#035B2C" stroke-width="4.50002" stroke-miterlimit="10"/>
<path d="M160.203 340.01L146.703 353.51" stroke="#035B2C" stroke-width="4.50002" stroke-miterlimit="10"/>
<path d="M133.201 322.014L146.701 335.514" stroke="#035B2C" stroke-width="4.50002" stroke-miterlimit="10"/>
<path d="M0 348.109C19.8811 348.109 36.0002 364.228 36.0002 384.11C16.1191 384.11 0 367.99 0 348.109Z" fill="#009343"/>
<path d="M32.3984 384.11C32.3984 364.228 48.5175 348.109 68.3986 348.109C68.3986 367.99 52.2795 384.11 32.3984 384.11Z" fill="#21C037"/>
<path d="M34.2012 396.997V382.311L52.2013 364.311" stroke="#035B2C" stroke-width="4.50002" stroke-miterlimit="10"/>
<path d="M34.2013 396.994V382.311L16.2012 364.311" stroke="#035B2C" stroke-width="4.50002" stroke-miterlimit="10"/>
<path d="M313.178 333.572C333.083 333.572 349.221 349.711 349.221 369.615C329.316 369.615 313.178 353.477 313.178 333.572Z" fill="#009343"/>
<path d="M345.613 369.615C345.613 349.711 361.752 333.572 381.656 333.572C381.656 353.477 365.518 369.615 345.613 369.615Z" fill="#21C037"/>
<path d="M347.418 387.638V367.815L365.44 349.793" stroke="#035B2C" stroke-width="4.5054" stroke-miterlimit="10"/>
<path d="M347.418 396.993V367.815L329.396 349.793" stroke="#035B2C" stroke-width="4.5054" stroke-miterlimit="10"/>
<path d="M276.908 342.586C296.813 342.586 312.951 358.724 312.951 378.629C293.047 378.629 276.908 362.491 276.908 342.586Z" fill="#009343"/>
<path d="M309.346 378.629C309.346 358.724 325.484 342.586 345.389 342.586C345.389 362.491 329.251 378.629 309.346 378.629Z" fill="#21C037"/>
<path d="M311.15 396.652V376.828L329.172 358.807" stroke="#035B2C" stroke-width="4.5054" stroke-miterlimit="10"/>
<path d="M311.15 397V376.828L293.129 358.807" stroke="#035B2C" stroke-width="4.5054" stroke-miterlimit="10"/>
</svg>
