<svg width="356" height="375" viewBox="0 0 356 375" fill="none" xmlns="http://www.w3.org/2000/svg">
<g clip-path="url(#clip0)">
<path d="M66.2147 39.1944H34.6074C32.1149 39.1944 30.092 37.1787 30.092 34.695C30.092 32.2114 32.1149 30.1956 34.6074 30.1956H43.638C46.1305 30.1956 48.1534 28.1799 48.1534 25.6962C48.1534 23.2126 46.1305 21.1968 43.638 21.1968H25.5767C23.0842 21.1968 21.0614 19.1811 21.0614 16.6974C21.0614 14.2138 23.0842 12.198 25.5767 12.198H34.6074C37.0998 12.198 39.1227 10.1823 39.1227 7.69862C39.1227 5.21495 37.0998 3.19922 34.6074 3.19922H7.51534C5.02287 3.19922 3 5.21495 3 7.69862C3 10.1823 5.02287 12.198 7.51534 12.198H12.0307" stroke="#A57F73" stroke-width="4.4994" stroke-miterlimit="10"/>
<path d="M165.553 48.1925H89.3522C81.062 48.1925 73.8375 42.5682 71.8327 34.5593L66.2246 12.1973H75.2553L88.8013 30.1949H147.501C157.461 30.1949 165.553 38.2488 165.553 48.1925Z" fill="#E3572B"/>
<path d="M149.297 41.8934C150.793 41.8934 152.006 40.6848 152.006 39.1938C152.006 37.7028 150.793 36.4941 149.297 36.4941C147.801 36.4941 146.588 37.7028 146.588 39.1938C146.588 40.6848 147.801 41.8934 149.297 41.8934Z" fill="white"/>
<path d="M139.362 41.8934C140.858 41.8934 142.071 40.6848 142.071 39.1938C142.071 37.7028 140.858 36.4941 139.362 36.4941C137.865 36.4941 136.652 37.7028 136.652 39.1938C136.652 40.6848 137.865 41.8934 139.362 41.8934Z" fill="white"/>
<path d="M98.1029 66.1898H88.7832L111.36 39.1934H124.906L105.038 62.9502C103.332 65.0019 100.785 66.1898 98.1029 66.1898Z" fill="#873116"/>
<path d="M50.0603 141.037H140.367V375.006H50.0603V141.037Z" fill="#873116"/>
<path opacity="0.55" d="M104.243 231.023H122.305V249.021H104.243V231.023Z" fill="#F18360"/>
<path opacity="0.55" d="M68.1222 231.023H86.1836V249.021H68.1222V231.023Z" fill="#F18360"/>
<path opacity="0.55" d="M104.243 195.029H122.305V213.027H104.243V195.029Z" fill="#F18360"/>
<path d="M68.1222 195.029H86.1836V213.027H68.1222V195.029Z" fill="#F18360"/>
<path d="M104.243 159.035H122.305V177.033H104.243V159.035Z" fill="#F18360"/>
<path opacity="0.55" d="M68.1222 159.035H86.1836V177.033H68.1222V159.035Z" fill="#F18360"/>
<path d="M104.243 267.02H122.305V285.017H104.243V267.02Z" fill="#F18360"/>
<path d="M68.1222 267.02H86.1836V285.017H68.1222V267.02Z" fill="#F18360"/>
<path opacity="0.55" d="M104.243 303.014H122.305V321.011H104.243V303.014Z" fill="#F18360"/>
<path d="M68.1222 303.014H86.1836V321.011H68.1222V303.014Z" fill="#F18360"/>
<path opacity="0.55" d="M104.243 339.01H122.305V357.007H104.243V339.01Z" fill="#F18360"/>
<path opacity="0.55" d="M68.1222 339.01H86.1836V357.007H68.1222V339.01Z" fill="#F18360"/>
<path d="M113.275 132.037H131.336V141.036H113.275V132.037Z" fill="#873116"/>
<path d="M113.275 213.027H203.582V375.006H113.275V213.027Z" fill="#E3572B"/>
<path opacity="0.55" d="M167.458 231.025H185.52V249.023H167.458V231.025Z" fill="#FFB49C"/>
<path d="M131.337 231.025H149.398V249.023H131.337V231.025Z" fill="#FFB49C"/>
<path d="M167.458 267.02H185.52V285.017H167.458V267.02Z" fill="#FFB49C"/>
<path opacity="0.55" d="M131.337 267.02H149.398V285.017H131.337V267.02Z" fill="#FFB49C"/>
<path opacity="0.55" d="M167.458 303.014H185.52V321.011H167.458V303.014Z" fill="#FFB49C"/>
<path opacity="0.55" d="M131.337 303.014H149.398V321.011H131.337V303.014Z" fill="#FFB49C"/>
<path opacity="0.55" d="M167.458 339.01H185.52V357.007H167.458V339.01Z" fill="#FFB49C"/>
<path d="M131.337 339.01H149.398V357.007H131.337V339.01Z" fill="#FFB49C"/>
<path d="M176.489 204.027H194.551V213.026H176.489V204.027Z" fill="#E3572B"/>
<path d="M194.552 195.032H181.006C178.514 195.032 176.491 193.016 176.491 190.532C176.491 188.048 178.514 186.033 181.006 186.033H217.129C219.621 186.033 221.644 184.017 221.644 181.533C221.644 179.05 219.621 177.034 217.129 177.034H199.067C196.575 177.034 194.552 175.018 194.552 172.535C194.552 170.051 196.575 168.035 199.067 168.035H244.221C246.713 168.035 248.736 170.051 248.736 172.535C248.736 175.018 246.713 177.034 244.221 177.034H235.19C232.698 177.034 230.675 179.05 230.675 181.533C230.675 184.017 232.698 186.033 235.19 186.033H271.313C273.805 186.033 275.828 184.017 275.828 181.533C275.828 179.05 273.805 177.034 271.313 177.034H257.767" stroke="#A57F73" stroke-width="4.4994" stroke-miterlimit="10"/>
<path d="M131.337 123.039H117.791C115.298 123.039 113.275 121.023 113.275 118.54C113.275 116.056 115.298 114.04 117.791 114.04H144.883C147.375 114.04 149.398 112.024 149.398 109.541C149.398 107.057 147.375 105.041 144.883 105.041H135.852C133.36 105.041 131.337 103.026 131.337 100.542C131.337 98.0583 133.36 96.0425 135.852 96.0425H190.036C192.529 96.0425 194.551 98.0583 194.551 100.542C194.551 103.026 192.529 105.041 190.036 105.041H162.944C160.452 105.041 158.429 107.057 158.429 109.541C158.429 112.024 160.452 114.04 162.944 114.04H217.128C219.621 114.04 221.644 112.024 221.644 109.541C221.644 107.057 219.621 105.041 217.128 105.041H208.098C205.605 105.041 203.582 103.026 203.582 100.542C203.582 98.0583 205.605 96.0425 208.098 96.0425H235.19C237.682 96.0425 239.705 94.0268 239.705 91.5431C239.705 89.0595 237.682 87.0437 235.19 87.0437H171.975C169.482 87.0437 167.459 85.028 167.459 82.5443C167.459 80.0607 169.482 78.0449 171.975 78.0449H262.282C264.774 78.0449 266.797 80.0607 266.797 82.5443C266.797 85.028 264.774 87.0437 262.282 87.0437H248.736" stroke="#A57F73" stroke-width="4.4994" stroke-miterlimit="10"/>
<path d="M280.6 293.842H276.075C273.578 293.842 271.55 291.822 271.55 289.333C271.55 286.844 273.578 284.824 276.075 284.824H312.275C314.773 284.824 316.8 282.804 316.8 280.315C316.8 277.826 314.773 275.806 312.275 275.806H294.175C291.678 275.806 289.65 273.786 289.65 271.297C289.65 268.808 291.678 266.788 294.175 266.788H330.375C332.873 266.788 334.9 264.768 334.9 262.279C334.9 259.79 332.873 257.77 330.375 257.77H312.275C309.777 257.77 307.75 255.75 307.75 253.261C307.75 250.772 309.777 248.752 312.275 248.752H348.475C350.973 248.752 353 250.772 353 253.261C353 255.75 350.973 257.77 348.475 257.77H343.95" stroke="#A57F73" stroke-width="4.509" stroke-miterlimit="10"/>
<path d="M235.351 375.005H289.65V329.915L262.501 302.861L235.351 329.915V375.005Z" fill="#E3572B"/>
<path d="M253.447 338.936H271.547V356.972H253.447V338.936Z" fill="#FFB49C"/>
<path d="M271.548 302.861H280.598V320.897H271.548V302.861Z" fill="#E3572B"/>
</g>
<defs>
<clipPath id="clip0">
<rect width="356" height="375" fill="white"/>
</clipPath>
</defs>
</svg>
