<svg width="47.0rem" height="47.2rem" viewBox="0 0 470 472" fill="none" xmlns="http://www.w3.org/2000/svg">
<path d="M220.5 412C203.102 412 189 398.082 189 380.909V317.091C189 299.918 203.102 286 220.5 286C237.898 286 252 299.918 252 317.091V380.909C252 398.082 237.898 412 220.5 412Z" fill="#009343"/>
<path fill-rule="evenodd" clip-rule="evenodd" d="M223.128 383.838V472H217.873V358.338L202.893 343.358L206.608 339.642L217.873 350.907V325H223.128V376.407L234.393 365.142L238.108 368.858L223.128 383.838Z" fill="#035B2C"/>
<path d="M124.5 430C141.898 430 156 416.082 156 398.909V347.091C156 329.918 141.898 316 124.5 316C107.102 316 93 329.918 93 347.091V398.909C93 416.082 107.102 430 124.5 430Z" fill="#009343"/>
<path fill-rule="evenodd" clip-rule="evenodd" d="M121.872 401.838V472H127.127V376.338L142.107 361.358L138.392 357.642L127.127 368.907V346H121.872V394.407L110.607 383.142L106.892 386.858L121.872 401.838Z" fill="#035B2C"/>
<path d="M198.75 369.23C197.454 362.919 197.496 362.992 197.496 352.253C197.496 338.916 186.3 328 172.5 328C158.7 328 147.504 338.916 147.504 352.253C147.504 363.003 147.557 362.919 146.25 369.23C143.754 381.361 135 387.765 135 405.615C135 425.024 151.789 442 172.5 442C193.211 442 210 425.024 210 405.615C210 387.765 201.246 381.361 198.75 369.23Z" fill="#21C037"/>
<path fill-rule="evenodd" clip-rule="evenodd" d="M175.128 367V418.407L186.393 407.142L190.108 410.858L175.128 425.838V472H169.873V404.838L154.893 389.858L158.608 386.142L169.873 397.407V367H175.128Z" fill="#035B2C"/>
<path d="M0 415C23.1945 415 42 433.805 42 457C18.8055 457 0 438.194 0 415Z" fill="#009343"/>
<path d="M39 457C39 433.805 57.8055 415 81 415C81 438.194 62.1945 457 39 457Z" fill="#21C037"/>
<path fill-rule="evenodd" clip-rule="evenodd" d="M17.6387 436.355L37.8727 456.667V472.001H43.1278V456.667L63.3617 436.355L59.6387 432.646L40.5002 451.859L21.3617 432.646L17.6387 436.355Z" fill="#035B2C"/>
<path d="M364 399C387.194 399 406 417.805 406 441C382.805 441 364 422.194 364 399Z" fill="#009343"/>
<path d="M403 441C403 417.805 421.805 399 445 399C445 422.194 426.194 441 403 441Z" fill="#21C037"/>
<path fill-rule="evenodd" clip-rule="evenodd" d="M381.645 420.349L401.879 440.661V466.001V472.001H407.134V466.001V440.661L427.368 420.349L423.645 416.641L404.506 435.853L385.368 416.641L381.645 420.349Z" fill="#035B2C"/>
<path d="M322 409C345.194 409 364 427.805 364 451C340.805 451 322 432.194 322 409Z" fill="#009343"/>
<path d="M361 451C361 427.805 379.805 409 403 409C403 432.194 384.194 451 361 451Z" fill="#21C037"/>
<path fill-rule="evenodd" clip-rule="evenodd" d="M339.645 430.349L359.879 450.661V463.995V471.995H365.134V463.995V450.661L385.368 430.349L381.645 426.641L362.506 445.853L343.368 426.641L339.645 430.349Z" fill="#035B2C"/>
<path d="M295 472L295 185" stroke="#969693" stroke-width="13" stroke-miterlimit="10"/>
<g>
<path d="M295 355C388.888 355 465 278.888 465 185C465 91.1116 388.888 15 295 15C201.112 15 125 91.1116 125 185C125 278.888 201.112 355 295 355Z" fill="white" fill-opacity="0"/>
<path fill-rule="evenodd" clip-rule="evenodd" d="M299.058 15H290.77L276.28 148.563L286.64 172.533H303.187L313.547 148.578L299.058 15ZM439.562 272.67L443.691 265.5L335.275 186.167L309.338 183.141L301.05 197.481L316.627 218.425L439.562 272.67ZM150.285 272.695L146.141 265.525L254.586 186.177L280.509 183.166L288.782 197.506L273.205 218.464L150.285 272.695Z" fill="#C0C0C0"/>
<path fill-rule="evenodd" clip-rule="evenodd" d="M300.614 29.4092C298.729 29.341 296.836 29.3066 294.935 29.3066C293.015 29.3066 291.103 29.3417 289.199 29.4113L290.763 15H299.051L300.614 29.4092ZM302.236 44.3696C299.825 44.2462 297.398 44.1837 294.956 44.1837C292.48 44.1837 290.02 44.2479 287.576 44.3747L285.945 59.4111C288.921 59.1984 291.926 59.0903 294.956 59.0903C297.952 59.0903 300.923 59.1961 303.867 59.404L302.236 44.3696ZM407.555 239.062L419.788 248.014C417.555 252.381 415.098 256.616 412.435 260.703L398.549 254.576C401.905 249.644 404.918 244.461 407.555 239.062ZM305.343 73.0087C301.917 72.6925 298.446 72.5309 294.938 72.5309C291.408 72.5309 287.916 72.6945 284.469 73.0146L282.823 88.1911C286.792 87.6937 290.836 87.4375 294.938 87.4375C299.018 87.4375 303.04 87.691 306.989 88.1831L305.343 73.0087ZM384.215 221.983L396.554 231.012C393.624 237.379 390.113 243.424 386.09 249.078L372.08 242.896C376.948 236.499 381.041 229.481 384.215 221.983ZM205.66 221.982C208.837 229.486 212.932 236.509 217.806 242.91L203.795 249.091C199.767 243.433 196.253 237.383 193.321 231.011L205.66 221.982ZM182.346 239.041L170.112 247.992C172.349 252.367 174.808 256.609 177.476 260.703L191.362 254.576C188.002 249.638 184.985 244.448 182.346 239.041ZM163.693 266.784C161.662 263.563 159.747 260.263 157.953 256.889L146.15 265.525L150.294 272.695L163.693 266.784ZM426.186 266.771C428.213 263.554 430.126 260.259 431.917 256.889L443.684 265.5L439.555 272.67L426.186 266.771Z" fill="#CC1D3C"/>
</g>
<path d="M295 201.535C304.389 201.535 312 193.924 312 184.535C312 175.146 304.389 167.535 295 167.535C285.611 167.535 278 175.146 278 184.535C278 193.924 285.611 201.535 295 201.535Z" fill="#494949"/>
</svg>
