<svg width="43.3rem" height="43.2rem" viewBox="0 0 433 432" fill="none" xmlns="http://www.w3.org/2000/svg">
<path fill-rule="evenodd" clip-rule="evenodd" d="M170 150H149V159H77V432H182V159H170V150Z" fill="#873116"/>
<path opacity="0.55" d="M140 264H161V285H140V264Z" fill="#F18360"/>
<path opacity="0.55" d="M98 264H119V285H98V264Z" fill="#F18360"/>
<path opacity="0.55" d="M140 222H161V243H140V222Z" fill="#F18360"/>
<path d="M98 222H119V243H98V222Z" fill="#F18360"/>
<path d="M140 180H161V201H140V180Z" fill="#F18360"/>
<path opacity="0.55" d="M98 180H119V201H98V180Z" fill="#F18360"/>
<path d="M140 306H161V327H140V306Z" fill="#F18360"/>
<path d="M98 306H119V327H98V306Z" fill="#F18360"/>
<path opacity="0.55" d="M140 348H161V369H140V348Z" fill="#F18360"/>
<path d="M98 348H119V369H98V348Z" fill="#F18360"/>
<path opacity="0.55" d="M140 390H161V411H140V390Z" fill="#F18360"/>
<path opacity="0.55" d="M98 390H119V411H98V390Z" fill="#F18360"/>
<path fill-rule="evenodd" clip-rule="evenodd" d="M245 234H224V243H152V432H257V243H245V234Z" fill="#E3572B"/>
<path opacity="0.55" d="M215 264H236V285H215V264Z" fill="#FFB49C"/>
<path d="M173 264H194V285H173V264Z" fill="#FFB49C"/>
<path d="M215 306H236V327H215V306Z" fill="#FFB49C"/>
<path opacity="0.55" d="M173 306H194V327H173V306Z" fill="#FFB49C"/>
<path opacity="0.55" d="M215 348H236V369H215V348Z" fill="#FFB49C"/>
<path opacity="0.55" d="M173 348H194V369H173V348Z" fill="#FFB49C"/>
<path opacity="0.55" d="M215 390H236V411H215V390Z" fill="#FFB49C"/>
<path d="M173 390H194V411H173V390Z" fill="#FFB49C"/>
<path fill-rule="evenodd" clip-rule="evenodd" d="M355 379.5V432H292V379.5L323.5 348L335.5 360V348H346V370.5L355 379.5Z" fill="#E3572B"/>
<path d="M313 390H334V411H313V390Z" fill="#FFB49C"/>
<path d="M210.5 55.5H120.742C110.977 55.5 102.467 48.9375 100.106 39.5925L93.5 13.5H104.137L120.093 34.5H189.236C200.969 34.5 210.5 43.8975 210.5 55.5Z" fill="#E3572B"/>
<path d="M191 48C192.657 48 194 46.6569 194 45C194 43.3431 192.657 42 191 42C189.343 42 188 43.3431 188 45C188 46.6569 189.343 48 191 48Z" fill="white"/>
<path d="M179 48C180.657 48 182 46.6569 182 45C182 43.3431 180.657 42 179 42C177.343 42 176 43.3431 176 45C176 46.6569 177.343 48 179 48Z" fill="white"/>
<path d="M131.336 76.5H120.5L146.75 45H162.5L139.4 72.72C137.415 75.114 134.455 76.5 131.336 76.5Z" fill="#873116"/>
<path d="M346 339H340.75C337.852 339 335.5 336.648 335.5 333.75C335.5 330.852 337.852 328.5 340.75 328.5H382.75C385.648 328.5 388 326.148 388 323.25C388 320.352 385.648 318 382.75 318H361.75C358.852 318 356.5 315.648 356.5 312.75C356.5 309.852 358.852 307.5 361.75 307.5H403.75C406.648 307.5 409 305.148 409 302.25C409 299.352 406.648 297 403.75 297H382.75C379.852 297 377.5 294.648 377.5 291.75C377.5 288.852 379.852 286.5 382.75 286.5H424.75C427.648 286.5 430 288.852 430 291.75C430 294.648 427.648 297 424.75 297H419.5" stroke="#A57F73" stroke-width="5.25" stroke-miterlimit="10" stroke-opacity="0.25"/>
<path class="smoke home" d="M346 339H340.75C337.852 339 335.5 336.648 335.5 333.75C335.5 330.852 337.852 328.5 340.75 328.5H382.75C385.648 328.5 388 326.148 388 323.25C388 320.352 385.648 318 382.75 318H361.75C358.852 318 356.5 315.648 356.5 312.75C356.5 309.852 358.852 307.5 361.75 307.5H403.75C406.648 307.5 409 305.148 409 302.25C409 299.352 406.648 297 403.75 297H382.75C379.852 297 377.5 294.648 377.5 291.75C377.5 288.852 379.852 286.5 382.75 286.5H424.75C427.648 286.5 430 288.852 430 291.75C430 294.648 427.648 297 424.75 297H419.5" stroke="#A57F73" stroke-width="5.25" stroke-miterlimit="10"/>
<path d="M245 225H229.25C226.352 225 224 222.648 224 219.75C224 216.852 226.352 214.5 229.25 214.5H271.25C274.148 214.5 276.5 212.148 276.5 209.25C276.5 206.352 274.148 204 271.25 204H250.25C247.352 204 245 201.648 245 198.75C245 195.852 247.352 193.5 250.25 193.5H302.75C305.648 193.5 308 195.852 308 198.75C308 201.648 305.648 204 302.75 204H292.25C289.352 204 287 206.352 287 209.25C287 212.148 289.352 214.5 292.25 214.5H334.25C337.148 214.5 339.5 212.148 339.5 209.25C339.5 206.352 337.148 204 334.25 204H318.5" stroke="#A57F73" stroke-width="5.25" stroke-miterlimit="10" stroke-opacity="0.25"/>
<path class="smoke highrise-front" d="M245 225H229.25C226.352 225 224 222.648 224 219.75C224 216.852 226.352 214.5 229.25 214.5H271.25C274.148 214.5 276.5 212.148 276.5 209.25C276.5 206.352 274.148 204 271.25 204H250.25C247.352 204 245 201.648 245 198.75C245 195.852 247.352 193.5 250.25 193.5H302.75C305.648 193.5 308 195.852 308 198.75C308 201.648 305.648 204 302.75 204H292.25C289.352 204 287 206.352 287 209.25C287 212.148 289.352 214.5 292.25 214.5H334.25C337.148 214.5 339.5 212.148 339.5 209.25C339.5 206.352 337.148 204 334.25 204H318.5" stroke="#A57F73" stroke-width="5.25" stroke-miterlimit="10"/>
<path d="M170 141H154.25C151.352 141 149 138.648 149 135.75C149 132.852 151.352 130.5 154.25 130.5H185.75C188.648 130.5 191 128.148 191 125.25C191 122.352 188.648 120 185.75 120H175.25C172.352 120 170 117.648 170 114.75C170 111.852 172.352 109.5 175.25 109.5H238.25C241.148 109.5 243.5 111.852 243.5 114.75C243.5 117.648 241.148 120 238.25 120H206.75C203.852 120 201.5 122.352 201.5 125.25C201.5 128.148 203.852 130.5 206.75 130.5H269.75C272.648 130.5 275 128.148 275 125.25C275 122.352 272.648 120 269.75 120H259.25C256.352 120 254 117.648 254 114.75C254 111.852 256.352 109.5 259.25 109.5H290.75C293.648 109.5 296 107.148 296 104.25C296 101.352 293.648 99 290.75 99H217.25C214.352 99 212 96.648 212 93.75C212 90.852 214.352 88.5 217.25 88.5H322.25C325.148 88.5 327.5 90.852 327.5 93.75C327.5 96.648 325.148 99 322.25 99H306.5" stroke="#A57F73" stroke-width="5.25" stroke-miterlimit="10" stroke-opacity="0.25"/>
<path class="smoke highrise-back" d="M170 141H154.25C151.352 141 149 138.648 149 135.75C149 132.852 151.352 130.5 154.25 130.5H185.75C188.648 130.5 191 128.148 191 125.25C191 122.352 188.648 120 185.75 120H175.25C172.352 120 170 117.648 170 114.75C170 111.852 172.352 109.5 175.25 109.5H238.25C241.148 109.5 243.5 111.852 243.5 114.75C243.5 117.648 241.148 120 238.25 120H206.75C203.852 120 201.5 122.352 201.5 125.25C201.5 128.148 203.852 130.5 206.75 130.5H269.75C272.648 130.5 275 128.148 275 125.25C275 122.352 272.648 120 269.75 120H259.25C256.352 120 254 117.648 254 114.75C254 111.852 256.352 109.5 259.25 109.5H290.75C293.648 109.5 296 107.148 296 104.25C296 101.352 293.648 99 290.75 99H217.25C214.352 99 212 96.648 212 93.75C212 90.852 214.352 88.5 217.25 88.5H322.25C325.148 88.5 327.5 90.852 327.5 93.75C327.5 96.648 325.148 99 322.25 99H306.5" stroke="#A57F73" stroke-width="5.25" stroke-miterlimit="10"/>
<path d="M93.5 45H56.75C53.852 45 51.5 42.648 51.5 39.75C51.5 36.852 53.852 34.5 56.75 34.5H67.25C70.148 34.5 72.5 32.148 72.5 29.25C72.5 26.352 70.148 24 67.25 24H46.25C43.352 24 41 21.648 41 18.75C41 15.852 43.352 13.5 46.25 13.5H56.75C59.648 13.5 62 11.148 62 8.25C62 5.352 59.648 3 56.75 3H25.25C22.352 3 20 5.352 20 8.25C20 11.148 22.352 13.5 25.25 13.5H30.5" stroke="#A57F73" stroke-width="5.25" stroke-miterlimit="10" stroke-opacity="0.25"/>
<path class="smoke plane" d="M93.5 45H56.75C53.852 45 51.5 42.648 51.5 39.75C51.5 36.852 53.852 34.5 56.75 34.5H67.25C70.148 34.5 72.5 32.148 72.5 29.25C72.5 26.352 70.148 24 67.25 24H46.25C43.352 24 41 21.648 41 18.75C41 15.852 43.352 13.5 46.25 13.5H56.75C59.648 13.5 62 11.148 62 8.25C62 5.352 59.648 3 56.75 3H25.25C22.352 3 20 5.352 20 8.25C20 11.148 22.352 13.5 25.25 13.5H30.5" stroke="#A57F73" stroke-width="5.25" stroke-miterlimit="10"/>
</svg>
