<svg width="23.4rem" height="8.4rem" viewBox="0 0 234 84" fill="none" xmlns="http://www.w3.org/2000/svg">
<path class="solid" d="M36 42C36 38.688 33.312 36 30 36H18C14.688 36 12 33.312 12 30C12 26.688 14.688 24 18 24H72C75.312 24 78 26.688 78 30C78 33.312 75.312 36 72 36H54C50.688 36 48 38.688 48 42C48 45.312 50.688 48 54 48H66C69.312 48 72 50.688 72 54C72 57.312 69.312 60 66 60H6C2.688 60 0 57.312 0 54C0 50.688 2.688 48 6 48H30C33.312 48 36 45.312 36 42Z" fill="#A57F73" />
<path class="solid" d="M108 18C108 21.312 105.312 24 102 24H96C92.688 24 90 26.688 90 30C90 33.312 92.688 36 96 36H132C135.312 36 138 33.312 138 30C138 26.688 135.312 24 132 24H126C122.688 24 120 21.312 120 18C120 14.688 122.688 12 126 12H156C159.312 12 162 9.312 162 6C162 2.688 159.312 8.04663e-07 156 8.04663e-07H54C50.688 8.04663e-07 48 2.688 48 6C48 9.312 50.688 12 54 12H102C105.312 12 108 14.688 108 18Z" fill="#A57F73" />
<path class="solid" d="M114 66C114 62.688 111.312 60 108 60H90C86.688 60 84 57.312 84 54C84 50.688 86.688 48 90 48H144C147.312 48 150 50.688 150 54C150 57.312 147.312 60 144 60H132C128.688 60 126 62.688 126 66C126 69.312 128.688 72 132 72H180C183.312 72 186 74.688 186 78C186 81.312 183.312 84 180 84H60C56.688 84 54 81.312 54 78C54 74.688 56.688 72 60 72H108C111.312 72 114 69.312 114 66Z" fill="#A57F73" />
<path class="solid" d="M198 42C198 38.688 200.688 36 204 36H216C219.312 36 222 33.312 222 30C222 26.688 219.312 24 216 24H156C152.688 24 150 26.688 150 30C150 33.312 152.688 36 156 36H180C183.312 36 186 38.688 186 42C186 45.312 183.312 48 180 48H168C164.688 48 162 50.688 162 54C162 57.312 164.688 60 168 60H228C231.312 60 234 57.312 234 54C234 50.688 231.312 48 228 48H204C200.688 48 198 45.312 198 42Z" fill="#A57F73" />
<path class="stroke" d="M37 42C37 38.1357 33.8643 35 30 35H18C15.2403 35 13 32.7597 13 30C13 27.2403 15.2403 25 18 25H72C74.7597 25 77 27.2403 77 30C77 32.7597 74.7597 35 72 35H54C50.1357 35 47 38.1357 47 42C47 45.8643 50.1357 49 54 49H66C68.7597 49 71 51.2403 71 54C71 56.7597 68.7597 59 66 59H6C3.24028 59 1 56.7597 1 54C1 51.2403 3.24028 49 6 49H30C33.8643 49 37 45.8643 37 42Z" stroke="#A57F73" stroke-width="2" />
<path class="stroke" d="M109 18C109 21.8643 105.864 25 102 25H96C93.2403 25 91 27.2403 91 30C91 32.7597 93.2403 35 96 35H132C134.76 35 137 32.7597 137 30C137 27.2403 134.76 25 132 25H126C122.136 25 119 21.8643 119 18C119 14.1357 122.136 11 126 11H156C158.76 11 161 8.75972 161 6C161 3.24028 158.76 1 156 1H54C51.2403 1 49 3.24028 49 6C49 8.75972 51.2403 11 54 11H102C105.864 11 109 14.1357 109 18Z" stroke="#A57F73" stroke-width="2" />
<path class="stroke" d="M115 66C115 62.1357 111.864 59 108 59H90C87.2403 59 85 56.7597 85 54C85 51.2403 87.2403 49 90 49H144C146.76 49 149 51.2403 149 54C149 56.7597 146.76 59 144 59H132C128.136 59 125 62.1357 125 66C125 69.8643 128.136 73 132 73H180C182.76 73 185 75.2403 185 78C185 80.7597 182.76 83 180 83H60C57.2403 83 55 80.7597 55 78C55 75.2403 57.2403 73 60 73H108C111.864 73 115 69.8643 115 66Z" stroke="#A57F73" stroke-width="2" />
<path class="stroke" d="M204 35C200.136 35 197 38.1357 197 42C197 45.8643 200.136 49 204 49H228C230.76 49 233 51.2403 233 54C233 56.7597 230.76 59 228 59H168C165.24 59 163 56.7597 163 54C163 51.2403 165.24 49 168 49H180C183.864 49 187 45.8643 187 42C187 38.1357 183.864 35 180 35H156C153.24 35 151 32.7597 151 30C151 27.2403 153.24 25 156 25H216C218.76 25 221 27.2403 221 30C221 32.7597 218.76 35 216 35H204Z" stroke="#A57F73" stroke-width="2" />
</svg>
