<svg width="32.0rem" height="20.0rem" viewBox="0 0 320 200" fill="none" xmlns="http://www.w3.org/2000/svg">
<path opacity="0.12" d="M186.834 44.997C205.447 48.4381 229.029 51.3396 249.014 62.928C268.999 74.5164 286.264 94.7812 285.997 116.437C285.902 138.079 268.426 160.839 243.186 167.122C217.94 173.275 186.274 169.193 156.168 168.93C126.062 168.667 100.154 172.214 79.7776 168.394C59.5777 164.557 50.5017 148.995 38.526 129.792C26.5398 110.462 27.9263 85.891 38.1073 71.1523C48.1158 56.4277 59.6164 49.4928 83.3637 43.9877C106.949 38.6263 124.052 36.4257 139.325 37.1265C154.609 37.9605 168.232 41.6855 186.834 44.997Z" fill="#E3572B"/>
<path fill-rule="evenodd" clip-rule="evenodd" d="M126 51H133V54H157V145H122V54H126V51Z" fill="#873116"/>
<path opacity="0.55" d="M136 89H129V96H136V89Z" fill="#F18360"/>
<path opacity="0.55" d="M150 89H143V96H150V89Z" fill="#F18360"/>
<path opacity="0.55" d="M136 75H129V82H136V75Z" fill="#F18360"/>
<path d="M150 75H143V82H150V75Z" fill="#F18360"/>
<path d="M136 61H129V68H136V61Z" fill="#F18360"/>
<path opacity="0.55" d="M150 61H143V68H150V61Z" fill="#F18360"/>
<path d="M136 103H129V110H136V103Z" fill="#F18360"/>
<path d="M150 103H143V110H150V103Z" fill="#F18360"/>
<path opacity="0.55" d="M136 117H129V124H136V117Z" fill="#F18360"/>
<path d="M150 117H143V124H150V117Z" fill="#F18360"/>
<path opacity="0.55" d="M136 131H129V138H136V131Z" fill="#F18360"/>
<path opacity="0.55" d="M150 131H143V138H150V131Z" fill="#F18360"/>
<path fill-rule="evenodd" clip-rule="evenodd" d="M101 79H108V82H132V145H97V82H101V79Z" fill="#E3572B"/>
<path opacity="0.55" d="M111 89H104V96H111V89Z" fill="#FFB49C"/>
<path d="M125 89H118V96H125V89Z" fill="#FFB49C"/>
<path d="M111 103H104V110H111V103Z" fill="#FFB49C"/>
<path opacity="0.55" d="M125 103H118V110H125V103Z" fill="#FFB49C"/>
<path opacity="0.55" d="M111 117H104V124H111V117Z" fill="#FFB49C"/>
<path opacity="0.55" d="M125 117H118V124H125V117Z" fill="#FFB49C"/>
<path opacity="0.55" d="M111 131H104V138H111V131Z" fill="#FFB49C"/>
<path d="M125 131H118V138H125V131Z" fill="#FFB49C"/>
<path d="M259 145H244L247.409 86H255.591L259 145Z" fill="#873116"/>
<path d="M236 145H221L224.409 86H232.591L236 145Z" fill="#873116"/>
<path fill-rule="evenodd" clip-rule="evenodd" d="M188 145H167V100L188 110.385V100L209 110.385V100L230 110.385V145H209H188Z" fill="#E3572B"/>
<path opacity="0.55" d="M181 117H174V124H181V117Z" fill="#FFB49C"/>
<path d="M181 131H174V138H181V131Z" fill="#FFB49C"/>
<path d="M195 117H188V124H195V117Z" fill="#FFB49C"/>
<path opacity="0.55" d="M195 131H188V138H195V131Z" fill="#FFB49C"/>
<path opacity="0.55" d="M209 117H202V124H209V117Z" fill="#FFB49C"/>
<path opacity="0.55" d="M209 131H202V138H209V131Z" fill="#FFB49C"/>
<path opacity="0.55" d="M223 117H216V124H223V117Z" fill="#FFB49C"/>
<path d="M223 131H216V138H223V131Z" fill="#FFB49C"/>
<path fill-rule="evenodd" clip-rule="evenodd" d="M65 127.5V145H86V127.5L75.5 117L71.5 121V117H68V124.5L65 127.5Z" fill="#E3572B"/>
<path d="M79 131H72V138H79V131Z" fill="#FFB49C"/>
<path d="M262 124H241V145H262V124Z" fill="#E3572B"/>
<path d="M255 131H248V138H255V131Z" fill="#FFB49C"/>
<path d="M220 51H190.081C186.826 51 183.989 48.8125 183.202 45.6975L181 37H184.546L189.864 44H212.912C216.823 44 220 47.1325 220 51Z" fill="#E3572B"/>
<path d="M213.5 48.5C214.052 48.5 214.5 48.0523 214.5 47.5C214.5 46.9477 214.052 46.5 213.5 46.5C212.948 46.5 212.5 46.9477 212.5 47.5C212.5 48.0523 212.948 48.5 213.5 48.5Z" fill="white"/>
<path d="M209.5 48.5C210.052 48.5 210.5 48.0523 210.5 47.5C210.5 46.9477 210.052 46.5 209.5 46.5C208.948 46.5 208.5 46.9477 208.5 47.5C208.5 48.0523 208.948 48.5 209.5 48.5Z" fill="white"/>
<path d="M193.612 58H190L198.75 47.5H204L196.3 56.74C195.638 57.538 194.652 58 193.612 58Z" fill="#873116"/>
<path fill-rule="evenodd" clip-rule="evenodd" d="M51.0013 147.75C50.9556 149.237 52.1539 150.504 53.637 150.504H58.3866C59.3038 150.563 60.0301 151.323 60.0301 152.252C60.0301 153.181 59.3028 153.942 58.3847 154H36.1357C34.6808 154 33.5 155.232 33.5 156.75C33.5 158.268 34.6808 159.5 36.1357 159.5H276.864C278.319 159.5 279.5 158.268 279.5 156.75C279.5 155.232 278.319 154 276.864 154H262.158C261.24 153.942 260.513 153.181 260.513 152.252C260.513 151.323 261.239 150.563 262.156 150.504H274.254C275.699 150.504 276.957 149.189 276.999 147.75H51.0013Z" fill="#958F8D"/>
<path d="M284.363 145H43.7459C42.3015 145 41.0434 146.311 41.0013 147.75C40.9556 149.238 42.1539 150.504 43.637 150.504H70.8724C71.8423 150.504 72.6295 151.288 72.6295 152.254C72.6295 153.22 73.4167 154.004 74.3867 154.004H81.4152C82.3851 154.004 83.1723 154.788 83.1723 155.754C83.1723 156.72 83.9595 157.504 84.9294 157.504H97.2293C98.1992 157.504 98.9864 156.72 98.9864 155.754C98.9864 154.788 98.1992 154.004 97.2293 154.004H95.4722C94.5022 154.004 93.715 153.22 93.715 152.254C93.715 151.288 94.5022 150.504 95.4722 150.504H129.209C130.179 150.504 130.966 151.288 130.966 152.254C130.966 153.22 130.179 154.004 129.209 154.004H120.423C119.453 154.004 118.666 154.788 118.666 155.754C118.666 156.72 119.453 157.504 120.423 157.504H145.023C145.993 157.504 146.78 156.72 146.78 155.754C146.78 154.788 147.567 154.004 148.537 154.004H162.594C163.564 154.004 164.352 153.22 164.352 152.254C164.352 151.288 165.139 150.504 166.109 150.504H185.086C186.056 150.504 186.843 151.288 186.843 152.254C186.843 153.22 186.056 154.004 185.086 154.004H176.3C175.33 154.004 174.543 154.788 174.543 155.754C174.543 156.72 175.33 157.504 176.3 157.504H193.871C194.841 157.504 195.628 156.72 195.628 155.754C195.628 154.788 196.416 154.004 197.385 154.004H207.928C208.898 154.004 209.685 153.22 209.685 152.254C209.685 151.288 210.473 150.504 211.442 150.504H221.985C222.955 150.504 223.742 151.288 223.742 152.254C223.742 153.22 224.53 154.004 225.499 154.004H227.257C228.227 154.004 229.014 154.788 229.014 155.754C229.014 156.72 229.801 157.504 230.771 157.504H243.071C244.041 157.504 244.828 156.72 244.828 155.754C244.828 154.788 244.041 154.004 243.071 154.004H236.042C235.072 154.004 234.285 153.22 234.285 152.254C234.285 151.288 235.072 150.504 236.042 150.504H284.254C285.699 150.504 286.957 149.188 286.999 147.75C287.041 146.263 285.846 145 284.363 145Z" fill="#B5B2B1"/>
<path d="M101 76H106.25C107.216 76 108 75.216 108 74.25C108 73.284 107.216 72.5 106.25 72.5H92.25C91.284 72.5 90.5 71.716 90.5 70.75C90.5 69.784 91.284 69 92.25 69H99.25C100.216 69 101 68.216 101 67.25C101 66.284 100.216 65.5 99.25 65.5H81.75C80.784 65.5 80 66.284 80 67.25C80 68.216 80.784 69 81.75 69H85.25C86.216 69 87 69.784 87 70.75C87 71.716 86.216 72.5 85.25 72.5H71.25C70.284 72.5 69.5 71.716 69.5 70.75C69.5 69.784 70.284 69 71.25 69H76.5" stroke="#A57F73" stroke-width="1.75" stroke-miterlimit="10"/>
<path d="M225 83H230.25C231.216 83 232 82.216 232 81.25C232 80.284 231.216 79.5 230.25 79.5H216.25C215.284 79.5 214.5 78.716 214.5 77.75C214.5 76.784 215.284 76 216.25 76H223.25C224.216 76 225 75.216 225 74.25C225 73.284 224.216 72.5 223.25 72.5H202.25C201.284 72.5 200.5 73.284 200.5 74.25C200.5 75.216 201.284 76 202.25 76H209.25C210.216 76 211 76.784 211 77.75C211 78.716 210.216 79.5 209.25 79.5H191.75C190.784 79.5 190 78.716 190 77.75C190 76.784 190.784 76 191.75 76H195.25C196.216 76 197 75.216 197 74.25C197 73.284 196.216 72.5 195.25 72.5H181.25C180.284 72.5 179.5 73.284 179.5 74.25C179.5 75.216 180.284 76 181.25 76H186.5" stroke="#A57F73" stroke-width="1.75" stroke-miterlimit="10"/>
<path d="M68 114H69.75C70.716 114 71.5 113.216 71.5 112.25C71.5 111.284 70.716 110.5 69.75 110.5H55.75C54.784 110.5 54 109.716 54 108.75C54 107.784 54.784 107 55.75 107H62.75C63.716 107 64.5 106.216 64.5 105.25C64.5 104.284 63.716 103.5 62.75 103.5H48.75C47.784 103.5 47 102.716 47 101.75C47 100.784 47.784 100 48.75 100H55.75C56.716 100 57.5 99.216 57.5 98.25C57.5 97.284 56.716 96.5 55.75 96.5H41.75C40.784 96.5 40 97.284 40 98.25C40 99.216 40.784 100 41.75 100H43.5" stroke="#A57F73" stroke-width="1.75" stroke-miterlimit="10"/>
<path d="M181 47.5H168.75C167.784 47.5 167 46.716 167 45.75C167 44.784 167.784 44 168.75 44H172.25C173.216 44 174 43.216 174 42.25C174 41.284 173.216 40.5 172.25 40.5H165.25C164.284 40.5 163.5 39.716 163.5 38.75C163.5 37.784 164.284 37 165.25 37H168.75C169.716 37 170.5 36.216 170.5 35.25C170.5 34.284 169.716 33.5 168.75 33.5H158.25C157.284 33.5 156.5 34.284 156.5 35.25C156.5 36.216 157.284 37 158.25 37H160" stroke="#A57F73" stroke-width="1.75" stroke-miterlimit="10"/>
<path d="M126 48H131.25C132.216 48 133 47.216 133 46.25C133 45.284 132.216 44.5 131.25 44.5H120.75C119.784 44.5 119 43.716 119 42.75C119 41.784 119.784 41 120.75 41H124.25C125.216 41 126 40.216 126 39.25C126 38.284 125.216 37.5 124.25 37.5H103.25C102.284 37.5 101.5 38.284 101.5 39.25C101.5 40.216 102.284 41 103.25 41H113.75C114.716 41 115.5 41.784 115.5 42.75C115.5 43.716 114.716 44.5 113.75 44.5H92.75C91.784 44.5 91 43.716 91 42.75C91 41.784 91.784 41 92.75 41H96.25C97.216 41 98 40.216 98 39.25C98 38.284 97.216 37.5 96.25 37.5H85.75C84.784 37.5 84 36.716 84 35.75C84 34.784 84.784 34 85.75 34H110.25C111.216 34 112 33.216 112 32.25C112 31.284 111.216 30.5 110.25 30.5H75.25C74.284 30.5 73.5 31.284 73.5 32.25C73.5 33.216 74.284 34 75.25 34H80.5" stroke="#A57F73" stroke-width="1.75" stroke-miterlimit="10"/>
<path d="M255 83H249.75C248.784 83 248 82.216 248 81.25C248 80.284 248.784 79.5 249.75 79.5H260.25C261.216 79.5 262 78.716 262 77.75C262 76.784 261.216 76 260.25 76H256.75C255.784 76 255 75.216 255 74.25C255 73.284 255.784 72.5 256.75 72.5H277.75C278.716 72.5 279.5 73.284 279.5 74.25C279.5 75.216 278.716 76 277.75 76H267.25C266.284 76 265.5 76.784 265.5 77.75C265.5 78.716 266.284 79.5 267.25 79.5H288.25C289.216 79.5 290 78.716 290 77.75C290 76.784 289.216 76 288.25 76H284.75C283.784 76 283 75.216 283 74.25C283 73.284 283.784 72.5 284.75 72.5H295.25C296.216 72.5 297 71.716 297 70.75C297 69.784 296.216 69 295.25 69H270.75C269.784 69 269 68.216 269 67.25C269 66.284 269.784 65.5 270.75 65.5H305.75C306.716 65.5 307.5 66.284 307.5 67.25C307.5 68.216 306.716 69 305.75 69H300.5" stroke="#A57F73" stroke-width="1.75" stroke-miterlimit="10"/>
</svg>
