<svg width="14.0rem" height="4.0rem" viewBox="0 0 140 40" fill="none" xmlns="http://www.w3.org/2000/svg">
<rect x="82" y="7" width="27.9986" height="16" fill="#3E9F28"/>
<path fill-rule="evenodd" clip-rule="evenodd" d="M105.75 8.99805C105.75 10.2407 106.757 11.248 108 11.248V18.748C106.757 18.748 105.75 19.7554 105.75 20.998H86.25C86.25 19.7554 85.2426 18.748 84 18.748V11.248C85.2426 11.248 86.25 10.2407 86.25 8.99805H105.75ZM99 14.998C99 16.6549 97.6569 17.998 96 17.998C94.3431 17.998 93 16.6549 93 14.998C93 13.3412 94.3431 11.998 96 11.998C97.6569 11.998 99 13.3412 99 14.998ZM89 15.998C89.5523 15.998 90 15.5503 90 14.998C90 14.4458 89.5523 13.998 89 13.998C88.4477 13.998 88 14.4458 88 14.998C88 15.5503 88.4477 15.998 89 15.998ZM104 14.998C104 15.5503 103.552 15.998 103 15.998C102.448 15.998 102 15.5503 102 14.998C102 14.4458 102.448 13.998 103 13.998C103.552 13.998 104 14.4458 104 14.998Z" fill="#81CB2F"/>
<rect x="78" y="11" width="27.9986" height="16" fill="#3E9F28"/>
<path fill-rule="evenodd" clip-rule="evenodd" d="M101.75 12.998C101.75 14.2407 102.757 15.248 104 15.248V22.748C102.757 22.748 101.75 23.7554 101.75 24.998H82.25C82.25 23.7554 81.2426 22.748 80 22.748V15.248C81.2426 15.248 82.25 14.2407 82.25 12.998H101.75ZM95 18.998C95 20.6549 93.6569 21.998 92 21.998C90.3431 21.998 89 20.6549 89 18.998C89 17.3412 90.3431 15.998 92 15.998C93.6569 15.998 95 17.3412 95 18.998ZM85 19.998C85.5523 19.998 86 19.5503 86 18.998C86 18.4458 85.5523 17.998 85 17.998C84.4477 17.998 84 18.4458 84 18.998C84 19.5503 84.4477 19.998 85 19.998ZM100 18.998C100 19.5503 99.5523 19.998 99 19.998C98.4477 19.998 98 19.5503 98 18.998C98 18.4458 98.4477 17.998 99 17.998C99.5523 17.998 100 18.4458 100 18.998Z" fill="#81CB2F"/>
<rect x="74" y="15" width="27.9986" height="16" fill="#3E9F28"/>
<path fill-rule="evenodd" clip-rule="evenodd" d="M97.75 16.998C97.75 18.2407 98.7574 19.248 100 19.248V26.748C98.7574 26.748 97.75 27.7554 97.75 28.998H78.25C78.25 27.7554 77.2426 26.748 76 26.748V19.248C77.2426 19.248 78.25 18.2407 78.25 16.998H97.75ZM91 22.998C91 24.6549 89.6569 25.998 88 25.998C86.3431 25.998 85 24.6549 85 22.998C85 21.3412 86.3431 19.998 88 19.998C89.6569 19.998 91 21.3412 91 22.998ZM81 23.998C81.5523 23.998 82 23.5503 82 22.998C82 22.4458 81.5523 21.998 81 21.998C80.4477 21.998 80 22.4458 80 22.998C80 23.5503 80.4477 23.998 81 23.998ZM96 22.998C96 23.5503 95.5523 23.998 95 23.998C94.4477 23.998 94 23.5503 94 22.998C94 22.4458 94.4477 21.998 95 21.998C95.5523 21.998 96 22.4458 96 22.998Z" fill="#81CB2F"/>
<rect x="40" y="7" width="27.9986" height="16" fill="#3E9F28"/>
<path fill-rule="evenodd" clip-rule="evenodd" d="M63.75 8.99805C63.75 10.2407 64.7574 11.248 66 11.248V18.748C64.7574 18.748 63.75 19.7554 63.75 20.998H44.25C44.25 19.7554 43.2426 18.748 42 18.748V11.248C43.2426 11.248 44.25 10.2407 44.25 8.99805H63.75ZM57 14.998C57 16.6549 55.6569 17.998 54 17.998C52.3431 17.998 51 16.6549 51 14.998C51 13.3412 52.3431 11.998 54 11.998C55.6569 11.998 57 13.3412 57 14.998ZM47 15.998C47.5523 15.998 48 15.5503 48 14.998C48 14.4458 47.5523 13.998 47 13.998C46.4477 13.998 46 14.4458 46 14.998C46 15.5503 46.4477 15.998 47 15.998ZM62 14.998C62 15.5503 61.5523 15.998 61 15.998C60.4477 15.998 60 15.5503 60 14.998C60 14.4458 60.4477 13.998 61 13.998C61.5523 13.998 62 14.4458 62 14.998Z" fill="#81CB2F"/>
<rect x="36" y="11" width="27.9986" height="16" fill="#3E9F28"/>
<path fill-rule="evenodd" clip-rule="evenodd" d="M59.75 12.998C59.75 14.2407 60.7574 15.248 62 15.248V22.748C60.7574 22.748 59.75 23.7554 59.75 24.998H40.25C40.25 23.7554 39.2426 22.748 38 22.748V15.248C39.2426 15.248 40.25 14.2407 40.25 12.998H59.75ZM53 18.998C53 20.6549 51.6569 21.998 50 21.998C48.3431 21.998 47 20.6549 47 18.998C47 17.3412 48.3431 15.998 50 15.998C51.6569 15.998 53 17.3412 53 18.998ZM43 19.998C43.5523 19.998 44 19.5503 44 18.998C44 18.4458 43.5523 17.998 43 17.998C42.4477 17.998 42 18.4458 42 18.998C42 19.5503 42.4477 19.998 43 19.998ZM58 18.998C58 19.5503 57.5523 19.998 57 19.998C56.4477 19.998 56 19.5503 56 18.998C56 18.4458 56.4477 17.998 57 17.998C57.5523 17.998 58 18.4458 58 18.998Z" fill="#81CB2F"/>
<rect x="32" y="15" width="27.9986" height="16" fill="#3E9F28"/>
<path fill-rule="evenodd" clip-rule="evenodd" d="M55.75 16.998C55.75 18.2407 56.7574 19.248 58 19.248V26.748C56.7574 26.748 55.75 27.7554 55.75 28.998H36.25C36.25 27.7554 35.2426 26.748 34 26.748V19.248C35.2426 19.248 36.25 18.2407 36.25 16.998H55.75ZM49 22.998C49 24.6549 47.6569 25.998 46 25.998C44.3431 25.998 43 24.6549 43 22.998C43 21.3412 44.3431 19.998 46 19.998C47.6569 19.998 49 21.3412 49 22.998ZM39 23.998C39.5523 23.998 40 23.5503 40 22.998C40 22.4458 39.5523 21.998 39 21.998C38.4477 21.998 38 22.4458 38 22.998C38 23.5503 38.4477 23.998 39 23.998ZM54 22.998C54 23.5503 53.5523 23.998 53 23.998C52.4477 23.998 52 23.5503 52 22.998C52 22.4458 52.4477 21.998 53 21.998C53.5523 21.998 54 22.4458 54 22.998Z" fill="#81CB2F"/>
</svg>
