<svg width="14.0rem" height="4.0rem" viewBox="0 0 140 40" fill="none" xmlns="http://www.w3.org/2000/svg">
<rect x="61" y="8" width="27.9986" height="16" fill="#3E9F28"/>
<path fill-rule="evenodd" clip-rule="evenodd" d="M84.75 9.99805C84.75 11.2407 85.7574 12.248 87 12.248V19.748C85.7574 19.748 84.75 20.7554 84.75 21.998H65.25C65.25 20.7554 64.2426 19.748 63 19.748V12.248C64.2426 12.248 65.25 11.2407 65.25 9.99805H84.75ZM78 15.998C78 17.6549 76.6569 18.998 75 18.998C73.3431 18.998 72 17.6549 72 15.998C72 14.3412 73.3431 12.998 75 12.998C76.6569 12.998 78 14.3412 78 15.998ZM68 16.998C68.5523 16.998 69 16.5503 69 15.998C69 15.4458 68.5523 14.998 68 14.998C67.4477 14.998 67 15.4458 67 15.998C67 16.5503 67.4477 16.998 68 16.998ZM83 15.998C83 16.5503 82.5523 16.998 82 16.998C81.4477 16.998 81 16.5503 81 15.998C81 15.4458 81.4477 14.998 82 14.998C82.5523 14.998 83 15.4458 83 15.998Z" fill="#81CB2F"/>
<rect x="57" y="12" width="27.9986" height="16" fill="#3E9F28"/>
<path fill-rule="evenodd" clip-rule="evenodd" d="M80.75 13.998C80.75 15.2407 81.7574 16.248 83 16.248V23.748C81.7574 23.748 80.75 24.7554 80.75 25.998H61.25C61.25 24.7554 60.2426 23.748 59 23.748V16.248C60.2426 16.248 61.25 15.2407 61.25 13.998H80.75ZM74 19.998C74 21.6549 72.6569 22.998 71 22.998C69.3431 22.998 68 21.6549 68 19.998C68 18.3412 69.3431 16.998 71 16.998C72.6569 16.998 74 18.3412 74 19.998ZM64 20.998C64.5523 20.998 65 20.5503 65 19.998C65 19.4458 64.5523 18.998 64 18.998C63.4477 18.998 63 19.4458 63 19.998C63 20.5503 63.4477 20.998 64 20.998ZM79 19.998C79 20.5503 78.5523 20.998 78 20.998C77.4477 20.998 77 20.5503 77 19.998C77 19.4458 77.4477 18.998 78 18.998C78.5523 18.998 79 19.4458 79 19.998Z" fill="#81CB2F"/>
<rect x="53" y="16" width="27.9986" height="16" fill="#3E9F28"/>
<path fill-rule="evenodd" clip-rule="evenodd" d="M76.75 17.998C76.75 19.2407 77.7574 20.248 79 20.248V27.748C77.7574 27.748 76.75 28.7554 76.75 29.998H57.25C57.25 28.7554 56.2426 27.748 55 27.748V20.248C56.2426 20.248 57.25 19.2407 57.25 17.998H76.75ZM70 23.998C70 25.6549 68.6569 26.998 67 26.998C65.3431 26.998 64 25.6549 64 23.998C64 22.3412 65.3431 20.998 67 20.998C68.6569 20.998 70 22.3412 70 23.998ZM60 24.998C60.5523 24.998 61 24.5503 61 23.998C61 23.4458 60.5523 22.998 60 22.998C59.4477 22.998 59 23.4458 59 23.998C59 24.5503 59.4477 24.998 60 24.998ZM75 23.998C75 24.5503 74.5523 24.998 74 24.998C73.4477 24.998 73 24.5503 73 23.998C73 23.4458 73.4477 22.998 74 22.998C74.5523 22.998 75 23.4458 75 23.998Z" fill="#81CB2F"/>
</svg>
