<svg width="32.0rem" height="20.0rem" viewBox="0 0 320 200" fill="none" xmlns="http://www.w3.org/2000/svg">
<path opacity="0.12" d="M198.269 144.85C199.479 162.109 201.479 184.03 182.799 190.945C162.163 198.583 129.284 192.656 123.781 164.541C120.383 147.174 120.596 130.815 135.785 119.555C160.513 101.224 196.445 118.82 198.269 144.85Z" fill="#004E1A"/>
<path d="M167 138H172.273C173.226 138 174 137.216 174 136.25C174 135.284 173.226 134.5 172.273 134.5H161.727C160.774 134.5 160 133.716 160 132.75C160 131.784 160.774 131 161.727 131H165.273C166.226 131 167 130.216 167 129.25C167 128.284 166.226 127.5 165.273 127.5L155 127.5" stroke="#796B9E" stroke-width="1.75372" stroke-miterlimit="10"/>
<path d="M155.002 123.002H153.002V124.002H148.002C144.136 124.002 141.002 127.136 141.002 131.002V173.002H148.002V131.002H153.002V132.002H155.002V123.002Z" fill="#838891"/>
<path d="M142.748 140.002L144.502 141.756L146.255 140.002" stroke="#45484D" stroke-width="1.5" stroke-miterlimit="10"/>
<path d="M142.748 148.002L144.502 149.756L146.255 148.002" stroke="#45484D" stroke-width="1.5" stroke-miterlimit="10"/>
<path d="M142.748 156.002L144.502 157.756L146.255 156.002" stroke="#45484D" stroke-width="1.5" stroke-miterlimit="10"/>
<path fill-rule="evenodd" clip-rule="evenodd" d="M165.5 141H175.5V143H173.987L174 148L185.057 167.79C186.347 170.129 184.666 173 182.009 173H158.991C156.334 173 154.653 170.129 155.943 167.79L167.026 148L167.013 143H165.5V141Z" fill="#4A3780"/>
<path fill-rule="evenodd" clip-rule="evenodd" d="M163.623 158.17C164.63 158.454 165.637 158.637 166.644 158.532C167.704 158.421 168.763 157.993 169.823 157.564C170.971 157.099 172.118 156.635 173.266 156.575C174.603 156.505 175.941 156.985 177.032 157.527L183.306 168.756L183.308 168.76C183.869 169.783 183.123 171 182.01 171H158.992C157.879 171 157.133 169.783 157.693 168.761L163.623 158.17Z" fill="#8C6CE3"/>
<path d="M205.75 178.5C204.784 178.5 204 179.284 204 180.25C204 181.216 204.784 182 205.75 182H218.25C219.769 182 221 183.231 221 184.75C221 186.269 219.769 187.5 218.25 187.5H116.75C115.231 187.5 114 186.269 114 184.75C114 183.231 115.231 182 116.75 182H123.25C124.216 182 125 181.216 125 180.25C125 179.284 124.216 178.5 123.25 178.5H113.75C111.364 178.5 112.934 175.75 115.32 175.75H206.68C209.066 175.75 210.636 178.5 208.25 178.5H205.75Z" fill="#958F8D"/>
<path d="M214 175.75C214 174.231 212.769 173 211.25 173H110.75C109.231 173 108 174.231 108 175.75C108 177.269 109.231 178.5 110.75 178.5H135.25C136.216 178.5 137 179.284 137 180.25C137 181.216 136.216 182 135.25 182H132.75C131.784 182 131 182.784 131 183.75C131 184.716 131.784 185.5 132.75 185.5H158.75C159.716 185.5 160.5 184.716 160.5 183.75C160.5 182.784 159.716 182 158.75 182H150.75C149.784 182 149 181.216 149 180.25C149 179.284 149.784 178.5 150.75 178.5H161.75C162.716 178.5 163.5 179.284 163.5 180.25C163.5 181.216 164.284 182 165.25 182H173.25C174.216 182 175 182.784 175 183.75C175 184.716 175.784 185.5 176.75 185.5H196.75C197.716 185.5 198.5 184.716 198.5 183.75C198.5 182.784 197.716 182 196.75 182H191.25C190.284 182 189.5 181.216 189.5 180.25C189.5 179.284 190.284 178.5 191.25 178.5H211.25C212.769 178.5 214 177.269 214 175.75Z" fill="#B5B2B1"/>
<path opacity="0.12" d="M235.094 146C280.417 146 288.047 118.491 280.417 86.5309C274.095 60.0513 241.107 35.6769 214.505 52.5998C198.364 62.868 195.859 93.991 198.498 113C201.25 132.819 215.763 146 235.094 146Z" fill="#004E1A"/>
<path d="M213.041 67.3161C209.152 74.6307 212.113 83.8114 215.711 85.7245L221.814 74.2462L268.998 99.3339L268.998 124L270.998 124L271.003 95.8698L223.692 70.7144L229.795 59.2361C226.197 57.323 216.93 60.0016 213.041 67.3161Z" fill="#606060"/>
<path d="M273 116L267 116L267 124L273 124L273 116Z" fill="#979797"/>
<path fill-rule="evenodd" clip-rule="evenodd" d="M246.799 78.972L259.372 124L254.181 124L250.551 110.999L232.454 110.999L228.824 124L223.633 124L236.204 78.9722C237.701 73.6109 245.302 73.6108 246.799 78.972ZM249.713 107.999L247.479 99.999L235.525 99.999L233.291 107.999L249.713 107.999ZM236.363 96.999L246.641 96.999L244.408 88.9986L238.596 88.9986L236.363 96.999ZM241.5 83.998C242.328 83.998 243 83.3265 243 82.498C243 81.6696 242.328 80.998 241.5 80.998C240.672 80.998 240 81.6696 240 82.498C240 83.3265 240.672 83.998 241.5 83.998Z" fill="#979797"/>
<path d="M219 93H215V99H219V93Z" fill="#D7403E"/>
<rect x="209" y="96.2363" width="4" height="6" transform="rotate(-18 209 96.2363)" fill="#B2242D"/>
<rect width="4" height="6" transform="matrix(-0.951057 -0.309017 -0.309017 0.951057 225 96.2363)" fill="#B2242D"/>
<path fill-rule="evenodd" clip-rule="evenodd" d="M225 104C225 100.686 221.418 98 217 98C212.582 98 209 100.686 209 104V124H225V104Z" fill="#EF816D"/>
<path d="M211.853 95.3093L209 96.2363L211.163 102.894L214.016 101.967L211.853 95.3093Z" fill="#D7403E"/>
<path d="M222.147 95.3093L225 96.2363L222.837 102.894L219.984 101.967L222.147 95.3093Z" fill="#D7403E"/>
<path d="M225 121H209V124H225V121Z" fill="#D3524C"/>
<path d="M213 111L217 107L220.999 111L217 114.999L213 111Z" fill="#B2242D"/>
<path d="M237 93H233V99H237V93Z" fill="#D7403E"/>
<rect x="227" y="96.2363" width="4" height="6" transform="rotate(-18 227 96.2363)" fill="#B2242D"/>
<rect width="4" height="6" transform="matrix(-0.951057 -0.309017 -0.309017 0.951057 243 96.2363)" fill="#B2242D"/>
<path fill-rule="evenodd" clip-rule="evenodd" d="M243 104C243 100.686 239.418 98 235 98C230.582 98 227 100.686 227 104V124H243V104Z" fill="#EF816D"/>
<path d="M229.853 95.3093L227 96.2363L229.163 102.894L232.016 101.967L229.853 95.3093Z" fill="#D7403E"/>
<path d="M240.147 95.3093L243 96.2363L240.837 102.894L237.984 101.967L240.147 95.3093Z" fill="#D7403E"/>
<path d="M243 121H227V124H243V121Z" fill="#D3524C"/>
<path d="M231 111L235 107L239.001 111L235 115.001L231 111Z" fill="#B2242D"/>
<path d="M255 93H251V99H255V93Z" fill="#D7403E"/>
<rect x="245" y="96.2363" width="4" height="6" transform="rotate(-18 245 96.2363)" fill="#B2242D"/>
<rect width="4" height="6" transform="matrix(-0.951057 -0.309017 -0.309017 0.951057 261 96.2363)" fill="#B2242D"/>
<path fill-rule="evenodd" clip-rule="evenodd" d="M261 104C261 100.686 257.418 98 253 98C248.582 98 245 100.686 245 104V124H261V104Z" fill="#EF816D"/>
<path d="M247.853 95.3093L245 96.2363L247.163 102.894L250.016 101.967L247.853 95.3093Z" fill="#D7403E"/>
<path d="M258.147 95.3093L261 96.2363L258.837 102.894L255.984 101.967L258.147 95.3093Z" fill="#D7403E"/>
<path d="M261 121H245V124H261V121Z" fill="#D3524C"/>
<path d="M249 111L253 107L257.001 111L253 115.001L249 111Z" fill="#B2242D"/>
<path d="M184.998 126.75C184.998 128.269 186.229 129.5 187.748 129.5H194.67C195.636 129.5 196.42 130.284 196.42 131.25C196.42 132.216 195.636 133 194.67 133H192.668C191.149 133 189.918 134.231 189.918 135.75C189.918 137.269 191.149 138.5 192.668 138.5H295.168C296.687 138.5 297.918 137.269 297.918 135.75C297.918 134.231 296.687 133 295.168 133H285.17C284.203 133 283.42 132.216 283.42 131.25C283.42 130.284 284.203 129.5 285.17 129.5H287.748C289.267 129.5 290.498 128.269 290.498 126.75H184.998Z" fill="#D1A790"/>
<path d="M183 126.75C183 125.231 184.231 124 185.75 124H288.75C290.269 124 291.5 125.231 291.5 126.75C291.5 128.269 290.269 129.5 288.75 129.5H276.17C275.203 129.5 274.42 130.284 274.42 131.25C274.42 132.216 273.636 133 272.67 133H266.67C265.703 133 264.92 133.784 264.92 134.75C264.92 135.716 264.136 136.5 263.17 136.5H239.17C238.203 136.5 237.42 135.716 237.42 134.75C237.42 133.784 238.203 133 239.17 133H253.67C254.636 133 255.42 132.216 255.42 131.25C255.42 130.284 254.636 129.5 253.67 129.5H234.67C233.703 129.5 232.92 130.284 232.92 131.25C232.92 132.216 232.136 133 231.17 133H226.67C225.703 133 224.92 133.784 224.92 134.75C224.92 135.716 224.136 136.5 223.17 136.5H205.67C204.703 136.5 203.92 135.716 203.92 134.75C203.92 133.784 204.703 133 205.67 133H211.17C212.136 133 212.92 132.216 212.92 131.25C212.92 130.284 212.136 129.5 211.17 129.5H185.75C184.231 129.5 183 128.269 183 126.75Z" fill="#F1C8B1"/>
<path opacity="0.12" d="M45.4739 46.8418C78.9312 25.7044 82.2386 67.166 95.2154 87.9902C102.084 99.0121 118.03 118.86 114.495 131.688C108.605 153.06 88.1756 160 67.2634 160C42.519 160 31.9422 146.994 23.0101 125.95C12.987 102.335 22.2221 61.5315 45.4739 46.8418Z" fill="#004E1A"/>
<path d="M62 139V92" stroke="#969693" stroke-width="3" stroke-miterlimit="10"/>
<path fill-rule="evenodd" clip-rule="evenodd" d="M62.9551 52.1094H61.0049L57.5957 83.536L60.0334 89.176H63.9266L66.3643 83.5395L62.9551 52.1094ZM96.015 112.738L96.9865 111.05L71.4769 92.3839L65.374 91.6719L63.4238 95.046L67.0891 99.974L96.015 112.738ZM27.9497 112.743L26.9746 111.056L52.4912 92.3862L58.5907 91.6777L60.5373 95.0519L56.872 99.9833L27.9497 112.743Z" fill="#C0C0C0"/>
<path d="M62 96C64.2091 96 66 94.2091 66 92C66 89.7909 64.2091 88 62 88C59.7909 88 58 89.7909 58 92C58 94.2091 59.7909 96 62 96Z" fill="#494949"/>
<path fill-rule="evenodd" clip-rule="evenodd" d="M63.3276 55.5618C62.882 55.5456 62.4343 55.5374 61.9848 55.5374C61.5307 55.5374 61.0785 55.5458 60.6284 55.5623L61.003 52.1094H62.9531L63.3276 55.5618ZM63.7094 59.0819C63.1398 59.0526 62.5664 59.0378 61.9894 59.0378C61.4048 59.0378 60.8237 59.053 60.2465 59.0831L59.8626 62.6212C60.5651 62.5709 61.2743 62.5453 61.9894 62.5453C62.6967 62.5453 63.3982 62.5703 64.0932 62.6195L63.7094 59.0819ZM88.5055 104.846L91.3848 106.953C90.8618 107.979 90.2867 108.975 89.6628 109.936L86.3967 108.494C87.1828 107.334 87.8884 106.115 88.5055 104.846ZM64.4404 65.8208C63.6321 65.746 62.8133 65.7077 61.9855 65.7077C61.1525 65.7077 60.3286 65.7465 59.5154 65.8222L59.128 69.3934C60.0642 69.2758 61.0179 69.2152 61.9855 69.2152C62.9478 69.2152 63.8964 69.2751 64.8277 69.3914L64.4404 65.8208ZM83.0118 100.826L85.9164 102.951C85.2308 104.449 84.4088 105.871 83.4663 107.201L80.1716 105.748C81.3119 104.241 82.2697 102.59 83.0118 100.826ZM40.9591 100.826C41.7016 102.591 42.6603 104.244 43.8017 105.751L40.5068 107.204C39.5633 105.873 38.7405 104.45 38.0544 102.951L40.9591 100.826ZM35.471 104.841L32.5916 106.948C33.1153 107.976 33.6912 108.973 34.3161 109.936L37.5823 108.494C36.7952 107.333 36.0887 106.112 35.471 104.841ZM31.0737 111.366C30.5984 110.609 30.15 109.834 29.73 109.042L26.9766 111.056L27.9516 112.743L31.0737 111.366ZM92.8978 111.363C93.3724 110.607 93.8201 109.833 94.2395 109.042L96.9846 111.05L96.013 112.738L92.8978 111.363Z" fill="#CC1D3C"/>
<path d="M92 139V131" stroke="#6D6E71" stroke-width="2" stroke-miterlimit="10"/>
<path d="M88 138H96" stroke="#6D6E71" stroke-width="2" stroke-miterlimit="10"/>
<path d="M106 131H78L83.0395 117H100.961L106 131Z" fill="#2E3E54"/>
<path d="M78 139V133" stroke="#6D6E71" stroke-width="2" stroke-miterlimit="10"/>
<path d="M74 138H82" stroke="#6D6E71" stroke-width="2" stroke-miterlimit="10"/>
<path d="M89 133H67L70.9616 122H85.0419L89 133Z" fill="#375C7A"/>
<path fill-rule="evenodd" clip-rule="evenodd" d="M30.0013 141.751C29.9549 143.269 31.1727 144.501 32.6799 144.501H34.9388C35.9055 144.53 36.6805 145.276 36.6805 146.25C36.6805 147.244 35.8741 148 34.8805 148H23.3797C21.8893 148 20.6797 149.26 20.6797 150.75C20.6797 152.24 21.8893 153.5 23.3797 153.5H125.416C126.906 153.5 128.116 152.24 128.116 150.75C128.116 149.26 126.906 148 125.416 148H120.996C120.002 148 119.196 147.244 119.196 146.25C119.196 145.269 119.982 144.519 120.958 144.5L126.211 144.5C127.678 144.5 128.957 143.217 129 141.75L30.0013 141.751Z" fill="#5E8369"/>
<path d="M130.211 144.5C131.679 144.5 132.957 143.218 133 141.75C133.046 140.232 131.829 139 130.321 139L28.7906 139.001C27.3227 139.001 26.0441 140.283 26.0013 141.751C25.9549 143.269 27.1727 144.501 28.6799 144.501H41.983C42.9688 144.501 43.7688 145.265 43.7688 146.251C43.7688 147.237 44.5688 148.001 45.5545 148.001H49.1259C50.1116 148.001 50.9116 148.765 50.9116 149.751C50.9116 150.737 51.7116 151.501 52.6973 151.501H69.3189C70.3046 151.501 71.1046 150.737 71.1046 149.751C71.1046 148.765 70.3046 148.001 69.3189 148.001H63.3934C62.4077 148.001 61.6077 147.237 61.6077 146.251C61.6077 145.265 62.4077 144.501 63.3934 144.501H92.6547C93.6404 144.501 94.4404 145.265 94.4404 146.251C94.4404 147.237 93.6404 148.001 92.6547 148.001H82.1911C81.2054 148.001 80.4054 148.765 80.4054 149.751C80.4054 150.737 81.2054 151.501 82.1911 151.501H103.148C104.134 151.501 104.934 150.737 104.934 149.751C104.934 148.765 105.734 148.001 106.72 148.001H110.291C111.277 148.001 112.077 147.237 112.077 146.251C112.077 145.265 112.877 144.501 113.863 144.501L130.211 144.5Z" fill="#81A38A"/>
<path opacity="0.12" d="M103.738 45.0225C118.739 11.3574 188.958 -9.75392 198.826 32.6959C205.349 60.7572 183.985 108.121 152.417 106.98C114.5 105.609 87.6961 81.026 103.738 45.0225Z" fill="#004E1A"/>
<path d="M176.5 63C170.701 63 166 58.3605 166 52.6364V31.3636C166 25.6395 170.701 21 176.5 21C182.299 21 187 25.6395 187 31.3636V52.6364C187 58.3605 182.299 63 176.5 63Z" fill="#009343"/>
<path fill-rule="evenodd" clip-rule="evenodd" d="M177.376 53.6128V85H175.624V45.1128L170.631 40.1193L171.869 38.8807L175.624 42.6355V34H177.376V51.1355L181.131 47.3807L182.369 48.6193L177.376 53.6128Z" fill="#035B2C"/>
<path d="M144.5 69C150.299 69 155 64.3605 155 58.6364V41.3636C155 35.6395 150.299 31 144.5 31C138.701 31 134 35.6395 134 41.3636V58.6364C134 64.3605 138.701 69 144.5 69Z" fill="#009343"/>
<path fill-rule="evenodd" clip-rule="evenodd" d="M143.624 59.6128V85H145.376V51.1128L150.369 46.1193L149.131 44.8807L145.376 48.6355V41H143.624V57.1355L139.869 53.3807L138.631 54.6193L143.624 59.6128Z" fill="#035B2C"/>
<path d="M169.25 48.7432C168.818 46.6398 168.832 46.6641 168.832 43.0844C168.832 38.6385 165.1 35 160.5 35C155.9 35 152.168 38.6385 152.168 43.0844C152.168 46.6675 152.186 46.6398 151.75 48.7432C150.918 52.7872 148 54.9218 148 60.8716C148 67.3412 153.596 73 160.5 73C167.404 73 173 67.3412 173 60.8716C173 54.9218 170.082 52.7872 169.25 48.7432Z" fill="#21C037"/>
<path fill-rule="evenodd" clip-rule="evenodd" d="M161.376 48V65.1355L165.131 61.3807L166.369 62.6193L161.376 67.6128V85H159.624V60.6128L154.631 55.6193L155.869 54.3807L159.624 58.1355V48H161.376Z" fill="#035B2C"/>
<path d="M107 66C114.731 66 121 72.2685 121 80C113.268 80 107 73.7315 107 66Z" fill="#009343"/>
<path d="M120 80C120 72.2685 126.268 66 134 66C134 73.7315 127.731 80 120 80Z" fill="#21C037"/>
<path fill-rule="evenodd" clip-rule="evenodd" d="M112.879 73.1191L119.624 79.8898V85.0009H121.375V79.8898L128.12 73.1191L126.879 71.8828L120.499 78.2869L114.12 71.8828L112.879 73.1191Z" fill="#035B2C"/>
<path fill-rule="evenodd" clip-rule="evenodd" d="M104.719 90.5H102.674C101.17 90.5 99.9549 89.2679 100.001 87.75H197.499C197.456 89.2179 196.18 90.5 194.715 90.5H190.219C189.253 90.5 188.469 91.284 188.469 92.25C188.469 93.216 189.253 94 190.219 94H192.75C194.268 94 195.5 95.232 195.5 96.75C195.5 98.268 194.268 99.5 192.75 99.5H94.75C93.232 99.5 92 98.268 92 96.75C92 95.232 93.232 94 94.75 94H104.719C105.685 94 106.469 93.216 106.469 92.25C106.469 91.284 105.685 90.5 104.719 90.5Z" fill="#B18D69"/>
<path d="M121.412 90.5C122.396 90.5 123.194 91.2643 123.194 92.25C123.194 93.2357 122.396 94 121.412 94H113.986C113.003 94 112.204 94.7643 112.204 95.75C112.204 96.7357 113.003 97.5 113.986 97.5H127.289C128.272 97.5 129.071 96.7357 129.071 95.75C129.071 94.7643 129.869 94 130.853 94H139.545C140.528 94 141.327 93.2357 141.327 92.25C141.327 91.2643 142.125 90.5 143.109 90.5H150.252C151.236 90.5 152.034 91.2643 152.034 92.25C152.034 93.2357 152.832 94 153.816 94H155.598C156.582 94 157.38 94.7643 157.38 95.75C157.38 96.7357 158.178 97.5 159.162 97.5H181.845C182.828 97.5 183.627 96.7357 183.627 95.75C183.627 94.7643 182.828 94 181.845 94H166.54C165.557 94 164.758 93.2357 164.758 92.25C164.758 91.2643 165.557 90.5 166.54 90.5H199.715C201.18 90.5 202.456 89.2179 202.499 87.75C202.545 86.2321 201.33 85 199.826 85H100.785C99.32 85 98.0441 86.2821 98.0013 87.75C97.955 89.2679 99.1703 90.5 100.674 90.5H121.412Z" fill="#CFA983"/>
</svg>
