<svg width="32.0rem" height="20.0rem" viewBox="0 0 320 200" fill="none" xmlns="http://www.w3.org/2000/svg">
<path opacity="0.12" d="M62.3755 55.9307C117.111 28.558 265.549 24.9094 279.25 85.553C299.792 176.472 231.363 172.556 185.124 168.753C153.967 166.188 126.089 167.406 92.7158 170.288C32.4067 175.493 7.64002 83.3035 62.3755 55.9307Z" fill="#21C037"/>
<path d="M244 124C251.731 124 258 130.268 258 138C250.268 138 244 131.731 244 124Z" fill="#009343"/>
<path d="M257 138C257 130.268 263.268 124 271 124C271 131.731 264.731 138 257 138Z" fill="#21C037"/>
<path fill-rule="evenodd" clip-rule="evenodd" d="M249.881 131.117L256.626 137.888V145.001H258.377V137.888L265.122 131.117L263.881 129.881L257.501 136.285L251.122 129.881L249.881 131.117Z" fill="#035B2C"/>
<path d="M229 121C236.731 121 243 127.268 243 135C235.268 135 229 128.731 229 121Z" fill="#009343"/>
<path d="M242 135C242 127.268 248.268 121 256 121C256 128.731 249.731 135 242 135Z" fill="#21C037"/>
<path fill-rule="evenodd" clip-rule="evenodd" d="M234.881 128.117L241.626 134.888V145.001H243.377V134.888L250.122 128.117L248.881 126.881L242.501 133.285L236.122 126.881L234.881 128.117Z" fill="#035B2C"/>
<path d="M214.5 125C208.701 125 204 120.361 204 114.636V93.3636C204 87.6395 208.701 83 214.5 83C220.299 83 225 87.6395 225 93.3636V114.636C225 120.361 220.299 125 214.5 125Z" fill="#009343"/>
<path fill-rule="evenodd" clip-rule="evenodd" d="M215.376 115.613V145H213.624V107.113L208.631 102.119L209.869 100.881L213.624 104.636V96H215.376V113.136L219.131 109.381L220.369 110.619L215.376 115.613Z" fill="#035B2C"/>
<path d="M182.5 131C188.299 131 193 126.361 193 120.636V103.364C193 97.6395 188.299 93 182.5 93C176.701 93 172 97.6395 172 103.364V120.636C172 126.361 176.701 131 182.5 131Z" fill="#009343"/>
<path fill-rule="evenodd" clip-rule="evenodd" d="M181.624 121.613V145H183.376V113.113L188.369 108.119L187.131 106.881L183.376 110.636V103H181.624V119.136L177.869 115.381L176.631 116.619L181.624 121.613Z" fill="#035B2C"/>
<path d="M207.25 110.743C206.818 108.64 206.832 108.664 206.832 105.084C206.832 100.639 203.1 97 198.5 97C193.9 97 190.168 100.639 190.168 105.084C190.168 108.668 190.186 108.64 189.75 110.743C188.918 114.787 186 116.922 186 122.872C186 129.341 191.596 135 198.5 135C205.404 135 211 129.341 211 122.872C211 116.922 208.082 114.787 207.25 110.743Z" fill="#21C037"/>
<path fill-rule="evenodd" clip-rule="evenodd" d="M199.376 110V127.136L203.131 123.381L204.369 124.619L199.376 129.613V145H197.624V122.613L192.631 117.619L193.869 116.381L197.624 120.136V110H199.376Z" fill="#035B2C"/>
<path d="M141 126C148.731 126 155 132.268 155 140C147.268 140 141 133.731 141 126Z" fill="#009343"/>
<path d="M154 140C154 132.268 160.268 126 168 126C168 133.731 161.731 140 154 140Z" fill="#21C037"/>
<path fill-rule="evenodd" clip-rule="evenodd" d="M146.879 133.119L153.624 139.89V145.001H155.375V139.89L162.12 133.119L160.879 131.883L154.499 138.287L148.12 131.883L146.879 133.119Z" fill="#035B2C"/>
<path d="M126.5 125C120.701 125 116 120.361 116 114.636V97.3636C116 91.6395 120.701 87 126.5 87C132.299 87 137 91.6395 137 97.3636V114.636C137 120.361 132.299 125 126.5 125Z" fill="#009343"/>
<path fill-rule="evenodd" clip-rule="evenodd" d="M127.376 115.613V145H125.624V107.113L120.631 102.119L121.869 100.881L125.624 104.636V97H127.376V113.136L131.131 109.381L132.369 110.619L127.376 115.613Z" fill="#035B2C"/>
<path d="M112.5 135C106.701 135 102 130.299 102 124.5V117.5C102 111.701 106.701 107 112.5 107C118.299 107 123 111.701 123 117.5V124.5C123 130.299 118.299 135 112.5 135Z" fill="#21C037"/>
<path d="M112.5 145V121" stroke="#035B2C" stroke-width="1.75" stroke-miterlimit="10"/>
<path d="M69 124C76.7315 124 83 130.268 83 138C75.2685 138 69 131.731 69 124Z" fill="#009343"/>
<path d="M82 138C82 130.268 88.2685 124 96 124C96 131.731 89.7315 138 82 138Z" fill="#21C037"/>
<path fill-rule="evenodd" clip-rule="evenodd" d="M74.8809 131.117L81.6255 137.888V145.001H83.3772V137.888L90.1219 131.117L88.8809 129.881L82.5014 136.285L76.1219 129.881L74.8809 131.117Z" fill="#035B2C"/>
<path d="M47 128C54.7315 128 61 134.268 61 142C53.2685 142 47 135.731 47 128Z" fill="#009343"/>
<path d="M60 142C60 134.268 66.2685 128 74 128C74 135.731 67.7315 142 60 142Z" fill="#21C037"/>
<path fill-rule="evenodd" clip-rule="evenodd" d="M52.8809 135.117L59.6255 141.888V144.999H61.3772V141.888L68.1219 135.117L66.8809 133.881L60.5014 140.285L54.1219 133.881L52.8809 135.117Z" fill="#035B2C"/>
<path fill-rule="evenodd" clip-rule="evenodd" d="M277.999 147.75C278.044 149.238 276.849 150.497 275.369 150.497H258.192C258.159 150.497 258.127 150.498 258.094 150.5H270.5C269.532 150.5 268.746 151.285 268.746 152.252C268.746 153.182 269.473 153.943 270.39 154H292.37C293.822 154 295 155.232 295 156.75C295 158.268 293.822 159.5 292.37 159.5H34.63C33.1782 159.5 32 158.268 32 156.75C32 155.232 33.1782 154 34.63 154H49.6101C50.5271 153.943 51.254 153.182 51.254 152.252C51.254 151.285 50.4682 150.5 49.5 150.5H82.9588C82.9263 150.498 82.8935 150.497 82.8606 150.497H37.7398C36.2985 150.497 35.0432 149.189 35.0011 147.75H277.999ZM100.295 150.5H111.012C110.979 150.498 110.947 150.497 110.914 150.497H100.394C100.361 150.497 100.328 150.498 100.295 150.5ZM137.115 150.5H156.248C156.215 150.498 156.182 150.497 156.149 150.497H137.213C137.18 150.497 137.148 150.498 137.115 150.5ZM192.871 150.5H226.731C226.698 150.498 226.666 150.497 226.633 150.497H192.969C192.936 150.497 192.903 150.498 192.871 150.5Z" fill="#B18D69"/>
<path d="M27.6311 145H285.26C286.701 145 287.957 146.311 287.999 147.75C288.044 149.238 286.849 150.497 285.369 150.497H258.192C257.224 150.497 256.439 151.282 256.439 152.248C256.439 153.214 255.654 153.999 254.686 153.999H247.672C246.705 153.999 245.919 154.783 245.919 155.749C245.919 156.716 245.134 157.5 244.166 157.5H224.879C223.911 157.5 223.126 156.716 223.126 155.749C223.126 154.783 223.911 153.999 224.879 153.999H226.633C227.6 153.999 228.386 153.214 228.386 152.248C228.386 151.282 227.6 150.497 226.633 150.497H192.969C192.001 150.497 191.216 151.282 191.216 152.248C191.216 153.214 192.001 153.999 192.969 153.999H201.736C202.703 153.999 203.489 154.783 203.489 155.749C203.489 156.716 202.703 157.5 201.736 157.5H177.189C176.221 157.5 175.436 156.716 175.436 155.749C175.436 154.783 174.65 153.999 173.682 153.999H159.656C158.688 153.999 157.903 153.214 157.903 152.248C157.903 151.282 157.117 150.497 156.149 150.497H137.213C136.246 150.497 135.46 151.282 135.46 152.248C135.46 153.214 136.246 153.999 137.213 153.999H145.98C146.948 153.999 147.733 154.783 147.733 155.749C147.733 156.716 146.948 157.5 145.98 157.5H128.447C127.479 157.5 126.694 156.716 126.694 155.749C126.694 154.783 125.908 153.999 124.94 153.999H114.42C113.452 153.999 112.667 153.214 112.667 152.248C112.667 151.282 111.881 150.497 110.914 150.497H100.394C99.4259 150.497 98.6404 151.282 98.6404 152.248C98.6404 153.214 97.8549 153.999 96.8871 153.999H95.1338C94.166 153.999 93.3805 154.783 93.3805 155.749C93.3805 156.716 92.595 157.5 91.6272 157.5H65.3274C64.3596 157.5 63.5741 156.716 63.5741 155.749C63.5741 154.783 64.3596 153.999 65.3274 153.999H82.8606C83.8284 153.999 84.6139 153.214 84.6139 152.248C84.6139 151.282 83.8284 150.497 82.8606 150.497H27.7398C26.2985 150.497 25.0432 149.189 25.0011 147.75C24.959 146.262 26.1513 145 27.6311 145Z" fill="#CFA983"/>
</svg>
