<svg width="2600" height="1560" viewBox="0 0 2600 1560" fill="none" xmlns="http://www.w3.org/2000/svg">
<path d="M879.772 608.004H842.136C821.361 608.004 804.5 624.804 804.5 645.504C804.5 666.204 821.361 683.004 842.136 683.004H1148.19C1168.96 683.004 1185.82 699.804 1185.82 720.504C1185.82 741.204 1168.96 758.004 1148.19 758.004H918.604C897.829 758.004 880.968 774.804 880.968 795.504C880.968 816.204 897.829 833.004 918.604 833.004H1215.4C1236.18 833.004 1253.04 849.804 1253.04 870.504C1253.04 891.204 1236.18 908.004 1215.4 908.004H1087.52C1066.75 908.004 1049.88 924.804 1049.88 945.504C1049.88 966.204 1066.75 983.004 1087.52 983.004L1429.36 983.004C1450.14 983.004 1467 999.804 1467 1020.5C1467 1041.2 1450.14 1058 1429.36 1058L1391.73 1058" stroke="#E3572B" stroke-opacity="0.09" stroke-width="37.5" stroke-miterlimit="10"/>
<path d="M1117.26 533H1079.63C1058.86 533 1042 549.8 1042 570.5C1042 591.2 1058.86 608 1079.63 608H1523.86C1544.63 608 1561.49 624.8 1561.49 645.5C1561.49 666.2 1544.63 683 1523.86 683H1299.35C1278.58 683 1261.72 699.8 1261.72 720.5C1261.72 741.2 1278.58 758 1299.35 758H1727.37C1748.14 758 1765 774.8 1765 795.5C1765 816.2 1748.14 833 1727.37 833H1365.56C1344.79 833 1327.93 849.8 1327.93 870.5C1327.93 891.2 1344.79 908 1365.56 908L1666.75 908C1687.52 908 1704.38 924.8 1704.38 945.5C1704.38 966.2 1687.52 983 1666.75 983L1629.12 983" stroke="#E3572B" stroke-opacity="0.09" stroke-width="37.5" stroke-miterlimit="10"/>
</svg>
