<svg width="2600" height="1560" viewBox="0 0 2600 1560" fill="none" xmlns="http://www.w3.org/2000/svg">
<g opacity="0.09">
<path d="M847 1560L847 617" stroke="#E3572B" stroke-width="38"/>
<path d="M756.676 695.786L847.001 605.461L937.326 695.786" stroke="#E3572B" stroke-width="38"/>
<path d="M1006 1560L1006 741" stroke="#E3572B" stroke-width="38"/>
<path d="M915.676 819.317L1006 728.992L1096.33 819.317" stroke="#E3572B" stroke-width="38"/>
<path d="M1165 1560L1165 617" stroke="#E3572B" stroke-width="38"/>
<path d="M1074.68 695.786L1165 605.461L1255.33 695.786" stroke="#E3572B" stroke-width="38"/>
<path d="M1753 0L1753 975" stroke="#21C037" stroke-width="38"/>
<path d="M1843.33 896.203L1753 986.528L1662.68 896.203" stroke="#21C037" stroke-width="38"/>
<path d="M1594 0L1594 851" stroke="#21C037" stroke-width="38"/>
<path d="M1684.33 772.68L1594 863.005L1503.68 772.68" stroke="#21C037" stroke-width="38"/>
<path d="M1435 0L1435 975" stroke="#21C037" stroke-width="38"/>
<path d="M1525.33 896.203L1435 986.528L1344.68 896.203" stroke="#21C037" stroke-width="38"/>
</g>
</svg>
