<svg width="2600" height="1560" viewBox="0 0 2600 1560" fill="none" xmlns="http://www.w3.org/2000/svg">
<g opacity="0.09">
<path d="M847.527 1560L847.527 601" stroke="#E3572B" stroke-width="38"/>
<path d="M757.203 679.786L847.528 589.461L937.853 679.786" stroke="#E3572B" stroke-width="38"/>
<path d="M1005.95 1560L1005.95 725" stroke="#E3572B" stroke-width="38"/>
<path d="M915.629 803.317L1005.95 712.992L1096.28 803.317" stroke="#E3572B" stroke-width="38"/>
<path d="M1163.68 1560L1163.68 601" stroke="#E3572B" stroke-width="38"/>
<path d="M1073.35 679.786L1163.68 589.461L1254 679.786" stroke="#E3572B" stroke-width="38"/>
<path d="M1752.47 0L1752.47 959" stroke="#21C037" stroke-width="38"/>
<path d="M1842.79 880.203L1752.47 970.528L1662.14 880.203" stroke="#21C037" stroke-width="38"/>
<path d="M1594.04 0L1594.04 835" stroke="#21C037" stroke-width="38"/>
<path d="M1684.37 756.68L1594.04 847.005L1503.72 756.68" stroke="#21C037" stroke-width="38"/>
<path d="M1436.32 0L1436.32 959" stroke="#21C037" stroke-width="38"/>
<path d="M1526.65 880.203L1436.32 970.528L1346 880.203" stroke="#21C037" stroke-width="38"/>
</g>
</svg>
