<svg width="2600" height="1560" viewBox="0 0 2600 1560" fill="none" xmlns="http://www.w3.org/2000/svg">
<g opacity="0.09">
<path d="M853.527 1560L853.527 601" stroke="#E3572B" stroke-width="38"/>
<path d="M763.203 679.786L853.528 589.461L943.853 679.786" stroke="#E3572B" stroke-width="38"/>
<path d="M1011.95 1560L1011.95 725" stroke="#E3572B" stroke-width="38"/>
<path d="M921.629 803.317L1011.95 712.992L1102.28 803.317" stroke="#E3572B" stroke-width="38"/>
<path d="M1169.68 1560L1169.68 601" stroke="#E3572B" stroke-width="38"/>
<path d="M1079.35 679.786L1169.68 589.461L1260 679.786" stroke="#E3572B" stroke-width="38"/>
<path d="M1746.47 0L1746.47 959" stroke="#21C037" stroke-width="38"/>
<path d="M1836.79 880.203L1746.47 970.528L1656.14 880.203" stroke="#21C037" stroke-width="38"/>
<path d="M1588.04 0L1588.04 835" stroke="#21C037" stroke-width="38"/>
<path d="M1678.37 756.68L1588.04 847.005L1497.72 756.68" stroke="#21C037" stroke-width="38"/>
<path d="M1430.32 0L1430.32 959" stroke="#21C037" stroke-width="38"/>
<path d="M1520.65 880.203L1430.32 970.528L1340 880.203" stroke="#21C037" stroke-width="38"/>
</g>
</svg>
