<svg width="2600" height="1560" viewBox="0 0 2600 1560" fill="none" xmlns="http://www.w3.org/2000/svg">
<path d="M879.772 614.004H842.136C821.361 614.004 804.5 630.804 804.5 651.504C804.5 672.204 821.361 689.004 842.136 689.004H1148.19C1168.96 689.004 1185.82 705.804 1185.82 726.504C1185.82 747.204 1168.96 764.004 1148.19 764.004H918.604C897.829 764.004 880.968 780.804 880.968 801.504C880.968 822.204 897.829 839.004 918.604 839.004H1215.4C1236.18 839.004 1253.04 855.804 1253.04 876.504C1253.04 897.204 1236.18 914.004 1215.4 914.004H1087.52C1066.75 914.004 1049.88 930.804 1049.88 951.504C1049.88 972.204 1066.75 989.004 1087.52 989.004L1429.36 989.004C1450.14 989.004 1467 1005.8 1467 1026.5C1467 1047.2 1450.14 1064 1429.36 1064L1391.73 1064" stroke="#E3572B" stroke-opacity="0.09" stroke-width="37.5" stroke-miterlimit="10"/>
<path d="M1117.26 539H1079.63C1058.86 539 1042 555.8 1042 576.5C1042 597.2 1058.86 614 1079.63 614H1523.86C1544.63 614 1561.49 630.8 1561.49 651.5C1561.49 672.2 1544.63 689 1523.86 689H1299.35C1278.58 689 1261.72 705.8 1261.72 726.5C1261.72 747.2 1278.58 764 1299.35 764H1727.37C1748.14 764 1765 780.8 1765 801.5C1765 822.2 1748.14 839 1727.37 839H1365.56C1344.79 839 1327.93 855.8 1327.93 876.5C1327.93 897.2 1344.79 914 1365.56 914L1666.75 914C1687.52 914 1704.38 930.8 1704.38 951.5C1704.38 972.2 1687.52 989 1666.75 989L1629.12 989" stroke="#E3572B" stroke-opacity="0.09" stroke-width="37.5" stroke-miterlimit="10"/>
</svg>
