<svg width="614" height="560" viewBox="0 0 614 560" fill="none" xmlns="http://www.w3.org/2000/svg">
<g clip-path="url(#clip0)">
<path opacity="0.12" d="M169.157 253.468C187.754 256.909 211.314 259.81 231.281 271.396C251.249 282.982 268.498 303.244 268.231 324.896C268.136 346.534 250.676 369.289 225.459 375.571C200.235 381.724 168.598 377.642 138.519 377.379C108.44 377.116 82.5552 380.662 62.1976 376.843C42.0158 373.007 32.9481 357.447 20.9832 338.248C9.00774 318.922 10.393 294.355 20.5648 279.619C30.5643 264.897 42.0545 257.963 65.7804 252.459C89.3446 247.099 106.432 244.898 121.692 245.599C136.962 246.433 150.572 250.157 169.157 253.468Z" fill="#E3572B"/>
<path d="M138.672 262.785H103.512V353.878H138.672V262.785Z" fill="#873116"/>
<path opacity="0.55" d="M117.575 297.82H110.543V304.827H117.575V297.82Z" fill="#F18360"/>
<path opacity="0.55" d="M131.641 297.82H124.609V304.827H131.641V297.82Z" fill="#F18360"/>
<path opacity="0.55" d="M117.575 283.805H110.543V290.812H117.575V283.805Z" fill="#F18360"/>
<path d="M131.641 283.805H124.609V290.812H131.641V283.805Z" fill="#F18360"/>
<path d="M117.575 269.789H110.543V276.796H117.575V269.789Z" fill="#F18360"/>
<path opacity="0.55" d="M131.641 269.789H124.609V276.796H131.641V269.789Z" fill="#F18360"/>
<path d="M117.575 311.84H110.543V318.847H117.575V311.84Z" fill="#F18360"/>
<path d="M131.641 311.84H124.609V318.847H131.641V311.84Z" fill="#F18360"/>
<path opacity="0.55" d="M117.575 325.848H110.543V332.855H117.575V325.848Z" fill="#F18360"/>
<path d="M131.641 325.848H124.609V332.855H131.641V325.848Z" fill="#F18360"/>
<path opacity="0.55" d="M117.575 339.867H110.543V346.874H117.575V339.867Z" fill="#F18360"/>
<path opacity="0.55" d="M131.641 339.867H124.609V346.874H131.641V339.867Z" fill="#F18360"/>
<path d="M114.059 259.281H107.027V262.785H114.059V259.281Z" fill="#873116"/>
<path d="M114.062 290.812H78.9023V353.877H114.062V290.812Z" fill="#E3572B"/>
<path opacity="0.55" d="M92.9656 297.816H85.9336V304.824H92.9656V297.816Z" fill="#FFB49C"/>
<path d="M107.032 297.816H100V304.824H107.032V297.816Z" fill="#FFB49C"/>
<path d="M92.9656 311.832H85.9336V318.839H92.9656V311.832Z" fill="#FFB49C"/>
<path opacity="0.55" d="M107.032 311.832H100V318.839H107.032V311.832Z" fill="#FFB49C"/>
<path opacity="0.55" d="M92.9656 325.848H85.9336V332.855H92.9656V325.848Z" fill="#FFB49C"/>
<path opacity="0.55" d="M107.032 325.848H100V332.855H107.032V325.848Z" fill="#FFB49C"/>
<path opacity="0.55" d="M92.9656 339.867H85.9336V346.874H92.9656V339.867Z" fill="#FFB49C"/>
<path d="M107.032 339.867H100V346.874H107.032V339.867Z" fill="#FFB49C"/>
<path d="M89.45 287.309H82.418V290.812H89.45V287.309Z" fill="#E3572B"/>
<path d="M241.337 353.873H225.867L229.383 294.312H237.822L241.337 353.873Z" fill="#873116"/>
<path d="M218.482 353.873H203.012L206.528 294.312H214.966L218.482 353.873Z" fill="#873116"/>
<path d="M170.311 353.882H149.215V308.336L170.311 318.847V353.882Z" fill="#E3572B"/>
<path opacity="0.55" d="M163.278 325.852H156.246V332.859H163.278V325.852Z" fill="#FFB49C"/>
<path d="M163.278 339.867H156.246V346.874H163.278V339.867Z" fill="#FFB49C"/>
<path d="M191.412 353.882H170.316V308.336L191.412 318.847V353.882Z" fill="#E3572B"/>
<path d="M177.348 325.852H170.316V332.859H177.348V325.852Z" fill="#FFB49C"/>
<path opacity="0.55" d="M177.348 339.867H170.316V346.874H177.348V339.867Z" fill="#FFB49C"/>
<path opacity="0.55" d="M191.415 325.852H184.383V332.859H191.415V325.852Z" fill="#FFB49C"/>
<path opacity="0.55" d="M191.415 339.867H184.383V346.874H191.415V339.867Z" fill="#FFB49C"/>
<path d="M212.502 353.882H191.406V308.336L212.502 318.847V353.882Z" fill="#E3572B"/>
<path opacity="0.55" d="M205.469 325.852H198.438V332.859H205.469V325.852Z" fill="#FFB49C"/>
<path d="M205.469 339.867H198.438V346.874H205.469V339.867Z" fill="#FFB49C"/>
<path d="M82.4134 283.804H87.6874C88.6578 283.804 89.4454 283.019 89.4454 282.052C89.4454 281.085 88.6578 280.3 87.6874 280.3H73.6235C72.653 280.3 71.8655 279.515 71.8655 278.548C71.8655 277.581 72.653 276.797 73.6235 276.797H80.6554C81.6258 276.797 82.4134 276.012 82.4134 275.045C82.4134 274.078 81.6258 273.293 80.6554 273.293H63.0755C62.1051 273.293 61.3175 274.078 61.3175 275.045C61.3175 276.012 62.1051 276.797 63.0755 276.797H66.5915C67.5619 276.797 68.3495 277.581 68.3495 278.548C68.3495 279.515 67.5619 280.3 66.5915 280.3H52.5275C51.5571 280.3 50.7695 279.515 50.7695 278.548C50.7695 277.581 51.5571 276.797 52.5275 276.797H57.8015" stroke="#A57F73" stroke-width="1.75179" stroke-miterlimit="10"/>
<path d="M207.235 290.815H212.509C213.48 290.815 214.267 290.031 214.267 289.064C214.267 288.097 213.48 287.312 212.509 287.312H198.445C197.475 287.312 196.687 286.527 196.687 285.56C196.687 284.593 197.475 283.808 198.445 283.808H205.477C206.448 283.808 207.235 283.023 207.235 282.056C207.235 281.089 206.448 280.305 205.477 280.305H184.381C183.411 280.305 182.623 281.089 182.623 282.056C182.623 283.023 183.411 283.808 184.381 283.808H191.413C192.384 283.808 193.171 284.593 193.171 285.56C193.171 286.527 192.384 287.312 191.413 287.312H173.833C172.863 287.312 172.075 286.527 172.075 285.56C172.075 284.593 172.863 283.808 173.833 283.808H177.349C178.32 283.808 179.107 283.023 179.107 282.056C179.107 281.089 178.32 280.305 177.349 280.305H163.285C162.315 280.305 161.527 281.089 161.527 282.056C161.527 283.023 162.315 283.808 163.285 283.808H168.559" stroke="#A57F73" stroke-width="1.75179" stroke-miterlimit="10"/>
<path d="M50.7725 322.342H52.5304C53.5009 322.342 54.2884 321.557 54.2884 320.59C54.2884 319.623 53.5009 318.839 52.5304 318.839H38.4665C37.4961 318.839 36.7085 318.054 36.7085 317.087C36.7085 316.12 37.4961 315.335 38.4665 315.335H45.4985C46.4689 315.335 47.2565 314.55 47.2565 313.583C47.2565 312.616 46.4689 311.831 45.4985 311.831H31.4345C30.4641 311.831 29.6765 311.047 29.6765 310.08C29.6765 309.113 30.4641 308.328 31.4345 308.328H38.4665C39.4369 308.328 40.2245 307.543 40.2245 306.576C40.2245 305.609 39.4369 304.824 38.4665 304.824H24.4025C23.4321 304.824 22.6445 305.609 22.6445 306.576C22.6445 307.543 23.4321 308.328 24.4025 308.328H26.1605" stroke="#A57F73" stroke-width="1.75179" stroke-miterlimit="10"/>
<path d="M163.284 255.776H150.978C150.007 255.776 149.22 254.991 149.22 254.024C149.22 253.057 150.007 252.272 150.978 252.272H154.494C155.464 252.272 156.252 251.488 156.252 250.521C156.252 249.554 155.464 248.769 154.494 248.769H147.462C146.491 248.769 145.704 247.984 145.704 247.017C145.704 246.05 146.491 245.265 147.462 245.265H150.978C151.948 245.265 152.736 244.48 152.736 243.514C152.736 242.547 151.948 241.762 150.978 241.762H140.43C139.459 241.762 138.672 242.547 138.672 243.514C138.672 244.48 139.459 245.265 140.43 245.265H142.188" stroke="#A57F73" stroke-width="1.75179" stroke-miterlimit="10"/>
<path d="M107.025 255.776H112.299C113.269 255.776 114.057 254.991 114.057 254.024C114.057 253.057 113.269 252.272 112.299 252.272H101.751C100.781 252.272 99.993 251.487 99.993 250.52C99.993 249.553 100.781 248.769 101.751 248.769H105.267C106.237 248.769 107.025 247.984 107.025 247.017C107.025 246.05 106.237 245.265 105.267 245.265H84.171C83.2006 245.265 82.413 246.05 82.413 247.017C82.413 247.984 83.2006 248.769 84.171 248.769H94.719C95.6894 248.769 96.477 249.553 96.477 250.52C96.477 251.487 95.6894 252.272 94.719 252.272H73.6231C72.6527 252.272 71.8651 251.487 71.8651 250.52C71.8651 249.553 72.6527 248.769 73.6231 248.769H77.1391C78.1095 248.769 78.897 247.984 78.897 247.017C78.897 246.05 78.1095 245.265 77.1391 245.265H66.5911C65.6207 245.265 64.8331 244.48 64.8331 243.513C64.8331 242.546 65.6207 241.761 66.5911 241.761H91.203C92.1734 241.761 92.961 240.977 92.961 240.01C92.961 239.043 92.1734 238.258 91.203 238.258H56.0431C55.0727 238.258 54.2852 239.043 54.2852 240.01C54.2852 240.977 55.0727 241.761 56.0431 241.761H61.3171" stroke="#A57F73" stroke-width="1.75179" stroke-miterlimit="10"/>
<path d="M237.118 290.811H231.844C230.874 290.811 230.086 290.026 230.086 289.059C230.086 288.092 230.874 287.307 231.844 287.307H242.392C243.362 287.307 244.15 286.522 244.15 285.555C244.15 284.589 243.362 283.804 242.392 283.804H238.876C237.906 283.804 237.118 283.019 237.118 282.052C237.118 281.085 237.906 280.3 238.876 280.3H259.972C260.942 280.3 261.73 281.085 261.73 282.052C261.73 283.019 260.942 283.804 259.972 283.804H249.424C248.453 283.804 247.666 284.589 247.666 285.555C247.666 286.522 248.453 287.307 249.424 287.307H270.52C271.49 287.307 272.278 286.522 272.278 285.555C272.278 284.589 271.49 283.804 270.52 283.804H267.004C266.033 283.804 265.246 283.019 265.246 282.052C265.246 281.085 266.033 280.3 267.004 280.3H277.552C278.522 280.3 279.31 279.515 279.31 278.548C279.31 277.581 278.522 276.797 277.552 276.797H252.94C251.969 276.797 251.182 276.012 251.182 275.045C251.182 274.078 251.969 273.293 252.94 273.293H288.1C289.07 273.293 289.858 274.078 289.858 275.045C289.858 276.012 289.07 276.797 288.1 276.797H282.826" stroke="#A57F73" stroke-width="1.75179" stroke-miterlimit="10"/>
<path d="M68.3498 353.876H47.2539V336.358L57.8019 325.848L68.3498 336.358V353.876Z" fill="#E3572B"/>
<path d="M61.3171 339.867H54.2852V346.874H61.3171V339.867Z" fill="#FFB49C"/>
<path d="M54.2855 325.848H50.7695V332.855H54.2855V325.848Z" fill="#E3572B"/>
<path d="M244.151 332.852H223.055V353.873H244.151V332.852Z" fill="#E3572B"/>
<path d="M237.118 339.855H230.086V346.863H237.118V339.855Z" fill="#FFB49C"/>
<path d="M201.957 259.276H172.29C169.062 259.276 166.249 257.086 165.469 253.968L163.285 245.262H166.801L172.075 252.269H194.929C198.807 252.269 201.957 255.405 201.957 259.276Z" fill="#E3572B"/>
<path d="M195.629 256.825C196.212 256.825 196.684 256.354 196.684 255.774C196.684 255.193 196.212 254.723 195.629 254.723C195.046 254.723 194.574 255.193 194.574 255.774C194.574 256.354 195.046 256.825 195.629 256.825Z" fill="white"/>
<path d="M191.758 256.825C192.34 256.825 192.813 256.354 192.813 255.774C192.813 255.193 192.34 254.723 191.758 254.723C191.175 254.723 190.703 255.193 190.703 255.774C190.703 256.354 191.175 256.825 191.758 256.825Z" fill="white"/>
<path d="M175.695 266.284H172.066L180.856 255.773H186.13L178.395 265.023C177.731 265.822 176.739 266.284 175.695 266.284Z" fill="#873116"/>
<path d="M259.092 367.892H18.2464C16.7907 367.892 15.6094 366.715 15.6094 365.264C15.6094 363.814 16.7907 362.637 18.2464 362.637H259.092C260.547 362.637 261.729 363.814 261.729 365.264C261.729 366.715 260.547 367.892 259.092 367.892Z" fill="#958F8D"/>
<path d="M242.392 360.881C242.392 359.914 243.18 359.129 244.15 359.129H40.2227C41.1931 359.129 41.9807 359.914 41.9807 360.881C41.9807 361.848 41.1931 362.632 40.2227 362.632H244.15C243.18 362.632 242.392 361.848 242.392 360.881Z" fill="#958F8D"/>
<path d="M266.128 353.875H25.3918C23.9467 353.875 22.688 354.982 22.6458 356.422C22.6001 357.911 23.799 359.13 25.2828 359.13H52.5317C53.5021 359.13 54.2897 359.915 54.2897 360.882C54.2897 361.849 55.0773 362.634 56.0477 362.634H63.0796C64.0501 362.634 64.8376 363.419 64.8376 364.386C64.8376 365.353 65.6252 366.138 66.5956 366.138H78.9016C79.872 366.138 80.6596 365.353 80.6596 364.386C80.6596 363.419 79.872 362.634 78.9016 362.634H77.1436C76.1732 362.634 75.3856 361.849 75.3856 360.882C75.3856 359.915 76.1732 359.13 77.1436 359.13H110.897C111.867 359.13 112.655 359.915 112.655 360.882C112.655 361.849 111.867 362.634 110.897 362.634H102.107C101.137 362.634 100.349 363.419 100.349 364.386C100.349 365.353 101.137 366.138 102.107 366.138H126.719C127.689 366.138 128.477 365.353 128.477 364.386C128.477 363.419 129.265 362.634 130.235 362.634H144.299C145.269 362.634 146.057 361.849 146.057 360.882C146.057 359.915 146.845 359.13 147.815 359.13H166.801C167.772 359.13 168.559 359.915 168.559 360.882C168.559 361.849 167.772 362.634 166.801 362.634H158.011C157.041 362.634 156.253 363.419 156.253 364.386C156.253 365.353 157.041 366.138 158.011 366.138H175.591C176.562 366.138 177.349 365.353 177.349 364.386C177.349 363.419 178.137 362.634 179.107 362.634H189.655C190.626 362.634 191.413 361.849 191.413 360.882C191.413 359.915 192.201 359.13 193.171 359.13H203.719C204.69 359.13 205.477 359.915 205.477 360.882C205.477 361.849 206.265 362.634 207.235 362.634H208.993C209.964 362.634 210.751 363.419 210.751 364.386C210.751 365.353 211.539 366.138 212.509 366.138H224.815C225.785 366.138 226.573 365.353 226.573 364.386C226.573 363.419 225.785 362.634 224.815 362.634H217.783C216.813 362.634 216.025 361.849 216.025 360.882C216.025 359.915 216.813 359.13 217.783 359.13H266.019C267.464 359.13 268.723 358.023 268.765 356.583C268.807 355.094 267.612 353.875 266.128 353.875Z" fill="#B5B2B1"/>
<path opacity="0.12" d="M371.089 264.2C425.884 236.788 574.486 233.134 588.202 293.866C608.767 384.916 540.262 380.995 493.972 377.186C462.781 374.617 434.872 375.837 401.462 378.724C341.087 383.936 316.293 291.613 371.089 264.2Z" fill="#21C037"/>
<path d="M435.284 332.823C429.479 332.823 424.773 328.117 424.773 322.312V304.795C424.773 298.99 429.479 294.285 435.284 294.285C441.089 294.285 445.794 298.99 445.794 304.795V322.312C445.794 328.117 441.089 332.823 435.284 332.823Z" fill="#009343"/>
<path d="M435.285 353.847V306.551" stroke="#035B2C" stroke-width="1.7517" stroke-miterlimit="10"/>
<path d="M430.027 310.051L435.282 315.306" stroke="#035B2C" stroke-width="1.7517" stroke-miterlimit="10"/>
<path d="M440.54 318.805L435.285 324.06" stroke="#035B2C" stroke-width="1.7517" stroke-miterlimit="10"/>
<path d="M522.862 332.822C517.057 332.822 512.352 328.117 512.352 322.312V301.291C512.352 295.486 517.057 290.781 522.862 290.781C528.667 290.781 533.372 295.486 533.372 301.291V322.312C533.372 328.117 528.667 332.822 522.862 332.822Z" fill="#009343"/>
<path d="M522.863 353.846V303.047" stroke="#035B2C" stroke-width="1.7517" stroke-miterlimit="10"/>
<path d="M517.605 306.551L522.861 311.806" stroke="#035B2C" stroke-width="1.7517" stroke-miterlimit="10"/>
<path d="M528.118 318.809L522.863 324.064" stroke="#035B2C" stroke-width="1.7517" stroke-miterlimit="10"/>
<path d="M421.268 343.336C415.463 343.336 410.758 338.631 410.758 332.826V325.819C410.758 320.014 415.463 315.309 421.268 315.309C427.073 315.309 431.778 320.014 431.778 325.819V332.826C431.778 338.631 427.073 343.336 421.268 343.336Z" fill="#21C037"/>
<path d="M421.27 353.844V329.32" stroke="#035B2C" stroke-width="1.7517" stroke-miterlimit="10"/>
<path d="M491.334 339.826C485.529 339.826 480.824 335.121 480.824 329.316V311.799C480.824 305.994 485.529 301.289 491.334 301.289C497.14 301.289 501.845 305.994 501.845 311.799V329.316C501.845 335.121 497.14 339.826 491.334 339.826Z" fill="#009343"/>
<path d="M491.332 357.341V311.797" stroke="#035B2C" stroke-width="1.7517" stroke-miterlimit="10"/>
<path d="M486.078 325.809L491.333 331.064" stroke="#035B2C" stroke-width="1.7517" stroke-miterlimit="10"/>
<path d="M496.587 318.805L491.332 324.06" stroke="#035B2C" stroke-width="1.7517" stroke-miterlimit="10"/>
<path d="M515.685 318.922C515.261 316.795 515.275 316.82 515.275 313.201C515.275 308.706 511.614 305.027 507.102 305.027C502.589 305.027 498.928 308.706 498.928 313.201C498.928 316.823 498.946 316.795 498.518 318.922C497.702 323.01 494.84 325.168 494.84 331.184C494.84 337.725 500.33 343.446 507.102 343.446C513.874 343.446 519.364 337.725 519.364 331.184C519.364 325.168 516.501 323.01 515.685 318.922Z" fill="#21C037"/>
<path d="M507.102 357.695V317.406" stroke="#035B2C" stroke-width="1.7517" stroke-miterlimit="10"/>
<path d="M512.357 331.414L507.102 336.669" stroke="#035B2C" stroke-width="1.7517" stroke-miterlimit="10"/>
<path d="M501.848 324.414L507.103 329.669" stroke="#035B2C" stroke-width="1.7517" stroke-miterlimit="10"/>
<path d="M378.176 332.816C385.915 332.816 392.189 339.091 392.189 346.83C384.45 346.83 378.176 340.555 378.176 332.816Z" fill="#009343"/>
<path d="M390.789 346.83C390.789 339.091 397.064 332.816 404.803 332.816C404.803 340.555 398.528 346.83 390.789 346.83Z" fill="#21C037"/>
<path d="M391.488 353.835V346.128L398.495 339.121" stroke="#035B2C" stroke-width="1.7517" stroke-miterlimit="10"/>
<path d="M391.487 353.835V346.128L384.48 339.121" stroke="#035B2C" stroke-width="1.7517" stroke-miterlimit="10"/>
<path d="M449.996 334.574C457.735 334.574 464.01 340.849 464.01 348.588C456.271 348.588 449.996 342.313 449.996 334.574Z" fill="#009343"/>
<path d="M462.609 348.588C462.609 340.849 468.884 334.574 476.623 334.574C476.623 342.313 470.348 348.588 462.609 348.588Z" fill="#21C037"/>
<path d="M463.309 353.841V347.886L470.315 340.879" stroke="#035B2C" stroke-width="1.7517" stroke-miterlimit="10"/>
<path d="M463.311 353.841V347.886L456.305 340.879" stroke="#035B2C" stroke-width="1.7517" stroke-miterlimit="10"/>
<path d="M355.402 336.332C363.141 336.332 369.416 342.607 369.416 350.346C361.677 350.346 355.402 344.071 355.402 336.332Z" fill="#009343"/>
<path d="M368.016 350.346C368.016 342.607 374.29 336.332 382.029 336.332C382.029 344.071 375.755 350.346 368.016 350.346Z" fill="#21C037"/>
<path d="M368.715 353.848V349.644L375.722 342.637" stroke="#035B2C" stroke-width="1.7517" stroke-miterlimit="10"/>
<path d="M368.714 353.848V349.644L361.707 342.637" stroke="#035B2C" stroke-width="1.7517" stroke-miterlimit="10"/>
<path d="M551.594 332.816C559.333 332.816 565.607 339.091 565.607 346.83C557.868 346.83 551.594 340.555 551.594 332.816Z" fill="#009343"/>
<path d="M564.207 346.83C564.207 339.091 570.482 332.816 578.221 332.816C578.221 340.555 571.946 346.83 564.207 346.83Z" fill="#21C037"/>
<path d="M564.906 353.835V346.128L571.913 339.121" stroke="#035B2C" stroke-width="1.7517" stroke-miterlimit="10"/>
<path d="M564.905 353.835V346.128L557.898 339.121" stroke="#035B2C" stroke-width="1.7517" stroke-miterlimit="10"/>
<path d="M537.582 329.316C545.321 329.316 551.596 335.591 551.596 343.33C543.857 343.33 537.582 337.055 537.582 329.316Z" fill="#009343"/>
<path d="M550.195 343.33C550.195 335.591 556.47 329.316 564.209 329.316C564.209 337.055 557.934 343.33 550.195 343.33Z" fill="#21C037"/>
<path d="M550.895 350.335V342.628L557.901 335.621" stroke="#035B2C" stroke-width="1.7517" stroke-miterlimit="10"/>
<path d="M550.897 353.839V342.628L543.891 335.621" stroke="#035B2C" stroke-width="1.7517" stroke-miterlimit="10"/>
<path d="M343.315 367.853H600.815C602.265 367.853 603.443 366.676 603.443 365.225C603.443 363.775 602.265 362.598 600.815 362.598H343.315C341.865 362.598 340.688 363.775 340.688 365.225C340.688 366.676 341.865 367.853 343.315 367.853Z" fill="#B18D69"/>
<path d="M359.955 360.849C359.955 359.882 359.17 359.098 358.203 359.098H578.917C577.95 359.098 577.166 359.882 577.166 360.849C577.166 361.816 577.95 362.601 578.917 362.601H358.203C359.17 362.601 359.955 361.816 359.955 360.849Z" fill="#B18D69"/>
<path d="M336.308 353.84H593.7C595.14 353.84 596.394 354.947 596.436 356.387C596.481 357.876 595.287 359.095 593.808 359.095H566.657C565.69 359.095 564.905 359.88 564.905 360.847C564.905 361.814 564.12 362.598 563.154 362.598H556.147C555.18 362.598 554.395 363.383 554.395 364.35C554.395 365.317 553.61 366.102 552.643 366.102H533.375C532.408 366.102 531.623 365.317 531.623 364.35C531.623 363.383 532.408 362.598 533.375 362.598H535.126C536.093 362.598 536.878 361.814 536.878 360.847C536.878 359.88 536.093 359.095 535.126 359.095H501.494C500.527 359.095 499.742 359.88 499.742 360.847C499.742 361.814 500.527 362.598 501.494 362.598H510.252C511.219 362.598 512.004 363.383 512.004 364.35C512.004 365.317 511.219 366.102 510.252 366.102H485.728C484.761 366.102 483.977 365.317 483.977 364.35C483.977 363.383 483.192 362.598 482.225 362.598H468.211C467.244 362.598 466.46 361.814 466.46 360.847C466.46 359.88 465.675 359.095 464.708 359.095H445.79C444.823 359.095 444.038 359.88 444.038 360.847C444.038 361.814 444.823 362.598 445.79 362.598H454.548C455.515 362.598 456.3 363.383 456.3 364.35C456.3 365.317 455.515 366.102 454.548 366.102H437.031C436.064 366.102 435.279 365.317 435.279 364.35C435.279 363.383 434.495 362.598 433.528 362.598H423.017C422.051 362.598 421.266 361.814 421.266 360.847C421.266 359.88 420.481 359.095 419.514 359.095H409.004C408.037 359.095 407.252 359.88 407.252 360.847C407.252 361.814 406.467 362.598 405.5 362.598H403.749C402.782 362.598 401.997 363.383 401.997 364.35C401.997 365.317 401.212 366.102 400.245 366.102H373.97C373.003 366.102 372.218 365.317 372.218 364.35C372.218 363.383 373.003 362.598 373.97 362.598H391.487C392.454 362.598 393.239 361.814 393.239 360.847C393.239 359.88 392.454 359.095 391.487 359.095H336.417C334.977 359.095 333.723 357.988 333.681 356.548C333.639 355.059 334.83 353.84 336.308 353.84Z" fill="#CFA983"/>
<path d="M387.714 93.9574C387.714 90.6489 390.4 87.9638 393.708 87.9638H405.695C409.004 87.9638 411.689 85.2786 411.689 81.9702C411.689 78.6617 409.004 75.9766 405.695 75.9766H345.759C342.451 75.9766 339.766 78.6617 339.766 81.9702C339.766 85.2786 342.451 87.9638 345.759 87.9638H369.734C373.042 87.9638 375.727 90.6489 375.727 93.9574C375.727 97.2658 373.042 99.951 369.734 99.951H357.147C353.839 99.951 351.153 102.636 351.153 105.945C351.153 109.253 353.839 111.938 357.147 111.938H417.682C420.991 111.938 423.676 109.253 423.676 105.945C423.676 102.636 420.991 99.951 417.682 99.951H393.708C390.4 99.951 387.714 97.2658 387.714 93.9574Z" fill="#A57F73" fill-opacity="0.07"/>
<path d="M393.708 86.9648C389.848 86.9648 386.716 90.0972 386.716 93.9574C386.716 97.8175 389.848 100.95 393.708 100.95H417.682C420.439 100.95 422.677 103.188 422.677 105.945C422.677 108.701 420.439 110.939 417.682 110.939H357.147C354.39 110.939 352.152 108.701 352.152 105.945C352.152 103.188 354.39 100.95 357.147 100.95H369.734C373.594 100.95 376.726 97.8175 376.726 93.9574C376.726 90.0972 373.594 86.9648 369.734 86.9648H345.759C343.002 86.9648 340.765 84.7269 340.765 81.9702C340.765 79.2134 343.002 76.9755 345.759 76.9755H405.695C408.452 76.9755 410.69 79.2134 410.69 81.9702C410.69 84.7269 408.452 86.9648 405.695 86.9648H393.708Z" stroke="#A57F73" stroke-opacity="0.4" stroke-width="1.99787"/>
<path d="M303.206 117.934C303.206 114.625 300.52 111.94 297.212 111.94H279.231C275.923 111.94 273.238 109.255 273.238 105.947C273.238 102.638 275.923 99.9531 279.231 99.9531H333.174C336.482 99.9531 339.167 102.638 339.167 105.947C339.167 109.255 336.482 111.94 333.174 111.94H321.186C317.878 111.94 315.193 114.625 315.193 117.934C315.193 121.242 317.878 123.928 321.186 123.928H369.135C372.444 123.928 375.129 126.613 375.129 129.921C375.129 133.23 372.444 135.915 369.135 135.915H249.263C245.955 135.915 243.27 133.23 243.27 129.921C243.27 126.613 245.955 123.928 249.263 123.928H297.212C300.52 123.928 303.206 121.242 303.206 117.934Z" fill="#A57F73" fill-opacity="0.07"/>
<path d="M304.204 117.934C304.204 114.074 301.072 110.941 297.212 110.941H279.231C276.474 110.941 274.236 108.703 274.236 105.947C274.236 103.19 276.474 100.952 279.231 100.952H333.174C335.93 100.952 338.168 103.19 338.168 105.947C338.168 108.703 335.93 110.941 333.174 110.941H321.186C317.326 110.941 314.194 114.074 314.194 117.934C314.194 121.794 317.326 124.926 321.186 124.926H369.135C371.892 124.926 374.13 127.164 374.13 129.921C374.13 132.678 371.892 134.916 369.135 134.916H249.263C246.506 134.916 244.268 132.678 244.268 129.921C244.268 127.164 246.506 124.926 249.263 124.926H297.212C301.072 124.926 304.204 121.794 304.204 117.934Z" stroke="#A57F73" stroke-opacity="0.4" stroke-width="1.99787"/>
<path d="M298.409 69.9801C298.409 73.2886 295.724 75.9737 292.415 75.9737H286.421C283.113 75.9737 280.428 78.6589 280.428 81.9673C280.428 85.2758 283.113 87.9609 286.421 87.9609H322.383C325.692 87.9609 328.377 85.2758 328.377 81.9673C328.377 78.6589 325.692 75.9737 322.383 75.9737H316.389C313.081 75.9737 310.396 73.2886 310.396 69.9801C310.396 66.6717 313.081 63.9865 316.389 63.9865H346.357C349.666 63.9865 352.351 61.3014 352.351 57.9929C352.351 54.6845 349.666 51.9993 346.357 51.9993H244.466C241.158 51.9993 238.473 54.6845 238.473 57.9929C238.473 61.3014 241.158 63.9865 244.466 63.9865H292.415C295.724 63.9865 298.409 66.6717 298.409 69.9801Z" fill="#A57F73" fill-opacity="0.07"/>
<path d="M299.408 69.9801C299.408 73.8403 296.275 76.9727 292.415 76.9727H286.421C283.665 76.9727 281.427 79.2106 281.427 81.9673C281.427 84.7241 283.665 86.962 286.421 86.962H322.383C325.14 86.962 327.378 84.7241 327.378 81.9673C327.378 79.2106 325.14 76.9727 322.383 76.9727H316.389C312.529 76.9727 309.397 73.8403 309.397 69.9801C309.397 66.12 312.529 62.9876 316.389 62.9876H346.357C349.114 62.9876 351.352 60.7497 351.352 57.9929C351.352 55.2362 349.114 52.9983 346.357 52.9983H244.466C241.709 52.9983 239.472 55.2362 239.472 57.9929C239.472 60.7497 241.709 62.9876 244.466 62.9876H292.415C296.275 62.9876 299.408 66.12 299.408 69.9801Z" stroke="#A57F73" stroke-opacity="0.4" stroke-width="1.99787"/>
<path d="M226.485 93.9574C226.485 90.6489 223.8 87.9638 220.491 87.9638H208.504C205.196 87.9638 202.511 85.2786 202.511 81.9702C202.511 78.6617 205.196 75.9766 208.504 75.9766H262.447C265.755 75.9766 268.44 78.6617 268.44 81.9702C268.44 85.2786 265.755 87.9638 262.447 87.9638H244.466C241.157 87.9638 238.472 90.6489 238.472 93.9574C238.472 97.2658 241.157 99.951 244.466 99.951H255.254C258.563 99.951 261.248 102.636 261.248 105.945C261.248 109.253 258.563 111.938 255.254 111.938H196.517C193.209 111.938 190.523 109.253 190.523 105.945C190.523 102.636 193.209 99.951 196.517 99.951H220.491C223.8 99.951 226.485 97.2658 226.485 93.9574Z" fill="#A57F73" fill-opacity="0.07"/>
<path d="M227.484 93.9574C227.484 90.0972 224.352 86.9648 220.491 86.9648H208.504C205.747 86.9648 203.51 84.7269 203.51 81.9702C203.51 79.2134 205.747 76.9755 208.504 76.9755H262.447C265.203 76.9755 267.441 79.2134 267.441 81.9702C267.441 84.7269 265.203 86.9648 262.447 86.9648H244.466C240.606 86.9648 237.473 90.0972 237.473 93.9574C237.473 97.8175 240.606 100.95 244.466 100.95H255.254C258.011 100.95 260.249 103.188 260.249 105.945C260.249 108.701 258.011 110.939 255.254 110.939H196.517C193.76 110.939 191.522 108.701 191.522 105.945C191.522 103.188 193.76 100.95 196.517 100.95H220.491C224.352 100.95 227.484 97.8175 227.484 93.9574Z" stroke="#A57F73" stroke-opacity="0.4" stroke-width="1.99787"/>
<path d="M240.323 90.532H243.17C242.886 88.2138 240.818 86.5717 238.124 86.5717C235.016 86.5717 232.562 88.7592 232.562 92.5661C232.562 96.2479 234.823 98.5263 238.158 98.5263C241.153 98.5263 243.295 96.6683 243.295 93.5433V92.0036H238.278V94.0547H240.585C240.556 95.282 239.704 96.0604 238.181 96.0604C236.437 96.0604 235.431 94.7706 235.431 92.532C235.431 90.3104 236.494 89.0376 238.181 89.0376C239.306 89.0376 240.073 89.5888 240.323 90.532ZM244.953 98.3672H247.731V93.6286C247.731 92.5888 248.47 91.8899 249.464 91.8899C249.793 91.8899 250.288 91.9467 250.555 92.0376V89.6229C250.322 89.5604 250.032 89.5206 249.776 89.5206C248.822 89.5206 248.06 90.0774 247.742 91.2308H247.651V89.6399H244.953V98.3672ZM255.313 98.532C257.603 98.532 259.109 97.424 259.427 95.7081L256.876 95.6342C256.66 96.2138 256.092 96.5263 255.364 96.5263C254.296 96.5263 253.637 95.8161 253.637 94.7479V94.674H259.455V93.9808C259.455 91.1058 257.705 89.5263 255.228 89.5263C252.592 89.5263 250.899 91.3331 250.899 94.0376C250.899 96.8331 252.569 98.532 255.313 98.532ZM253.637 93.0604C253.677 92.1911 254.364 91.532 255.285 91.532C256.2 91.532 256.859 92.1683 256.87 93.0604H253.637ZM264.954 98.532C267.244 98.532 268.749 97.424 269.068 95.7081L266.516 95.6342C266.301 96.2138 265.732 96.5263 265.005 96.5263C263.937 96.5263 263.278 95.8161 263.278 94.7479V94.674H269.096V93.9808C269.096 91.1058 267.346 89.5263 264.869 89.5263C262.232 89.5263 260.539 91.3331 260.539 94.0376C260.539 96.8331 262.21 98.532 264.954 98.532ZM263.278 93.0604C263.318 92.1911 264.005 91.532 264.926 91.532C265.84 91.532 266.499 92.1683 266.511 93.0604H263.278ZM273.293 93.3899C273.299 92.3956 273.879 91.8047 274.759 91.8047C275.64 91.8047 276.163 92.3842 276.157 93.3501V98.3672H278.935V92.8047C278.941 90.8388 277.742 89.5263 275.907 89.5263C274.617 89.5263 273.64 90.1797 273.254 91.2422H273.157V89.6399H270.515V98.3672H273.293V93.3899ZM283.434 93.3899C283.44 92.3956 284.031 91.8047 284.911 91.8047C285.803 91.8047 286.32 92.3786 286.315 93.3501V98.3672H289.093V92.8047C289.099 90.8274 287.894 89.5263 286.059 89.5263C284.752 89.5263 283.832 90.1683 283.44 91.2422H283.343V86.7308H280.656V98.3672H283.434V93.3899ZM294.901 98.532C297.646 98.532 299.31 96.7195 299.31 94.032C299.31 91.3388 297.646 89.5263 294.901 89.5263C292.157 89.5263 290.492 91.3388 290.492 94.032C290.492 96.7195 292.157 98.532 294.901 98.532ZM294.918 96.4354C293.89 96.4354 293.322 95.4581 293.322 94.0149C293.322 92.5661 293.89 91.5831 294.918 91.5831C295.913 91.5831 296.481 92.5661 296.481 94.0149C296.481 95.4581 295.913 96.4354 294.918 96.4354ZM306.364 94.6001C306.364 95.6172 305.717 96.1854 304.893 96.1854C304.041 96.1854 303.518 95.6058 303.512 94.657V89.6399H300.734V95.2024C300.739 97.174 301.938 98.4808 303.734 98.4808C305.041 98.4808 306.012 97.8104 306.399 96.7422H306.489V98.3672H309.137V89.6399H306.364V94.6001ZM318.525 92.3047C318.377 90.5774 316.962 89.5263 314.599 89.5263C312.235 89.5263 310.729 90.5547 310.741 92.3047C310.729 93.6456 311.587 94.5092 313.332 94.8331L314.854 95.1229C315.576 95.2649 315.906 95.4922 315.917 95.8786C315.906 96.3161 315.417 96.6058 314.707 96.6058C313.917 96.6058 313.383 96.2649 313.264 95.6286L310.519 95.6967C310.718 97.424 312.201 98.532 314.695 98.532C317.031 98.532 318.729 97.3672 318.741 95.5717C318.729 94.299 317.889 93.5433 316.15 93.2081L314.468 92.8899C313.729 92.7422 313.491 92.4808 313.497 92.1456C313.491 91.7024 314.008 91.4297 314.65 91.4297C315.383 91.4297 315.894 91.8217 315.974 92.3729L318.525 92.3047ZM324.188 98.532C326.478 98.532 327.984 97.424 328.302 95.7081L325.751 95.6342C325.535 96.2138 324.967 96.5263 324.239 96.5263C323.171 96.5263 322.512 95.8161 322.512 94.7479V94.674H328.33V93.9808C328.33 91.1058 326.58 89.5263 324.103 89.5263C321.467 89.5263 319.774 91.3331 319.774 94.0376C319.774 96.8331 321.444 98.532 324.188 98.532ZM322.512 93.0604C322.552 92.1911 323.239 91.532 324.16 91.532C325.075 91.532 325.734 92.1683 325.745 93.0604H322.512ZM340.823 90.532H343.67C343.386 88.2138 341.318 86.5717 338.624 86.5717C335.516 86.5717 333.062 88.7592 333.062 92.5661C333.062 96.2479 335.323 98.5263 338.658 98.5263C341.653 98.5263 343.795 96.6683 343.795 93.5433V92.0036H338.778V94.0547H341.085C341.056 95.282 340.204 96.0604 338.681 96.0604C336.937 96.0604 335.931 94.7706 335.931 92.532C335.931 90.3104 336.994 89.0376 338.681 89.0376C339.806 89.0376 340.573 89.5888 340.823 90.532ZM347.913 98.5149C349.129 98.5149 349.97 98.0433 350.447 97.1513H350.515V98.3672H353.129V92.4354C353.129 90.5888 351.487 89.5263 349.265 89.5263C346.918 89.5263 345.589 90.7081 345.367 92.299L347.93 92.3899C348.049 91.8331 348.509 91.4922 349.242 91.4922C349.924 91.4922 350.356 91.8217 350.356 92.407V92.4354C350.356 92.9695 349.776 93.0831 348.288 93.2138C346.521 93.3615 345.043 94.0149 345.043 95.9467C345.043 97.674 346.242 98.5149 347.913 98.5149ZM348.771 96.6967C348.129 96.6967 347.674 96.3899 347.674 95.8104C347.674 95.2479 348.117 94.907 348.907 94.7876C349.424 94.7138 350.06 94.6001 350.373 94.4354V95.2649C350.373 96.1172 349.657 96.6967 348.771 96.6967ZM362.447 92.3047C362.299 90.5774 360.884 89.5263 358.521 89.5263C356.157 89.5263 354.651 90.5547 354.663 92.3047C354.651 93.6456 355.509 94.5092 357.254 94.8331L358.776 95.1229C359.498 95.2649 359.828 95.4922 359.839 95.8786C359.828 96.3161 359.339 96.6058 358.629 96.6058C357.839 96.6058 357.305 96.2649 357.185 95.6286L354.441 95.6967C354.64 97.424 356.123 98.532 358.617 98.532C360.953 98.532 362.651 97.3672 362.663 95.5717C362.651 94.299 361.81 93.5433 360.072 93.2081L358.39 92.8899C357.651 92.7422 357.413 92.4808 357.418 92.1456C357.413 91.7024 357.93 91.4297 358.572 91.4297C359.305 91.4297 359.816 91.8217 359.896 92.3729L362.447 92.3047ZM368.11 98.532C370.4 98.532 371.906 97.424 372.224 95.7081L369.673 95.6342C369.457 96.2138 368.889 96.5263 368.161 96.5263C367.093 96.5263 366.434 95.8161 366.434 94.7479V94.674H372.252V93.9808C372.252 91.1058 370.502 89.5263 368.025 89.5263C365.389 89.5263 363.695 91.3331 363.695 94.0376C363.695 96.8331 365.366 98.532 368.11 98.532ZM366.434 93.0604C366.474 92.1911 367.161 91.532 368.082 91.532C368.997 91.532 369.656 92.1683 369.667 93.0604H366.434ZM381.291 92.3047C381.143 90.5774 379.728 89.5263 377.364 89.5263C375.001 89.5263 373.495 90.5547 373.506 92.3047C373.495 93.6456 374.353 94.5092 376.097 94.8331L377.62 95.1229C378.342 95.2649 378.671 95.4922 378.683 95.8786C378.671 96.3161 378.183 96.6058 377.472 96.6058C376.683 96.6058 376.149 96.2649 376.029 95.6286L373.285 95.6967C373.484 97.424 374.967 98.532 377.461 98.532C379.796 98.532 381.495 97.3672 381.506 95.5717C381.495 94.299 380.654 93.5433 378.916 93.2081L377.234 92.8899C376.495 92.7422 376.256 92.4808 376.262 92.1456C376.256 91.7024 376.774 91.4297 377.416 91.4297C378.149 91.4297 378.66 91.8217 378.739 92.3729L381.291 92.3047Z" fill="#323847"/>
<path d="M351.507 391.875C351.507 389.054 349.786 387.392 347.497 387.392C345.205 387.392 343.487 389.054 343.487 391.875C343.487 394.691 345.205 396.358 347.497 396.358C349.786 396.358 351.507 394.696 351.507 391.875ZM349.918 391.875C349.918 393.86 348.921 394.939 347.497 394.939C346.078 394.939 345.077 393.86 345.077 391.875C345.077 389.889 346.078 388.811 347.497 388.811C348.921 388.811 349.918 389.889 349.918 391.875ZM356.249 389.693H354.89V389.177C354.89 388.666 355.103 388.38 355.678 388.38C355.921 388.38 356.126 388.436 356.253 388.474L356.564 387.281C356.364 387.213 355.925 387.102 355.393 387.102C354.255 387.102 353.347 387.754 353.347 389.075V389.693H352.38V390.886H353.347V396.238H354.89V390.886H356.249V389.693ZM360.773 389.693H359.413V389.177C359.413 388.666 359.626 388.38 360.202 388.38C360.444 388.38 360.649 388.436 360.777 388.474L361.088 387.281C360.888 387.213 360.449 387.102 359.916 387.102C358.778 387.102 357.871 387.754 357.871 389.075V389.693H356.903V390.886H357.871V396.238H359.413V390.886H360.773V389.693ZM366.92 391.423C366.707 390.315 365.82 389.608 364.286 389.608C362.709 389.608 361.635 390.383 361.64 391.593C361.635 392.548 362.224 393.179 363.481 393.439L364.597 393.673C365.198 393.805 365.479 394.048 365.479 394.419C365.479 394.866 364.993 395.203 364.26 395.203C363.553 395.203 363.093 394.896 362.961 394.308L361.457 394.453C361.648 395.654 362.658 396.366 364.265 396.366C365.901 396.366 367.056 395.518 367.06 394.278C367.056 393.345 366.455 392.774 365.219 392.505L364.103 392.267C363.438 392.118 363.174 391.887 363.178 391.508C363.174 391.065 363.664 390.758 364.307 390.758C365.019 390.758 365.394 391.146 365.513 391.576L366.92 391.423ZM371.23 396.366C372.756 396.366 373.804 395.62 374.077 394.483L372.636 394.321C372.427 394.875 371.916 395.164 371.251 395.164C370.254 395.164 369.594 394.508 369.581 393.387H374.14V392.914C374.14 390.618 372.76 389.608 371.149 389.608C369.274 389.608 368.051 390.984 368.051 393.004C368.051 395.058 369.257 396.366 371.23 396.366ZM369.585 392.348C369.632 391.512 370.25 390.809 371.17 390.809C372.057 390.809 372.653 391.457 372.662 392.348H369.585ZM378.714 389.693H377.423V388.125H375.88V389.693H374.951V390.886H375.88V394.525C375.872 395.757 376.767 396.362 377.926 396.328C378.365 396.315 378.667 396.23 378.833 396.174L378.573 394.968C378.488 394.99 378.313 395.028 378.122 395.028C377.734 395.028 377.423 394.892 377.423 394.27V390.886H378.714V389.693ZM382.981 398.693H384.523V395.207H384.587C384.83 395.684 385.337 396.353 386.462 396.353C388.005 396.353 389.16 395.13 389.16 392.974C389.16 390.792 387.971 389.608 386.458 389.608C385.303 389.608 384.822 390.302 384.587 390.775H384.498V389.693H382.981V398.693ZM384.493 392.966C384.493 391.696 385.039 390.873 386.032 390.873C387.059 390.873 387.587 391.747 387.587 392.966C387.587 394.193 387.05 395.088 386.032 395.088C385.047 395.088 384.493 394.235 384.493 392.966ZM390.481 396.238H392.023V392.39C392.023 391.559 392.65 390.971 393.498 390.971C393.758 390.971 394.082 391.018 394.214 391.061V389.642C394.073 389.616 393.83 389.599 393.66 389.599C392.91 389.599 392.283 390.025 392.045 390.784H391.976V389.693H390.481V396.238ZM397.824 396.366C399.742 396.366 400.96 395.015 400.96 392.991C400.96 390.963 399.742 389.608 397.824 389.608C395.906 389.608 394.688 390.963 394.688 392.991C394.688 395.015 395.906 396.366 397.824 396.366ZM397.833 395.13C396.772 395.13 396.252 394.184 396.252 392.987C396.252 391.789 396.772 390.831 397.833 390.831C398.877 390.831 399.397 391.789 399.397 392.987C399.397 394.184 398.877 395.13 397.833 395.13ZM402.27 389.693V396.592C402.27 397.142 402.035 397.436 401.443 397.436C401.366 397.436 401.307 397.431 401.221 397.427V398.684C401.332 398.693 401.426 398.693 401.537 398.693C402.981 398.693 403.812 398.028 403.812 396.613V389.693H402.27ZM403.037 388.764C403.527 388.764 403.927 388.389 403.927 387.929C403.927 387.464 403.527 387.089 403.037 387.089C402.542 387.089 402.142 387.464 402.142 387.929C402.142 388.389 402.542 388.764 403.037 388.764ZM408.296 396.366C409.822 396.366 410.87 395.62 411.143 394.483L409.703 394.321C409.494 394.875 408.982 395.164 408.318 395.164C407.321 395.164 406.66 394.508 406.647 393.387H411.207V392.914C411.207 390.618 409.826 389.608 408.215 389.608C406.34 389.608 405.117 390.984 405.117 393.004C405.117 395.058 406.323 396.366 408.296 396.366ZM406.651 392.348C406.698 391.512 407.316 390.809 408.237 390.809C409.123 390.809 409.72 391.457 409.728 392.348H406.651ZM415.367 396.366C417.012 396.366 418.06 395.39 418.171 394.001H416.697C416.564 394.704 416.057 395.109 415.38 395.109C414.417 395.109 413.795 394.304 413.795 392.966C413.795 391.645 414.43 390.852 415.38 390.852C416.121 390.852 416.577 391.329 416.697 391.96H418.171C418.064 390.541 416.957 389.608 415.359 389.608C413.441 389.608 412.231 390.993 412.231 392.991C412.231 394.973 413.411 396.366 415.367 396.366ZM422.706 389.693H421.415V388.125H419.872V389.693H418.943V390.886H419.872V394.525C419.864 395.757 420.759 396.362 421.918 396.328C422.357 396.315 422.659 396.23 422.825 396.174L422.566 394.968C422.48 394.99 422.306 395.028 422.114 395.028C421.726 395.028 421.415 394.892 421.415 394.27V390.886H422.706V389.693ZM429.076 391.423C428.863 390.315 427.976 389.608 426.442 389.608C424.866 389.608 423.792 390.383 423.796 391.593C423.792 392.548 424.38 393.179 425.637 393.439L426.753 393.673C427.354 393.805 427.635 394.048 427.635 394.419C427.635 394.866 427.15 395.203 426.417 395.203C425.709 395.203 425.249 394.896 425.117 394.308L423.613 394.453C423.805 395.654 424.814 396.366 426.421 396.366C428.057 396.366 429.212 395.518 429.216 394.278C429.212 393.345 428.611 392.774 427.376 392.505L426.259 392.267C425.594 392.118 425.33 391.887 425.334 391.508C425.33 391.065 425.82 390.758 426.464 390.758C427.175 390.758 427.55 391.146 427.67 391.576L429.076 391.423ZM433.465 398.693H435.008V395.207H435.072C435.314 395.684 435.822 396.353 436.947 396.353C438.489 396.353 439.644 395.13 439.644 392.974C439.644 390.792 438.455 389.608 436.942 389.608C435.787 389.608 435.306 390.302 435.072 390.775H434.982V389.693H433.465V398.693ZM434.978 392.966C434.978 391.696 435.523 390.873 436.516 390.873C437.543 390.873 438.072 391.747 438.072 392.966C438.072 394.193 437.535 395.088 436.516 395.088C435.532 395.088 434.978 394.235 434.978 392.966ZM440.965 396.238H442.508V392.39C442.508 391.559 443.134 390.971 443.982 390.971C444.242 390.971 444.566 391.018 444.698 391.061V389.642C444.557 389.616 444.314 389.599 444.144 389.599C443.394 389.599 442.768 390.025 442.529 390.784H442.461V389.693H440.965V396.238ZM448.351 396.366C449.877 396.366 450.925 395.62 451.198 394.483L449.757 394.321C449.548 394.875 449.037 395.164 448.372 395.164C447.375 395.164 446.715 394.508 446.702 393.387H451.262V392.914C451.262 390.618 449.881 389.608 448.27 389.608C446.395 389.608 445.172 390.984 445.172 393.004C445.172 395.058 446.378 396.366 448.351 396.366ZM446.706 392.348C446.753 391.512 447.371 390.809 448.291 390.809C449.178 390.809 449.774 391.457 449.783 392.348H446.706ZM458.226 389.693H456.585L455.077 394.555H455.008L453.504 389.693H451.859L454.19 396.238H455.895L458.226 389.693ZM461.968 396.366C463.494 396.366 464.542 395.62 464.815 394.483L463.374 394.321C463.166 394.875 462.654 395.164 461.99 395.164C460.992 395.164 460.332 394.508 460.319 393.387H464.879V392.914C464.879 390.618 463.498 389.608 461.887 389.608C460.012 389.608 458.789 390.984 458.789 393.004C458.789 395.058 459.995 396.366 461.968 396.366ZM460.323 392.348C460.37 391.512 460.988 390.809 461.909 390.809C462.795 390.809 463.392 391.457 463.4 392.348H460.323ZM467.726 392.403C467.726 391.457 468.297 390.912 469.111 390.912C469.908 390.912 470.385 391.436 470.385 392.309V396.238H471.928V392.071C471.932 390.502 471.037 389.608 469.687 389.608C468.707 389.608 468.033 390.076 467.735 390.805H467.658V389.693H466.184V396.238H467.726V392.403ZM476.765 389.693H475.474V388.125H473.931V389.693H473.002V390.886H473.931V394.525C473.922 395.757 474.817 396.362 475.976 396.328C476.415 396.315 476.718 396.23 476.884 396.174L476.624 394.968C476.539 394.99 476.364 395.028 476.172 395.028C475.785 395.028 475.474 394.892 475.474 394.27V390.886H476.765V389.693ZM483.887 396.366C485.804 396.366 487.023 395.015 487.023 392.991C487.023 390.963 485.804 389.608 483.887 389.608C481.969 389.608 480.75 390.963 480.75 392.991C480.75 395.015 481.969 396.366 483.887 396.366ZM483.895 395.13C482.834 395.13 482.314 394.184 482.314 392.987C482.314 391.789 482.834 390.831 483.895 390.831C484.939 390.831 485.459 391.789 485.459 392.987C485.459 394.184 484.939 395.13 483.895 395.13ZM488.332 396.238H489.875V392.39C489.875 391.559 490.501 390.971 491.349 390.971C491.609 390.971 491.933 391.018 492.065 391.061V389.642C491.925 389.616 491.682 389.599 491.511 389.599C490.761 389.599 490.135 390.025 489.896 390.784H489.828V389.693H488.332V396.238ZM496.067 396.238H497.609V392.39C497.609 391.559 498.236 390.971 499.084 390.971C499.344 390.971 499.667 391.018 499.8 391.061V389.642C499.659 389.616 499.416 389.599 499.246 389.599C498.496 389.599 497.869 390.025 497.631 390.784H497.562V389.693H496.067V396.238ZM503.453 396.366C504.978 396.366 506.026 395.62 506.299 394.483L504.859 394.321C504.65 394.875 504.139 395.164 503.474 395.164C502.477 395.164 501.816 394.508 501.803 393.387H506.363V392.914C506.363 390.618 504.982 389.608 503.372 389.608C501.497 389.608 500.274 390.984 500.274 393.004C500.274 395.058 501.48 396.366 503.453 396.366ZM501.808 392.348C501.855 391.512 502.472 390.809 503.393 390.809C504.279 390.809 504.876 391.457 504.884 392.348H501.808ZM510.097 396.353C511.222 396.353 511.729 395.684 511.972 395.207H512.066V396.238H513.583V387.511H512.036V390.775H511.972C511.738 390.302 511.256 389.608 510.101 389.608C508.589 389.608 507.4 390.792 507.4 392.974C507.4 395.13 508.555 396.353 510.097 396.353ZM510.528 395.088C509.509 395.088 508.972 394.193 508.972 392.966C508.972 391.747 509.501 390.873 510.528 390.873C511.52 390.873 512.066 391.696 512.066 392.966C512.066 394.235 511.512 395.088 510.528 395.088ZM519.399 393.485C519.399 394.483 518.687 394.977 518.005 394.977C517.264 394.977 516.769 394.453 516.769 393.622V389.693H515.227V393.86C515.227 395.433 516.122 396.324 517.409 396.324C518.389 396.324 519.079 395.808 519.377 395.075H519.446V396.238H520.941V389.693H519.399V393.485ZM525.383 396.366C527.028 396.366 528.076 395.39 528.187 394.001H526.712C526.58 394.704 526.073 395.109 525.395 395.109C524.432 395.109 523.81 394.304 523.81 392.966C523.81 391.645 524.445 390.852 525.395 390.852C526.137 390.852 526.593 391.329 526.712 391.96H528.187C528.08 390.541 526.972 389.608 525.374 389.608C523.457 389.608 522.246 390.993 522.246 392.991C522.246 394.973 523.427 396.366 525.383 396.366ZM532.351 396.366C533.877 396.366 534.925 395.62 535.198 394.483L533.757 394.321C533.548 394.875 533.037 395.164 532.372 395.164C531.375 395.164 530.715 394.508 530.702 393.387H535.262V392.914C535.262 390.618 533.881 389.608 532.27 389.608C530.395 389.608 529.172 390.984 529.172 393.004C529.172 395.058 530.378 396.366 532.351 396.366ZM530.706 392.348C530.753 391.512 531.371 390.809 532.291 390.809C533.178 390.809 533.774 391.457 533.783 392.348H530.706ZM542.441 396.366C543.966 396.366 545.015 395.62 545.287 394.483L543.847 394.321C543.638 394.875 543.127 395.164 542.462 395.164C541.465 395.164 540.805 394.508 540.792 393.387H545.351V392.914C545.351 390.618 543.971 389.608 542.36 389.608C540.485 389.608 539.262 390.984 539.262 393.004C539.262 395.058 540.468 396.366 542.441 396.366ZM540.796 392.348C540.843 391.512 541.461 390.809 542.381 390.809C543.268 390.809 543.864 391.457 543.873 392.348H540.796ZM546.656 396.238H548.199V392.258C548.199 391.453 548.736 390.907 549.401 390.907C550.053 390.907 550.5 391.346 550.5 392.02V396.238H552.013V392.156C552.013 391.419 552.452 390.907 553.198 390.907C553.82 390.907 554.314 391.274 554.314 392.083V396.238H555.861V391.845C555.861 390.383 555.017 389.608 553.816 389.608C552.865 389.608 552.141 390.076 551.851 390.805H551.783C551.531 390.064 550.897 389.608 550.014 389.608C549.137 389.608 548.48 390.059 548.208 390.805H548.131V389.693H546.656V396.238ZM557.426 396.238H558.969V389.693H557.426V396.238ZM558.202 388.764C558.692 388.764 559.092 388.389 559.092 387.929C559.092 387.464 558.692 387.089 558.202 387.089C557.707 387.089 557.307 387.464 557.307 387.929C557.307 388.389 557.707 388.764 558.202 388.764ZM565.728 391.423C565.515 390.315 564.629 389.608 563.095 389.608C561.518 389.608 560.444 390.383 560.448 391.593C560.444 392.548 561.032 393.179 562.289 393.439L563.406 393.673C564.007 393.805 564.288 394.048 564.288 394.419C564.288 394.866 563.802 395.203 563.069 395.203C562.362 395.203 561.901 394.896 561.769 394.308L560.265 394.453C560.457 395.654 561.467 396.366 563.073 396.366C564.71 396.366 565.865 395.518 565.869 394.278C565.865 393.345 565.264 392.774 564.028 392.505L562.911 392.267C562.247 392.118 561.982 391.887 561.987 391.508C561.982 391.065 562.472 390.758 563.116 390.758C563.828 390.758 564.203 391.146 564.322 391.576L565.728 391.423ZM572.314 391.423C572.101 390.315 571.215 389.608 569.681 389.608C568.104 389.608 567.03 390.383 567.034 391.593C567.03 392.548 567.618 393.179 568.875 393.439L569.992 393.673C570.593 393.805 570.874 394.048 570.874 394.419C570.874 394.866 570.388 395.203 569.655 395.203C568.948 395.203 568.487 394.896 568.355 394.308L566.851 394.453C567.043 395.654 568.053 396.366 569.659 396.366C571.296 396.366 572.45 395.518 572.455 394.278C572.45 393.345 571.85 392.774 570.614 392.505L569.497 392.267C568.833 392.118 568.568 391.887 568.573 391.508C568.568 391.065 569.058 390.758 569.702 390.758C570.414 390.758 570.789 391.146 570.908 391.576L572.314 391.423ZM573.727 396.238H575.269V389.693H573.727V396.238ZM574.502 388.764C574.992 388.764 575.393 388.389 575.393 387.929C575.393 387.464 574.992 387.089 574.502 387.089C574.008 387.089 573.607 387.464 573.607 387.929C573.607 388.389 574.008 388.764 574.502 388.764ZM579.711 396.366C581.628 396.366 582.847 395.015 582.847 392.991C582.847 390.963 581.628 389.608 579.711 389.608C577.793 389.608 576.574 390.963 576.574 392.991C576.574 395.015 577.793 396.366 579.711 396.366ZM579.719 395.13C578.658 395.13 578.138 394.184 578.138 392.987C578.138 391.789 578.658 390.831 579.719 390.831C580.763 390.831 581.283 391.789 581.283 392.987C581.283 394.184 580.763 395.13 579.719 395.13ZM585.699 392.403C585.699 391.457 586.27 390.912 587.084 390.912C587.881 390.912 588.358 391.436 588.358 392.309V396.238H589.901V392.071C589.905 390.502 589.01 389.608 587.659 389.608C586.679 389.608 586.006 390.076 585.708 390.805H585.631V389.693H584.156V396.238H585.699V392.403ZM596.642 391.423C596.429 390.315 595.543 389.608 594.009 389.608C592.432 389.608 591.358 390.383 591.362 391.593C591.358 392.548 591.946 393.179 593.203 393.439L594.32 393.673C594.921 393.805 595.202 394.048 595.202 394.419C595.202 394.866 594.716 395.203 593.983 395.203C593.276 395.203 592.816 394.896 592.683 394.308L591.179 394.453C591.371 395.654 592.381 396.366 593.987 396.366C595.624 396.366 596.779 395.518 596.783 394.278C596.779 393.345 596.178 392.774 594.942 392.505L593.825 392.267C593.161 392.118 592.897 391.887 592.901 391.508C592.897 391.065 593.387 390.758 594.03 390.758C594.742 390.758 595.117 391.146 595.236 391.576L596.642 391.423Z" fill="#323847"/>
<path d="M178.549 130.569C151.872 156.094 134.858 186.281 126.72 219.038" stroke="#E3572B" stroke-width="8"/>
<path d="M145.719 129.926L178.506 130.501L177.931 163.289" stroke="#E3572B" stroke-width="8"/>
<path d="M488.366 218.739C479.08 183.004 461.015 153.435 436.378 130.363" stroke="#21C037" stroke-width="8"/>
<path d="M504.93 190.391L488.447 218.739L460.098 202.256" stroke="#21C037" stroke-width="8"/>
<path d="M33.1551 390.456C32.8866 388.517 31.3951 387.392 29.4605 387.392C27.1806 387.392 25.4633 389.054 25.4633 391.875C25.4633 394.691 27.1593 396.358 29.4605 396.358C31.5357 396.358 32.9122 395.015 33.1551 393.349L31.5613 393.341C31.361 394.363 30.5258 394.939 29.4818 394.939C28.067 394.939 27.0528 393.877 27.0528 391.875C27.0528 389.906 28.0585 388.811 29.486 388.811C30.5471 388.811 31.3781 389.412 31.5613 390.456H33.1551ZM37.3898 396.366C39.3074 396.366 40.5262 395.015 40.5262 392.991C40.5262 390.963 39.3074 389.608 37.3898 389.608C35.4722 389.608 34.2534 390.963 34.2534 392.991C34.2534 395.015 35.4722 396.366 37.3898 396.366ZM37.3983 395.13C36.3372 395.13 35.8173 394.184 35.8173 392.987C35.8173 391.789 36.3372 390.831 37.3983 390.831C38.4423 390.831 38.9622 391.789 38.9622 392.987C38.9622 394.184 38.4423 395.13 37.3983 395.13ZM41.8355 396.238H43.3781V392.258C43.3781 391.453 43.915 390.907 44.5798 390.907C45.2318 390.907 45.6792 391.346 45.6792 392.02V396.238H47.192V392.156C47.192 391.419 47.6309 390.907 48.3767 390.907C48.9988 390.907 49.4931 391.274 49.4931 392.083V396.238H51.04V391.845C51.04 390.383 50.1963 389.608 48.9946 389.608C48.0443 389.608 47.3198 390.076 47.0301 390.805H46.9619C46.7105 390.064 46.0755 389.608 45.1934 389.608C44.3156 389.608 43.6593 390.059 43.3866 390.805H43.3099V389.693H41.8355V396.238ZM52.605 398.693H54.1476V395.207H54.2115C54.4544 395.684 54.9615 396.353 56.0865 396.353C57.6291 396.353 58.784 395.13 58.784 392.974C58.784 390.792 57.595 389.608 56.0823 389.608C54.9274 389.608 54.4459 390.302 54.2115 390.775H54.122V389.693H52.605V398.693ZM54.1178 392.966C54.1178 391.696 54.6632 390.873 55.6561 390.873C56.6831 390.873 57.2115 391.747 57.2115 392.966C57.2115 394.193 56.6746 395.088 55.6561 395.088C54.6718 395.088 54.1178 394.235 54.1178 392.966ZM61.9885 396.37C63.0155 396.37 63.6291 395.889 63.9104 395.339H63.9615V396.238H65.4445V391.858C65.4445 390.127 64.034 389.608 62.7854 389.608C61.409 389.608 60.3522 390.221 60.0112 391.414L61.4516 391.619C61.605 391.172 62.0397 390.788 62.7939 390.788C63.5098 390.788 63.9019 391.154 63.9019 391.798V391.824C63.9019 392.267 63.4374 392.288 62.2825 392.412C61.0127 392.548 59.7982 392.927 59.7982 394.402C59.7982 395.689 60.7399 396.37 61.9885 396.37ZM62.3891 395.237C61.7456 395.237 61.2854 394.943 61.2854 394.376C61.2854 393.784 61.801 393.537 62.4914 393.439C62.8962 393.383 63.7058 393.281 63.9061 393.119V393.89C63.9061 394.619 63.3181 395.237 62.3891 395.237ZM68.5382 392.403C68.5382 391.457 69.1093 390.912 69.9232 390.912C70.72 390.912 71.1973 391.436 71.1973 392.309V396.238H72.7399V392.071C72.7442 390.502 71.8493 389.608 70.4985 389.608C69.5183 389.608 68.845 390.076 68.5468 390.805H68.47V389.693H66.9956V396.238H68.5382V392.403ZM74.3081 396.238H75.8507V389.693H74.3081V396.238ZM75.0837 388.764C75.5737 388.764 75.9743 388.389 75.9743 387.929C75.9743 387.464 75.5737 387.089 75.0837 387.089C74.5894 387.089 74.1888 387.464 74.1888 387.929C74.1888 388.389 74.5894 388.764 75.0837 388.764ZM80.3348 396.366C81.8603 396.366 82.9086 395.62 83.1813 394.483L81.741 394.321C81.5322 394.875 81.0208 395.164 80.3561 395.164C79.3589 395.164 78.6984 394.508 78.6856 393.387H83.2453V392.914C83.2453 390.618 81.8646 389.608 80.2538 389.608C78.3788 389.608 77.1558 390.984 77.1558 393.004C77.1558 395.058 78.3617 396.366 80.3348 396.366ZM78.6899 392.348C78.7367 391.512 79.3546 390.809 80.2751 390.809C81.1615 390.809 81.758 391.457 81.7666 392.348H78.6899ZM89.7236 391.423C89.5105 390.315 88.6242 389.608 87.0901 389.608C85.5134 389.608 84.4395 390.383 84.4438 391.593C84.4395 392.548 85.0276 393.179 86.2847 393.439L87.4012 393.673C88.002 393.805 88.2833 394.048 88.2833 394.419C88.2833 394.866 87.7975 395.203 87.0645 395.203C86.3571 395.203 85.8969 394.896 85.7648 394.308L84.2605 394.453C84.4523 395.654 85.4622 396.366 87.0688 396.366C88.7051 396.366 89.86 395.518 89.8642 394.278C89.86 393.345 89.2591 392.774 88.0233 392.505L86.9068 392.267C86.2421 392.118 85.9779 391.887 85.9821 391.508C85.9779 391.065 86.4679 390.758 87.1114 390.758C87.823 390.758 88.198 391.146 88.3173 391.576L89.7236 391.423ZM95.9963 396.37C97.0233 396.37 97.637 395.889 97.9182 395.339H97.9693V396.238H99.4523V391.858C99.4523 390.127 98.0418 389.608 96.7932 389.608C95.4168 389.608 94.36 390.221 94.0191 391.414L95.4594 391.619C95.6128 391.172 96.0475 390.788 96.8017 390.788C97.5176 390.788 97.9097 391.154 97.9097 391.798V391.824C97.9097 392.267 97.4452 392.288 96.2904 392.412C95.0205 392.548 93.806 392.927 93.806 394.402C93.806 395.689 94.7477 396.37 95.9963 396.37ZM96.3969 395.237C95.7534 395.237 95.2932 394.943 95.2932 394.376C95.2932 393.784 95.8088 393.537 96.4992 393.439C96.904 393.383 97.7137 393.281 97.9139 393.119V393.89C97.9139 394.619 97.3259 395.237 96.3969 395.237ZM102.546 392.403C102.546 391.457 103.117 390.912 103.931 390.912C104.728 390.912 105.205 391.436 105.205 392.309V396.238H106.748V392.071C106.752 390.502 105.857 389.608 104.506 389.608C103.526 389.608 102.853 390.076 102.555 390.805H102.478V389.693H101.003V396.238H102.546V392.403ZM110.745 396.353C111.87 396.353 112.377 395.684 112.62 395.207H112.714V396.238H114.231V387.511H112.684V390.775H112.62C112.386 390.302 111.904 389.608 110.749 389.608C109.236 389.608 108.047 390.792 108.047 392.974C108.047 395.13 109.202 396.353 110.745 396.353ZM111.175 395.088C110.157 395.088 109.62 394.193 109.62 392.966C109.62 391.747 110.148 390.873 111.175 390.873C112.168 390.873 112.714 391.696 112.714 392.966C112.714 394.235 112.16 395.088 111.175 395.088ZM118.851 398.693H120.394V395.207H120.458C120.701 395.684 121.208 396.353 122.333 396.353C123.875 396.353 125.03 395.13 125.03 392.974C125.03 390.792 123.841 389.608 122.328 389.608C121.174 389.608 120.692 390.302 120.458 390.775H120.368V389.693H118.851V398.693ZM120.364 392.966C120.364 391.696 120.909 390.873 121.902 390.873C122.929 390.873 123.458 391.747 123.458 392.966C123.458 394.193 122.921 395.088 121.902 395.088C120.918 395.088 120.364 394.235 120.364 392.966ZM129.249 396.366C130.774 396.366 131.823 395.62 132.095 394.483L130.655 394.321C130.446 394.875 129.935 395.164 129.27 395.164C128.273 395.164 127.612 394.508 127.6 393.387H132.159V392.914C132.159 390.618 130.779 389.608 129.168 389.608C127.293 389.608 126.07 390.984 126.07 393.004C126.07 395.058 127.276 396.366 129.249 396.366ZM127.604 392.348C127.651 391.512 128.269 390.809 129.189 390.809C130.076 390.809 130.672 391.457 130.681 392.348H127.604ZM136.319 396.366C138.237 396.366 139.456 395.015 139.456 392.991C139.456 390.963 138.237 389.608 136.319 389.608C134.402 389.608 133.183 390.963 133.183 392.991C133.183 395.015 134.402 396.366 136.319 396.366ZM136.328 395.13C135.267 395.13 134.747 394.184 134.747 392.987C134.747 391.789 135.267 390.831 136.328 390.831C137.372 390.831 137.892 391.789 137.892 392.987C137.892 394.184 137.372 395.13 136.328 395.13ZM140.765 398.693H142.308V395.207H142.372C142.615 395.684 143.122 396.353 144.247 396.353C145.789 396.353 146.944 395.13 146.944 392.974C146.944 390.792 145.755 389.608 144.242 389.608C143.088 389.608 142.606 390.302 142.372 390.775H142.282V389.693H140.765V398.693ZM142.278 392.966C142.278 391.696 142.823 390.873 143.816 390.873C144.843 390.873 145.372 391.747 145.372 392.966C145.372 394.193 144.835 395.088 143.816 395.088C142.832 395.088 142.278 394.235 142.278 392.966ZM149.808 387.511H148.265V396.238H149.808V387.511ZM154.292 396.366C155.817 396.366 156.866 395.62 157.138 394.483L155.698 394.321C155.489 394.875 154.978 395.164 154.313 395.164C153.316 395.164 152.655 394.508 152.643 393.387H157.202V392.914C157.202 390.618 155.822 389.608 154.211 389.608C152.336 389.608 151.113 390.984 151.113 393.004C151.113 395.058 152.319 396.366 154.292 396.366ZM152.647 392.348C152.694 391.512 153.312 390.809 154.232 390.809C155.118 390.809 155.715 391.457 155.724 392.348H152.647ZM164.339 396.366C165.984 396.366 167.032 395.39 167.143 394.001H165.669C165.536 394.704 165.029 395.109 164.352 395.109C163.389 395.109 162.767 394.304 162.767 392.966C162.767 391.645 163.402 390.852 164.352 390.852C165.093 390.852 165.549 391.329 165.669 391.96H167.143C167.036 390.541 165.929 389.608 164.33 389.608C162.413 389.608 161.203 390.993 161.203 392.991C161.203 394.973 162.383 396.366 164.339 396.366ZM170.293 396.37C171.32 396.37 171.934 395.889 172.215 395.339H172.266V396.238H173.749V391.858C173.749 390.127 172.339 389.608 171.09 389.608C169.714 389.608 168.657 390.221 168.316 391.414L169.756 391.619C169.91 391.172 170.344 390.788 171.099 390.788C171.815 390.788 172.207 391.154 172.207 391.798V391.824C172.207 392.267 171.742 392.288 170.587 392.412C169.317 392.548 168.103 392.927 168.103 394.402C168.103 395.689 169.045 396.37 170.293 396.37ZM170.694 395.237C170.05 395.237 169.59 394.943 169.59 394.376C169.59 393.784 170.106 393.537 170.796 393.439C171.201 393.383 172.011 393.281 172.211 393.119V393.89C172.211 394.619 171.623 395.237 170.694 395.237ZM179.472 393.485C179.472 394.483 178.761 394.977 178.079 394.977C177.337 394.977 176.843 394.453 176.843 393.622V389.693H175.3V393.86C175.3 395.433 176.195 396.324 177.482 396.324C178.462 396.324 179.153 395.808 179.451 395.075H179.519V396.238H181.015V389.693H179.472V393.485ZM187.774 391.423C187.561 390.315 186.675 389.608 185.141 389.608C183.564 389.608 182.49 390.383 182.495 391.593C182.49 392.548 183.078 393.179 184.335 393.439L185.452 393.673C186.053 393.805 186.334 394.048 186.334 394.419C186.334 394.866 185.848 395.203 185.115 395.203C184.408 395.203 183.948 394.896 183.816 394.308L182.311 394.453C182.503 395.654 183.513 396.366 185.12 396.366C186.756 396.366 187.911 395.518 187.915 394.278C187.911 393.345 187.31 392.774 186.074 392.505L184.958 392.267C184.293 392.118 184.029 391.887 184.033 391.508C184.029 391.065 184.519 390.758 185.162 390.758C185.874 390.758 186.249 391.146 186.368 391.576L187.774 391.423ZM192.085 396.366C193.61 396.366 194.659 395.62 194.931 394.483L193.491 394.321C193.282 394.875 192.771 395.164 192.106 395.164C191.109 395.164 190.448 394.508 190.436 393.387H194.995V392.914C194.995 390.618 193.615 389.608 192.004 389.608C190.129 389.608 188.906 390.984 188.906 393.004C188.906 395.058 190.112 396.366 192.085 396.366ZM190.44 392.348C190.487 391.512 191.105 390.809 192.025 390.809C192.911 390.809 193.508 391.457 193.517 392.348H190.44ZM202.175 396.366C203.7 396.366 204.748 395.62 205.021 394.483L203.581 394.321C203.372 394.875 202.861 395.164 202.196 395.164C201.199 395.164 200.538 394.508 200.525 393.387H205.085V392.914C205.085 390.618 203.704 389.608 202.094 389.608C200.219 389.608 198.996 390.984 198.996 393.004C198.996 395.058 200.202 396.366 202.175 396.366ZM200.53 392.348C200.577 391.512 201.194 390.809 202.115 390.809C203.001 390.809 203.598 391.457 203.606 392.348H200.53ZM206.39 396.238H207.933V392.258C207.933 391.453 208.47 390.907 209.134 390.907C209.786 390.907 210.234 391.346 210.234 392.02V396.238H211.747V392.156C211.747 391.419 212.186 390.907 212.931 390.907C213.554 390.907 214.048 391.274 214.048 392.083V396.238H215.595V391.845C215.595 390.383 214.751 389.608 213.549 389.608C212.599 389.608 211.875 390.076 211.585 390.805H211.517C211.265 390.064 210.63 389.608 209.748 389.608C208.87 389.608 208.214 390.059 207.941 390.805H207.865V389.693H206.39V396.238ZM217.16 396.238H218.702V389.693H217.16V396.238ZM217.935 388.764C218.425 388.764 218.826 388.389 218.826 387.929C218.826 387.464 218.425 387.089 217.935 387.089C217.441 387.089 217.04 387.464 217.04 387.929C217.04 388.389 217.441 388.764 217.935 388.764ZM225.462 391.423C225.249 390.315 224.362 389.608 222.828 389.608C221.252 389.608 220.178 390.383 220.182 391.593C220.178 392.548 220.766 393.179 222.023 393.439L223.139 393.673C223.74 393.805 224.022 394.048 224.022 394.419C224.022 394.866 223.536 395.203 222.803 395.203C222.095 395.203 221.635 394.896 221.503 394.308L219.999 394.453C220.191 395.654 221.201 396.366 222.807 396.366C224.443 396.366 225.598 395.518 225.603 394.278C225.598 393.345 224.997 392.774 223.762 392.505L222.645 392.267C221.98 392.118 221.716 391.887 221.72 391.508C221.716 391.065 222.206 390.758 222.85 390.758C223.561 390.758 223.936 391.146 224.056 391.576L225.462 391.423ZM232.048 391.423C231.835 390.315 230.948 389.608 229.414 389.608C227.838 389.608 226.764 390.383 226.768 391.593C226.764 392.548 227.352 393.179 228.609 393.439L229.725 393.673C230.326 393.805 230.607 394.048 230.607 394.419C230.607 394.866 230.122 395.203 229.389 395.203C228.681 395.203 228.221 394.896 228.089 394.308L226.585 394.453C226.777 395.654 227.786 396.366 229.393 396.366C231.029 396.366 232.184 395.518 232.188 394.278C232.184 393.345 231.583 392.774 230.348 392.505L229.231 392.267C228.566 392.118 228.302 391.887 228.306 391.508C228.302 391.065 228.792 390.758 229.436 390.758C230.147 390.758 230.522 391.146 230.642 391.576L232.048 391.423ZM233.46 396.238H235.003V389.693H233.46V396.238ZM234.236 388.764C234.726 388.764 235.127 388.389 235.127 387.929C235.127 387.464 234.726 387.089 234.236 387.089C233.742 387.089 233.341 387.464 233.341 387.929C233.341 388.389 233.742 388.764 234.236 388.764ZM239.444 396.366C241.362 396.366 242.581 395.015 242.581 392.991C242.581 390.963 241.362 389.608 239.444 389.608C237.527 389.608 236.308 390.963 236.308 392.991C236.308 395.015 237.527 396.366 239.444 396.366ZM239.453 395.13C238.392 395.13 237.872 394.184 237.872 392.987C237.872 391.789 238.392 390.831 239.453 390.831C240.497 390.831 241.017 391.789 241.017 392.987C241.017 394.184 240.497 395.13 239.453 395.13ZM245.433 392.403C245.433 391.457 246.004 390.912 246.818 390.912C247.615 390.912 248.092 391.436 248.092 392.309V396.238H249.634V392.071C249.639 390.502 248.744 389.608 247.393 389.608C246.413 389.608 245.74 390.076 245.441 390.805H245.365V389.693H243.89V396.238H245.433V392.403ZM256.376 391.423C256.163 390.315 255.277 389.608 253.742 389.608C252.166 389.608 251.092 390.383 251.096 391.593C251.092 392.548 251.68 393.179 252.937 393.439L254.054 393.673C254.654 393.805 254.936 394.048 254.936 394.419C254.936 394.866 254.45 395.203 253.717 395.203C253.009 395.203 252.549 394.896 252.417 394.308L250.913 394.453C251.105 395.654 252.115 396.366 253.721 396.366C255.357 396.366 256.512 395.518 256.517 394.278C256.512 393.345 255.911 392.774 254.676 392.505L253.559 392.267C252.894 392.118 252.63 391.887 252.634 391.508C252.63 391.065 253.12 390.758 253.764 390.758C254.475 390.758 254.85 391.146 254.97 391.576L256.376 391.423Z" fill="#323847"/>
<path d="M182.026 440.896C248.811 492.153 360.431 497.764 433.819 440.898" stroke="#7A7E87" stroke-width="2"/>
<path d="M183.488 451.758L182.023 440.861L192.92 439.395" stroke="#7A7E87" stroke-width="2"/>
<path d="M199.062 418.628C259.044 461.663 348.013 468.137 416.39 418.631" stroke="#7A7E87" stroke-width="2"/>
<path d="M405.516 416.945L416.382 418.624L414.703 429.491" stroke="#7A7E87" stroke-width="2"/>
<rect x="297.152" y="417.828" width="27.9986" height="15.3992" fill="#3E9F28"/>
<path fill-rule="evenodd" clip-rule="evenodd" d="M301.231 419.57H321.072C321.072 420.824 322.107 421.816 323.401 421.816V429.224C322.107 429.224 321.072 430.216 321.072 431.47H301.116C301.116 430.274 300.139 429.282 298.902 429.224V421.816C300.196 421.816 301.231 420.824 301.231 419.57ZM313.95 425.524C313.95 427.07 312.697 428.324 311.15 428.324C309.604 428.324 308.351 427.07 308.351 425.524C308.351 423.978 309.604 422.724 311.15 422.724C312.697 422.724 313.95 423.978 313.95 425.524ZM318.151 426.567C318.731 426.567 319.201 426.097 319.201 425.517C319.201 424.937 318.731 424.467 318.151 424.467C317.571 424.467 317.101 424.937 317.101 425.517C317.101 426.097 317.571 426.567 318.151 426.567ZM305.202 425.517C305.202 426.097 304.732 426.567 304.152 426.567C303.572 426.567 303.102 426.097 303.102 425.517C303.102 424.937 303.572 424.467 304.152 424.467C304.732 424.467 305.202 424.937 305.202 425.517Z" fill="#81CB2F"/>
<rect x="293.652" y="421.336" width="27.9986" height="15.3992" fill="#3E9F28"/>
<path fill-rule="evenodd" clip-rule="evenodd" d="M297.728 423.082H317.568C317.568 424.336 318.603 425.328 319.897 425.328V432.736C318.603 432.736 317.568 433.727 317.568 434.981H297.613C297.613 433.786 296.635 432.794 295.398 432.736V425.328C296.692 425.328 297.728 424.336 297.728 423.082ZM310.447 429.036C310.447 430.582 309.193 431.836 307.647 431.836C306.101 431.836 304.847 430.582 304.847 429.036C304.847 427.489 306.101 426.236 307.647 426.236C309.193 426.236 310.447 427.489 310.447 429.036ZM314.65 430.079C315.23 430.079 315.7 429.609 315.7 429.029C315.7 428.449 315.23 427.979 314.65 427.979C314.07 427.979 313.6 428.449 313.6 429.029C313.6 429.609 314.07 430.079 314.65 430.079ZM301.7 429.029C301.7 429.609 301.23 430.079 300.65 430.079C300.071 430.079 299.6 429.609 299.6 429.029C299.6 428.449 300.071 427.979 300.65 427.979C301.23 427.979 301.7 428.449 301.7 429.029Z" fill="#81CB2F"/>
<rect x="290.152" y="424.828" width="27.9986" height="15.3992" fill="#3E9F28"/>
<path fill-rule="evenodd" clip-rule="evenodd" d="M294.231 426.586H314.072C314.072 427.84 315.107 428.832 316.401 428.832V436.24C315.107 436.24 314.072 437.231 314.072 438.485H294.116C294.116 437.29 293.139 436.298 291.902 436.24V428.832C293.196 428.832 294.231 427.84 294.231 426.586ZM306.95 432.54C306.95 434.086 305.697 435.34 304.15 435.34C302.604 435.34 301.351 434.086 301.351 432.54C301.351 430.993 302.604 429.74 304.15 429.74C305.697 429.74 306.95 430.993 306.95 432.54ZM311.501 433.587C312.081 433.587 312.551 433.117 312.551 432.537C312.551 431.957 312.081 431.487 311.501 431.487C310.921 431.487 310.451 431.957 310.451 432.537C310.451 433.117 310.921 433.587 311.501 433.587ZM297.85 432.537C297.85 433.117 297.38 433.587 296.8 433.587C296.22 433.587 295.75 433.117 295.75 432.537C295.75 431.957 296.22 431.487 296.8 431.487C297.38 431.487 297.85 431.957 297.85 432.537Z" fill="#81CB2F"/>
<rect x="291.73" y="495.34" width="30.4485" height="20.649" fill="#F4EBDE" stroke="#E0D0B7" stroke-width="1.74991"/>
<rect x="295.055" y="510.918" width="9.79952" height="1.74991" fill="#389822"/>
<rect x="300.652" y="503.566" width="12.5994" height="1.74991" fill="#ADA79D"/>
<rect x="296.453" y="500.07" width="20.999" height="1.74991" fill="#ADA79D"/>
<path d="M314.652 513.371H324.452V524.571L319.552 521.071L314.652 524.571V513.371Z" fill="#81CB2F"/>
<circle cx="319.554" cy="510.569" r="5.42474" fill="#81CB2F" stroke="#389822" stroke-width="1.74991"/>
<path d="M221.766 446.398C222.359 444.529 221.505 442.853 219.771 441.997C217.726 440.988 215.472 441.728 214.259 444.275C213.048 446.818 213.852 449.073 215.916 450.091C217.777 451.01 219.588 450.407 220.522 449.01L219.097 448.297C218.477 449.132 217.481 449.282 216.545 448.82C215.276 448.194 214.823 446.787 215.684 444.978C216.531 443.201 217.903 442.657 219.183 443.289C220.135 443.759 220.622 444.669 220.337 445.693L221.766 446.398Z" fill="#323847"/>
<path d="M223.341 453.569C224.735 454.19 225.987 453.932 226.685 452.998L225.434 452.263C225.024 452.687 224.443 452.745 223.835 452.474C222.925 452.068 222.581 451.196 223.012 450.162L227.176 452.018L227.363 451.583C228.271 449.473 227.409 447.983 225.937 447.328C224.225 446.564 222.564 447.331 221.766 449.187C220.954 451.073 221.539 452.766 223.341 453.569ZM223.426 449.208C223.799 448.46 224.641 448.066 225.482 448.44C226.292 448.801 226.581 449.639 226.237 450.461L223.426 449.208Z" fill="#323847"/>
<path d="M227.471 455.218L228.898 455.804L230.316 452.227C230.622 451.455 231.418 451.146 232.203 451.469C232.443 451.567 232.725 451.734 232.832 451.824L233.355 450.505C233.234 450.427 233.016 450.319 232.858 450.254C232.164 449.969 231.428 450.128 230.928 450.742L230.865 450.716L231.267 449.702L229.883 449.134L227.471 455.218Z" fill="#323847"/>
<path d="M237.444 452.133L236.239 451.67L236.783 450.199L235.343 449.647L234.799 451.117L233.931 450.784L233.517 451.903L234.384 452.236L233.121 455.649C232.685 456.801 233.31 457.689 234.404 458.072C234.818 458.217 235.131 458.246 235.305 458.254L235.481 457.029C235.394 457.019 235.218 456.992 235.039 456.924C234.677 456.785 234.433 456.545 234.65 455.962L235.824 452.789L237.03 453.252L237.444 452.133Z" fill="#323847"/>
<path d="M236.621 458.795L238.072 459.32L240.228 453.139L238.777 452.615L236.621 458.795ZM239.812 452.002C240.273 452.168 240.773 451.95 240.925 451.516C241.078 451.077 240.825 450.587 240.364 450.42C239.899 450.252 239.399 450.47 239.246 450.909C239.094 451.343 239.347 451.833 239.812 452.002Z" fill="#323847"/>
<path d="M244.987 454.782L243.7 454.345L243.861 453.855C244.02 453.369 244.311 453.166 244.856 453.351C245.086 453.429 245.262 453.548 245.371 453.625L246.037 452.591C245.869 452.462 245.488 452.216 244.983 452.044C243.906 451.678 242.844 452.006 242.432 453.261L242.24 453.848L241.324 453.537L240.952 454.671L241.868 454.982L240.201 460.068L241.661 460.564L243.329 455.478L244.616 455.916L244.987 454.782Z" fill="#323847"/>
<path d="M244.323 461.438L245.793 461.906L247.714 455.649L246.244 455.181L244.323 461.438ZM247.256 454.528C247.723 454.677 248.215 454.44 248.35 454C248.486 453.556 248.214 453.076 247.747 452.927C247.276 452.777 246.785 453.014 246.648 453.459C246.513 453.898 246.785 454.378 247.256 454.528Z" fill="#323847"/>
<path d="M250.258 463.383C251.837 463.842 253.107 463.195 253.589 461.889L252.173 461.477C251.856 462.117 251.26 462.365 250.61 462.176C249.685 461.907 249.305 460.958 249.666 459.67C250.023 458.398 250.847 457.812 251.76 458.077C252.472 458.284 252.78 458.871 252.725 459.512L254.14 459.923C254.422 458.527 253.61 457.319 252.075 456.873C250.234 456.338 248.698 457.333 248.158 459.258C247.622 461.166 248.38 462.837 250.258 463.383Z" fill="#323847"/>
<path d="M256.215 465.016C257.21 465.269 257.92 464.953 258.323 464.488L258.373 464.501L258.159 465.374L259.596 465.74L260.639 461.485C261.052 459.805 259.809 458.952 258.598 458.645C257.264 458.305 256.094 458.641 255.479 459.716L256.827 460.269C257.082 459.873 257.594 459.607 258.325 459.793C259.019 459.97 259.312 460.422 259.159 461.047L259.153 461.072C259.047 461.502 258.592 461.408 257.443 461.244C256.18 461.064 254.912 461.133 254.561 462.565C254.255 463.814 255.005 464.709 256.215 465.016ZM256.873 464.014C256.25 463.856 255.874 463.457 256.009 462.906C256.15 462.331 256.708 462.218 257.401 462.293C257.806 462.339 258.615 462.439 258.848 462.331L258.664 463.08C258.491 463.788 257.774 464.243 256.873 464.014Z" fill="#323847"/>
<path d="M265.868 460.442L264.608 460.16L264.94 458.627L263.435 458.29L263.103 459.822L262.197 459.619L261.944 460.785L262.851 460.989L262.082 464.546C261.813 465.747 262.558 466.535 263.696 466.755C264.127 466.838 264.441 466.821 264.615 466.803L264.616 465.568C264.528 465.57 264.35 465.569 264.163 465.527C263.784 465.442 263.509 465.241 263.641 464.633L264.356 461.326L265.616 461.608L265.868 460.442Z" fill="#323847"/>
<path d="M268.827 467.846C270.325 468.136 271.491 467.603 271.968 466.536L270.584 466.103C270.277 466.608 269.722 466.795 269.069 466.669C268.09 466.479 267.562 465.708 267.756 464.604L272.232 465.472L272.319 465.007C272.741 462.749 271.571 461.494 269.99 461.187C268.149 460.83 266.696 461.951 266.324 463.936C265.947 465.955 266.89 467.471 268.827 467.846ZM267.951 463.583C268.151 462.771 268.886 462.197 269.79 462.372C270.66 462.541 271.127 463.291 270.972 464.168L267.951 463.583Z" fill="#323847"/>
<path d="M279.053 464.577C279.01 463.448 278.242 462.61 276.727 462.369C275.17 462.122 273.992 462.72 273.813 463.917C273.664 464.86 274.149 465.575 275.351 466.03L276.418 466.437C276.992 466.661 277.233 466.946 277.176 467.312C277.109 467.754 276.578 468.011 275.854 467.896C275.155 467.785 274.747 467.409 274.706 466.807L273.198 466.714C273.206 467.932 274.095 468.794 275.682 469.046C277.298 469.303 278.567 468.646 278.759 467.421C278.896 466.498 278.389 465.839 277.21 465.38L276.143 464.969C275.509 464.717 275.283 464.448 275.345 464.074C275.408 463.635 275.938 463.409 276.574 463.51C277.277 463.622 277.588 464.064 277.641 464.508L279.053 464.577Z" fill="#323847"/>
<path d="M284.977 470.309C285.998 470.421 286.658 470.009 286.996 469.493L287.046 469.498L286.952 470.392L288.426 470.553L288.886 466.197C289.068 464.476 287.72 463.806 286.479 463.67C285.111 463.521 283.996 464.016 283.531 465.166L284.942 465.526C285.141 465.097 285.614 464.763 286.363 464.845C287.075 464.923 287.426 465.33 287.359 465.97L287.356 465.995C287.31 466.436 286.846 466.407 285.685 466.404C284.408 466.402 283.161 466.647 283.006 468.113C282.871 469.393 283.736 470.173 284.977 470.309ZM285.494 469.225C284.854 469.155 284.428 468.813 284.487 468.249C284.549 467.66 285.088 467.471 285.784 467.448C286.193 467.437 287.008 467.423 287.224 467.284L287.143 468.051C287.067 468.776 286.418 469.326 285.494 469.225Z" fill="#323847"/>
<path d="M290.158 470.699L291.696 470.823L291.992 466.986C292.056 466.158 292.726 465.621 293.571 465.689C293.831 465.71 294.15 465.782 294.278 465.835L294.388 464.421C294.249 464.384 294.009 464.348 293.839 464.334C293.091 464.274 292.434 464.649 292.137 465.386L292.069 465.381L292.154 464.293L290.663 464.173L290.158 470.699Z" fill="#323847"/>
<path d="M298.046 471.362C299.569 471.439 300.652 470.747 300.98 469.624L299.549 469.39C299.314 469.932 298.789 470.196 298.125 470.163C297.129 470.112 296.502 469.424 296.543 468.304L301.097 468.533L301.12 468.061C301.232 465.767 299.902 464.688 298.293 464.607C296.421 464.513 295.132 465.826 295.034 467.844C294.934 469.895 296.075 471.262 298.046 471.362ZM296.598 467.265C296.685 466.433 297.337 465.762 298.256 465.809C299.141 465.853 299.706 466.53 299.671 467.42L296.598 467.265Z" fill="#323847"/>
<path d="M308.995 464.951L307.704 464.943L307.713 463.375L306.17 463.366L306.161 464.934L305.232 464.929L305.226 466.122L306.155 466.127L306.134 469.767C306.119 470.998 307.01 471.608 308.17 471.581C308.609 471.571 308.912 471.487 309.078 471.433L308.825 470.225C308.74 470.246 308.565 470.284 308.373 470.282C307.985 470.28 307.675 470.142 307.678 469.52L307.697 466.136L308.989 466.144L308.995 464.951Z" fill="#323847"/>
<path d="M310.497 471.484L312.04 471.457L311.974 467.609C311.96 466.779 312.576 466.18 313.424 466.165C313.684 466.16 314.009 466.201 314.141 466.241L314.117 464.823C313.976 464.799 313.733 464.787 313.563 464.79C312.813 464.803 312.194 465.24 311.968 466.003L311.9 466.004L311.881 464.913L310.386 464.94L310.497 471.484Z" fill="#323847"/>
<path d="M317.399 471.428C318.425 471.381 319.016 470.871 319.273 470.309L319.324 470.306L319.364 471.204L320.846 471.135L320.648 466.759C320.57 465.031 319.138 464.577 317.891 464.635C316.516 464.7 315.488 465.362 315.201 466.57L316.649 466.707C316.782 466.253 317.199 465.849 317.952 465.814C318.668 465.781 319.076 466.129 319.105 466.771L319.106 466.797C319.126 467.24 318.663 467.283 317.515 467.46C316.252 467.655 315.056 468.091 315.123 469.564C315.181 470.85 316.152 471.487 317.399 471.428ZM317.748 470.277C317.106 470.307 316.633 470.035 316.607 469.469C316.58 468.877 317.084 468.606 317.77 468.476C318.171 468.402 318.976 468.262 319.168 468.091L319.203 468.861C319.236 469.589 318.676 470.234 317.748 470.277Z" fill="#323847"/>
<path d="M325.02 470.941C326.141 470.848 326.593 470.14 326.798 469.644L326.891 469.636L326.973 470.664L328.485 470.54L327.792 461.84L326.25 461.967L326.51 465.221L326.446 465.226C326.175 464.774 325.64 464.121 324.489 464.216C322.981 464.34 321.89 465.619 322.063 467.794C322.234 469.943 323.482 471.068 325.02 470.941ZM325.348 469.644C324.333 469.728 323.727 468.88 323.63 467.656C323.533 466.441 323.99 465.527 325.014 465.443C326.003 465.361 326.612 466.136 326.713 467.402C326.814 468.668 326.329 469.563 325.348 469.644Z" fill="#323847"/>
<path d="M333.225 470.136C334.74 469.955 335.696 469.09 335.836 467.928L334.388 467.937C334.244 468.512 333.769 468.861 333.109 468.939C332.119 469.057 331.388 468.483 331.247 467.371L335.775 466.832L335.721 466.362C335.459 464.08 333.972 463.24 332.373 463.431C330.511 463.653 329.454 465.165 329.684 467.171C329.919 469.212 331.266 470.369 333.225 470.136ZM331.133 466.338C331.084 465.503 331.617 464.731 332.531 464.622C333.411 464.517 334.078 465.09 334.188 465.974L331.133 466.338Z" fill="#323847"/>
<path d="M340.033 469.194C341.145 469.021 341.546 468.281 341.715 467.772L341.808 467.757L341.961 468.777L343.46 468.543L342.161 459.913L340.633 460.152L341.119 463.38L341.056 463.389C340.754 462.958 340.174 462.345 339.033 462.523C337.539 462.756 336.54 464.111 336.865 466.269C337.186 468.401 338.509 469.432 340.033 469.194ZM340.27 467.877C339.264 468.034 338.6 467.231 338.418 466.018C338.236 464.813 338.628 463.867 339.643 463.709C340.624 463.556 341.285 464.285 341.474 465.541C341.663 466.797 341.243 467.725 340.27 467.877Z" fill="#323847"/>
<path d="M350.441 460.532L349.109 460.802L349.01 460.296C348.912 459.795 349.066 459.472 349.629 459.358C349.867 459.309 350.079 459.323 350.211 459.335L350.287 458.102C350.077 458.075 349.626 458.054 349.104 458.16C347.989 458.386 347.225 459.206 347.478 460.503L347.597 461.109L346.649 461.302L346.879 462.472L347.827 462.28L348.855 467.533L350.367 467.226L349.338 461.973L350.671 461.703L350.441 460.532Z" fill="#323847"/>
<path d="M355.935 466.137C357.803 465.701 358.692 464.105 358.247 462.131C357.8 460.152 356.315 459.108 354.448 459.544C352.581 459.981 351.692 461.58 352.139 463.559C352.584 465.533 354.068 466.574 355.935 466.137ZM355.672 464.93C354.638 465.171 353.924 464.367 353.661 463.199C353.397 462.03 353.692 460.977 354.726 460.735C355.742 460.498 356.459 461.315 356.723 462.483C356.986 463.651 356.688 464.692 355.672 464.93Z" fill="#323847"/>
<path d="M360.448 464.905L361.939 464.509L360.984 460.782C360.778 459.977 361.237 459.246 362.057 459.029C362.308 458.962 362.633 458.924 362.771 458.931L362.419 457.557C362.276 457.568 362.037 457.614 361.873 457.658C361.148 457.85 360.648 458.424 360.606 459.22L360.54 459.237L360.269 458.181L358.823 458.565L360.448 464.905Z" fill="#323847"/>
<path d="M368.419 462.737L369.887 462.262L368.7 458.463C368.459 457.694 368.807 457.008 369.44 456.803C370.06 456.602 370.617 456.883 370.818 457.526L372.076 461.553L373.515 461.087L372.297 457.19C372.078 456.487 372.343 455.863 373.052 455.634C373.644 455.442 374.224 455.639 374.465 456.412L375.704 460.378L377.176 459.901L375.866 455.708C375.43 454.313 374.396 453.832 373.252 454.203C372.348 454.495 371.799 455.166 371.74 455.951L371.676 455.972C371.215 455.341 370.475 455.102 369.636 455.374C368.801 455.644 368.311 456.277 368.274 457.073L368.201 457.097L367.87 456.035L366.467 456.489L368.419 462.737Z" fill="#323847"/>
<path d="M381.532 458.412C383.328 457.741 384.012 456.044 383.326 454.139C382.639 452.231 381.038 451.382 379.241 452.053C377.445 452.724 376.762 454.425 377.45 456.333C378.136 458.238 379.735 459.082 381.532 458.412ZM381.121 457.246C380.127 457.617 379.319 456.909 378.913 455.782C378.507 454.656 378.669 453.572 379.664 453.201C380.642 452.836 381.454 453.556 381.859 454.682C382.265 455.809 382.099 456.881 381.121 457.246Z" fill="#323847"/>
<path d="M385.871 452.47C385.52 451.592 385.844 450.867 386.596 450.555C387.332 450.25 387.968 450.553 388.292 451.364L389.753 455.012L391.177 454.421L389.629 450.552C389.05 449.094 387.89 448.606 386.643 449.124C385.737 449.499 385.29 450.193 385.285 450.983L385.214 451.013L384.801 449.98L383.439 450.545L385.872 456.622L387.296 456.031L385.871 452.47Z" fill="#323847"/>
<path d="M395.524 452.613C396.911 451.979 397.564 450.861 397.353 449.707L395.977 450.157C396.011 450.751 395.663 451.229 395.058 451.505C394.151 451.919 393.286 451.594 392.822 450.573L396.969 448.678L396.778 448.245C395.851 446.144 394.188 445.794 392.723 446.463C391.018 447.243 390.461 449.01 391.276 450.858C392.104 452.738 393.729 453.434 395.524 452.613ZM392.406 449.62C392.112 448.837 392.39 447.936 393.227 447.554C394.033 447.185 394.837 447.53 395.204 448.341L392.406 449.62Z" fill="#323847"/>
<path d="M401.439 452.403C402.515 451.866 402.868 450.999 402.746 449.893L401.917 442.115L400.437 442.845L401.23 447.974L401.169 448.004L397.673 444.225L396.21 444.956L401.234 449.915L401.269 450.293C401.337 451.092 400.955 451.34 400.268 451.464L400.469 452.707C400.693 452.69 401.062 452.592 401.439 452.403Z" fill="#323847"/>
</g>
<defs>
<clipPath id="clip0">
<rect width="614" height="560" fill="white"/>
</clipPath>
</defs>
</svg>
